<?xml version="1.0" encoding="UTF-8" standalone="no"?>
<!DOCTYPE svg PUBLIC "-//W3C//DTD SVG 1.1//EN"
 "http://www.w3.org/Graphics/SVG/1.1/DTD/svg11.dtd">
<!-- Generated by graphviz version 2.38.0 (20140413.2041)
 -->
<!-- Title: Modules/MFT/src/BasicClusterQcTask.cxx Pages: 1 -->
<svg width="1477pt" height="330pt"
 viewBox="0.00 0.00 1477.00 330.00" xmlns="http://www.w3.org/2000/svg" xmlns:xlink="http://www.w3.org/1999/xlink">
<g id="graph0" class="graph" transform="scale(1 1) rotate(0) translate(4 326)">
<title>Modules/MFT/src/BasicClusterQcTask.cxx</title>
<!-- Node1 -->
<g id="node1" class="node"><title>Node1</title>
<polygon fill="#bfbfbf" stroke="black" points="145.5,-291.5 145.5,-321.5 297.5,-321.5 297.5,-291.5 145.5,-291.5"/>
<text text-anchor="start" x="153.5" y="-309.5" font-family="Helvetica,sans-Serif" font-size="10.00">Modules/MFT/src/BasicCluster</text>
<text text-anchor="middle" x="221.5" y="-298.5" font-family="Helvetica,sans-Serif" font-size="10.00">QcTask.cxx</text>
</g>
<!-- Node2 -->
<g id="node2" class="node"><title>Node2</title>
<polygon fill="none" stroke="#bfbfbf" points="0,-235.5 0,-254.5 65,-254.5 65,-235.5 0,-235.5"/>
<text text-anchor="middle" x="32.5" y="-242.5" font-family="Helvetica,sans-Serif" font-size="10.00">TCanvas.h</text>
</g>
<!-- Node1&#45;&gt;Node2 -->
<g id="edge1" class="edge"><title>Node1&#45;&gt;Node2</title>
<path fill="none" stroke="midnightblue" d="M176.71,-291.399C144.051,-281.118 100.32,-267.351 69.607,-257.682"/>
<polygon fill="midnightblue" stroke="midnightblue" points="70.3148,-254.235 59.7253,-254.571 68.2128,-260.912 70.3148,-254.235"/>
</g>
<!-- Node3 -->
<g id="node3" class="node"><title>Node3</title>
<polygon fill="none" stroke="#bfbfbf" points="83.5,-235.5 83.5,-254.5 127.5,-254.5 127.5,-235.5 83.5,-235.5"/>
<text text-anchor="middle" x="105.5" y="-242.5" font-family="Helvetica,sans-Serif" font-size="10.00">TH1.h</text>
</g>
<!-- Node1&#45;&gt;Node3 -->
<g id="edge2" class="edge"><title>Node1&#45;&gt;Node3</title>
<path fill="none" stroke="midnightblue" d="M194.01,-291.399C175.068,-281.684 150.058,-268.855 131.456,-259.314"/>
<polygon fill="midnightblue" stroke="midnightblue" points="132.874,-256.108 122.379,-254.658 129.679,-262.336 132.874,-256.108"/>
</g>
<!-- Node4 -->
<g id="node4" class="node"><title>Node4</title>
<polygon fill="none" stroke="#bfbfbf" points="145.5,-235.5 145.5,-254.5 297.5,-254.5 297.5,-235.5 145.5,-235.5"/>
<text text-anchor="middle" x="221.5" y="-242.5" font-family="Helvetica,sans-Serif" font-size="10.00">DataFormatsITSMFT/Cluster.h</text>
</g>
<!-- Node1&#45;&gt;Node4 -->
<g id="edge3" class="edge"><title>Node1&#45;&gt;Node4</title>
<path fill="none" stroke="midnightblue" d="M221.5,-291.399C221.5,-283.466 221.5,-273.458 221.5,-264.858"/>
<polygon fill="midnightblue" stroke="midnightblue" points="225,-264.658 221.5,-254.658 218,-264.658 225,-264.658"/>
</g>
<!-- Node5 -->
<g id="node5" class="node"><title>Node5</title>
<g id="a_node5"><a xlink:href="QcInfoLogger_8h.html" target="_top" xlink:title="QualityControl/QcInfoLogger.h">
<polygon fill="none" stroke="black" points="167,-123.5 167,-142.5 316,-142.5 316,-123.5 167,-123.5"/>
<text text-anchor="middle" x="241.5" y="-130.5" font-family="Helvetica,sans-Serif" font-size="10.00">QualityControl/QcInfoLogger.h</text>
</a>
</g>
</g>
<!-- Node1&#45;&gt;Node5 -->
<g id="edge4" class="edge"><title>Node1&#45;&gt;Node5</title>
<path fill="none" stroke="midnightblue" d="M262.902,-291.401C279.534,-283.463 296.992,-271.709 306.5,-255 327.891,-217.41 286.345,-172.348 260.305,-149.27"/>
<polygon fill="midnightblue" stroke="midnightblue" points="262.368,-146.429 252.494,-142.587 257.817,-151.748 262.368,-146.429"/>
</g>
<!-- Node8 -->
<g id="node8" class="node"><title>Node8</title>
<g id="a_node8"><a xlink:href="BasicClusterQcTask_8h.html" target="_top" xlink:title="MFT/BasicClusterQcTask.h">
<polygon fill="none" stroke="black" points="443,-235.5 443,-254.5 582,-254.5 582,-235.5 443,-235.5"/>
<text text-anchor="middle" x="512.5" y="-242.5" font-family="Helvetica,sans-Serif" font-size="10.00">MFT/BasicClusterQcTask.h</text>
</a>
</g>
</g>
<!-- Node1&#45;&gt;Node8 -->
<g id="edge7" class="edge"><title>Node1&#45;&gt;Node8</title>
<path fill="none" stroke="midnightblue" d="M290.094,-291.475C342.381,-280.784 413.261,-266.291 460.821,-256.567"/>
<polygon fill="midnightblue" stroke="midnightblue" points="461.801,-259.939 470.897,-254.506 460.399,-253.081 461.801,-259.939"/>
</g>
<!-- Node6 -->
<g id="node6" class="node"><title>Node6</title>
<polygon fill="none" stroke="#bfbfbf" points="9.5,-62 9.5,-81 139.5,-81 139.5,-62 9.5,-62"/>
<text text-anchor="middle" x="74.5" y="-69" font-family="Helvetica,sans-Serif" font-size="10.00">InfoLogger/InfoLogger.hxx</text>
</g>
<!-- Node5&#45;&gt;Node6 -->
<g id="edge5" class="edge"><title>Node5&#45;&gt;Node6</title>
<path fill="none" stroke="midnightblue" d="M217.573,-123.475C188.803,-113.225 140.344,-95.9593 107.898,-84.3994"/>
<polygon fill="midnightblue" stroke="midnightblue" points="108.977,-81.0684 98.3826,-81.0091 106.628,-87.6624 108.977,-81.0684"/>
</g>
<!-- Node7 -->
<g id="node7" class="node"><title>Node7</title>
<polygon fill="none" stroke="#bfbfbf" points="157.5,-62 157.5,-81 319.5,-81 319.5,-62 157.5,-62"/>
<text text-anchor="middle" x="238.5" y="-69" font-family="Helvetica,sans-Serif" font-size="10.00">InfoLogger/InfoLoggerMacros.hxx</text>
</g>
<!-- Node5&#45;&gt;Node7 -->
<g id="edge6" class="edge"><title>Node5&#45;&gt;Node7</title>
<path fill="none" stroke="midnightblue" d="M241.07,-123.475C240.647,-115.08 239.986,-101.981 239.441,-91.1631"/>
<polygon fill="midnightblue" stroke="midnightblue" points="242.928,-90.8201 238.929,-81.0091 235.937,-91.1727 242.928,-90.8201"/>
</g>
<!-- Node9 -->
<g id="node9" class="node"><title>Node9</title>
<g id="a_node9"><a xlink:href="TaskInterface_8h.html" target="_top" xlink:title="QualityControl/TaskInterface.h">
<polygon fill="none" stroke="black" points="439.5,-179.5 439.5,-198.5 589.5,-198.5 589.5,-179.5 439.5,-179.5"/>
<text text-anchor="middle" x="514.5" y="-186.5" font-family="Helvetica,sans-Serif" font-size="10.00">QualityControl/TaskInterface.h</text>
</a>
</g>
</g>
<!-- Node8&#45;&gt;Node9 -->
<g id="edge8" class="edge"><title>Node8&#45;&gt;Node9</title>
<path fill="none" stroke="midnightblue" d="M512.83,-235.083C513.092,-228.006 513.468,-217.861 513.797,-208.986"/>
<polygon fill="midnightblue" stroke="midnightblue" points="517.303,-208.874 514.176,-198.751 510.308,-208.615 517.303,-208.874"/>
</g>
<!-- Node9&#45;&gt;Node5 -->
<g id="edge32" class="edge"><title>Node9&#45;&gt;Node5</title>
<path fill="none" stroke="midnightblue" d="M471.242,-179.444C423.319,-169.964 346.022,-154.675 294.5,-144.483"/>
<polygon fill="midnightblue" stroke="midnightblue" points="295.044,-141.023 284.555,-142.516 293.686,-147.89 295.044,-141.023"/>
</g>
<!-- Node10 -->
<g id="node10" class="node"><title>Node10</title>
<polygon fill="none" stroke="#bfbfbf" points="1200,-0.5 1200,-19.5 1235,-19.5 1235,-0.5 1200,-0.5"/>
<text text-anchor="middle" x="1217.5" y="-7.5" font-family="Helvetica,sans-Serif" font-size="10.00">map</text>
</g>
<!-- Node9&#45;&gt;Node10 -->
<g id="edge9" class="edge"><title>Node9&#45;&gt;Node10</title>
<path fill="none" stroke="midnightblue" d="M589.573,-188.286C757.977,-188.195 1154.61,-183.621 1198.5,-143 1229.7,-114.121 1225.92,-58.7574 1221.28,-29.7612"/>
<polygon fill="midnightblue" stroke="midnightblue" points="1224.69,-28.9509 1219.47,-19.7315 1217.81,-30.1942 1224.69,-28.9509"/>
</g>
<!-- Node11 -->
<g id="node11" class="node"><title>Node11</title>
<polygon fill="none" stroke="#bfbfbf" points="574.5,-62 574.5,-81 626.5,-81 626.5,-62 574.5,-62"/>
<text text-anchor="middle" x="600.5" y="-69" font-family="Helvetica,sans-Serif" font-size="10.00">memory</text>
</g>
<!-- Node9&#45;&gt;Node11 -->
<g id="edge10" class="edge"><title>Node9&#45;&gt;Node11</title>
<path fill="none" stroke="midnightblue" d="M492.041,-179.499C465.328,-168.083 426.373,-146.5 443.5,-123 470.897,-85.4075 526.752,-75.1904 563.91,-72.7429"/>
<polygon fill="midnightblue" stroke="midnightblue" points="564.508,-76.2176 574.322,-72.2263 564.161,-69.2262 564.508,-76.2176"/>
</g>
<!-- Node12 -->
<g id="node12" class="node"><title>Node12</title>
<polygon fill="none" stroke="#bfbfbf" points="855,-0.5 855,-19.5 896,-19.5 896,-0.5 855,-0.5"/>
<text text-anchor="middle" x="875.5" y="-7.5" font-family="Helvetica,sans-Serif" font-size="10.00">string</text>
</g>
<!-- Node9&#45;&gt;Node12 -->
<g id="edge11" class="edge"><title>Node9&#45;&gt;Node12</title>
<path fill="none" stroke="midnightblue" d="M487.336,-179.425C458.402,-168.744 418.764,-148.722 434.5,-123 468.626,-67.2153 503.191,-75.8535 565.5,-56 664.319,-24.5132 787.944,-14.9658 844.576,-12.1439"/>
<polygon fill="midnightblue" stroke="midnightblue" points="844.838,-15.6356 854.666,-11.678 844.515,-8.64306 844.838,-15.6356"/>
</g>
<!-- Node13 -->
<g id="node13" class="node"><title>Node13</title>
<polygon fill="none" stroke="#bfbfbf" points="530,-0.5 530,-19.5 613,-19.5 613,-0.5 530,-0.5"/>
<text text-anchor="middle" x="571.5" y="-7.5" font-family="Helvetica,sans-Serif" font-size="10.00">unordered_map</text>
</g>
<!-- Node9&#45;&gt;Node13 -->
<g id="edge12" class="edge"><title>Node9&#45;&gt;Node13</title>
<path fill="none" stroke="midnightblue" d="M439.312,-182.153C413.604,-176.12 387.358,-164.614 371.5,-143 348.627,-111.824 347.345,-86.1936 371.5,-56 389.738,-33.2024 466.742,-21.1433 519.699,-15.422"/>
<polygon fill="midnightblue" stroke="midnightblue" points="520.359,-18.8724 529.946,-14.3609 519.638,-11.9097 520.359,-18.8724"/>
</g>
<!-- Node14 -->
<g id="node14" class="node"><title>Node14</title>
<polygon fill="none" stroke="#bfbfbf" points="452,-123.5 452,-142.5 577,-142.5 577,-123.5 452,-123.5"/>
<text text-anchor="middle" x="514.5" y="-130.5" font-family="Helvetica,sans-Serif" font-size="10.00">Framework/InitContext.h</text>
</g>
<!-- Node9&#45;&gt;Node14 -->
<g id="edge13" class="edge"><title>Node9&#45;&gt;Node14</title>
<path fill="none" stroke="midnightblue" d="M514.5,-179.083C514.5,-172.006 514.5,-161.861 514.5,-152.986"/>
<polygon fill="midnightblue" stroke="midnightblue" points="518,-152.751 514.5,-142.751 511,-152.751 518,-152.751"/>
</g>
<!-- Node15 -->
<g id="node15" class="node"><title>Node15</title>
<polygon fill="none" stroke="#bfbfbf" points="595.5,-123.5 595.5,-142.5 755.5,-142.5 755.5,-123.5 595.5,-123.5"/>
<text text-anchor="middle" x="675.5" y="-130.5" font-family="Helvetica,sans-Serif" font-size="10.00">Framework/ProcessingContext.h</text>
</g>
<!-- Node9&#45;&gt;Node15 -->
<g id="edge14" class="edge"><title>Node9&#45;&gt;Node15</title>
<path fill="none" stroke="midnightblue" d="M540.011,-179.444C567.096,-170.359 610.09,-155.939 640.369,-145.783"/>
<polygon fill="midnightblue" stroke="midnightblue" points="641.74,-149.015 650.108,-142.516 639.514,-142.378 641.74,-149.015"/>
</g>
<!-- Node16 -->
<g id="node16" class="node"><title>Node16</title>
<polygon fill="none" stroke="#bfbfbf" points="774,-123.5 774,-142.5 869,-142.5 869,-123.5 774,-123.5"/>
<text text-anchor="middle" x="821.5" y="-130.5" font-family="Helvetica,sans-Serif" font-size="10.00">CCDB/CcdbApi.h</text>
</g>
<!-- Node9&#45;&gt;Node16 -->
<g id="edge15" class="edge"><title>Node9&#45;&gt;Node16</title>
<path fill="none" stroke="midnightblue" d="M563.145,-179.444C617.613,-169.863 705.822,-154.347 763.748,-144.158"/>
<polygon fill="midnightblue" stroke="midnightblue" points="764.597,-147.563 773.84,-142.383 763.385,-140.669 764.597,-147.563"/>
</g>
<!-- Node17 -->
<g id="node17" class="node"><title>Node17</title>
<g id="a_node17"><a xlink:href="Activity_8h.html" target="_top" xlink:title="QualityControl/Activity.h">
<polygon fill="none" stroke="black" points="887,-123.5 887,-142.5 1010,-142.5 1010,-123.5 887,-123.5"/>
<text text-anchor="middle" x="948.5" y="-130.5" font-family="Helvetica,sans-Serif" font-size="10.00">QualityControl/Activity.h</text>
</a>
</g>
</g>
<!-- Node9&#45;&gt;Node17 -->
<g id="edge16" class="edge"><title>Node9&#45;&gt;Node17</title>
<path fill="none" stroke="midnightblue" d="M584.294,-179.474C655.358,-170.769 769.018,-156.784 876.608,-143.234"/>
<polygon fill="midnightblue" stroke="midnightblue" points="877.182,-146.69 886.666,-141.967 876.306,-139.745 877.182,-146.69"/>
</g>
<!-- Node18 -->
<g id="node18" class="node"><title>Node18</title>
<g id="a_node18"><a xlink:href="ObjectsManager_8h.html" target="_top" xlink:title="QualityControl/ObjectsManager.h">
<polygon fill="none" stroke="black" points="1028,-123.5 1028,-142.5 1189,-142.5 1189,-123.5 1028,-123.5"/>
<text text-anchor="middle" x="1108.5" y="-130.5" font-family="Helvetica,sans-Serif" font-size="10.00">QualityControl/ObjectsManager.h</text>
</a>
</g>
</g>
<!-- Node9&#45;&gt;Node18 -->
<g id="edge17" class="edge"><title>Node9&#45;&gt;Node18</title>
<path fill="none" stroke="midnightblue" d="M589.817,-181.57C686.407,-173.261 859.398,-158.168 1017.58,-143.174"/>
<polygon fill="midnightblue" stroke="midnightblue" points="1018.35,-146.616 1027.97,-142.186 1017.69,-139.648 1018.35,-146.616"/>
</g>
<!-- Node18&#45;&gt;Node11 -->
<g id="edge31" class="edge"><title>Node18&#45;&gt;Node11</title>
<path fill="none" stroke="midnightblue" d="M1035.72,-123.475C925.347,-110.548 719.728,-86.4647 636.68,-76.7376"/>
<polygon fill="midnightblue" stroke="midnightblue" points="637.053,-73.2574 626.714,-75.5703 636.238,-80.2099 637.053,-73.2574"/>
</g>
<!-- Node18&#45;&gt;Node12 -->
<g id="edge30" class="edge"><title>Node18&#45;&gt;Node12</title>
<path fill="none" stroke="midnightblue" d="M1090.41,-123.413C1071.79,-114.508 1041.96,-100.083 1016.5,-87 975.346,-65.8543 928.126,-40.0918 900.11,-24.6459"/>
<polygon fill="midnightblue" stroke="midnightblue" points="901.488,-21.4088 891.042,-19.6373 898.103,-27.5361 901.488,-21.4088"/>
</g>
<!-- Node19 -->
<g id="node19" class="node"><title>Node19</title>
<g id="a_node19"><a xlink:href="MonitorObject_8h.html" target="_top" xlink:title="QualityControl/MonitorObject.h">
<polygon fill="none" stroke="black" points="1025,-62 1025,-81 1176,-81 1176,-62 1025,-62"/>
<text text-anchor="middle" x="1100.5" y="-69" font-family="Helvetica,sans-Serif" font-size="10.00">QualityControl/MonitorObject.h</text>
</a>
</g>
</g>
<!-- Node18&#45;&gt;Node19 -->
<g id="edge18" class="edge"><title>Node18&#45;&gt;Node19</title>
<path fill="none" stroke="midnightblue" d="M1107.35,-123.475C1106.23,-115.08 1104.46,-101.981 1103.01,-91.1631"/>
<polygon fill="midnightblue" stroke="midnightblue" points="1106.45,-90.4535 1101.64,-81.0091 1099.51,-91.3863 1106.45,-90.4535"/>
</g>
<!-- Node23 -->
<g id="node23" class="node"><title>Node23</title>
<g id="a_node23"><a xlink:href="MonitorObjectCollection_8h.html" target="_top" xlink:title="QualityControl/MonitorObject\lCollection.h">
<polygon fill="none" stroke="black" points="1246,-56.5 1246,-86.5 1389,-86.5 1389,-56.5 1246,-56.5"/>
<text text-anchor="start" x="1254" y="-74.5" font-family="Helvetica,sans-Serif" font-size="10.00">QualityControl/MonitorObject</text>
<text text-anchor="middle" x="1317.5" y="-63.5" font-family="Helvetica,sans-Serif" font-size="10.00">Collection.h</text>
</a>
</g>
</g>
<!-- Node18&#45;&gt;Node23 -->
<g id="edge24" class="edge"><title>Node18&#45;&gt;Node23</title>
<path fill="none" stroke="midnightblue" d="M1138.44,-123.475C1169.66,-114.588 1219.4,-100.429 1258.54,-89.2859"/>
<polygon fill="midnightblue" stroke="midnightblue" points="1259.58,-92.6274 1268.24,-86.523 1257.67,-85.8949 1259.58,-92.6274"/>
</g>
<!-- Node26 -->
<g id="node26" class="node"><title>Node26</title>
<g id="a_node26"><a xlink:href="TaskConfig_8h.html" target="_top" xlink:title="QualityControl/TaskConfig.h">
<polygon fill="none" stroke="black" points="805.5,-62 805.5,-81 945.5,-81 945.5,-62 805.5,-62"/>
<text text-anchor="middle" x="875.5" y="-69" font-family="Helvetica,sans-Serif" font-size="10.00">QualityControl/TaskConfig.h</text>
</a>
</g>
</g>
<!-- Node18&#45;&gt;Node26 -->
<g id="edge27" class="edge"><title>Node18&#45;&gt;Node26</title>
<path fill="none" stroke="midnightblue" d="M1075.12,-123.475C1033.94,-112.959 963.85,-95.0615 918.631,-83.5142"/>
<polygon fill="midnightblue" stroke="midnightblue" points="919.376,-80.0922 908.821,-81.0091 917.644,-86.8746 919.376,-80.0922"/>
</g>
<!-- Node19&#45;&gt;Node10 -->
<g id="edge20" class="edge"><title>Node19&#45;&gt;Node10</title>
<path fill="none" stroke="midnightblue" d="M1117.26,-61.9751C1136.72,-52.078 1169.05,-35.6416 1191.71,-24.1151"/>
<polygon fill="midnightblue" stroke="midnightblue" points="1193.44,-27.1619 1200.77,-19.5091 1190.27,-20.9224 1193.44,-27.1619"/>
</g>
<!-- Node19&#45;&gt;Node12 -->
<g id="edge19" class="edge"><title>Node19&#45;&gt;Node12</title>
<path fill="none" stroke="midnightblue" d="M1065.87,-61.9556C1028.79,-52.7114 967.985,-37.2882 906.07,-20.0774"/>
<polygon fill="midnightblue" stroke="midnightblue" points="906.7,-16.6194 896.127,-17.3005 904.817,-23.3614 906.7,-16.6194"/>
</g>
<!-- Node20 -->
<g id="node20" class="node"><title>Node20</title>
<polygon fill="none" stroke="#bfbfbf" points="1125.5,-0.5 1125.5,-19.5 1181.5,-19.5 1181.5,-0.5 1125.5,-0.5"/>
<text text-anchor="middle" x="1153.5" y="-7.5" font-family="Helvetica,sans-Serif" font-size="10.00">Rtypes.h</text>
</g>
<!-- Node19&#45;&gt;Node20 -->
<g id="edge21" class="edge"><title>Node19&#45;&gt;Node20</title>
<path fill="none" stroke="midnightblue" d="M1108.09,-61.9751C1116.2,-52.8733 1129.23,-38.241 1139.26,-26.983"/>
<polygon fill="midnightblue" stroke="midnightblue" points="1141.88,-29.3043 1145.92,-19.5091 1136.66,-24.6483 1141.88,-29.3043"/>
</g>
<!-- Node21 -->
<g id="node21" class="node"><title>Node21</title>
<polygon fill="none" stroke="#bfbfbf" points="914,-0.5 914,-19.5 973,-19.5 973,-0.5 914,-0.5"/>
<text text-anchor="middle" x="943.5" y="-7.5" font-family="Helvetica,sans-Serif" font-size="10.00">TObject.h</text>
</g>
<!-- Node19&#45;&gt;Node21 -->
<g id="edge22" class="edge"><title>Node19&#45;&gt;Node21</title>
<path fill="none" stroke="midnightblue" d="M1078.01,-61.9751C1051.19,-51.8129 1006.18,-34.7564 975.691,-23.1996"/>
<polygon fill="midnightblue" stroke="midnightblue" points="976.544,-19.7801 965.953,-19.5091 974.063,-26.3258 976.544,-19.7801"/>
</g>
<!-- Node22 -->
<g id="node22" class="node"><title>Node22</title>
<polygon fill="none" stroke="#bfbfbf" points="991.5,-0.5 991.5,-19.5 1107.5,-19.5 1107.5,-0.5 991.5,-0.5"/>
<text text-anchor="middle" x="1049.5" y="-7.5" font-family="Helvetica,sans-Serif" font-size="10.00">Common/Exceptions.h</text>
</g>
<!-- Node19&#45;&gt;Node22 -->
<g id="edge23" class="edge"><title>Node19&#45;&gt;Node22</title>
<path fill="none" stroke="midnightblue" d="M1093.19,-61.9751C1085.47,-52.9617 1073.09,-38.5246 1063.48,-27.3118"/>
<polygon fill="midnightblue" stroke="midnightblue" points="1065.96,-24.8239 1056.79,-19.5091 1060.64,-29.3795 1065.96,-24.8239"/>
</g>
<!-- Node24 -->
<g id="node24" class="node"><title>Node24</title>
<polygon fill="none" stroke="#bfbfbf" points="1400,-0.5 1400,-19.5 1469,-19.5 1469,-0.5 1400,-0.5"/>
<text text-anchor="middle" x="1434.5" y="-7.5" font-family="Helvetica,sans-Serif" font-size="10.00">TObjArray.h</text>
</g>
<!-- Node23&#45;&gt;Node24 -->
<g id="edge25" class="edge"><title>Node23&#45;&gt;Node24</title>
<path fill="none" stroke="midnightblue" d="M1345.23,-56.3993C1364.33,-46.6837 1389.56,-33.8551 1408.32,-24.3137"/>
<polygon fill="midnightblue" stroke="midnightblue" points="1410.15,-27.3106 1417.48,-19.6578 1406.98,-21.071 1410.15,-27.3106"/>
</g>
<!-- Node25 -->
<g id="node25" class="node"><title>Node25</title>
<polygon fill="none" stroke="#bfbfbf" points="1253.5,-0.5 1253.5,-19.5 1381.5,-19.5 1381.5,-0.5 1253.5,-0.5"/>
<text text-anchor="middle" x="1317.5" y="-7.5" font-family="Helvetica,sans-Serif" font-size="10.00">Mergers/MergeInterface.h</text>
</g>
<!-- Node23&#45;&gt;Node25 -->
<g id="edge26" class="edge"><title>Node23&#45;&gt;Node25</title>
<path fill="none" stroke="midnightblue" d="M1317.5,-56.3993C1317.5,-48.4664 1317.5,-38.458 1317.5,-29.8583"/>
<polygon fill="midnightblue" stroke="midnightblue" points="1321,-29.6577 1317.5,-19.6578 1314,-29.6578 1321,-29.6577"/>
</g>
<!-- Node26&#45;&gt;Node12 -->
<g id="edge28" class="edge"><title>Node26&#45;&gt;Node12</title>
<path fill="none" stroke="midnightblue" d="M875.5,-61.9751C875.5,-53.5803 875.5,-40.4806 875.5,-29.6631"/>
<polygon fill="midnightblue" stroke="midnightblue" points="879,-29.5091 875.5,-19.5091 872,-29.5091 879,-29.5091"/>
</g>
<!-- Node26&#45;&gt;Node13 -->
<g id="edge29" class="edge"><title>Node26&#45;&gt;Node13</title>
<path fill="none" stroke="midnightblue" d="M831.944,-61.9751C776.808,-51.1836 681.948,-32.6173 623.199,-21.1186"/>
<polygon fill="midnightblue" stroke="midnightblue" points="623.509,-17.6131 613.023,-19.1271 622.165,-24.4828 623.509,-17.6131"/>
</g>
</g>
</svg>
