<?xml version="1.0" encoding="UTF-8" standalone="no"?>
<!DOCTYPE svg PUBLIC "-//W3C//DTD SVG 1.1//EN"
 "http://www.w3.org/Graphics/SVG/1.1/DTD/svg11.dtd">
<!-- Generated by graphviz version 2.38.0 (20140413.2041)
 -->
<!-- Title: o2::quality_control::core::Quality Pages: 1 -->
<svg width="182pt" height="347pt"
 viewBox="0.00 0.00 182.00 347.00" xmlns="http://www.w3.org/2000/svg" xmlns:xlink="http://www.w3.org/1999/xlink">
<g id="graph0" class="graph" transform="scale(1 1) rotate(0) translate(4 343)">
<title>o2::quality_control::core::Quality</title>
<!-- Node1 -->
<g id="node1" class="node"><title>Node1</title>
<polygon fill="#bfbfbf" stroke="black" points="-7.10543e-15,-0.5 -7.10543e-15,-233.5 112,-233.5 112,-0.5 -7.10543e-15,-0.5"/>
<text text-anchor="start" x="8" y="-221.5" font-family="Helvetica,sans-Serif" font-size="10.00">o2::quality_control</text>
<text text-anchor="middle" x="56" y="-210.5" font-family="Helvetica,sans-Serif" font-size="10.00">::core::Quality</text>
<polyline fill="none" stroke="black" points="-7.10543e-15,-203.5 112,-203.5 "/>
<text text-anchor="middle" x="56" y="-191.5" font-family="Helvetica,sans-Serif" font-size="10.00"> </text>
<polyline fill="none" stroke="black" points="-7.10543e-15,-184.5 112,-184.5 "/>
<text text-anchor="start" x="8" y="-172.5" font-family="Helvetica,sans-Serif" font-size="10.00">+ Quality()</text>
<text text-anchor="start" x="8" y="-161.5" font-family="Helvetica,sans-Serif" font-size="10.00">+ ~Quality()</text>
<text text-anchor="start" x="8" y="-150.5" font-family="Helvetica,sans-Serif" font-size="10.00">+ Quality()</text>
<text text-anchor="start" x="8" y="-139.5" font-family="Helvetica,sans-Serif" font-size="10.00">+ Quality()</text>
<text text-anchor="start" x="8" y="-128.5" font-family="Helvetica,sans-Serif" font-size="10.00">+ operator=()</text>
<text text-anchor="start" x="8" y="-117.5" font-family="Helvetica,sans-Serif" font-size="10.00">+ operator=()</text>
<text text-anchor="start" x="8" y="-106.5" font-family="Helvetica,sans-Serif" font-size="10.00">+ getLevel()</text>
<text text-anchor="start" x="8" y="-95.5" font-family="Helvetica,sans-Serif" font-size="10.00">+ getName()</text>
<text text-anchor="start" x="8" y="-84.5" font-family="Helvetica,sans-Serif" font-size="10.00">+ isWorseThan()</text>
<text text-anchor="start" x="8" y="-73.5" font-family="Helvetica,sans-Serif" font-size="10.00">+ isBetterThan()</text>
<text text-anchor="start" x="8" y="-62.5" font-family="Helvetica,sans-Serif" font-size="10.00">+ addMetadata()</text>
<text text-anchor="start" x="8" y="-51.5" font-family="Helvetica,sans-Serif" font-size="10.00">+ addMetadata()</text>
<text text-anchor="start" x="8" y="-40.5" font-family="Helvetica,sans-Serif" font-size="10.00">+ updateMetadata()</text>
<text text-anchor="start" x="8" y="-29.5" font-family="Helvetica,sans-Serif" font-size="10.00">+ getMetadataMap()</text>
<text text-anchor="start" x="8" y="-18.5" font-family="Helvetica,sans-Serif" font-size="10.00">+ overwriteMetadata()</text>
<text text-anchor="start" x="8" y="-7.5" font-family="Helvetica,sans-Serif" font-size="10.00">+ getMetadata()</text>
</g>
<!-- Node1&#45;&gt;Node1 -->
<g id="edge1" class="edge"><title>Node1&#45;&gt;Node1</title>
<path fill="none" stroke="#404040" d="M112.146,-141.903C122.622,-138.836 130,-130.535 130,-117 130,-108.752 127.26,-102.448 122.749,-98.0871"/>
<polygon fill="none" stroke="#404040" points="122.594,-97.9996 115.403,-98.5312 112.146,-92.0974 119.338,-91.5658 122.594,-97.9996"/>
<text text-anchor="middle" x="152" y="-131" font-family="Helvetica,sans-Serif" font-size="10.00"> +Medium</text>
<text text-anchor="middle" x="152" y="-120" font-family="Helvetica,sans-Serif" font-size="10.00">+Good</text>
<text text-anchor="middle" x="152" y="-109" font-family="Helvetica,sans-Serif" font-size="10.00">+Bad</text>
<text text-anchor="middle" x="152" y="-98" font-family="Helvetica,sans-Serif" font-size="10.00">+Null</text>
</g>
<!-- Node2 -->
<g id="node2" class="node"><title>Node2</title>
<polygon fill="none" stroke="#bfbfbf" points="41.5,-281.5 41.5,-338.5 70.5,-338.5 70.5,-281.5 41.5,-281.5"/>
<text text-anchor="middle" x="56" y="-326.5" font-family="Helvetica,sans-Serif" font-size="10.00">int</text>
<polyline fill="none" stroke="#bfbfbf" points="41.5,-319.5 70.5,-319.5 "/>
<text text-anchor="middle" x="56" y="-307.5" font-family="Helvetica,sans-Serif" font-size="10.00"> </text>
<polyline fill="none" stroke="#bfbfbf" points="41.5,-300.5 70.5,-300.5 "/>
<text text-anchor="middle" x="56" y="-288.5" font-family="Helvetica,sans-Serif" font-size="10.00"> </text>
</g>
<!-- Node2&#45;&gt;Node1 -->
<g id="edge2" class="edge"><title>Node2&#45;&gt;Node1</title>
<path fill="none" stroke="#404040" d="M56,-281.227C56,-271.167 56,-259.041 56,-245.996"/>
<polygon fill="none" stroke="#404040" points="56.0001,-245.791 52,-239.791 56,-233.791 60,-239.791 56.0001,-245.791"/>
<text text-anchor="middle" x="81" y="-255" font-family="Helvetica,sans-Serif" font-size="10.00"> +NullLevel</text>
</g>
</g>
</svg>
