<?xml version="1.0" encoding="UTF-8" standalone="no"?>
<!DOCTYPE svg PUBLIC "-//W3C//DTD SVG 1.1//EN"
 "http://www.w3.org/Graphics/SVG/1.1/DTD/svg11.dtd">
<!-- Generated by graphviz version 2.38.0 (20140413.2041)
 -->
<!-- Title: o2::quality_control::postprocessing::PostProcessingInterface Pages: 1 -->
<svg width="947pt" height="402pt"
 viewBox="0.00 0.00 946.50 402.00" xmlns="http://www.w3.org/2000/svg" xmlns:xlink="http://www.w3.org/1999/xlink">
<g id="graph0" class="graph" transform="scale(1 1) rotate(0) translate(4 398)">
<title>o2::quality_control::postprocessing::PostProcessingInterface</title>
<!-- Node1 -->
<g id="node1" class="node"><title>Node1</title>
<polygon fill="#bfbfbf" stroke="black" points="390,-215.5 390,-393.5 554,-393.5 554,-215.5 390,-215.5"/>
<text text-anchor="start" x="398" y="-381.5" font-family="Helvetica,sans-Serif" font-size="10.00">o2::quality_control</text>
<text text-anchor="start" x="398" y="-370.5" font-family="Helvetica,sans-Serif" font-size="10.00">::postprocessing::PostProcessing</text>
<text text-anchor="middle" x="472" y="-359.5" font-family="Helvetica,sans-Serif" font-size="10.00">Interface</text>
<polyline fill="none" stroke="black" points="390,-352.5 554,-352.5 "/>
<text text-anchor="middle" x="472" y="-340.5" font-family="Helvetica,sans-Serif" font-size="10.00"> </text>
<polyline fill="none" stroke="black" points="390,-333.5 554,-333.5 "/>
<text text-anchor="start" x="398" y="-321.5" font-family="Helvetica,sans-Serif" font-size="10.00">+ PostProcessingInterface()</text>
<text text-anchor="start" x="398" y="-310.5" font-family="Helvetica,sans-Serif" font-size="10.00">+ ~PostProcessingInterface()</text>
<text text-anchor="start" x="398" y="-299.5" font-family="Helvetica,sans-Serif" font-size="10.00">+ configure()</text>
<text text-anchor="start" x="398" y="-288.5" font-family="Helvetica,sans-Serif" font-size="10.00">+ initialize()</text>
<text text-anchor="start" x="398" y="-277.5" font-family="Helvetica,sans-Serif" font-size="10.00">+ update()</text>
<text text-anchor="start" x="398" y="-266.5" font-family="Helvetica,sans-Serif" font-size="10.00">+ finalize()</text>
<text text-anchor="start" x="398" y="-255.5" font-family="Helvetica,sans-Serif" font-size="10.00">+ setObjectsManager()</text>
<text text-anchor="start" x="398" y="-244.5" font-family="Helvetica,sans-Serif" font-size="10.00">+ setName()</text>
<text text-anchor="start" x="398" y="-233.5" font-family="Helvetica,sans-Serif" font-size="10.00">+ getName()</text>
<text text-anchor="start" x="398" y="-222.5" font-family="Helvetica,sans-Serif" font-size="10.00"># getObjectsManager()</text>
</g>
<!-- Node2 -->
<g id="node2" class="node"><title>Node2</title>
<g id="a_node2"><a xlink:href="classo2_1_1quality__control_1_1postprocessing_1_1TrendingTask.html" target="_top" xlink:title="A post&#45;processing task which trends values, stores them in a TTree and produces plots. ">
<polygon fill="none" stroke="black" points="0,-28 0,-151 154,-151 154,-28 0,-28"/>
<text text-anchor="start" x="8" y="-139" font-family="Helvetica,sans-Serif" font-size="10.00">o2::quality_control</text>
<text text-anchor="middle" x="77" y="-128" font-family="Helvetica,sans-Serif" font-size="10.00">::postprocessing::TrendingTask</text>
<polyline fill="none" stroke="black" points="0,-121 154,-121 "/>
<text text-anchor="middle" x="77" y="-109" font-family="Helvetica,sans-Serif" font-size="10.00"> </text>
<polyline fill="none" stroke="black" points="0,-102 154,-102 "/>
<text text-anchor="start" x="8" y="-90" font-family="Helvetica,sans-Serif" font-size="10.00">+ TrendingTask()</text>
<text text-anchor="start" x="8" y="-79" font-family="Helvetica,sans-Serif" font-size="10.00">+ ~TrendingTask()</text>
<text text-anchor="start" x="8" y="-68" font-family="Helvetica,sans-Serif" font-size="10.00">+ configure()</text>
<text text-anchor="start" x="8" y="-57" font-family="Helvetica,sans-Serif" font-size="10.00">+ initialize()</text>
<text text-anchor="start" x="8" y="-46" font-family="Helvetica,sans-Serif" font-size="10.00">+ update()</text>
<text text-anchor="start" x="8" y="-35" font-family="Helvetica,sans-Serif" font-size="10.00">+ finalize()</text>
</a>
</g>
</g>
<!-- Node1&#45;&gt;Node2 -->
<g id="edge1" class="edge"><title>Node1&#45;&gt;Node2</title>
<path fill="none" stroke="midnightblue" d="M379.996,-277.6C315.821,-256.948 230.021,-224.007 163,-179 151.261,-171.117 139.859,-161.416 129.4,-151.359"/>
<polygon fill="none" stroke="midnightblue" points="379.112,-280.991 389.703,-280.683 381.232,-274.32 379.112,-280.991"/>
</g>
<!-- Node3 -->
<g id="node3" class="node"><title>Node3</title>
<g id="a_node3"><a xlink:href="classo2_1_1quality__control_1_1postprocessing_1_1TrendingTaskITSFhr.html" target="_top" xlink:title="A post&#45;processing task which trends values, stores them in a TTree and produces plots. ">
<polygon fill="none" stroke="black" points="172,-22.5 172,-156.5 304,-156.5 304,-22.5 172,-22.5"/>
<text text-anchor="start" x="180" y="-144.5" font-family="Helvetica,sans-Serif" font-size="10.00">o2::quality_control</text>
<text text-anchor="start" x="180" y="-133.5" font-family="Helvetica,sans-Serif" font-size="10.00">::postprocessing::Trending</text>
<text text-anchor="middle" x="238" y="-122.5" font-family="Helvetica,sans-Serif" font-size="10.00">TaskITSFhr</text>
<polyline fill="none" stroke="black" points="172,-115.5 304,-115.5 "/>
<text text-anchor="middle" x="238" y="-103.5" font-family="Helvetica,sans-Serif" font-size="10.00"> </text>
<polyline fill="none" stroke="black" points="172,-96.5 304,-96.5 "/>
<text text-anchor="start" x="180" y="-84.5" font-family="Helvetica,sans-Serif" font-size="10.00">+ TrendingTaskITSFhr()</text>
<text text-anchor="start" x="180" y="-73.5" font-family="Helvetica,sans-Serif" font-size="10.00">+ ~TrendingTaskITSFhr()</text>
<text text-anchor="start" x="180" y="-62.5" font-family="Helvetica,sans-Serif" font-size="10.00">+ configure()</text>
<text text-anchor="start" x="180" y="-51.5" font-family="Helvetica,sans-Serif" font-size="10.00">+ initialize()</text>
<text text-anchor="start" x="180" y="-40.5" font-family="Helvetica,sans-Serif" font-size="10.00">+ update()</text>
<text text-anchor="start" x="180" y="-29.5" font-family="Helvetica,sans-Serif" font-size="10.00">+ finalize()</text>
</a>
</g>
</g>
<!-- Node1&#45;&gt;Node3 -->
<g id="edge2" class="edge"><title>Node1&#45;&gt;Node3</title>
<path fill="none" stroke="midnightblue" d="M381.565,-237.831C358.428,-219.665 334.132,-199.33 313,-179 305.743,-172.019 298.46,-164.388 291.437,-156.629"/>
<polygon fill="none" stroke="midnightblue" points="379.653,-240.779 389.693,-244.163 383.955,-235.257 379.653,-240.779"/>
</g>
<!-- Node4 -->
<g id="node4" class="node"><title>Node4</title>
<g id="a_node4"><a xlink:href="classo2_1_1quality__control_1_1postprocessing_1_1TrendingTaskITSThr.html" target="_top" xlink:title="A post&#45;processing task which trends values, stores them in a TTree and produces plots. ">
<polygon fill="none" stroke="black" points="322.5,-0.5 322.5,-178.5 461.5,-178.5 461.5,-0.5 322.5,-0.5"/>
<text text-anchor="start" x="330.5" y="-166.5" font-family="Helvetica,sans-Serif" font-size="10.00">o2::quality_control</text>
<text text-anchor="start" x="330.5" y="-155.5" font-family="Helvetica,sans-Serif" font-size="10.00">::postprocessing::Trending</text>
<text text-anchor="middle" x="392" y="-144.5" font-family="Helvetica,sans-Serif" font-size="10.00">TaskITSThr</text>
<polyline fill="none" stroke="black" points="322.5,-137.5 461.5,-137.5 "/>
<text text-anchor="middle" x="392" y="-125.5" font-family="Helvetica,sans-Serif" font-size="10.00"> </text>
<polyline fill="none" stroke="black" points="322.5,-118.5 461.5,-118.5 "/>
<text text-anchor="start" x="330.5" y="-106.5" font-family="Helvetica,sans-Serif" font-size="10.00">+ TrendingTaskITSThr()</text>
<text text-anchor="start" x="330.5" y="-95.5" font-family="Helvetica,sans-Serif" font-size="10.00">+ ~TrendingTaskITSThr()</text>
<text text-anchor="start" x="330.5" y="-84.5" font-family="Helvetica,sans-Serif" font-size="10.00">+ configure()</text>
<text text-anchor="start" x="330.5" y="-73.5" font-family="Helvetica,sans-Serif" font-size="10.00">+ initialize()</text>
<text text-anchor="start" x="330.5" y="-62.5" font-family="Helvetica,sans-Serif" font-size="10.00">+ update()</text>
<text text-anchor="start" x="330.5" y="-51.5" font-family="Helvetica,sans-Serif" font-size="10.00">+ finalize()</text>
<text text-anchor="start" x="330.5" y="-40.5" font-family="Helvetica,sans-Serif" font-size="10.00">+ SetLegendStyle()</text>
<text text-anchor="start" x="330.5" y="-29.5" font-family="Helvetica,sans-Serif" font-size="10.00">+ SetGraphStyle()</text>
<text text-anchor="start" x="330.5" y="-18.5" font-family="Helvetica,sans-Serif" font-size="10.00">+ SetGraphNameAndAxes()</text>
<text text-anchor="start" x="330.5" y="-7.5" font-family="Helvetica,sans-Serif" font-size="10.00">+ PrepareLegend()</text>
</a>
</g>
</g>
<!-- Node1&#45;&gt;Node4 -->
<g id="edge3" class="edge"><title>Node1&#45;&gt;Node4</title>
<path fill="none" stroke="midnightblue" d="M435.339,-205.89C431.922,-196.793 428.473,-187.61 425.092,-178.607"/>
<polygon fill="none" stroke="midnightblue" points="432.091,-207.196 438.883,-215.327 438.644,-204.735 432.091,-207.196"/>
</g>
<!-- Node5 -->
<g id="node5" class="node"><title>Node5</title>
<g id="a_node5"><a xlink:href="classo2_1_1quality__control__modules_1_1skeleton_1_1SkeletonPostProcessing.html" target="_top" xlink:title="Example Quality Control Postprocessing Task. ">
<polygon fill="none" stroke="black" points="479.5,-28 479.5,-151 624.5,-151 624.5,-28 479.5,-28"/>
<text text-anchor="start" x="487.5" y="-139" font-family="Helvetica,sans-Serif" font-size="10.00">o2::quality_control</text>
<text text-anchor="start" x="487.5" y="-128" font-family="Helvetica,sans-Serif" font-size="10.00">_modules::skeleton::</text>
<text text-anchor="middle" x="552" y="-117" font-family="Helvetica,sans-Serif" font-size="10.00">SkeletonPostProcessing</text>
<polyline fill="none" stroke="black" points="479.5,-110 624.5,-110 "/>
<text text-anchor="middle" x="552" y="-98" font-family="Helvetica,sans-Serif" font-size="10.00"> </text>
<polyline fill="none" stroke="black" points="479.5,-91 624.5,-91 "/>
<text text-anchor="start" x="487.5" y="-79" font-family="Helvetica,sans-Serif" font-size="10.00">+ SkeletonPostProcessing()</text>
<text text-anchor="start" x="487.5" y="-68" font-family="Helvetica,sans-Serif" font-size="10.00">+ ~SkeletonPostProcessing()</text>
<text text-anchor="start" x="487.5" y="-57" font-family="Helvetica,sans-Serif" font-size="10.00">+ initialize()</text>
<text text-anchor="start" x="487.5" y="-46" font-family="Helvetica,sans-Serif" font-size="10.00">+ update()</text>
<text text-anchor="start" x="487.5" y="-35" font-family="Helvetica,sans-Serif" font-size="10.00">+ finalize()</text>
</a>
</g>
</g>
<!-- Node1&#45;&gt;Node5 -->
<g id="edge4" class="edge"><title>Node1&#45;&gt;Node5</title>
<path fill="none" stroke="midnightblue" d="M508.659,-205.894C515.681,-187.199 522.841,-168.136 529.266,-151.03"/>
<polygon fill="none" stroke="midnightblue" points="505.356,-204.735 505.117,-215.327 511.909,-207.196 505.356,-204.735"/>
</g>
<!-- Node6 -->
<g id="node6" class="node"><title>Node6</title>
<g id="a_node6"><a xlink:href="classo2_1_1quality__control__modules_1_1test_1_1TestTask.html" target="_top" xlink:title="{o2::quality_control\l_modules::test::TestTask\n|+ test\l|+ TestTask()\l+ ~TestTask()\l+ configure()\l+ initialize()\l+ update()\l+ finalize()\l}">
<polygon fill="none" stroke="black" points="643,-28 643,-151 771,-151 771,-28 643,-28"/>
<text text-anchor="start" x="651" y="-139" font-family="Helvetica,sans-Serif" font-size="10.00">o2::quality_control</text>
<text text-anchor="middle" x="707" y="-128" font-family="Helvetica,sans-Serif" font-size="10.00">_modules::test::TestTask</text>
<polyline fill="none" stroke="black" points="643,-121 771,-121 "/>
<text text-anchor="start" x="651" y="-109" font-family="Helvetica,sans-Serif" font-size="10.00">+ test</text>
<polyline fill="none" stroke="black" points="643,-102 771,-102 "/>
<text text-anchor="start" x="651" y="-90" font-family="Helvetica,sans-Serif" font-size="10.00">+ TestTask()</text>
<text text-anchor="start" x="651" y="-79" font-family="Helvetica,sans-Serif" font-size="10.00">+ ~TestTask()</text>
<text text-anchor="start" x="651" y="-68" font-family="Helvetica,sans-Serif" font-size="10.00">+ configure()</text>
<text text-anchor="start" x="651" y="-57" font-family="Helvetica,sans-Serif" font-size="10.00">+ initialize()</text>
<text text-anchor="start" x="651" y="-46" font-family="Helvetica,sans-Serif" font-size="10.00">+ update()</text>
<text text-anchor="start" x="651" y="-35" font-family="Helvetica,sans-Serif" font-size="10.00">+ finalize()</text>
</a>
</g>
</g>
<!-- Node1&#45;&gt;Node6 -->
<g id="edge5" class="edge"><title>Node1&#45;&gt;Node6</title>
<path fill="none" stroke="midnightblue" d="M562.202,-239.913C586.432,-221.323 611.997,-200.257 634,-179 642.881,-170.42 651.742,-160.805 660.072,-151.16"/>
<polygon fill="none" stroke="midnightblue" points="559.883,-237.279 554.043,-246.119 564.121,-242.851 559.883,-237.279"/>
</g>
<!-- Node7 -->
<g id="node7" class="node"><title>Node7</title>
<g id="a_node7"><a xlink:href="classo2_1_1quality__control__modules_1_1tof_1_1PostProcessDiagnosticPerCrate.html" target="_top" xlink:title="Post processing to rearrange TOF information at the level of the crate (maybe we should do the opposi...">
<polygon fill="none" stroke="black" points="789.5,-17 789.5,-162 938.5,-162 938.5,-17 789.5,-17"/>
<text text-anchor="start" x="797.5" y="-150" font-family="Helvetica,sans-Serif" font-size="10.00">o2::quality_control</text>
<text text-anchor="start" x="797.5" y="-139" font-family="Helvetica,sans-Serif" font-size="10.00">_modules::tof::PostProcess</text>
<text text-anchor="middle" x="864" y="-128" font-family="Helvetica,sans-Serif" font-size="10.00">DiagnosticPerCrate</text>
<polyline fill="none" stroke="black" points="789.5,-121 938.5,-121 "/>
<text text-anchor="middle" x="864" y="-109" font-family="Helvetica,sans-Serif" font-size="10.00"> </text>
<polyline fill="none" stroke="black" points="789.5,-102 938.5,-102 "/>
<text text-anchor="start" x="797.5" y="-90" font-family="Helvetica,sans-Serif" font-size="10.00">+ PostProcessDiagnosticPer</text>
<text text-anchor="start" x="797.5" y="-79" font-family="Helvetica,sans-Serif" font-size="10.00">Crate()</text>
<text text-anchor="start" x="797.5" y="-68" font-family="Helvetica,sans-Serif" font-size="10.00">+ ~PostProcessDiagnosticPer</text>
<text text-anchor="start" x="797.5" y="-57" font-family="Helvetica,sans-Serif" font-size="10.00">Crate()</text>
<text text-anchor="start" x="797.5" y="-46" font-family="Helvetica,sans-Serif" font-size="10.00">+ initialize()</text>
<text text-anchor="start" x="797.5" y="-35" font-family="Helvetica,sans-Serif" font-size="10.00">+ update()</text>
<text text-anchor="start" x="797.5" y="-24" font-family="Helvetica,sans-Serif" font-size="10.00">+ finalize()</text>
</a>
</g>
</g>
<!-- Node1&#45;&gt;Node7 -->
<g id="edge6" class="edge"><title>Node1&#45;&gt;Node7</title>
<path fill="none" stroke="midnightblue" d="M563.868,-277.788C627.91,-257.224 713.456,-224.312 780,-179 787.354,-173.992 794.556,-168.246 801.458,-162.138"/>
<polygon fill="none" stroke="midnightblue" points="562.656,-274.501 554.18,-280.858 564.77,-281.174 562.656,-274.501"/>
</g>
</g>
</svg>
