<?xml version="1.0" encoding="UTF-8" standalone="no"?>
<!DOCTYPE svg PUBLIC "-//W3C//DTD SVG 1.1//EN"
 "http://www.w3.org/Graphics/SVG/1.1/DTD/svg11.dtd">
<!-- Generated by graphviz version 2.38.0 (20140413.2041)
 -->
<!-- Title: Framework/include/QualityControl/DatabaseInterface.h Pages: 1 -->
<!--zoomable 184 -->
<svg id="main" version="1.1" xmlns="http://www.w3.org/2000/svg" xmlns:xlink="http://www.w3.org/1999/xlink" xml:space="preserve" onload="init(evt)">
<style type="text/css"><![CDATA[
.edge:hover path { stroke: red; }
.edge:hover polygon { stroke: red; fill: red; }
]]></style>
<script type="text/javascript"><![CDATA[
var edges = document.getElementsByTagName('g');
if (edges && edges.length) {
  for (var i=0;i<edges.length;i++) {
    if (edges[i].id.substr(0,4)=='edge') {
      edges[i].setAttribute('class','edge');
    }
  }
}
]]></script>
        <defs>
                <circle id="rim" cx="0" cy="0" r="7"/>
                <circle id="rim2" cx="0" cy="0" r="3.5"/>
                <g id="zoomPlus">
                        <use xlink:href="#rim" fill="#404040">
                                <set attributeName="fill" to="#808080" begin="zoomplus.mouseover" end="zoomplus.mouseout"/>
                        </use>
                        <path d="M-4,0h8M0,-4v8" fill="none" stroke="white" stroke-width="1.5" pointer-events="none"/>
                </g>
                <g id="zoomMin">
                        <use xlink:href="#rim" fill="#404040">
                                <set attributeName="fill" to="#808080" begin="zoomminus.mouseover" end="zoomminus.mouseout"/>
                        </use>
                        <path d="M-4,0h8" fill="none" stroke="white" stroke-width="1.5" pointer-events="none"/>
                </g>
                <g id="dirArrow">
                        <path fill="none" stroke="white" stroke-width="1.5" d="M0,-3.0v7 M-2.5,-0.5L0,-3.0L2.5,-0.5"/>
                </g>
               <g id="resetDef">
                       <use xlink:href="#rim2" fill="#404040">
                               <set attributeName="fill" to="#808080" begin="reset.mouseover" end="reset.mouseout"/>
                       </use>
               </g>
        </defs>

<script type="text/javascript">
var viewWidth = 4892;
var viewHeight = 184;
var sectionId = 'dynsection-1';
</script>
<script xlink:href="svgpan.js"/>
<svg id="graph" class="graph">
<g id="viewport">
<title>Framework/include/QualityControl/DatabaseInterface.h</title>
<!-- Node1 -->
<g id="node1" class="node"><title>Node1</title>
<polygon fill="#bfbfbf" stroke="black" points="3855,-145.5 3855,-175.5 3995,-175.5 3995,-145.5 3855,-145.5"/>
<text text-anchor="start" x="3863" y="-163.5" font-family="Helvetica,sans-Serif" font-size="10.00">Framework/include/Quality</text>
<text text-anchor="middle" x="3925" y="-152.5" font-family="Helvetica,sans-Serif" font-size="10.00">Control/DatabaseInterface.h</text>
</g>
<!-- Node2 -->
<g id="node2" class="node"><title>Node2</title>
<g id="a_node2"><a xlink:href="CcdbDatabase_8h.html" target="_top" xlink:title="Framework/include/Quality\lControl/CcdbDatabase.h">
<polygon fill="none" stroke="black" points="791.5,-73 791.5,-103 924.5,-103 924.5,-73 791.5,-73"/>
<text text-anchor="start" x="799.5" y="-91" font-family="Helvetica,sans-Serif" font-size="10.00">Framework/include/Quality</text>
<text text-anchor="middle" x="858" y="-80" font-family="Helvetica,sans-Serif" font-size="10.00">Control/CcdbDatabase.h</text>
</a>
</g>
</g>
<!-- Node1&#45;&gt;Node2 -->
<g id="edge1" class="edge"><title>Node1&#45;&gt;Node2</title>
<path fill="none" stroke="midnightblue" d="M3844.77,-159.072C3399.87,-156.574 1245.19,-142.804 951,-109 939.187,-107.643 926.662,-105.467 914.761,-103.04"/>
<polygon fill="midnightblue" stroke="midnightblue" points="3844.94,-162.573 3854.96,-159.129 3844.98,-155.573 3844.94,-162.573"/>
</g>
<!-- Node9 -->
<g id="node9" class="node"><title>Node9</title>
<g id="a_node9"><a xlink:href="CheckRunner_8h.html" target="_top" xlink:title="Framework/include/Quality\lControl/CheckRunner.h">
<polygon fill="none" stroke="black" points="2370.5,-73 2370.5,-103 2503.5,-103 2503.5,-73 2370.5,-73"/>
<text text-anchor="start" x="2378.5" y="-91" font-family="Helvetica,sans-Serif" font-size="10.00">Framework/include/Quality</text>
<text text-anchor="middle" x="2437" y="-80" font-family="Helvetica,sans-Serif" font-size="10.00">Control/CheckRunner.h</text>
</a>
</g>
</g>
<!-- Node1&#45;&gt;Node9 -->
<g id="edge8" class="edge"><title>Node1&#45;&gt;Node9</title>
<path fill="none" stroke="midnightblue" d="M3844.47,-155.684C3580.72,-143.188 2745.92,-103.636 2503.57,-92.1539"/>
<polygon fill="midnightblue" stroke="midnightblue" points="3844.58,-159.193 3854.73,-156.171 3844.91,-152.201 3844.58,-159.193"/>
</g>
<!-- Node20 -->
<g id="node20" class="node"><title>Node20</title>
<g id="a_node20"><a xlink:href="DatabaseFactory_8h.html" target="_top" xlink:title="Framework/include/Quality\lControl/DatabaseFactory.h">
<polygon fill="none" stroke="black" points="1345,-73 1345,-103 1479,-103 1479,-73 1345,-73"/>
<text text-anchor="start" x="1353" y="-91" font-family="Helvetica,sans-Serif" font-size="10.00">Framework/include/Quality</text>
<text text-anchor="middle" x="1412" y="-80" font-family="Helvetica,sans-Serif" font-size="10.00">Control/DatabaseFactory.h</text>
</a>
</g>
</g>
<!-- Node1&#45;&gt;Node20 -->
<g id="edge19" class="edge"><title>Node1&#45;&gt;Node20</title>
<path fill="none" stroke="midnightblue" d="M3844.69,-157.247C3462.42,-146.523 1831.08,-100.757 1479.11,-90.8827"/>
<polygon fill="midnightblue" stroke="midnightblue" points="3844.74,-160.75 3854.83,-157.532 3844.94,-153.752 3844.74,-160.75"/>
</g>
<!-- Node24 -->
<g id="node24" class="node"><title>Node24</title>
<g id="a_node24"><a xlink:href="DummyDatabase_8h.html" target="_top" xlink:title="Framework/include/Quality\lControl/DummyDatabase.h">
<polygon fill="none" stroke="black" points="960,-73 960,-103 1096,-103 1096,-73 960,-73"/>
<text text-anchor="start" x="968" y="-91" font-family="Helvetica,sans-Serif" font-size="10.00">Framework/include/Quality</text>
<text text-anchor="middle" x="1028" y="-80" font-family="Helvetica,sans-Serif" font-size="10.00">Control/DummyDatabase.h</text>
</a>
</g>
</g>
<!-- Node1&#45;&gt;Node24 -->
<g id="edge28" class="edge"><title>Node1&#45;&gt;Node24</title>
<path fill="none" stroke="midnightblue" d="M3844.9,-159.261C3527.16,-158.031 2324.66,-150.72 1336,-109 1253.42,-105.515 1158.53,-98.9688 1096.15,-94.3154"/>
<polygon fill="midnightblue" stroke="midnightblue" points="3844.93,-162.761 3854.94,-159.299 3844.95,-155.761 3844.93,-162.761"/>
</g>
<!-- Node26 -->
<g id="node26" class="node"><title>Node26</title>
<g id="a_node26"><a xlink:href="MySqlDatabase_8h.html" target="_top" xlink:title="Framework/include/Quality\lControl/MySqlDatabase.h">
<polygon fill="none" stroke="black" points="4009.5,-73 4009.5,-103 4142.5,-103 4142.5,-73 4009.5,-73"/>
<text text-anchor="start" x="4017.5" y="-91" font-family="Helvetica,sans-Serif" font-size="10.00">Framework/include/Quality</text>
<text text-anchor="middle" x="4076" y="-80" font-family="Helvetica,sans-Serif" font-size="10.00">Control/MySqlDatabase.h</text>
</a>
</g>
</g>
<!-- Node1&#45;&gt;Node26 -->
<g id="edge32" class="edge"><title>Node1&#45;&gt;Node26</title>
<path fill="none" stroke="midnightblue" d="M3964.56,-141.03C3989.99,-129.156 4022.52,-113.97 4045.86,-103.073"/>
<polygon fill="midnightblue" stroke="midnightblue" points="3962.77,-138.001 3955.19,-145.403 3965.74,-144.344 3962.77,-138.001"/>
</g>
<!-- Node28 -->
<g id="node28" class="node"><title>Node28</title>
<g id="a_node28"><a xlink:href="PostProcessingRunner_8h.html" target="_top" xlink:title="Framework/include/Quality\lControl/PostProcessingRunner.h">
<polygon fill="none" stroke="black" points="3681,-73 3681,-103 3841,-103 3841,-73 3681,-73"/>
<text text-anchor="start" x="3689" y="-91" font-family="Helvetica,sans-Serif" font-size="10.00">Framework/include/Quality</text>
<text text-anchor="middle" x="3761" y="-80" font-family="Helvetica,sans-Serif" font-size="10.00">Control/PostProcessingRunner.h</text>
</a>
</g>
</g>
<!-- Node1&#45;&gt;Node28 -->
<g id="edge34" class="edge"><title>Node1&#45;&gt;Node28</title>
<path fill="none" stroke="midnightblue" d="M3882.76,-141.343C3855.04,-129.424 3819.31,-114.066 3793.74,-103.073"/>
<polygon fill="midnightblue" stroke="midnightblue" points="3881.64,-144.669 3892.21,-145.403 3884.4,-138.238 3881.64,-144.669"/>
</g>
<!-- Node33 -->
<g id="node33" class="node"><title>Node33</title>
<g id="a_node33"><a xlink:href="RepositoryBenchmark_8h.html" target="_top" xlink:title="Framework/src/Repository\lBenchmark.h">
<polygon fill="none" stroke="black" points="3859,-73 3859,-103 3991,-103 3991,-73 3859,-73"/>
<text text-anchor="start" x="3867" y="-91" font-family="Helvetica,sans-Serif" font-size="10.00">Framework/src/Repository</text>
<text text-anchor="middle" x="3925" y="-80" font-family="Helvetica,sans-Serif" font-size="10.00">Benchmark.h</text>
</a>
</g>
</g>
<!-- Node1&#45;&gt;Node33 -->
<g id="edge40" class="edge"><title>Node1&#45;&gt;Node33</title>
<path fill="none" stroke="midnightblue" d="M3925,-135.232C3925,-124.568 3925,-112.414 3925,-103.246"/>
<polygon fill="midnightblue" stroke="midnightblue" points="3921.5,-135.233 3925,-145.233 3928.5,-135.233 3921.5,-135.233"/>
</g>
<!-- Node35 -->
<g id="node35" class="node"><title>Node35</title>
<g id="a_node35"><a xlink:href="TrendingTask_8cxx.html" target="_top" xlink:title="Framework/src/TrendingTask.cxx">
<polygon fill="none" stroke="black" points="4160.5,-78.5 4160.5,-97.5 4323.5,-97.5 4323.5,-78.5 4160.5,-78.5"/>
<text text-anchor="middle" x="4242" y="-85.5" font-family="Helvetica,sans-Serif" font-size="10.00">Framework/src/TrendingTask.cxx</text>
</a>
</g>
</g>
<!-- Node1&#45;&gt;Node35 -->
<g id="edge43" class="edge"><title>Node1&#45;&gt;Node35</title>
<path fill="none" stroke="midnightblue" d="M3998.05,-143.254C4062.09,-129.01 4152.69,-108.862 4203.53,-97.555"/>
<polygon fill="midnightblue" stroke="midnightblue" points="3997.01,-139.9 3988.01,-145.487 3998.53,-146.733 3997.01,-139.9"/>
</g>
<!-- Node36 -->
<g id="node36" class="node"><title>Node36</title>
<g id="a_node36"><a xlink:href="TrendingTaskITSFhr_8cxx.html" target="_top" xlink:title="Modules/ITS/src/Trending\lTaskITSFhr.cxx">
<polygon fill="none" stroke="black" points="4341.5,-73 4341.5,-103 4470.5,-103 4470.5,-73 4341.5,-73"/>
<text text-anchor="start" x="4349.5" y="-91" font-family="Helvetica,sans-Serif" font-size="10.00">Modules/ITS/src/Trending</text>
<text text-anchor="middle" x="4406" y="-80" font-family="Helvetica,sans-Serif" font-size="10.00">TaskITSFhr.cxx</text>
</a>
</g>
</g>
<!-- Node1&#45;&gt;Node36 -->
<g id="edge44" class="edge"><title>Node1&#45;&gt;Node36</title>
<path fill="none" stroke="midnightblue" d="M4005.39,-152.886C4087.87,-145.315 4219.65,-131.038 4332,-109 4340.49,-107.335 4349.44,-105.226 4358.06,-103.006"/>
<polygon fill="midnightblue" stroke="midnightblue" points="4004.98,-149.409 3995.33,-153.798 4005.61,-156.38 4004.98,-149.409"/>
</g>
<!-- Node37 -->
<g id="node37" class="node"><title>Node37</title>
<g id="a_node37"><a xlink:href="TrendingTaskITSThr_8cxx.html" target="_top" xlink:title="Modules/ITS/src/Trending\lTaskITSThr.cxx">
<polygon fill="none" stroke="black" points="4488.5,-73 4488.5,-103 4617.5,-103 4617.5,-73 4488.5,-73"/>
<text text-anchor="start" x="4496.5" y="-91" font-family="Helvetica,sans-Serif" font-size="10.00">Modules/ITS/src/Trending</text>
<text text-anchor="middle" x="4553" y="-80" font-family="Helvetica,sans-Serif" font-size="10.00">TaskITSThr.cxx</text>
</a>
</g>
</g>
<!-- Node1&#45;&gt;Node37 -->
<g id="edge45" class="edge"><title>Node1&#45;&gt;Node37</title>
<path fill="none" stroke="midnightblue" d="M4005.24,-156.542C4113.52,-151.561 4312.08,-138.932 4479,-109 4487.78,-107.426 4497.03,-105.306 4505.9,-103.034"/>
<polygon fill="midnightblue" stroke="midnightblue" points="4004.88,-153.054 3995.05,-157 4005.19,-160.047 4004.88,-153.054"/>
</g>
<!-- Node38 -->
<g id="node38" class="node"><title>Node38</title>
<g id="a_node38"><a xlink:href="PostProcessDiagnosticPerCrate_8h.html" target="_top" xlink:title="Post processing to rearrange TOF information at the level of the crate (maybe we should do the opposi...">
<polygon fill="none" stroke="black" points="4685.5,-67.5 4685.5,-108.5 4830.5,-108.5 4830.5,-67.5 4685.5,-67.5"/>
<text text-anchor="start" x="4693.5" y="-96.5" font-family="Helvetica,sans-Serif" font-size="10.00">Modules/TOF/include</text>
<text text-anchor="start" x="4693.5" y="-85.5" font-family="Helvetica,sans-Serif" font-size="10.00">/TOF/PostProcessDiagnostic</text>
<text text-anchor="middle" x="4758" y="-74.5" font-family="Helvetica,sans-Serif" font-size="10.00">PerCrate.h</text>
</a>
</g>
</g>
<!-- Node1&#45;&gt;Node38 -->
<g id="edge46" class="edge"><title>Node1&#45;&gt;Node38</title>
<path fill="none" stroke="midnightblue" d="M4005.36,-155.765C4135.86,-149.239 4401.82,-134.019 4626,-109 4645.23,-106.853 4665.96,-103.979 4685.17,-101.081"/>
<polygon fill="midnightblue" stroke="midnightblue" points="4004.88,-152.285 3995.06,-156.276 4005.22,-159.276 4004.88,-152.285"/>
</g>
<!-- Node3 -->
<g id="node3" class="node"><title>Node3</title>
<g id="a_node3"><a xlink:href="CcdbDatabase_8cxx.html" target="_top" xlink:title="Framework/src/CcdbDatabase.cxx">
<polygon fill="none" stroke="black" points="206.5,-6 206.5,-25 375.5,-25 375.5,-6 206.5,-6"/>
<text text-anchor="middle" x="291" y="-13" font-family="Helvetica,sans-Serif" font-size="10.00">Framework/src/CcdbDatabase.cxx</text>
</a>
</g>
</g>
<!-- Node2&#45;&gt;Node3 -->
<g id="edge2" class="edge"><title>Node2&#45;&gt;Node3</title>
<path fill="none" stroke="midnightblue" d="M781.202,-78.8123C687.361,-68.6035 523.808,-50.151 384,-31 370.886,-29.2037 356.761,-27.0925 343.576,-25.0454"/>
<polygon fill="midnightblue" stroke="midnightblue" points="780.858,-82.2955 791.178,-79.8951 781.614,-75.3364 780.858,-82.2955"/>
</g>
<!-- Node4 -->
<g id="node4" class="node"><title>Node4</title>
<g id="a_node4"><a xlink:href="DatabaseFactory_8cxx.html" target="_top" xlink:title="Framework/src/DatabaseFactory.cxx">
<polygon fill="none" stroke="black" points="955.5,-6 955.5,-25 1134.5,-25 1134.5,-6 955.5,-6"/>
<text text-anchor="middle" x="1045" y="-13" font-family="Helvetica,sans-Serif" font-size="10.00">Framework/src/DatabaseFactory.cxx</text>
</a>
</g>
</g>
<!-- Node2&#45;&gt;Node4 -->
<g id="edge3" class="edge"><title>Node2&#45;&gt;Node4</title>
<path fill="none" stroke="midnightblue" d="M905.1,-69.2429C942.597,-55.1065 993.43,-35.9423 1022.36,-25.0336"/>
<polygon fill="midnightblue" stroke="midnightblue" points="903.515,-66.1 895.393,-72.9027 905.985,-72.65 903.515,-66.1"/>
</g>
<!-- Node5 -->
<g id="node5" class="node"><title>Node5</title>
<g id="a_node5"><a xlink:href="testCcdbDatabase_8cxx.html" target="_top" xlink:title="Framework/test/testCcdbDatabase.cxx">
<polygon fill="none" stroke="black" points="0,-6 0,-25 188,-25 188,-6 0,-6"/>
<text text-anchor="middle" x="94" y="-13" font-family="Helvetica,sans-Serif" font-size="10.00">Framework/test/testCcdbDatabase.cxx</text>
</a>
</g>
</g>
<!-- Node2&#45;&gt;Node5 -->
<g id="edge4" class="edge"><title>Node2&#45;&gt;Node5</title>
<path fill="none" stroke="midnightblue" d="M781.164,-81.8767C657.786,-73.3385 407.941,-54.7649 197,-31 181.837,-29.2917 165.462,-27.1313 150.327,-25.0035"/>
<polygon fill="midnightblue" stroke="midnightblue" points="781.049,-85.377 791.266,-82.5729 781.53,-78.3936 781.049,-85.377"/>
</g>
<!-- Node6 -->
<g id="node6" class="node"><title>Node6</title>
<g id="a_node6"><a xlink:href="testCcdbDatabaseExtra_8cxx.html" target="_top" xlink:title="Framework/test/testCcdbDatabase\lExtra.cxx">
<polygon fill="none" stroke="black" points="1153,-0.5 1153,-30.5 1323,-30.5 1323,-0.5 1153,-0.5"/>
<text text-anchor="start" x="1161" y="-18.5" font-family="Helvetica,sans-Serif" font-size="10.00">Framework/test/testCcdbDatabase</text>
<text text-anchor="middle" x="1238" y="-7.5" font-family="Helvetica,sans-Serif" font-size="10.00">Extra.cxx</text>
</a>
</g>
</g>
<!-- Node2&#45;&gt;Node6 -->
<g id="edge5" class="edge"><title>Node2&#45;&gt;Node6</title>
<path fill="none" stroke="midnightblue" d="M931.864,-70.8505C938.33,-69.5172 944.778,-68.2161 951,-67 1018.9,-53.7301 1096.15,-40.2271 1153.39,-30.5266"/>
<polygon fill="midnightblue" stroke="midnightblue" points="930.795,-67.498 921.72,-72.9646 932.224,-74.3508 930.795,-67.498"/>
</g>
<!-- Node7 -->
<g id="node7" class="node"><title>Node7</title>
<g id="a_node7"><a xlink:href="testDbFactory_8cxx.html" target="_top" xlink:title="Framework/test/testDbFactory.cxx">
<polygon fill="none" stroke="black" points="393.5,-6 393.5,-25 562.5,-25 562.5,-6 393.5,-6"/>
<text text-anchor="middle" x="478" y="-13" font-family="Helvetica,sans-Serif" font-size="10.00">Framework/test/testDbFactory.cxx</text>
</a>
</g>
</g>
<!-- Node2&#45;&gt;Node7 -->
<g id="edge6" class="edge"><title>Node2&#45;&gt;Node7</title>
<path fill="none" stroke="midnightblue" d="M781.229,-72.7569C704.086,-58.4449 587.739,-36.8596 523.92,-25.0194"/>
<polygon fill="midnightblue" stroke="midnightblue" points="780.904,-76.2562 791.374,-74.6392 782.18,-69.3737 780.904,-76.2562"/>
</g>
<!-- Node8 -->
<g id="node8" class="node"><title>Node8</title>
<g id="a_node8"><a xlink:href="testTriggers_8cxx.html" target="_top" xlink:title="Framework/test/testTriggers.cxx">
<polygon fill="none" stroke="black" points="779,-6 779,-25 937,-25 937,-6 779,-6"/>
<text text-anchor="middle" x="858" y="-13" font-family="Helvetica,sans-Serif" font-size="10.00">Framework/test/testTriggers.cxx</text>
</a>
</g>
</g>
<!-- Node2&#45;&gt;Node8 -->
<g id="edge7" class="edge"><title>Node2&#45;&gt;Node8</title>
<path fill="none" stroke="midnightblue" d="M858,-62.5913C858,-49.7136 858,-34.6974 858,-25.3932"/>
<polygon fill="midnightblue" stroke="midnightblue" points="854.5,-62.7332 858,-72.7333 861.5,-62.7333 854.5,-62.7332"/>
</g>
<!-- Node10 -->
<g id="node10" class="node"><title>Node10</title>
<g id="a_node10"><a xlink:href="CheckRunner_8cxx.html" target="_top" xlink:title="Framework/src/CheckRunner.cxx">
<polygon fill="none" stroke="black" points="1501,-6 1501,-25 1665,-25 1665,-6 1501,-6"/>
<text text-anchor="middle" x="1583" y="-13" font-family="Helvetica,sans-Serif" font-size="10.00">Framework/src/CheckRunner.cxx</text>
</a>
</g>
</g>
<!-- Node9&#45;&gt;Node10 -->
<g id="edge9" class="edge"><title>Node9&#45;&gt;Node10</title>
<path fill="none" stroke="midnightblue" d="M2360.45,-83.5325C2222.77,-76.817 1924.35,-60.0794 1674,-31 1660.17,-29.3941 1645.24,-27.2051 1631.54,-25.0147"/>
<polygon fill="midnightblue" stroke="midnightblue" points="2360.33,-87.0304 2370.48,-84.0178 2360.66,-80.0386 2360.33,-87.0304"/>
</g>
<!-- Node11 -->
<g id="node11" class="node"><title>Node11</title>
<g id="a_node11"><a xlink:href="CheckRunnerFactory_8cxx.html" target="_top" xlink:title="Framework/src/CheckRunner\lFactory.cxx">
<polygon fill="none" stroke="black" points="2976.5,-0.5 2976.5,-30.5 3121.5,-30.5 3121.5,-0.5 2976.5,-0.5"/>
<text text-anchor="start" x="2984.5" y="-18.5" font-family="Helvetica,sans-Serif" font-size="10.00">Framework/src/CheckRunner</text>
<text text-anchor="middle" x="3049" y="-7.5" font-family="Helvetica,sans-Serif" font-size="10.00">Factory.cxx</text>
</a>
</g>
</g>
<!-- Node9&#45;&gt;Node11 -->
<g id="edge10" class="edge"><title>Node9&#45;&gt;Node11</title>
<path fill="none" stroke="midnightblue" d="M2513.72,-80.5851C2616.99,-71.5653 2806.29,-53.671 2967,-31 2970.01,-30.5759 2973.07,-30.1238 2976.16,-29.6512"/>
<polygon fill="midnightblue" stroke="midnightblue" points="2513.36,-77.1036 2503.7,-81.4565 2513.96,-84.0774 2513.36,-77.1036"/>
</g>
<!-- Node12 -->
<g id="node12" class="node"><title>Node12</title>
<g id="a_node12"><a xlink:href="InfrastructureGenerator_8cxx.html" target="_top" xlink:title="Framework/src/Infrastructure\lGenerator.cxx">
<polygon fill="none" stroke="black" points="3312.5,-0.5 3312.5,-30.5 3455.5,-30.5 3455.5,-0.5 3312.5,-0.5"/>
<text text-anchor="start" x="3320.5" y="-18.5" font-family="Helvetica,sans-Serif" font-size="10.00">Framework/src/Infrastructure</text>
<text text-anchor="middle" x="3384" y="-7.5" font-family="Helvetica,sans-Serif" font-size="10.00">Generator.cxx</text>
</a>
</g>
</g>
<!-- Node9&#45;&gt;Node12 -->
<g id="edge11" class="edge"><title>Node9&#45;&gt;Node12</title>
<path fill="none" stroke="midnightblue" d="M2513.63,-84.9407C2664.98,-80.2341 3012.79,-66.2456 3303,-31 3305.98,-30.6383 3309.01,-30.2384 3312.07,-29.8089"/>
<polygon fill="midnightblue" stroke="midnightblue" points="2513.4,-81.446 2503.51,-85.2506 2513.61,-88.4427 2513.4,-81.446"/>
</g>
<!-- Node13 -->
<g id="node13" class="node"><title>Node13</title>
<g id="a_node13"><a xlink:href="runBasic_8cxx.html" target="_top" xlink:title="This is an executable showing QC Task&#39;s usage in Data Processing Layer. ">
<polygon fill="none" stroke="black" points="1683,-6 1683,-25 1825,-25 1825,-6 1683,-6"/>
<text text-anchor="middle" x="1754" y="-13" font-family="Helvetica,sans-Serif" font-size="10.00">Framework/src/runBasic.cxx</text>
</a>
</g>
</g>
<!-- Node9&#45;&gt;Node13 -->
<g id="edge12" class="edge"><title>Node9&#45;&gt;Node13</title>
<path fill="none" stroke="midnightblue" d="M2360.21,-82.0109C2245.4,-74.0672 2022.33,-56.7628 1834,-31 1821.97,-29.3547 1809,-27.1785 1797.07,-25.0137"/>
<polygon fill="midnightblue" stroke="midnightblue" points="2360.09,-85.5108 2370.31,-82.7045 2360.57,-78.5272 2360.09,-85.5108"/>
</g>
<!-- Node14 -->
<g id="node14" class="node"><title>Node14</title>
<g id="a_node14"><a xlink:href="testCheckRunner_8cxx.html" target="_top" xlink:title="Framework/test/testCheck\lRunner.cxx">
<polygon fill="none" stroke="black" points="1843.5,-0.5 1843.5,-30.5 1976.5,-30.5 1976.5,-0.5 1843.5,-0.5"/>
<text text-anchor="start" x="1851.5" y="-18.5" font-family="Helvetica,sans-Serif" font-size="10.00">Framework/test/testCheck</text>
<text text-anchor="middle" x="1910" y="-7.5" font-family="Helvetica,sans-Serif" font-size="10.00">Runner.cxx</text>
</a>
</g>
</g>
<!-- Node9&#45;&gt;Node14 -->
<g id="edge13" class="edge"><title>Node9&#45;&gt;Node14</title>
<path fill="none" stroke="midnightblue" d="M2360.04,-79.0706C2269.91,-69.413 2116.22,-51.7895 1985,-31 1982.25,-30.5642 1979.45,-30.1024 1976.61,-29.6216"/>
<polygon fill="midnightblue" stroke="midnightblue" points="2359.86,-82.5709 2370.17,-80.1514 2360.6,-75.6104 2359.86,-82.5709"/>
</g>
<!-- Node15 -->
<g id="node15" class="node"><title>Node15</title>
<g id="a_node15"><a xlink:href="testCheckWorkflow_8cxx.html" target="_top" xlink:title="Framework/test/testCheck\lWorkflow.cxx">
<polygon fill="none" stroke="black" points="1994.5,-0.5 1994.5,-30.5 2127.5,-30.5 2127.5,-0.5 1994.5,-0.5"/>
<text text-anchor="start" x="2002.5" y="-18.5" font-family="Helvetica,sans-Serif" font-size="10.00">Framework/test/testCheck</text>
<text text-anchor="middle" x="2061" y="-7.5" font-family="Helvetica,sans-Serif" font-size="10.00">Workflow.cxx</text>
</a>
</g>
</g>
<!-- Node9&#45;&gt;Node15 -->
<g id="edge14" class="edge"><title>Node9&#45;&gt;Node15</title>
<path fill="none" stroke="midnightblue" d="M2360.38,-72.7853C2299.76,-61.5159 2212.95,-45.3339 2137,-31 2133.96,-30.427 2130.86,-29.84 2127.73,-29.246"/>
<polygon fill="midnightblue" stroke="midnightblue" points="2359.79,-76.2345 2370.26,-74.6206 2361.07,-69.3523 2359.79,-76.2345"/>
</g>
<!-- Node16 -->
<g id="node16" class="node"><title>Node16</title>
<g id="a_node16"><a xlink:href="testWorkflow_8cxx.html" target="_top" xlink:title="Framework/test/testWorkflow.cxx">
<polygon fill="none" stroke="black" points="2146,-6 2146,-25 2310,-25 2310,-6 2146,-6"/>
<text text-anchor="middle" x="2228" y="-13" font-family="Helvetica,sans-Serif" font-size="10.00">Framework/test/testWorkflow.cxx</text>
</a>
</g>
</g>
<!-- Node9&#45;&gt;Node16 -->
<g id="edge15" class="edge"><title>Node9&#45;&gt;Node16</title>
<path fill="none" stroke="midnightblue" d="M2385.94,-69.7781C2343.92,-55.6029 2286.12,-36.1058 2253.36,-25.055"/>
<polygon fill="midnightblue" stroke="midnightblue" points="2384.86,-73.1073 2395.46,-72.9872 2387.1,-66.4744 2384.86,-73.1073"/>
</g>
<!-- Node17 -->
<g id="node17" class="node"><title>Node17</title>
<polygon fill="none" stroke="#bfbfbf" points="2328,-6 2328,-25 2546,-25 2546,-6 2328,-6"/>
<text text-anchor="middle" x="2437" y="-13" font-family="Helvetica,sans-Serif" font-size="10.00">Modules/EMCAL/src/runQCEMCALDigits.cxx</text>
</g>
<!-- Node9&#45;&gt;Node17 -->
<g id="edge16" class="edge"><title>Node9&#45;&gt;Node17</title>
<path fill="none" stroke="midnightblue" d="M2437,-62.5913C2437,-49.7136 2437,-34.6974 2437,-25.3932"/>
<polygon fill="midnightblue" stroke="midnightblue" points="2433.5,-62.7332 2437,-72.7333 2440.5,-62.7333 2433.5,-62.7332"/>
</g>
<!-- Node18 -->
<g id="node18" class="node"><title>Node18</title>
<polygon fill="none" stroke="#bfbfbf" points="2564,-6 2564,-25 2770,-25 2770,-6 2564,-6"/>
<text text-anchor="middle" x="2667" y="-13" font-family="Helvetica,sans-Serif" font-size="10.00">Modules/PHOS/src/runQCPHOSDigits.cxx</text>
</g>
<!-- Node9&#45;&gt;Node18 -->
<g id="edge17" class="edge"><title>Node9&#45;&gt;Node18</title>
<path fill="none" stroke="midnightblue" d="M2492.31,-70.046C2538.63,-55.8495 2602.81,-36.1755 2639.09,-25.055"/>
<polygon fill="midnightblue" stroke="midnightblue" points="2491.25,-66.7101 2482.72,-72.9872 2493.3,-73.4028 2491.25,-66.7101"/>
</g>
<!-- Node19 -->
<g id="node19" class="node"><title>Node19</title>
<polygon fill="none" stroke="#bfbfbf" points="2788,-0.5 2788,-30.5 2958,-30.5 2958,-0.5 2788,-0.5"/>
<text text-anchor="start" x="2796" y="-18.5" font-family="Helvetica,sans-Serif" font-size="10.00">Modules/TPC/run/runTPCQCTrack</text>
<text text-anchor="middle" x="2873" y="-7.5" font-family="Helvetica,sans-Serif" font-size="10.00">Reader.cxx</text>
</g>
<!-- Node9&#45;&gt;Node19 -->
<g id="edge18" class="edge"><title>Node9&#45;&gt;Node19</title>
<path fill="none" stroke="midnightblue" d="M2513.78,-74.5847C2590.57,-62.1687 2708.39,-43.1174 2787.96,-30.2502"/>
<polygon fill="midnightblue" stroke="midnightblue" points="2513.01,-71.1644 2503.69,-76.2158 2514.12,-78.0746 2513.01,-71.1644"/>
</g>
<!-- Node20&#45;&gt;Node4 -->
<g id="edge21" class="edge"><title>Node20&#45;&gt;Node4</title>
<path fill="none" stroke="midnightblue" d="M1334.42,-72.0975C1259.95,-57.7923 1150.09,-36.6883 1089.39,-25.027"/>
<polygon fill="midnightblue" stroke="midnightblue" points="1334.21,-75.6198 1344.69,-74.0692 1335.53,-68.7455 1334.21,-75.6198"/>
</g>
<!-- Node20&#45;&gt;Node6 -->
<g id="edge24" class="edge"><title>Node20&#45;&gt;Node6</title>
<path fill="none" stroke="midnightblue" d="M1367.57,-68.9991C1338.1,-57.0585 1299.98,-41.6135 1272.73,-30.5729"/>
<polygon fill="midnightblue" stroke="midnightblue" points="1366.62,-72.3913 1377.21,-72.9027 1369.25,-65.9036 1366.62,-72.3913"/>
</g>
<!-- Node20&#45;&gt;Node7 -->
<g id="edge25" class="edge"><title>Node20&#45;&gt;Node7</title>
<path fill="none" stroke="midnightblue" d="M1334.63,-81.931C1130.35,-68.5352 590.829,-33.076 572,-31 557.721,-29.4257 542.29,-27.2467 528.141,-25.056"/>
<polygon fill="midnightblue" stroke="midnightblue" points="1334.48,-85.4284 1344.69,-82.5903 1334.94,-78.4434 1334.48,-85.4284"/>
</g>
<!-- Node20&#45;&gt;Node8 -->
<g id="edge27" class="edge"><title>Node20&#45;&gt;Node8</title>
<path fill="none" stroke="midnightblue" d="M1334.62,-78.7482C1242.05,-68.635 1082.46,-50.4326 946,-31 933.43,-29.21 919.884,-27.079 907.277,-25.0092"/>
<polygon fill="midnightblue" stroke="midnightblue" points="1334.42,-82.2474 1344.74,-79.8511 1335.18,-75.2885 1334.42,-82.2474"/>
</g>
<!-- Node20&#45;&gt;Node10 -->
<g id="edge20" class="edge"><title>Node20&#45;&gt;Node10</title>
<path fill="none" stroke="midnightblue" d="M1455.51,-69.0622C1489.75,-54.9436 1535.95,-35.8958 1562.3,-25.0336"/>
<polygon fill="midnightblue" stroke="midnightblue" points="1454.1,-65.8553 1446.19,-72.9027 1456.77,-72.3269 1454.1,-65.8553"/>
</g>
<!-- Node21 -->
<g id="node21" class="node"><title>Node21</title>
<polygon fill="none" stroke="#bfbfbf" points="3140,-0.5 3140,-30.5 3294,-30.5 3294,-0.5 3140,-0.5"/>
<text text-anchor="start" x="3148" y="-18.5" font-family="Helvetica,sans-Serif" font-size="10.00">Framework/src/PostProcessing</text>
<text text-anchor="middle" x="3217" y="-7.5" font-family="Helvetica,sans-Serif" font-size="10.00">Runner.cxx</text>
</g>
<!-- Node20&#45;&gt;Node21 -->
<g id="edge22" class="edge"><title>Node20&#45;&gt;Node21</title>
<path fill="none" stroke="midnightblue" d="M1489.35,-85.0838C1802.3,-77.2485 2965.75,-47.2919 3130,-31 3133.2,-30.6826 3136.46,-30.3197 3139.75,-29.9209"/>
<polygon fill="midnightblue" stroke="midnightblue" points="1488.93,-81.5932 1479.02,-85.3422 1489.1,-88.591 1488.93,-81.5932"/>
</g>
<!-- Node22 -->
<g id="node22" class="node"><title>Node22</title>
<g id="a_node22"><a xlink:href="RepositoryBenchmark_8cxx.html" target="_top" xlink:title="Framework/src/Repository\lBenchmark.cxx">
<polygon fill="none" stroke="black" points="4226,-0.5 4226,-30.5 4358,-30.5 4358,-0.5 4226,-0.5"/>
<text text-anchor="start" x="4234" y="-18.5" font-family="Helvetica,sans-Serif" font-size="10.00">Framework/src/Repository</text>
<text text-anchor="middle" x="4292" y="-7.5" font-family="Helvetica,sans-Serif" font-size="10.00">Benchmark.cxx</text>
</a>
</g>
</g>
<!-- Node20&#45;&gt;Node22 -->
<g id="edge23" class="edge"><title>Node20&#45;&gt;Node22</title>
<path fill="none" stroke="midnightblue" d="M1489.35,-85.3259C1651.14,-81.8339 2037.15,-73.5533 2361,-67 2773.44,-58.654 3806.76,-74.3114 4217,-31 4219.9,-30.6937 4222.86,-30.3329 4225.84,-29.9293"/>
<polygon fill="midnightblue" stroke="midnightblue" points="1488.94,-81.8338 1479.02,-85.5489 1489.09,-88.8322 1488.94,-81.8338"/>
</g>
<!-- Node23 -->
<g id="node23" class="node"><title>Node23</title>
<g id="a_node23"><a xlink:href="testTrendingTask_8cxx.html" target="_top" xlink:title="Framework/test/testTrending\lTask.cxx">
<polygon fill="none" stroke="black" points="1341,-0.5 1341,-30.5 1483,-30.5 1483,-0.5 1341,-0.5"/>
<text text-anchor="start" x="1349" y="-18.5" font-family="Helvetica,sans-Serif" font-size="10.00">Framework/test/testTrending</text>
<text text-anchor="middle" x="1412" y="-7.5" font-family="Helvetica,sans-Serif" font-size="10.00">Task.cxx</text>
</a>
</g>
</g>
<!-- Node20&#45;&gt;Node23 -->
<g id="edge26" class="edge"><title>Node20&#45;&gt;Node23</title>
<path fill="none" stroke="midnightblue" d="M1412,-62.7317C1412,-52.0679 1412,-39.9145 1412,-30.7455"/>
<polygon fill="midnightblue" stroke="midnightblue" points="1408.5,-62.7332 1412,-72.7333 1415.5,-62.7333 1408.5,-62.7332"/>
</g>
<!-- Node24&#45;&gt;Node4 -->
<g id="edge29" class="edge"><title>Node24&#45;&gt;Node4</title>
<path fill="none" stroke="midnightblue" d="M1033.79,-62.977C1036.92,-50.0145 1040.59,-34.7904 1042.86,-25.3932"/>
<polygon fill="midnightblue" stroke="midnightblue" points="1030.38,-62.1914 1031.44,-72.7333 1037.19,-63.8324 1030.38,-62.1914"/>
</g>
<!-- Node24&#45;&gt;Node7 -->
<g id="edge31" class="edge"><title>Node24&#45;&gt;Node7</title>
<path fill="none" stroke="midnightblue" d="M956.232,-71.0337C948.413,-69.5504 940.554,-68.1683 933,-67 773.654,-42.3554 731.958,-51.298 572,-31 558.404,-29.2747 543.743,-27.1439 530.137,-25.052"/>
<polygon fill="midnightblue" stroke="midnightblue" points="955.603,-74.4769 966.088,-72.9584 956.945,-67.6067 955.603,-74.4769"/>
</g>
<!-- Node25 -->
<g id="node25" class="node"><title>Node25</title>
<g id="a_node25"><a xlink:href="DummyDatabase_8cxx.html" target="_top" xlink:title="Framework/src/DummyDatabase.cxx">
<polygon fill="none" stroke="black" points="581,-6 581,-25 761,-25 761,-6 581,-6"/>
<text text-anchor="middle" x="671" y="-13" font-family="Helvetica,sans-Serif" font-size="10.00">Framework/src/DummyDatabase.cxx</text>
</a>
</g>
</g>
<!-- Node24&#45;&gt;Node25 -->
<g id="edge30" class="edge"><title>Node24&#45;&gt;Node25</title>
<path fill="none" stroke="midnightblue" d="M952.011,-70.8819C945.583,-69.555 939.18,-68.2461 933,-67 857.166,-51.7102 768.777,-34.8784 716.485,-25.0231"/>
<polygon fill="midnightblue" stroke="midnightblue" points="951.602,-74.3714 962.104,-72.9751 953.023,-67.5173 951.602,-74.3714"/>
</g>
<!-- Node27 -->
<g id="node27" class="node"><title>Node27</title>
<g id="a_node27"><a xlink:href="MySqlDatabase_8cxx.html" target="_top" xlink:title="Framework/src/MySqlDatabase.cxx">
<polygon fill="none" stroke="black" points="4540.5,-6 4540.5,-25 4713.5,-25 4713.5,-6 4540.5,-6"/>
<text text-anchor="middle" x="4627" y="-13" font-family="Helvetica,sans-Serif" font-size="10.00">Framework/src/MySqlDatabase.cxx</text>
</a>
</g>
</g>
<!-- Node26&#45;&gt;Node27 -->
<g id="edge33" class="edge"><title>Node26&#45;&gt;Node27</title>
<path fill="none" stroke="midnightblue" d="M4133.55,-70.6211C4139.41,-69.2626 4145.31,-68.0215 4151,-67 4317.98,-37.0411 4362.62,-51.676 4531,-31 4545.05,-29.2744 4560.22,-27.12 4574.26,-25.0041"/>
<polygon fill="midnightblue" stroke="midnightblue" points="4132.64,-67.2406 4123.75,-73 4134.29,-74.0432 4132.64,-67.2406"/>
</g>
<!-- Node28&#45;&gt;Node21 -->
<g id="edge36" class="edge"><title>Node28&#45;&gt;Node21</title>
<path fill="none" stroke="midnightblue" d="M3670.43,-77.1532C3577.92,-66.8073 3430.22,-49.4929 3303,-31 3300.15,-30.5862 3297.26,-30.1539 3294.33,-29.7082"/>
<polygon fill="midnightblue" stroke="midnightblue" points="3670.27,-80.657 3680.6,-78.287 3671.05,-73.7002 3670.27,-80.657"/>
</g>
<!-- Node29 -->
<g id="node29" class="node"><title>Node29</title>
<g id="a_node29"><a xlink:href="PostProcessingDevice_8cxx.html" target="_top" xlink:title="Framework/src/PostProcessing\lDevice.cxx">
<polygon fill="none" stroke="black" points="4054,-0.5 4054,-30.5 4208,-30.5 4208,-0.5 4054,-0.5"/>
<text text-anchor="start" x="4062" y="-18.5" font-family="Helvetica,sans-Serif" font-size="10.00">Framework/src/PostProcessing</text>
<text text-anchor="middle" x="4131" y="-7.5" font-family="Helvetica,sans-Serif" font-size="10.00">Device.cxx</text>
</a>
</g>
</g>
<!-- Node28&#45;&gt;Node29 -->
<g id="edge35" class="edge"><title>Node28&#45;&gt;Node29</title>
<path fill="none" stroke="midnightblue" d="M3831.52,-70.8595C3837.76,-69.5196 3843.99,-68.2148 3850,-67 3918.75,-53.1051 3997.35,-39.1421 4053.9,-29.4313"/>
<polygon fill="midnightblue" stroke="midnightblue" points="3830.76,-67.4435 3821.73,-72.9858 3832.24,-74.284 3830.76,-67.4435"/>
</g>
<!-- Node30 -->
<g id="node30" class="node"><title>Node30</title>
<g id="a_node30"><a xlink:href="runPostProcessing_8cxx.html" target="_top" xlink:title="This is a standalone executable to run postprocessing. ">
<polygon fill="none" stroke="black" points="3474,-6 3474,-25 3660,-25 3660,-6 3474,-6"/>
<text text-anchor="middle" x="3567" y="-13" font-family="Helvetica,sans-Serif" font-size="10.00">Framework/src/runPostProcessing.cxx</text>
</a>
</g>
</g>
<!-- Node28&#45;&gt;Node30 -->
<g id="edge37" class="edge"><title>Node28&#45;&gt;Node30</title>
<path fill="none" stroke="midnightblue" d="M3712.63,-69.4231C3673.69,-55.2698 3620.63,-35.9887 3590.48,-25.0336"/>
<polygon fill="midnightblue" stroke="midnightblue" points="3711.61,-72.7767 3722.21,-72.9027 3714,-66.1976 3711.61,-72.7767"/>
</g>
<!-- Node31 -->
<g id="node31" class="node"><title>Node31</title>
<g id="a_node31"><a xlink:href="runPostProcessingOCC_8cxx.html" target="_top" xlink:title="This is an OCC executable to run postprocessing. ">
<polygon fill="none" stroke="black" points="3677.5,-0.5 3677.5,-30.5 3844.5,-30.5 3844.5,-0.5 3677.5,-0.5"/>
<text text-anchor="start" x="3685.5" y="-18.5" font-family="Helvetica,sans-Serif" font-size="10.00">Framework/src/runPostProcessing</text>
<text text-anchor="middle" x="3761" y="-7.5" font-family="Helvetica,sans-Serif" font-size="10.00">OCC.cxx</text>
</a>
</g>
</g>
<!-- Node28&#45;&gt;Node31 -->
<g id="edge38" class="edge"><title>Node28&#45;&gt;Node31</title>
<path fill="none" stroke="midnightblue" d="M3761,-62.7317C3761,-52.0679 3761,-39.9145 3761,-30.7455"/>
<polygon fill="midnightblue" stroke="midnightblue" points="3757.5,-62.7332 3761,-72.7333 3764.5,-62.7333 3757.5,-62.7332"/>
</g>
<!-- Node32 -->
<g id="node32" class="node"><title>Node32</title>
<g id="a_node32"><a xlink:href="testPostProcessingRunner_8cxx.html" target="_top" xlink:title="Framework/test/testPostProcessing\lRunner.cxx">
<polygon fill="none" stroke="black" points="3862.5,-0.5 3862.5,-30.5 4035.5,-30.5 4035.5,-0.5 3862.5,-0.5"/>
<text text-anchor="start" x="3870.5" y="-18.5" font-family="Helvetica,sans-Serif" font-size="10.00">Framework/test/testPostProcessing</text>
<text text-anchor="middle" x="3949" y="-7.5" font-family="Helvetica,sans-Serif" font-size="10.00">Runner.cxx</text>
</a>
</g>
</g>
<!-- Node28&#45;&gt;Node32 -->
<g id="edge39" class="edge"><title>Node28&#45;&gt;Node32</title>
<path fill="none" stroke="midnightblue" d="M3808.17,-69.3098C3840.13,-57.3275 3881.77,-41.7096 3911.47,-30.5729"/>
<polygon fill="midnightblue" stroke="midnightblue" points="3806.73,-66.1143 3798.59,-72.9027 3809.19,-72.6686 3806.73,-66.1143"/>
</g>
<!-- Node33&#45;&gt;Node22 -->
<g id="edge41" class="edge"><title>Node33&#45;&gt;Node22</title>
<path fill="none" stroke="midnightblue" d="M3984.73,-70.519C3989.88,-69.2663 3995.02,-68.0738 4000,-67 4095.56,-46.3813 4120.78,-48.2801 4217,-31 4219.87,-30.4843 4222.8,-29.9501 4225.76,-29.4045"/>
<polygon fill="midnightblue" stroke="midnightblue" points="3983.72,-67.1656 3974.86,-72.9869 3985.41,-73.9565 3983.72,-67.1656"/>
</g>
<!-- Node34 -->
<g id="node34" class="node"><title>Node34</title>
<g id="a_node34"><a xlink:href="runRepositoryBenchmark_8cxx.html" target="_top" xlink:title="Framework/src/runRepository\lBenchmark.cxx">
<polygon fill="none" stroke="black" points="4376,-0.5 4376,-30.5 4522,-30.5 4522,-0.5 4376,-0.5"/>
<text text-anchor="start" x="4384" y="-18.5" font-family="Helvetica,sans-Serif" font-size="10.00">Framework/src/runRepository</text>
<text text-anchor="middle" x="4449" y="-7.5" font-family="Helvetica,sans-Serif" font-size="10.00">Benchmark.cxx</text>
</a>
</g>
</g>
<!-- Node33&#45;&gt;Node34 -->
<g id="edge42" class="edge"><title>Node33&#45;&gt;Node34</title>
<path fill="none" stroke="midnightblue" d="M3983.24,-70.4821C3988.88,-69.1815 3994.53,-67.9908 4000,-67 4161.27,-37.7886 4204.63,-53.2859 4367,-31 4369.86,-30.6068 4372.78,-30.1866 4375.73,-29.7459"/>
<polygon fill="midnightblue" stroke="midnightblue" points="3982.05,-67.1687 3973.15,-72.9222 3983.7,-73.9724 3982.05,-67.1687"/>
</g>
<!-- Node39 -->
<g id="node39" class="node"><title>Node39</title>
<g id="a_node39"><a xlink:href="PostProcessDiagnosticPerCrate_8cxx.html" target="_top" xlink:title="Post processing to rearrange TOF information at the level of the crate (maybe we should do the opposi...">
<polygon fill="none" stroke="black" points="4732,-0.5 4732,-30.5 4884,-30.5 4884,-0.5 4732,-0.5"/>
<text text-anchor="start" x="4740" y="-18.5" font-family="Helvetica,sans-Serif" font-size="10.00">Modules/TOF/src/PostProcess</text>
<text text-anchor="middle" x="4808" y="-7.5" font-family="Helvetica,sans-Serif" font-size="10.00">DiagnosticPerCrate.cxx</text>
</a>
</g>
</g>
<!-- Node38&#45;&gt;Node39 -->
<g id="edge47" class="edge"><title>Node38&#45;&gt;Node39</title>
<path fill="none" stroke="midnightblue" d="M4777.76,-59.1417C4784.62,-49.4718 4792.02,-39.0249 4797.79,-30.8916"/>
<polygon fill="midnightblue" stroke="midnightblue" points="4774.86,-57.1802 4771.93,-67.3618 4780.57,-61.2297 4774.86,-57.1802"/>
</g>
</g>
</svg>
        <g id="navigator" transform="translate(0 0)" fill="#404254">
                <rect fill="#f2f5e9" fill-opacity="0.5" stroke="#606060" stroke-width=".5" x="0" y="0" width="60" height="60"/>
                <use id="zoomplus" xlink:href="#zoomPlus" x="17" y="9" onmousedown="handleZoom(evt,'in')"/>
                <use id="zoomminus" xlink:href="#zoomMin" x="42" y="9" onmousedown="handleZoom(evt,'out')"/>
                <use id="reset" xlink:href="#resetDef" x="30" y="36" onmousedown="handleReset()"/>
                <g id="arrowUp" xlink:href="#dirArrow" transform="translate(30 24)" onmousedown="handlePan(0,-1)">
                  <use xlink:href="#rim" fill="#404040">
                        <set attributeName="fill" to="#808080" begin="arrowUp.mouseover" end="arrowUp.mouseout"/>
                  </use>
                  <path fill="none" stroke="white" stroke-width="1.5" d="M0,-3.0v7 M-2.5,-0.5L0,-3.0L2.5,-0.5"/>
                </g>
                <g id="arrowRight" xlink:href="#dirArrow" transform="rotate(90) translate(36 -43)" onmousedown="handlePan(1,0)">
                  <use xlink:href="#rim" fill="#404040">
                        <set attributeName="fill" to="#808080" begin="arrowRight.mouseover" end="arrowRight.mouseout"/>
                  </use>
                  <path fill="none" stroke="white" stroke-width="1.5" d="M0,-3.0v7 M-2.5,-0.5L0,-3.0L2.5,-0.5"/>
                </g>
                <g id="arrowDown" xlink:href="#dirArrow" transform="rotate(180) translate(-30 -48)" onmousedown="handlePan(0,1)">
                  <use xlink:href="#rim" fill="#404040">
                        <set attributeName="fill" to="#808080" begin="arrowDown.mouseover" end="arrowDown.mouseout"/>
                  </use>
                  <path fill="none" stroke="white" stroke-width="1.5" d="M0,-3.0v7 M-2.5,-0.5L0,-3.0L2.5,-0.5"/>
                </g>
                <g id="arrowLeft" xlink:href="#dirArrow" transform="rotate(270) translate(-36 17)" onmousedown="handlePan(-1,0)">
                  <use xlink:href="#rim" fill="#404040">
                        <set attributeName="fill" to="#808080" begin="arrowLeft.mouseover" end="arrowLeft.mouseout"/>
                  </use>
                  <path fill="none" stroke="white" stroke-width="1.5" d="M0,-3.0v7 M-2.5,-0.5L0,-3.0L2.5,-0.5"/>
                </g>
        </g>
        <svg viewBox="0 0 15 15" width="100%" height="30px" preserveAspectRatio="xMaxYMin meet">
         <g id="arrow_out" transform="scale(0.3 0.3)">
          <a xlink:href="DatabaseInterface_8h__dep__incl_org.svg" target="_base">
           <rect id="button" ry="5" rx="5" y="6" x="6" height="38" width="38"
                fill="#f2f5e9" fill-opacity="0.5" stroke="#606060" stroke-width="1.0"/>
           <path id="arrow"
             d="M 11.500037,31.436501 C 11.940474,20.09759 22.043105,11.32322 32.158766,21.979434 L 37.068811,17.246167 C 37.068811,17.246167 37.088388,32 37.088388,32 L 22.160133,31.978069 C 22.160133,31.978069 26.997745,27.140456 26.997745,27.140456 C 18.528582,18.264221 13.291696,25.230495 11.500037,31.436501 z"
             style="fill:#404040;"/>
          </a>
         </g>
        </svg>
</svg>
