<?xml version="1.0" encoding="UTF-8" standalone="no"?>
<!DOCTYPE svg PUBLIC "-//W3C//DTD SVG 1.1//EN"
 "http://www.w3.org/Graphics/SVG/1.1/DTD/svg11.dtd">
<!-- Generated by graphviz version 2.38.0 (20140413.2041)
 -->
<!-- Title: Modules Pages: 1 -->
<svg width="964pt" height="132pt"
 viewBox="0.00 0.00 964.00 132.00" xmlns="http://www.w3.org/2000/svg" xmlns:xlink="http://www.w3.org/1999/xlink">
<g id="graph0" class="graph" transform="scale(1 1) rotate(0) translate(4 128)">
<title>Modules</title>
<g id="clust1" class="cluster"><title>clusterdir_f2541a3b18981391fa76fac5599e978a</title>
<g id="a_clust1"><a xlink:href="dir_f2541a3b18981391fa76fac5599e978a.html" target="_top">
<polygon fill="#eeeeff" stroke="black" points="8,-64 8,-116 948,-116 948,-64 8,-64"/>
</a>
</g>
</g>
<!-- dir_f2541a3b18981391fa76fac5599e978a -->
<g id="node1" class="node"><title>dir_f2541a3b18981391fa76fac5599e978a</title>
<text text-anchor="middle" x="913" y="-87.5" font-family="Helvetica,sans-Serif" font-size="10.00">Modules</text>
</g>
<!-- dir_6b8bd6c02904bc94839ef977dfbf16fd -->
<g id="node2" class="node"><title>dir_6b8bd6c02904bc94839ef977dfbf16fd</title>
<g id="a_node2"><a xlink:href="dir_6b8bd6c02904bc94839ef977dfbf16fd.html" target="_top" xlink:title="Common">
<polygon fill="white" stroke="red" points="868,-108 812,-108 812,-72 868,-72 868,-108"/>
<text text-anchor="middle" x="840" y="-87.5" font-family="Helvetica,sans-Serif" font-size="10.00">Common</text>
</a>
</g>
</g>
<!-- dir_bcbb2cf9a3d3d83e5515c82071a07177 -->
<g id="node14" class="node"><title>dir_bcbb2cf9a3d3d83e5515c82071a07177</title>
<g id="a_node14"><a xlink:href="dir_bcbb2cf9a3d3d83e5515c82071a07177.html" target="_top" xlink:title="Framework">
<polygon fill="none" stroke="red" points="473.5,-36 408.5,-36 408.5,-0 473.5,-0 473.5,-36"/>
<text text-anchor="middle" x="441" y="-15.5" font-family="Helvetica,sans-Serif" font-size="10.00">Framework</text>
</a>
</g>
</g>
<!-- dir_6b8bd6c02904bc94839ef977dfbf16fd&#45;&gt;dir_bcbb2cf9a3d3d83e5515c82071a07177 -->
<g id="edge10" class="edge"><title>dir_6b8bd6c02904bc94839ef977dfbf16fd&#45;&gt;dir_bcbb2cf9a3d3d83e5515c82071a07177</title>
<path fill="none" stroke="black" d="M818.233,-71.8591C813.439,-68.7962 808.226,-65.9608 803,-64 745.355,-42.3719 566.453,-27.6388 483.738,-21.8034"/>
<polygon fill="black" stroke="black" points="483.889,-18.3055 473.67,-21.1036 483.403,-25.2887 483.889,-18.3055"/>
<g id="a_edge10&#45;headlabel"><a xlink:href="dir_000004_000000.html" target="_top" xlink:title="17">
<text text-anchor="middle" x="487.671" y="-13.2222" font-family="Helvetica,sans-Serif" font-size="10.00">17</text>
</a>
</g>
</g>
<!-- dir_b4be303506ebb37c6dc24696436a6ab8 -->
<g id="node3" class="node"><title>dir_b4be303506ebb37c6dc24696436a6ab8</title>
<g id="a_node3"><a xlink:href="dir_b4be303506ebb37c6dc24696436a6ab8.html" target="_top" xlink:title="Daq">
<polygon fill="white" stroke="red" points="794,-108 740,-108 740,-72 794,-72 794,-108"/>
<text text-anchor="middle" x="767" y="-87.5" font-family="Helvetica,sans-Serif" font-size="10.00">Daq</text>
</a>
</g>
</g>
<!-- dir_b4be303506ebb37c6dc24696436a6ab8&#45;&gt;dir_bcbb2cf9a3d3d83e5515c82071a07177 -->
<g id="edge12" class="edge"><title>dir_b4be303506ebb37c6dc24696436a6ab8&#45;&gt;dir_bcbb2cf9a3d3d83e5515c82071a07177</title>
<path fill="none" stroke="black" d="M745.825,-71.9734C741.16,-68.9022 736.087,-66.0345 731,-64 647.72,-30.692 541.841,-21.9138 483.826,-19.6796"/>
<polygon fill="black" stroke="black" points="483.679,-16.1727 473.566,-19.3341 483.443,-23.1687 483.679,-16.1727"/>
<g id="a_edge12&#45;headlabel"><a xlink:href="dir_000007_000000.html" target="_top" xlink:title="3">
<text text-anchor="middle" x="487.367" y="-10.9559" font-family="Helvetica,sans-Serif" font-size="10.00">3</text>
</a>
</g>
</g>
<!-- dir_ed80be2c367d80462ec6a6a3f0ad67d1 -->
<g id="node4" class="node"><title>dir_ed80be2c367d80462ec6a6a3f0ad67d1</title>
<g id="a_node4"><a xlink:href="dir_ed80be2c367d80462ec6a6a3f0ad67d1.html" target="_top" xlink:title="EMCAL">
<polygon fill="white" stroke="red" points="722,-108 668,-108 668,-72 722,-72 722,-108"/>
<text text-anchor="middle" x="695" y="-87.5" font-family="Helvetica,sans-Serif" font-size="10.00">EMCAL</text>
</a>
</g>
</g>
<!-- dir_ed80be2c367d80462ec6a6a3f0ad67d1&#45;&gt;dir_bcbb2cf9a3d3d83e5515c82071a07177 -->
<g id="edge5" class="edge"><title>dir_ed80be2c367d80462ec6a6a3f0ad67d1&#45;&gt;dir_bcbb2cf9a3d3d83e5515c82071a07177</title>
<path fill="none" stroke="black" d="M673.355,-71.9112C668.805,-68.9209 663.895,-66.1001 659,-64 601.176,-39.192 528.723,-27.7374 483.639,-22.6855"/>
<polygon fill="black" stroke="black" points="483.937,-19.1974 473.622,-21.6182 483.195,-26.158 483.937,-19.1974"/>
<g id="a_edge5&#45;headlabel"><a xlink:href="dir_000010_000000.html" target="_top" xlink:title="16">
<text text-anchor="middle" x="487.812" y="-14.2549" font-family="Helvetica,sans-Serif" font-size="10.00">16</text>
</a>
</g>
</g>
<!-- dir_5273b6b5b4e75477d91e3579fb65d936 -->
<g id="node5" class="node"><title>dir_5273b6b5b4e75477d91e3579fb65d936</title>
<g id="a_node5"><a xlink:href="dir_5273b6b5b4e75477d91e3579fb65d936.html" target="_top" xlink:title="Example">
<polygon fill="white" stroke="red" points="649.5,-108 594.5,-108 594.5,-72 649.5,-72 649.5,-108"/>
<text text-anchor="middle" x="622" y="-87.5" font-family="Helvetica,sans-Serif" font-size="10.00">Example</text>
</a>
</g>
</g>
<!-- dir_5273b6b5b4e75477d91e3579fb65d936&#45;&gt;dir_bcbb2cf9a3d3d83e5515c82071a07177 -->
<g id="edge6" class="edge"><title>dir_5273b6b5b4e75477d91e3579fb65d936&#45;&gt;dir_bcbb2cf9a3d3d83e5515c82071a07177</title>
<path fill="none" stroke="black" d="M598.729,-71.795C594.303,-68.9553 589.61,-66.2189 585,-64 552.382,-48.302 513.013,-36.4382 483.689,-28.8439"/>
<polygon fill="black" stroke="black" points="484.316,-25.3924 473.764,-26.3365 482.602,-32.1792 484.316,-25.3924"/>
<g id="a_edge6&#45;headlabel"><a xlink:href="dir_000013_000000.html" target="_top" xlink:title="11">
<text text-anchor="middle" x="488.497" y="-21.0199" font-family="Helvetica,sans-Serif" font-size="10.00">11</text>
</a>
</g>
</g>
<!-- dir_48a8cb84b7ebf8a30d1487d6c616d7f4 -->
<g id="node6" class="node"><title>dir_48a8cb84b7ebf8a30d1487d6c616d7f4</title>
<g id="a_node6"><a xlink:href="dir_48a8cb84b7ebf8a30d1487d6c616d7f4.html" target="_top" xlink:title="ITS">
<polygon fill="white" stroke="red" points="576,-108 522,-108 522,-72 576,-72 576,-108"/>
<text text-anchor="middle" x="549" y="-87.5" font-family="Helvetica,sans-Serif" font-size="10.00">ITS</text>
</a>
</g>
</g>
<!-- dir_48a8cb84b7ebf8a30d1487d6c616d7f4&#45;&gt;dir_bcbb2cf9a3d3d83e5515c82071a07177 -->
<g id="edge2" class="edge"><title>dir_48a8cb84b7ebf8a30d1487d6c616d7f4&#45;&gt;dir_bcbb2cf9a3d3d83e5515c82071a07177</title>
<path fill="none" stroke="black" d="M524.709,-71.8948C520.815,-69.2208 516.812,-66.5127 513,-64 501.735,-56.5744 489.321,-48.7061 478.02,-41.6609"/>
<polygon fill="black" stroke="black" points="479.581,-38.5104 469.239,-36.2114 475.89,-44.4582 479.581,-38.5104"/>
<g id="a_edge2&#45;headlabel"><a xlink:href="dir_000016_000000.html" target="_top" xlink:title="26">
<text text-anchor="middle" x="484.132" y="-35.4933" font-family="Helvetica,sans-Serif" font-size="10.00">26</text>
</a>
</g>
</g>
<!-- dir_83d1d206e08935b361e68569931943ec -->
<g id="node7" class="node"><title>dir_83d1d206e08935b361e68569931943ec</title>
<g id="a_node7"><a xlink:href="dir_83d1d206e08935b361e68569931943ec.html" target="_top" xlink:title="MFT">
<polygon fill="white" stroke="red" points="504,-108 450,-108 450,-72 504,-72 504,-108"/>
<text text-anchor="middle" x="477" y="-87.5" font-family="Helvetica,sans-Serif" font-size="10.00">MFT</text>
</a>
</g>
</g>
<!-- dir_83d1d206e08935b361e68569931943ec&#45;&gt;dir_bcbb2cf9a3d3d83e5515c82071a07177 -->
<g id="edge9" class="edge"><title>dir_83d1d206e08935b361e68569931943ec&#45;&gt;dir_bcbb2cf9a3d3d83e5515c82071a07177</title>
<path fill="none" stroke="black" d="M468.101,-71.6966C464.003,-63.7284 459.051,-54.0995 454.507,-45.2641"/>
<polygon fill="black" stroke="black" points="457.483,-43.3965 449.797,-36.1043 451.258,-46.598 457.483,-43.3965"/>
<g id="a_edge9&#45;headlabel"><a xlink:href="dir_000019_000000.html" target="_top" xlink:title="16">
<text text-anchor="middle" x="461.651" y="-42.7946" font-family="Helvetica,sans-Serif" font-size="10.00">16</text>
</a>
</g>
</g>
<!-- dir_ed72a712e51ac04ff45d8c7804f27dca -->
<g id="node8" class="node"><title>dir_ed72a712e51ac04ff45d8c7804f27dca</title>
<g id="a_node8"><a xlink:href="dir_ed72a712e51ac04ff45d8c7804f27dca.html" target="_top" xlink:title="MID">
<polygon fill="white" stroke="red" points="432,-108 378,-108 378,-72 432,-72 432,-108"/>
<text text-anchor="middle" x="405" y="-87.5" font-family="Helvetica,sans-Serif" font-size="10.00">MID</text>
</a>
</g>
</g>
<!-- dir_ed72a712e51ac04ff45d8c7804f27dca&#45;&gt;dir_bcbb2cf9a3d3d83e5515c82071a07177 -->
<g id="edge3" class="edge"><title>dir_ed72a712e51ac04ff45d8c7804f27dca&#45;&gt;dir_bcbb2cf9a3d3d83e5515c82071a07177</title>
<path fill="none" stroke="black" d="M413.899,-71.6966C417.997,-63.7284 422.949,-54.0995 427.493,-45.2641"/>
<polygon fill="black" stroke="black" points="430.742,-46.598 432.203,-36.1043 424.517,-43.3965 430.742,-46.598"/>
<g id="a_edge3&#45;headlabel"><a xlink:href="dir_000022_000000.html" target="_top" xlink:title="10">
<text text-anchor="middle" x="431.623" y="-48.5931" font-family="Helvetica,sans-Serif" font-size="10.00">10</text>
</a>
</g>
</g>
<!-- dir_d3f38a47912c447ca68cc325fcb37be5 -->
<g id="node9" class="node"><title>dir_d3f38a47912c447ca68cc325fcb37be5</title>
<g id="a_node9"><a xlink:href="dir_d3f38a47912c447ca68cc325fcb37be5.html" target="_top" xlink:title="MUON">
<polygon fill="white" stroke="red" points="360,-108 306,-108 306,-72 360,-72 360,-108"/>
<text text-anchor="middle" x="333" y="-87.5" font-family="Helvetica,sans-Serif" font-size="10.00">MUON</text>
</a>
</g>
</g>
<!-- dir_d3f38a47912c447ca68cc325fcb37be5&#45;&gt;dir_bcbb2cf9a3d3d83e5515c82071a07177 -->
<g id="edge8" class="edge"><title>dir_d3f38a47912c447ca68cc325fcb37be5&#45;&gt;dir_bcbb2cf9a3d3d83e5515c82071a07177</title>
<path fill="none" stroke="black" d="M357.291,-71.8948C361.185,-69.2208 365.188,-66.5127 369,-64 380.265,-56.5744 392.679,-48.7061 403.98,-41.6609"/>
<polygon fill="black" stroke="black" points="406.11,-44.4582 412.761,-36.2114 402.419,-38.5104 406.11,-44.4582"/>
<g id="a_edge8&#45;headlabel"><a xlink:href="dir_000025_000000.html" target="_top" xlink:title="18">
<text text-anchor="middle" x="404.553" y="-46.2661" font-family="Helvetica,sans-Serif" font-size="10.00">18</text>
</a>
</g>
</g>
<!-- dir_e5d84f0709a9c6ad9e00d771422a7ef2 -->
<g id="node10" class="node"><title>dir_e5d84f0709a9c6ad9e00d771422a7ef2</title>
<g id="a_node10"><a xlink:href="dir_e5d84f0709a9c6ad9e00d771422a7ef2.html" target="_top" xlink:title="PHOS">
<polygon fill="white" stroke="red" points="288,-108 234,-108 234,-72 288,-72 288,-108"/>
<text text-anchor="middle" x="261" y="-87.5" font-family="Helvetica,sans-Serif" font-size="10.00">PHOS</text>
</a>
</g>
</g>
<!-- dir_e5d84f0709a9c6ad9e00d771422a7ef2&#45;&gt;dir_bcbb2cf9a3d3d83e5515c82071a07177 -->
<g id="edge4" class="edge"><title>dir_e5d84f0709a9c6ad9e00d771422a7ef2&#45;&gt;dir_bcbb2cf9a3d3d83e5515c82071a07177</title>
<path fill="none" stroke="black" d="M283.6,-71.7749C287.911,-68.9373 292.489,-66.2067 297,-64 329.622,-48.0425 369.149,-36.1701 398.531,-28.6387"/>
<polygon fill="black" stroke="black" points="399.619,-31.9747 408.473,-26.1563 397.923,-25.1832 399.619,-31.9747"/>
<g id="a_edge4&#45;headlabel"><a xlink:href="dir_000029_000000.html" target="_top" xlink:title="14">
<text text-anchor="middle" x="396.819" y="-33.1001" font-family="Helvetica,sans-Serif" font-size="10.00">14</text>
</a>
</g>
</g>
<!-- dir_cc72967e88078b463843b5977855e60d -->
<g id="node11" class="node"><title>dir_cc72967e88078b463843b5977855e60d</title>
<g id="a_node11"><a xlink:href="dir_cc72967e88078b463843b5977855e60d.html" target="_top" xlink:title="Skeleton">
<polygon fill="white" stroke="red" points="215.5,-108 160.5,-108 160.5,-72 215.5,-72 215.5,-108"/>
<text text-anchor="middle" x="188" y="-87.5" font-family="Helvetica,sans-Serif" font-size="10.00">Skeleton</text>
</a>
</g>
</g>
<!-- dir_cc72967e88078b463843b5977855e60d&#45;&gt;dir_bcbb2cf9a3d3d83e5515c82071a07177 -->
<g id="edge7" class="edge"><title>dir_cc72967e88078b463843b5977855e60d&#45;&gt;dir_bcbb2cf9a3d3d83e5515c82071a07177</title>
<path fill="none" stroke="black" d="M210.297,-71.9306C214.97,-68.9386 220.001,-66.1123 225,-64 282.165,-39.8443 353.485,-28.24 398.149,-22.9751"/>
<polygon fill="black" stroke="black" points="398.81,-26.423 408.356,-21.8279 398.028,-19.4668 398.81,-26.423"/>
<g id="a_edge7&#45;headlabel"><a xlink:href="dir_000032_000000.html" target="_top" xlink:title="10">
<text text-anchor="middle" x="395.555" y="-27.1459" font-family="Helvetica,sans-Serif" font-size="10.00">10</text>
</a>
</g>
</g>
<!-- dir_d97bc60669e70ebe18802fd5c1c1d939 -->
<g id="node12" class="node"><title>dir_d97bc60669e70ebe18802fd5c1c1d939</title>
<g id="a_node12"><a xlink:href="dir_d97bc60669e70ebe18802fd5c1c1d939.html" target="_top" xlink:title="TOF">
<polygon fill="white" stroke="red" points="142,-108 88,-108 88,-72 142,-72 142,-108"/>
<text text-anchor="middle" x="115" y="-87.5" font-family="Helvetica,sans-Serif" font-size="10.00">TOF</text>
</a>
</g>
</g>
<!-- dir_d97bc60669e70ebe18802fd5c1c1d939&#45;&gt;dir_bcbb2cf9a3d3d83e5515c82071a07177 -->
<g id="edge11" class="edge"><title>dir_d97bc60669e70ebe18802fd5c1c1d939&#45;&gt;dir_bcbb2cf9a3d3d83e5515c82071a07177</title>
<path fill="none" stroke="black" d="M136.814,-71.9835C141.605,-68.9115 146.805,-66.041 152,-64 234.979,-31.4006 340.073,-22.3501 397.919,-19.8811"/>
<polygon fill="black" stroke="black" points="398.294,-23.3694 408.154,-19.4924 398.028,-16.3745 398.294,-23.3694"/>
<g id="a_edge11&#45;headlabel"><a xlink:href="dir_000035_000000.html" target="_top" xlink:title="32">
<text text-anchor="middle" x="394.809" y="-23.843" font-family="Helvetica,sans-Serif" font-size="10.00">32</text>
</a>
</g>
</g>
<!-- dir_1daf86e93d49a76fe0702a1348efb120 -->
<g id="node13" class="node"><title>dir_1daf86e93d49a76fe0702a1348efb120</title>
<g id="a_node13"><a xlink:href="dir_1daf86e93d49a76fe0702a1348efb120.html" target="_top" xlink:title="TPC">
<polygon fill="white" stroke="red" points="70,-108 16,-108 16,-72 70,-72 70,-108"/>
<text text-anchor="middle" x="43" y="-87.5" font-family="Helvetica,sans-Serif" font-size="10.00">TPC</text>
</a>
</g>
</g>
<!-- dir_1daf86e93d49a76fe0702a1348efb120&#45;&gt;dir_bcbb2cf9a3d3d83e5515c82071a07177 -->
<g id="edge1" class="edge"><title>dir_1daf86e93d49a76fe0702a1348efb120&#45;&gt;dir_bcbb2cf9a3d3d83e5515c82071a07177</title>
<path fill="none" stroke="black" d="M64.1283,-71.8537C68.7965,-68.7912 73.8829,-65.9573 79,-64 136.505,-42.0041 315.48,-27.462 398.238,-21.7396"/>
<polygon fill="black" stroke="black" points="398.572,-25.225 408.311,-21.0539 398.097,-18.2412 398.572,-25.225"/>
<g id="a_edge1&#45;headlabel"><a xlink:href="dir_000038_000000.html" target="_top" xlink:title="17">
<text text-anchor="middle" x="395.179" y="-25.8018" font-family="Helvetica,sans-Serif" font-size="10.00">17</text>
</a>
</g>
</g>
</g>
</svg>
