<?xml version="1.0" encoding="UTF-8" standalone="no"?>
<!DOCTYPE svg PUBLIC "-//W3C//DTD SVG 1.1//EN"
 "http://www.w3.org/Graphics/SVG/1.1/DTD/svg11.dtd">
<!-- Generated by graphviz version 2.38.0 (20140413.2041)
 -->
<!-- Title: Graphical Class Hierarchy Pages: 1 -->
<svg width="331pt" height="1267pt"
 viewBox="0.00 0.00 331.00 1267.00" xmlns="http://www.w3.org/2000/svg" xmlns:xlink="http://www.w3.org/1999/xlink">
<g id="graph0" class="graph" transform="scale(1 1) rotate(0) translate(4 1263)">
<title>Graphical Class Hierarchy</title>
<!-- Node1 -->
<g id="node1" class="node"><title>Node1</title>
<g id="a_node1"><a xlink:href="classo2_1_1quality__control_1_1core_1_1TaskInterface.html" target="_top" xlink:title="Skeleton of a QC task. ">
<polygon fill="none" stroke="black" points="0,-630.5 0,-660.5 107,-660.5 107,-630.5 0,-630.5"/>
<text text-anchor="start" x="8" y="-648.5" font-family="Helvetica,sans-Serif" font-size="10.00">o2::quality_control</text>
<text text-anchor="middle" x="53.5" y="-637.5" font-family="Helvetica,sans-Serif" font-size="10.00">::core::TaskInterface</text>
</a>
</g>
</g>
<!-- Node2 -->
<g id="node2" class="node"><title>Node2</title>
<g id="a_node2"><a xlink:href="classo2_1_1quality__control_1_1test_1_1TestTask.html" target="_top" xlink:title="o2::quality_control\l::test::TestTask">
<polygon fill="none" stroke="black" points="185,-1228.5 185,-1258.5 281,-1258.5 281,-1228.5 185,-1228.5"/>
<text text-anchor="start" x="193" y="-1246.5" font-family="Helvetica,sans-Serif" font-size="10.00">o2::quality_control</text>
<text text-anchor="middle" x="233" y="-1235.5" font-family="Helvetica,sans-Serif" font-size="10.00">::test::TestTask</text>
</a>
</g>
</g>
<!-- Node1&#45;&gt;Node2 -->
<g id="edge1" class="edge"><title>Node1&#45;&gt;Node2</title>
<path fill="none" stroke="midnightblue" d="M54.8563,-670.795C56.7802,-770.738 68.8568,-1136.68 143,-1219.5 153.568,-1231.3 169.272,-1237.57 184.56,-1240.81"/>
<polygon fill="midnightblue" stroke="midnightblue" points="58.3543,-670.643 54.6801,-660.706 51.3554,-670.766 58.3543,-670.643"/>
</g>
<!-- Node3 -->
<g id="node3" class="node"><title>Node3</title>
<g id="a_node3"><a xlink:href="classo2_1_1quality__control__modules_1_1daq_1_1DaqTask.html" target="_top" xlink:title="Dataflow task It does only look at the header and plots sizes (e.g. payload). It also can print the h...">
<polygon fill="none" stroke="black" points="170,-1179.5 170,-1209.5 296,-1209.5 296,-1179.5 170,-1179.5"/>
<text text-anchor="start" x="178" y="-1197.5" font-family="Helvetica,sans-Serif" font-size="10.00">o2::quality_control</text>
<text text-anchor="middle" x="233" y="-1186.5" font-family="Helvetica,sans-Serif" font-size="10.00">_modules::daq::DaqTask</text>
</a>
</g>
</g>
<!-- Node1&#45;&gt;Node3 -->
<g id="edge2" class="edge"><title>Node1&#45;&gt;Node3</title>
<path fill="none" stroke="midnightblue" d="M55.2555,-670.747C58.591,-765.128 75.0141,-1095.62 143,-1170.5 150.208,-1178.44 159.739,-1183.87 169.883,-1187.55"/>
<polygon fill="midnightblue" stroke="midnightblue" points="58.7511,-670.555 54.9184,-660.677 51.755,-670.789 58.7511,-670.555"/>
</g>
<!-- Node4 -->
<g id="node4" class="node"><title>Node4</title>
<g id="a_node4"><a xlink:href="classo2_1_1quality__control__modules_1_1emcal_1_1DigitsQcTask.html" target="_top" xlink:title="QC Task for EMCAL digits. ">
<polygon fill="none" stroke="black" points="154.5,-1130.5 154.5,-1160.5 311.5,-1160.5 311.5,-1130.5 154.5,-1130.5"/>
<text text-anchor="start" x="162.5" y="-1148.5" font-family="Helvetica,sans-Serif" font-size="10.00">o2::quality_control</text>
<text text-anchor="middle" x="233" y="-1137.5" font-family="Helvetica,sans-Serif" font-size="10.00">_modules::emcal::DigitsQcTask</text>
</a>
</g>
</g>
<!-- Node1&#45;&gt;Node4 -->
<g id="edge3" class="edge"><title>Node1&#45;&gt;Node4</title>
<path fill="none" stroke="midnightblue" d="M55.7463,-670.941C60.6105,-759.803 81.205,-1054.58 143,-1121.5 146.366,-1125.14 150.221,-1128.26 154.399,-1130.92"/>
<polygon fill="midnightblue" stroke="midnightblue" points="59.2282,-670.505 55.2065,-660.704 52.2379,-670.874 59.2282,-670.505"/>
</g>
<!-- Node5 -->
<g id="node5" class="node"><title>Node5</title>
<g id="a_node5"><a xlink:href="classo2_1_1quality__control__modules_1_1emcal_1_1RawTask.html" target="_top" xlink:title="Example Quality Control DPL Task It is final because there is no reason to derive from it...">
<polygon fill="none" stroke="black" points="163.5,-1081.5 163.5,-1111.5 302.5,-1111.5 302.5,-1081.5 163.5,-1081.5"/>
<text text-anchor="start" x="171.5" y="-1099.5" font-family="Helvetica,sans-Serif" font-size="10.00">o2::quality_control</text>
<text text-anchor="middle" x="233" y="-1088.5" font-family="Helvetica,sans-Serif" font-size="10.00">_modules::emcal::RawTask</text>
</a>
</g>
</g>
<!-- Node1&#45;&gt;Node5 -->
<g id="edge4" class="edge"><title>Node1&#45;&gt;Node5</title>
<path fill="none" stroke="midnightblue" d="M56.3436,-671.012C62.8388,-753.867 87.3374,-1013.45 143,-1072.5 148.708,-1078.56 155.769,-1083.14 163.399,-1086.6"/>
<polygon fill="midnightblue" stroke="midnightblue" points="59.827,-670.66 55.5764,-660.955 52.8473,-671.193 59.827,-670.66"/>
</g>
<!-- Node6 -->
<g id="node6" class="node"><title>Node6</title>
<g id="a_node6"><a xlink:href="classo2_1_1quality__control__modules_1_1example_1_1BenchmarkTask.html" target="_top" xlink:title="Quality Control Task for benchmarking It publishes a number of TH1F (configurable, see example.ini in module QualityControl). The histos are reset and refilled (1000 random) at EOC. They have 1000 bins. The monitoring of data blocks is empty (sleep 100 ms). ">
<polygon fill="none" stroke="black" points="143.5,-1032.5 143.5,-1062.5 322.5,-1062.5 322.5,-1032.5 143.5,-1032.5"/>
<text text-anchor="start" x="151.5" y="-1050.5" font-family="Helvetica,sans-Serif" font-size="10.00">o2::quality_control</text>
<text text-anchor="middle" x="233" y="-1039.5" font-family="Helvetica,sans-Serif" font-size="10.00">_modules::example::BenchmarkTask</text>
</a>
</g>
</g>
<!-- Node1&#45;&gt;Node6 -->
<g id="edge5" class="edge"><title>Node1&#45;&gt;Node6</title>
<path fill="none" stroke="midnightblue" d="M57.0901,-671.048C65.3421,-747.481 93.4279,-972.243 143,-1023.5 146.338,-1026.95 150.115,-1029.92 154.184,-1032.48"/>
<polygon fill="midnightblue" stroke="midnightblue" points="60.5478,-670.463 56.0163,-660.886 53.5865,-671.198 60.5478,-670.463"/>
</g>
<!-- Node7 -->
<g id="node7" class="node"><title>Node7</title>
<g id="a_node7"><a xlink:href="classo2_1_1quality__control__modules_1_1example_1_1ExampleTask.html" target="_top" xlink:title="Example Quality Control Task It is final because there is no reason to derive from it...">
<polygon fill="none" stroke="black" points="149.5,-983.5 149.5,-1013.5 316.5,-1013.5 316.5,-983.5 149.5,-983.5"/>
<text text-anchor="start" x="157.5" y="-1001.5" font-family="Helvetica,sans-Serif" font-size="10.00">o2::quality_control</text>
<text text-anchor="middle" x="233" y="-990.5" font-family="Helvetica,sans-Serif" font-size="10.00">_modules::example::ExampleTask</text>
</a>
</g>
</g>
<!-- Node1&#45;&gt;Node7 -->
<g id="edge6" class="edge"><title>Node1&#45;&gt;Node7</title>
<path fill="none" stroke="midnightblue" d="M58.0293,-670.918C68.1636,-740.346 99.4423,-930.915 143,-974.5 146.394,-977.896 150.214,-980.825 154.315,-983.351"/>
<polygon fill="midnightblue" stroke="midnightblue" points="61.4705,-670.258 56.5857,-660.857 54.5415,-671.253 61.4705,-670.258"/>
</g>
<!-- Node8 -->
<g id="node8" class="node"><title>Node8</title>
<g id="a_node8"><a xlink:href="classo2_1_1quality__control__modules_1_1its_1_1ITSFeeTask.html" target="_top" xlink:title="ITS FEE task aiming at 100% online data integrity checking. ">
<polygon fill="none" stroke="black" points="165.5,-934.5 165.5,-964.5 300.5,-964.5 300.5,-934.5 165.5,-934.5"/>
<text text-anchor="start" x="173.5" y="-952.5" font-family="Helvetica,sans-Serif" font-size="10.00">o2::quality_control</text>
<text text-anchor="middle" x="233" y="-941.5" font-family="Helvetica,sans-Serif" font-size="10.00">_modules::its::ITSFeeTask</text>
</a>
</g>
</g>
<!-- Node1&#45;&gt;Node8 -->
<g id="edge7" class="edge"><title>Node1&#45;&gt;Node8</title>
<path fill="none" stroke="midnightblue" d="M54.8198,-670.685C56.9269,-725.307 69.8176,-855.38 143,-925.5 149.355,-931.589 157.088,-936.17 165.313,-939.609"/>
<polygon fill="midnightblue" stroke="midnightblue" points="58.3133,-670.407 54.5217,-660.514 51.3163,-670.612 58.3133,-670.407"/>
</g>
<!-- Node9 -->
<g id="node9" class="node"><title>Node9</title>
<g id="a_node9"><a xlink:href="classo2_1_1quality__control__modules_1_1its_1_1ITSOnlineTask.html" target="_top" xlink:title="ITS Fake&#45;hit rate real&#45;time data processing task Working with the chain of &quot;Detector &#45;&gt; RU &#45;&gt; CRU &#45;&gt; ...">
<polygon fill="none" stroke="black" points="160,-885.5 160,-915.5 306,-915.5 306,-885.5 160,-885.5"/>
<text text-anchor="start" x="168" y="-903.5" font-family="Helvetica,sans-Serif" font-size="10.00">o2::quality_control</text>
<text text-anchor="middle" x="233" y="-892.5" font-family="Helvetica,sans-Serif" font-size="10.00">_modules::its::ITSOnlineTask</text>
</a>
</g>
</g>
<!-- Node1&#45;&gt;Node9 -->
<g id="edge8" class="edge"><title>Node1&#45;&gt;Node9</title>
<path fill="none" stroke="midnightblue" d="M56.764,-670.518C62.4184,-717.907 81.4753,-820.977 143,-876.5 147.99,-881.003 153.738,-884.675 159.861,-887.666"/>
<polygon fill="midnightblue" stroke="midnightblue" points="60.2358,-670.068 55.6729,-660.506 53.277,-670.826 60.2358,-670.068"/>
</g>
<!-- Node10 -->
<g id="node10" class="node"><title>Node10</title>
<g id="a_node10"><a xlink:href="classo2_1_1quality__control__modules_1_1its_1_1ITSRawTask.html" target="_top" xlink:title="o2::quality_control\l_modules::its::ITSRawTask">
<polygon fill="none" stroke="black" points="163.5,-836.5 163.5,-866.5 302.5,-866.5 302.5,-836.5 163.5,-836.5"/>
<text text-anchor="start" x="171.5" y="-854.5" font-family="Helvetica,sans-Serif" font-size="10.00">o2::quality_control</text>
<text text-anchor="middle" x="233" y="-843.5" font-family="Helvetica,sans-Serif" font-size="10.00">_modules::its::ITSRawTask</text>
</a>
</g>
</g>
<!-- Node1&#45;&gt;Node10 -->
<g id="edge9" class="edge"><title>Node1&#45;&gt;Node10</title>
<path fill="none" stroke="midnightblue" d="M59.6505,-670.446C69.1034,-709.832 93.017,-786.18 143,-827.5 149.044,-832.496 156.035,-836.459 163.389,-839.601"/>
<polygon fill="midnightblue" stroke="midnightblue" points="63.0412,-669.573 57.4061,-660.601 56.2163,-671.128 63.0412,-669.573"/>
</g>
<!-- Node11 -->
<g id="node11" class="node"><title>Node11</title>
<g id="a_node11"><a xlink:href="classo2_1_1quality__control__modules_1_1mft_1_1BasicClusterQcTask.html" target="_top" xlink:title="MFT Cluster QC task. ">
<polygon fill="none" stroke="black" points="162.5,-777 162.5,-818 303.5,-818 303.5,-777 162.5,-777"/>
<text text-anchor="start" x="170.5" y="-806" font-family="Helvetica,sans-Serif" font-size="10.00">o2::quality_control</text>
<text text-anchor="start" x="170.5" y="-795" font-family="Helvetica,sans-Serif" font-size="10.00">_modules::mft::BasicCluster</text>
<text text-anchor="middle" x="233" y="-784" font-family="Helvetica,sans-Serif" font-size="10.00">QcTask</text>
</a>
</g>
</g>
<!-- Node1&#45;&gt;Node11 -->
<g id="edge10" class="edge"><title>Node1&#45;&gt;Node11</title>
<path fill="none" stroke="midnightblue" d="M65.9892,-669.782C80.298,-697.51 107.279,-742.398 143,-768.5 148.905,-772.815 155.483,-776.508 162.317,-779.666"/>
<polygon fill="midnightblue" stroke="midnightblue" points="69.072,-668.121 61.463,-660.749 62.8136,-671.257 69.072,-668.121"/>
</g>
<!-- Node12 -->
<g id="node12" class="node"><title>Node12</title>
<g id="a_node12"><a xlink:href="classo2_1_1quality__control__modules_1_1mft_1_1BasicDigitQcTask.html" target="_top" xlink:title="MFT Digit QC task. ">
<polygon fill="none" stroke="black" points="151,-728.5 151,-758.5 315,-758.5 315,-728.5 151,-728.5"/>
<text text-anchor="start" x="159" y="-746.5" font-family="Helvetica,sans-Serif" font-size="10.00">o2::quality_control</text>
<text text-anchor="middle" x="233" y="-735.5" font-family="Helvetica,sans-Serif" font-size="10.00">_modules::mft::BasicDigitQcTask</text>
</a>
</g>
</g>
<!-- Node1&#45;&gt;Node12 -->
<g id="edge11" class="edge"><title>Node1&#45;&gt;Node12</title>
<path fill="none" stroke="midnightblue" d="M75.5199,-667.672C92.3307,-684.187 117.272,-706.109 143,-719.5 149.53,-722.899 156.587,-725.851 163.77,-728.407"/>
<polygon fill="midnightblue" stroke="midnightblue" points="77.9301,-665.132 68.3945,-660.514 72.9691,-670.07 77.9301,-665.132"/>
</g>
<!-- Node13 -->
<g id="node13" class="node"><title>Node13</title>
<g id="a_node13"><a xlink:href="classo2_1_1quality__control__modules_1_1mft_1_1BasicTrackQcTask.html" target="_top" xlink:title="MFT Track QC task. ">
<polygon fill="none" stroke="black" points="148.5,-679.5 148.5,-709.5 317.5,-709.5 317.5,-679.5 148.5,-679.5"/>
<text text-anchor="start" x="156.5" y="-697.5" font-family="Helvetica,sans-Serif" font-size="10.00">o2::quality_control</text>
<text text-anchor="middle" x="233" y="-686.5" font-family="Helvetica,sans-Serif" font-size="10.00">_modules::mft::BasicTrackQcTask</text>
</a>
</g>
</g>
<!-- Node1&#45;&gt;Node13 -->
<g id="edge12" class="edge"><title>Node1&#45;&gt;Node13</title>
<path fill="none" stroke="midnightblue" d="M117.089,-663.281C125.788,-665.723 134.614,-668.185 143,-670.5 153.644,-673.438 165.016,-676.536 175.95,-679.494"/>
<polygon fill="midnightblue" stroke="midnightblue" points="117.927,-659.88 107.353,-660.541 116.031,-666.619 117.927,-659.88"/>
</g>
<!-- Node14 -->
<g id="node14" class="node"><title>Node14</title>
<g id="a_node14"><a xlink:href="classo2_1_1quality__control__modules_1_1mid_1_1RawQcTask.html" target="_top" xlink:title="Count number of digits per detector elements. ">
<polygon fill="none" stroke="black" points="162.5,-630.5 162.5,-660.5 303.5,-660.5 303.5,-630.5 162.5,-630.5"/>
<text text-anchor="start" x="170.5" y="-648.5" font-family="Helvetica,sans-Serif" font-size="10.00">o2::quality_control</text>
<text text-anchor="middle" x="233" y="-637.5" font-family="Helvetica,sans-Serif" font-size="10.00">_modules::mid::RawQcTask</text>
</a>
</g>
</g>
<!-- Node1&#45;&gt;Node14 -->
<g id="edge13" class="edge"><title>Node1&#45;&gt;Node14</title>
<path fill="none" stroke="midnightblue" d="M117.62,-645.5C132.103,-645.5 147.582,-645.5 162.324,-645.5"/>
<polygon fill="midnightblue" stroke="midnightblue" points="117.275,-642 107.275,-645.5 117.275,-649 117.275,-642"/>
</g>
<!-- Node15 -->
<g id="node15" class="node"><title>Node15</title>
<g id="a_node15"><a xlink:href="classo2_1_1quality__control__modules_1_1muonchambers_1_1PedestalsTask.html" target="_top" xlink:title="Quality Control Task for the analysis of MCH pedestal data. ">
<polygon fill="none" stroke="black" points="167.5,-571 167.5,-612 298.5,-612 298.5,-571 167.5,-571"/>
<text text-anchor="start" x="175.5" y="-600" font-family="Helvetica,sans-Serif" font-size="10.00">o2::quality_control</text>
<text text-anchor="start" x="175.5" y="-589" font-family="Helvetica,sans-Serif" font-size="10.00">_modules::muonchambers</text>
<text text-anchor="middle" x="233" y="-578" font-family="Helvetica,sans-Serif" font-size="10.00">::PedestalsTask</text>
</a>
</g>
</g>
<!-- Node1&#45;&gt;Node15 -->
<g id="edge14" class="edge"><title>Node1&#45;&gt;Node15</title>
<path fill="none" stroke="midnightblue" d="M113.823,-627.452C130.965,-622.238 149.758,-616.52 167.214,-611.21"/>
<polygon fill="midnightblue" stroke="midnightblue" points="112.492,-624.199 103.944,-630.458 114.529,-630.896 112.492,-624.199"/>
</g>
<!-- Node16 -->
<g id="node16" class="node"><title>Node16</title>
<g id="a_node16"><a xlink:href="classo2_1_1quality__control__modules_1_1muonchambers_1_1PhysicsTaskDigits.html" target="_top" xlink:title="Quality Control Task for the analysis of MCH physics data. ">
<polygon fill="none" stroke="black" points="167.5,-511 167.5,-552 298.5,-552 298.5,-511 167.5,-511"/>
<text text-anchor="start" x="175.5" y="-540" font-family="Helvetica,sans-Serif" font-size="10.00">o2::quality_control</text>
<text text-anchor="start" x="175.5" y="-529" font-family="Helvetica,sans-Serif" font-size="10.00">_modules::muonchambers</text>
<text text-anchor="middle" x="233" y="-518" font-family="Helvetica,sans-Serif" font-size="10.00">::PhysicsTaskDigits</text>
</a>
</g>
</g>
<!-- Node1&#45;&gt;Node16 -->
<g id="edge15" class="edge"><title>Node1&#45;&gt;Node16</title>
<path fill="none" stroke="midnightblue" d="M73.5121,-622.591C90.1352,-603.858 115.813,-577.878 143,-561.5 150.542,-556.956 158.862,-552.995 167.297,-549.572"/>
<polygon fill="midnightblue" stroke="midnightblue" points="70.6655,-620.531 66.7516,-630.376 75.9509,-625.12 70.6655,-620.531"/>
</g>
<!-- Node17 -->
<g id="node17" class="node"><title>Node17</title>
<g id="a_node17"><a xlink:href="classo2_1_1quality__control__modules_1_1muonchambers_1_1PhysicsTaskPreclusters.html" target="_top" xlink:title="Quality Control Task for the analysis of MCH physics data. ">
<polygon fill="none" stroke="black" points="167.5,-451 167.5,-492 298.5,-492 298.5,-451 167.5,-451"/>
<text text-anchor="start" x="175.5" y="-480" font-family="Helvetica,sans-Serif" font-size="10.00">o2::quality_control</text>
<text text-anchor="start" x="175.5" y="-469" font-family="Helvetica,sans-Serif" font-size="10.00">_modules::muonchambers</text>
<text text-anchor="middle" x="233" y="-458" font-family="Helvetica,sans-Serif" font-size="10.00">::PhysicsTaskPreclusters</text>
</a>
</g>
</g>
<!-- Node1&#45;&gt;Node17 -->
<g id="edge16" class="edge"><title>Node1&#45;&gt;Node17</title>
<path fill="none" stroke="midnightblue" d="M63.3956,-621.011C76.205,-589.067 102.814,-533.496 143,-501.5 150.271,-495.711 158.716,-491.012 167.453,-487.206"/>
<polygon fill="midnightblue" stroke="midnightblue" points="60.0714,-619.903 59.7219,-630.492 66.5985,-622.432 60.0714,-619.903"/>
</g>
<!-- Node18 -->
<g id="node18" class="node"><title>Node18</title>
<g id="a_node18"><a xlink:href="classo2_1_1quality__control__modules_1_1phos_1_1DigitsQcTask.html" target="_top" xlink:title="QC Task for PHOS digits. ">
<polygon fill="none" stroke="black" points="157,-402.5 157,-432.5 309,-432.5 309,-402.5 157,-402.5"/>
<text text-anchor="start" x="165" y="-420.5" font-family="Helvetica,sans-Serif" font-size="10.00">o2::quality_control</text>
<text text-anchor="middle" x="233" y="-409.5" font-family="Helvetica,sans-Serif" font-size="10.00">_modules::phos::DigitsQcTask</text>
</a>
</g>
</g>
<!-- Node1&#45;&gt;Node18 -->
<g id="edge17" class="edge"><title>Node1&#45;&gt;Node18</title>
<path fill="none" stroke="midnightblue" d="M58.2246,-620.369C65.9699,-577.212 87.9214,-489.076 143,-441.5 147.118,-437.943 151.712,-434.908 156.582,-432.318"/>
<polygon fill="midnightblue" stroke="midnightblue" points="54.7581,-619.877 56.55,-630.32 61.661,-621.039 54.7581,-619.877"/>
</g>
<!-- Node19 -->
<g id="node19" class="node"><title>Node19</title>
<g id="a_node19"><a xlink:href="classo2_1_1quality__control__modules_1_1phos_1_1RawTask.html" target="_top" xlink:title="PHOS Quality Control DPL Task. ">
<polygon fill="none" stroke="black" points="166,-353.5 166,-383.5 300,-383.5 300,-353.5 166,-353.5"/>
<text text-anchor="start" x="174" y="-371.5" font-family="Helvetica,sans-Serif" font-size="10.00">o2::quality_control</text>
<text text-anchor="middle" x="233" y="-360.5" font-family="Helvetica,sans-Serif" font-size="10.00">_modules::phos::RawTask</text>
</a>
</g>
</g>
<!-- Node1&#45;&gt;Node19 -->
<g id="edge18" class="edge"><title>Node1&#45;&gt;Node19</title>
<path fill="none" stroke="midnightblue" d="M55.905,-620.433C60.1125,-569.949 76.8354,-455.567 143,-393.5 149.555,-387.351 157.501,-382.696 165.916,-379.175"/>
<polygon fill="midnightblue" stroke="midnightblue" points="52.4099,-620.238 55.1663,-630.468 59.3911,-620.752 52.4099,-620.238"/>
</g>
<!-- Node20 -->
<g id="node20" class="node"><title>Node20</title>
<g id="a_node20"><a xlink:href="classo2_1_1quality__control__modules_1_1skeleton_1_1SkeletonTask.html" target="_top" xlink:title="Example Quality Control DPL Task. ">
<polygon fill="none" stroke="black" points="179.5,-294 179.5,-335 286.5,-335 286.5,-294 179.5,-294"/>
<text text-anchor="start" x="187.5" y="-323" font-family="Helvetica,sans-Serif" font-size="10.00">o2::quality_control</text>
<text text-anchor="start" x="187.5" y="-312" font-family="Helvetica,sans-Serif" font-size="10.00">_modules::skeleton::</text>
<text text-anchor="middle" x="233" y="-301" font-family="Helvetica,sans-Serif" font-size="10.00">SkeletonTask</text>
</a>
</g>
</g>
<!-- Node1&#45;&gt;Node20 -->
<g id="edge19" class="edge"><title>Node1&#45;&gt;Node20</title>
<path fill="none" stroke="midnightblue" d="M54.509,-619.998C55.9312,-562.788 67.4332,-423.085 143,-344.5 152.72,-334.392 165.953,-327.69 179.242,-323.246"/>
<polygon fill="midnightblue" stroke="midnightblue" points="51.0047,-620.242 54.3429,-630.298 58.0038,-620.355 51.0047,-620.242"/>
</g>
<!-- Node21 -->
<g id="node21" class="node"><title>Node21</title>
<g id="a_node21"><a xlink:href="classo2_1_1quality__control__modules_1_1tof_1_1TaskCompressedData.html" target="_top" xlink:title="TOF Quality Control DPL Task for TOF Compressed data. ">
<polygon fill="none" stroke="black" points="143,-245.5 143,-275.5 323,-275.5 323,-245.5 143,-245.5"/>
<text text-anchor="start" x="151" y="-263.5" font-family="Helvetica,sans-Serif" font-size="10.00">o2::quality_control</text>
<text text-anchor="middle" x="233" y="-252.5" font-family="Helvetica,sans-Serif" font-size="10.00">_modules::tof::TaskCompressedData</text>
</a>
</g>
</g>
<!-- Node1&#45;&gt;Node21 -->
<g id="edge20" class="edge"><title>Node1&#45;&gt;Node21</title>
<path fill="none" stroke="midnightblue" d="M57.3713,-620.14C66.2381,-546.219 95.4887,-333.116 143,-284.5 146.356,-281.066 150.147,-278.108 154.226,-275.56"/>
<polygon fill="midnightblue" stroke="midnightblue" points="53.8587,-620.043 56.1672,-630.383 60.8108,-620.86 53.8587,-620.043"/>
</g>
<!-- Node22 -->
<g id="node22" class="node"><title>Node22</title>
<g id="a_node22"><a xlink:href="classo2_1_1quality__control__modules_1_1tof_1_1TaskDiagnostics.html" target="_top" xlink:title="TOF Quality Control DPL Task for TOF Compressed data. ">
<polygon fill="none" stroke="black" points="155.5,-196.5 155.5,-226.5 310.5,-226.5 310.5,-196.5 155.5,-196.5"/>
<text text-anchor="start" x="163.5" y="-214.5" font-family="Helvetica,sans-Serif" font-size="10.00">o2::quality_control</text>
<text text-anchor="middle" x="233" y="-203.5" font-family="Helvetica,sans-Serif" font-size="10.00">_modules::tof::TaskDiagnostics</text>
</a>
</g>
</g>
<!-- Node1&#45;&gt;Node22 -->
<g id="edge21" class="edge"><title>Node1&#45;&gt;Node22</title>
<path fill="none" stroke="midnightblue" d="M56.6172,-620.05C63.8084,-539.632 89.8616,-292.969 143,-236.5 146.63,-232.643 150.802,-229.365 155.318,-226.581"/>
<polygon fill="midnightblue" stroke="midnightblue" points="53.1091,-619.99 55.7268,-630.257 60.0827,-620.599 53.1091,-619.99"/>
</g>
<!-- Node23 -->
<g id="node23" class="node"><title>Node23</title>
<g id="a_node23"><a xlink:href="classo2_1_1quality__control__modules_1_1tof_1_1TaskDigits.html" target="_top" xlink:title="TOF Quality Control DPL Task. ">
<polygon fill="none" stroke="black" points="168.5,-147.5 168.5,-177.5 297.5,-177.5 297.5,-147.5 168.5,-147.5"/>
<text text-anchor="start" x="176.5" y="-165.5" font-family="Helvetica,sans-Serif" font-size="10.00">o2::quality_control</text>
<text text-anchor="middle" x="233" y="-154.5" font-family="Helvetica,sans-Serif" font-size="10.00">_modules::tof::TaskDigits</text>
</a>
</g>
</g>
<!-- Node1&#45;&gt;Node23 -->
<g id="edge22" class="edge"><title>Node1&#45;&gt;Node23</title>
<path fill="none" stroke="midnightblue" d="M55.9664,-620.2C61.4805,-533.749 83.7635,-251.867 143,-187.5 149.847,-180.06 158.714,-174.768 168.192,-171.017"/>
<polygon fill="midnightblue" stroke="midnightblue" points="52.4592,-620.21 55.3362,-630.407 59.4459,-620.642 52.4592,-620.21"/>
</g>
<!-- Node24 -->
<g id="node24" class="node"><title>Node24</title>
<g id="a_node24"><a xlink:href="classo2_1_1quality__control__modules_1_1tpc_1_1Clusters.html" target="_top" xlink:title="Example Quality Control DPL Task It is final because there is no reason to derive from it...">
<polygon fill="none" stroke="black" points="172.5,-98.5 172.5,-128.5 293.5,-128.5 293.5,-98.5 172.5,-98.5"/>
<text text-anchor="start" x="180.5" y="-116.5" font-family="Helvetica,sans-Serif" font-size="10.00">o2::quality_control</text>
<text text-anchor="middle" x="233" y="-105.5" font-family="Helvetica,sans-Serif" font-size="10.00">_modules::tpc::Clusters</text>
</a>
</g>
</g>
<!-- Node1&#45;&gt;Node24 -->
<g id="edge23" class="edge"><title>Node1&#45;&gt;Node24</title>
<path fill="none" stroke="midnightblue" d="M55.4472,-620.248C59.4146,-527.993 77.6578,-210.801 143,-138.5 150.748,-129.927 161.178,-124.199 172.168,-120.393"/>
<polygon fill="midnightblue" stroke="midnightblue" points="51.9456,-620.217 55.032,-630.352 58.9397,-620.504 51.9456,-620.217"/>
</g>
<!-- Node25 -->
<g id="node25" class="node"><title>Node25</title>
<g id="a_node25"><a xlink:href="classo2_1_1quality__control__modules_1_1tpc_1_1PID.html" target="_top" xlink:title="TPC PID QC Task It is final because there is no reason to derive from it. Just remove it if needed...">
<polygon fill="none" stroke="black" points="182.5,-49.5 182.5,-79.5 283.5,-79.5 283.5,-49.5 182.5,-49.5"/>
<text text-anchor="start" x="190.5" y="-67.5" font-family="Helvetica,sans-Serif" font-size="10.00">o2::quality_control</text>
<text text-anchor="middle" x="233" y="-56.5" font-family="Helvetica,sans-Serif" font-size="10.00">_modules::tpc::PID</text>
</a>
</g>
</g>
<!-- Node1&#45;&gt;Node25 -->
<g id="edge24" class="edge"><title>Node1&#45;&gt;Node25</title>
<path fill="none" stroke="midnightblue" d="M55.0244,-620.077C57.5615,-522 71.58,-169.725 143,-89.5 153.031,-78.2319 167.696,-71.8681 182.238,-68.3263"/>
<polygon fill="midnightblue" stroke="midnightblue" points="51.5212,-620.173 54.7796,-630.254 58.5192,-620.341 51.5212,-620.173"/>
</g>
<!-- Node26 -->
<g id="node26" class="node"><title>Node26</title>
<g id="a_node26"><a xlink:href="classo2_1_1quality__control__modules_1_1tpc_1_1Tracks.html" target="_top" xlink:title="Quality Control DPL Task for QC Module TPC for track related observables. ">
<polygon fill="none" stroke="black" points="176,-0.5 176,-30.5 290,-30.5 290,-0.5 176,-0.5"/>
<text text-anchor="start" x="184" y="-18.5" font-family="Helvetica,sans-Serif" font-size="10.00">o2::quality_control</text>
<text text-anchor="middle" x="233" y="-7.5" font-family="Helvetica,sans-Serif" font-size="10.00">_modules::tpc::Tracks</text>
</a>
</g>
</g>
<!-- Node1&#45;&gt;Node26 -->
<g id="edge25" class="edge"><title>Node1&#45;&gt;Node26</title>
<path fill="none" stroke="midnightblue" d="M54.6608,-620.213C55.8318,-516.981 65.4067,-128.772 143,-40.5 151.477,-30.8565 163.347,-24.7988 175.662,-21.0275"/>
<polygon fill="midnightblue" stroke="midnightblue" points="51.1599,-620.301 54.5634,-630.335 58.1596,-620.369 51.1599,-620.301"/>
</g>
</g>
</svg>
