<?xml version="1.0" encoding="UTF-8" standalone="no"?>
<!DOCTYPE svg PUBLIC "-//W3C//DTD SVG 1.1//EN"
 "http://www.w3.org/Graphics/SVG/1.1/DTD/svg11.dtd">
<!-- Generated by graphviz version 2.38.0 (20140413.2041)
 -->
<!-- Title: Graphical Class Hierarchy Pages: 1 -->
<svg width="361pt" height="1239pt"
 viewBox="0.00 0.00 361.00 1238.50" xmlns="http://www.w3.org/2000/svg" xmlns:xlink="http://www.w3.org/1999/xlink">
<g id="graph0" class="graph" transform="scale(1 1) rotate(0) translate(4 1234.5)">
<title>Graphical Class Hierarchy</title>
<!-- Node1 -->
<g id="node1" class="node"><title>Node1</title>
<g id="a_node1"><a xlink:href="classo2_1_1quality__control_1_1checker_1_1CheckInterface.html" target="_top" xlink:title="Skeleton of a check. ">
<polygon fill="none" stroke="black" points="0,-584 0,-614 130,-614 130,-584 0,-584"/>
<text text-anchor="start" x="8" y="-602" font-family="Helvetica,sans-Serif" font-size="10.00">o2::quality_control</text>
<text text-anchor="middle" x="65" y="-591" font-family="Helvetica,sans-Serif" font-size="10.00">::checker::CheckInterface</text>
</a>
</g>
</g>
<!-- Node2 -->
<g id="node2" class="node"><title>Node2</title>
<g id="a_node2"><a xlink:href="classo2_1_1quality__control_1_1test_1_1TestCheck.html" target="_top" xlink:title="o2::quality_control\l::test::TestCheck">
<polygon fill="none" stroke="black" points="211.5,-1200 211.5,-1230 307.5,-1230 307.5,-1200 211.5,-1200"/>
<text text-anchor="start" x="219.5" y="-1218" font-family="Helvetica,sans-Serif" font-size="10.00">o2::quality_control</text>
<text text-anchor="middle" x="259.5" y="-1207" font-family="Helvetica,sans-Serif" font-size="10.00">::test::TestCheck</text>
</a>
</g>
</g>
<!-- Node1&#45;&gt;Node2 -->
<g id="edge1" class="edge"><title>Node1&#45;&gt;Node2</title>
<path fill="none" stroke="midnightblue" d="M66.7328,-624.457C70.1943,-726.712 88.1668,-1106.12 166,-1191 177.55,-1203.59 194.779,-1209.94 211.249,-1213.03"/>
<polygon fill="midnightblue" stroke="midnightblue" points="70.2213,-624.039 66.4023,-614.156 63.2249,-624.263 70.2213,-624.039"/>
</g>
<!-- Node3 -->
<g id="node3" class="node"><title>Node3</title>
<g id="a_node3"><a xlink:href="classo2_1_1quality__control__modules_1_1common_1_1EverIncreasingGraph.html" target="_top" xlink:title="Check whether a plot is empty or not. ">
<polygon fill="none" stroke="black" points="173,-1140.5 173,-1181.5 346,-1181.5 346,-1140.5 173,-1140.5"/>
<text text-anchor="start" x="181" y="-1169.5" font-family="Helvetica,sans-Serif" font-size="10.00">o2::quality_control</text>
<text text-anchor="start" x="181" y="-1158.5" font-family="Helvetica,sans-Serif" font-size="10.00">_modules::common::EverIncreasing</text>
<text text-anchor="middle" x="259.5" y="-1147.5" font-family="Helvetica,sans-Serif" font-size="10.00">Graph</text>
</a>
</g>
</g>
<!-- Node1&#45;&gt;Node3 -->
<g id="edge2" class="edge"><title>Node1&#45;&gt;Node3</title>
<path fill="none" stroke="midnightblue" d="M67.3669,-624.254C73.0113,-719.422 97.5169,-1054.89 166,-1132 168.794,-1135.15 171.924,-1137.95 175.299,-1140.46"/>
<polygon fill="midnightblue" stroke="midnightblue" points="70.852,-623.893 66.7836,-614.111 63.8636,-624.295 70.852,-623.893"/>
</g>
<!-- Node4 -->
<g id="node4" class="node"><title>Node4</title>
<g id="a_node4"><a xlink:href="classo2_1_1quality__control__modules_1_1common_1_1MeanIsAbove.html" target="_top" xlink:title="Check whether the mean of the plot is above a certain limit. ">
<polygon fill="none" stroke="black" points="175.5,-1092 175.5,-1122 343.5,-1122 343.5,-1092 175.5,-1092"/>
<text text-anchor="start" x="183.5" y="-1110" font-family="Helvetica,sans-Serif" font-size="10.00">o2::quality_control</text>
<text text-anchor="middle" x="259.5" y="-1099" font-family="Helvetica,sans-Serif" font-size="10.00">_modules::common::MeanIsAbove</text>
</a>
</g>
</g>
<!-- Node1&#45;&gt;Node4 -->
<g id="edge3" class="edge"><title>Node1&#45;&gt;Node4</title>
<path fill="none" stroke="midnightblue" d="M67.793,-624.64C74.6118,-714.818 101.856,-1015.56 166,-1083 169.201,-1086.37 172.809,-1089.28 176.696,-1091.81"/>
<polygon fill="midnightblue" stroke="midnightblue" points="71.2704,-624.204 67.0451,-614.488 64.2893,-624.718 71.2704,-624.204"/>
</g>
<!-- Node5 -->
<g id="node5" class="node"><title>Node5</title>
<g id="a_node5"><a xlink:href="classo2_1_1quality__control__modules_1_1common_1_1NonEmpty.html" target="_top" xlink:title="Check whether a plot is empty or not. ">
<polygon fill="none" stroke="black" points="182,-1043 182,-1073 337,-1073 337,-1043 182,-1043"/>
<text text-anchor="start" x="190" y="-1061" font-family="Helvetica,sans-Serif" font-size="10.00">o2::quality_control</text>
<text text-anchor="middle" x="259.5" y="-1050" font-family="Helvetica,sans-Serif" font-size="10.00">_modules::common::NonEmpty</text>
</a>
</g>
</g>
<!-- Node1&#45;&gt;Node5 -->
<g id="edge4" class="edge"><title>Node1&#45;&gt;Node5</title>
<path fill="none" stroke="midnightblue" d="M68.4218,-624.475C76.906,-708.412 107.963,-974.321 166,-1034 170.627,-1038.76 176.066,-1042.61 181.951,-1045.74"/>
<polygon fill="midnightblue" stroke="midnightblue" points="71.8832,-623.912 67.4151,-614.305 64.9172,-624.601 71.8832,-623.912"/>
</g>
<!-- Node6 -->
<g id="node6" class="node"><title>Node6</title>
<g id="a_node6"><a xlink:href="classo2_1_1quality__control__modules_1_1emcal_1_1DigitCheck.html" target="_top" xlink:title="Check whether a plot is empty or not. ">
<polygon fill="none" stroke="black" points="186.5,-994 186.5,-1024 332.5,-1024 332.5,-994 186.5,-994"/>
<text text-anchor="start" x="194.5" y="-1012" font-family="Helvetica,sans-Serif" font-size="10.00">o2::quality_control</text>
<text text-anchor="middle" x="259.5" y="-1001" font-family="Helvetica,sans-Serif" font-size="10.00">_modules::emcal::DigitCheck</text>
</a>
</g>
</g>
<!-- Node1&#45;&gt;Node6 -->
<g id="edge5" class="edge"><title>Node1&#45;&gt;Node6</title>
<path fill="none" stroke="midnightblue" d="M69.239,-624.612C79.565,-702.292 114.105,-933.086 166,-985 171.747,-990.749 178.683,-995.177 186.143,-998.579"/>
<polygon fill="midnightblue" stroke="midnightblue" points="72.658,-623.764 67.892,-614.302 65.717,-624.671 72.658,-623.764"/>
</g>
<!-- Node7 -->
<g id="node7" class="node"><title>Node7</title>
<g id="a_node7"><a xlink:href="classo2_1_1quality__control__modules_1_1emcal_1_1RawCheck.html" target="_top" xlink:title="EMCAL raw data check It is final because there is no reason to derive from it. Just remove it if need...">
<polygon fill="none" stroke="black" points="186.5,-945 186.5,-975 332.5,-975 332.5,-945 186.5,-945"/>
<text text-anchor="start" x="194.5" y="-963" font-family="Helvetica,sans-Serif" font-size="10.00">o2::quality_control</text>
<text text-anchor="middle" x="259.5" y="-952" font-family="Helvetica,sans-Serif" font-size="10.00">_modules::emcal::RawCheck</text>
</a>
</g>
</g>
<!-- Node1&#45;&gt;Node7 -->
<g id="edge6" class="edge"><title>Node1&#45;&gt;Node7</title>
<path fill="none" stroke="midnightblue" d="M65.6165,-624.141C66.0982,-686.484 76.3528,-849.402 166,-936 171.847,-941.648 178.845,-946.013 186.338,-949.38"/>
<polygon fill="midnightblue" stroke="midnightblue" points="69.1164,-624.038 65.6203,-614.037 62.1164,-624.036 69.1164,-624.038"/>
</g>
<!-- Node8 -->
<g id="node8" class="node"><title>Node8</title>
<g id="a_node8"><a xlink:href="classo2_1_1quality__control__modules_1_1example_1_1FakeCheck.html" target="_top" xlink:title="Check whether a plot is empty or not. ">
<polygon fill="none" stroke="black" points="180.5,-896 180.5,-926 338.5,-926 338.5,-896 180.5,-896"/>
<text text-anchor="start" x="188.5" y="-914" font-family="Helvetica,sans-Serif" font-size="10.00">o2::quality_control</text>
<text text-anchor="middle" x="259.5" y="-903" font-family="Helvetica,sans-Serif" font-size="10.00">_modules::example::FakeCheck</text>
</a>
</g>
</g>
<!-- Node1&#45;&gt;Node8 -->
<g id="edge7" class="edge"><title>Node1&#45;&gt;Node8</title>
<path fill="none" stroke="midnightblue" d="M67.1118,-624.271C70.9826,-680.235 88.3241,-815.326 166,-887 170.268,-890.938 175.097,-894.247 180.256,-897.027"/>
<polygon fill="midnightblue" stroke="midnightblue" points="70.5988,-623.947 66.5034,-614.176 63.6114,-624.368 70.5988,-623.947"/>
</g>
<!-- Node9 -->
<g id="node9" class="node"><title>Node9</title>
<g id="a_node9"><a xlink:href="classo2_1_1quality__control__modules_1_1mft_1_1BasicClusterQcCheck.html" target="_top" xlink:title="MFT Cluster Check. ">
<polygon fill="none" stroke="black" points="189,-836.5 189,-877.5 330,-877.5 330,-836.5 189,-836.5"/>
<text text-anchor="start" x="197" y="-865.5" font-family="Helvetica,sans-Serif" font-size="10.00">o2::quality_control</text>
<text text-anchor="start" x="197" y="-854.5" font-family="Helvetica,sans-Serif" font-size="10.00">_modules::mft::BasicCluster</text>
<text text-anchor="middle" x="259.5" y="-843.5" font-family="Helvetica,sans-Serif" font-size="10.00">QcCheck</text>
</a>
</g>
</g>
<!-- Node1&#45;&gt;Node9 -->
<g id="edge8" class="edge"><title>Node1&#45;&gt;Node9</title>
<path fill="none" stroke="midnightblue" d="M70.0818,-624.154C78.9725,-670.865 104.454,-771.304 166,-827 172.634,-833.004 180.487,-837.808 188.768,-841.651"/>
<polygon fill="midnightblue" stroke="midnightblue" points="73.5173,-623.483 68.297,-614.263 66.6285,-624.726 73.5173,-623.483"/>
</g>
<!-- Node10 -->
<g id="node10" class="node"><title>Node10</title>
<g id="a_node10"><a xlink:href="classo2_1_1quality__control__modules_1_1mft_1_1BasicDigitQcCheck.html" target="_top" xlink:title="MFT Digit Check. ">
<polygon fill="none" stroke="black" points="188,-776.5 188,-817.5 331,-817.5 331,-776.5 188,-776.5"/>
<text text-anchor="start" x="196" y="-805.5" font-family="Helvetica,sans-Serif" font-size="10.00">o2::quality_control</text>
<text text-anchor="start" x="196" y="-794.5" font-family="Helvetica,sans-Serif" font-size="10.00">_modules::mft::BasicDigitQc</text>
<text text-anchor="middle" x="259.5" y="-783.5" font-family="Helvetica,sans-Serif" font-size="10.00">Check</text>
</a>
</g>
</g>
<!-- Node1&#45;&gt;Node10 -->
<g id="edge9" class="edge"><title>Node1&#45;&gt;Node10</title>
<path fill="none" stroke="midnightblue" d="M74.3304,-623.866C87.8387,-660.467 117.956,-728.643 166,-767 172.465,-772.161 179.844,-776.446 187.55,-780"/>
<polygon fill="midnightblue" stroke="midnightblue" points="77.4707,-622.252 70.8143,-614.009 70.8776,-624.604 77.4707,-622.252"/>
</g>
<!-- Node11 -->
<g id="node11" class="node"><title>Node11</title>
<g id="a_node11"><a xlink:href="classo2_1_1quality__control__modules_1_1mft_1_1BasicTrackQcCheck.html" target="_top" xlink:title="MFT Track Check. ">
<polygon fill="none" stroke="black" points="186,-716.5 186,-757.5 333,-757.5 333,-716.5 186,-716.5"/>
<text text-anchor="start" x="194" y="-745.5" font-family="Helvetica,sans-Serif" font-size="10.00">o2::quality_control</text>
<text text-anchor="start" x="194" y="-734.5" font-family="Helvetica,sans-Serif" font-size="10.00">_modules::mft::BasicTrackQc</text>
<text text-anchor="middle" x="259.5" y="-723.5" font-family="Helvetica,sans-Serif" font-size="10.00">Check</text>
</a>
</g>
</g>
<!-- Node1&#45;&gt;Node11 -->
<g id="edge10" class="edge"><title>Node1&#45;&gt;Node11</title>
<path fill="none" stroke="midnightblue" d="M81.7306,-622.418C99.4586,-647.088 130.481,-685.427 166,-708 172.108,-711.882 178.773,-715.277 185.637,-718.241"/>
<polygon fill="midnightblue" stroke="midnightblue" points="84.43,-620.172 75.8171,-614.002 78.7025,-624.196 84.43,-620.172"/>
</g>
<!-- Node12 -->
<g id="node12" class="node"><title>Node12</title>
<g id="a_node12"><a xlink:href="classo2_1_1quality__control__modules_1_1mid_1_1RawQcCheck.html" target="_top" xlink:title="Count number of digits per detector elements. ">
<polygon fill="none" stroke="black" points="185.5,-668 185.5,-698 333.5,-698 333.5,-668 185.5,-668"/>
<text text-anchor="start" x="193.5" y="-686" font-family="Helvetica,sans-Serif" font-size="10.00">o2::quality_control</text>
<text text-anchor="middle" x="259.5" y="-675" font-family="Helvetica,sans-Serif" font-size="10.00">_modules::mid::RawQcCheck</text>
</a>
</g>
</g>
<!-- Node1&#45;&gt;Node12 -->
<g id="edge11" class="edge"><title>Node1&#45;&gt;Node12</title>
<path fill="none" stroke="midnightblue" d="M95.6371,-619.873C114.933,-632.667 141.066,-648.542 166,-659 173.956,-662.337 182.496,-665.308 191.055,-667.925"/>
<polygon fill="midnightblue" stroke="midnightblue" points="97.5301,-616.928 87.2815,-614.242 93.618,-622.733 97.5301,-616.928"/>
</g>
<!-- Node13 -->
<g id="node13" class="node"><title>Node13</title>
<g id="a_node13"><a xlink:href="classo2_1_1quality__control__modules_1_1muonchambers_1_1PedestalsCheck.html" target="_top" xlink:title="Check whether a plot is empty or not. ">
<polygon fill="none" stroke="black" points="194,-608.5 194,-649.5 325,-649.5 325,-608.5 194,-608.5"/>
<text text-anchor="start" x="202" y="-637.5" font-family="Helvetica,sans-Serif" font-size="10.00">o2::quality_control</text>
<text text-anchor="start" x="202" y="-626.5" font-family="Helvetica,sans-Serif" font-size="10.00">_modules::muonchambers</text>
<text text-anchor="middle" x="259.5" y="-615.5" font-family="Helvetica,sans-Serif" font-size="10.00">::PedestalsCheck</text>
</a>
</g>
</g>
<!-- Node1&#45;&gt;Node13 -->
<g id="edge12" class="edge"><title>Node1&#45;&gt;Node13</title>
<path fill="none" stroke="midnightblue" d="M140.324,-610.583C157.924,-613.326 176.557,-616.23 193.695,-618.901"/>
<polygon fill="midnightblue" stroke="midnightblue" points="140.519,-607.071 130.1,-608.99 139.441,-613.988 140.519,-607.071"/>
</g>
<!-- Node14 -->
<g id="node14" class="node"><title>Node14</title>
<g id="a_node14"><a xlink:href="classo2_1_1quality__control__modules_1_1muonchambers_1_1PhysicsCheck.html" target="_top" xlink:title="Check if the occupancy on each pad is between the two specified values. ">
<polygon fill="none" stroke="black" points="194,-548.5 194,-589.5 325,-589.5 325,-548.5 194,-548.5"/>
<text text-anchor="start" x="202" y="-577.5" font-family="Helvetica,sans-Serif" font-size="10.00">o2::quality_control</text>
<text text-anchor="start" x="202" y="-566.5" font-family="Helvetica,sans-Serif" font-size="10.00">_modules::muonchambers</text>
<text text-anchor="middle" x="259.5" y="-555.5" font-family="Helvetica,sans-Serif" font-size="10.00">::PhysicsCheck</text>
</a>
</g>
</g>
<!-- Node1&#45;&gt;Node14 -->
<g id="edge13" class="edge"><title>Node1&#45;&gt;Node14</title>
<path fill="none" stroke="midnightblue" d="M140.324,-587.417C157.924,-584.674 176.557,-581.77 193.695,-579.099"/>
<polygon fill="midnightblue" stroke="midnightblue" points="139.441,-584.012 130.1,-589.01 140.519,-590.929 139.441,-584.012"/>
</g>
<!-- Node15 -->
<g id="node15" class="node"><title>Node15</title>
<g id="a_node15"><a xlink:href="classo2_1_1quality__control__modules_1_1phos_1_1DigitCheck.html" target="_top" xlink:title="Check mos: appearence of dead regions in occupancy plots, mean and RMS etc. ">
<polygon fill="none" stroke="black" points="189.5,-500 189.5,-530 329.5,-530 329.5,-500 189.5,-500"/>
<text text-anchor="start" x="197.5" y="-518" font-family="Helvetica,sans-Serif" font-size="10.00">o2::quality_control</text>
<text text-anchor="middle" x="259.5" y="-507" font-family="Helvetica,sans-Serif" font-size="10.00">_modules::phos::DigitCheck</text>
</a>
</g>
</g>
<!-- Node1&#45;&gt;Node15 -->
<g id="edge14" class="edge"><title>Node1&#45;&gt;Node15</title>
<path fill="none" stroke="midnightblue" d="M95.6371,-578.127C114.933,-565.333 141.066,-549.458 166,-539 173.956,-535.663 182.496,-532.692 191.055,-530.075"/>
<polygon fill="midnightblue" stroke="midnightblue" points="93.618,-575.267 87.2815,-583.758 97.5301,-581.072 93.618,-575.267"/>
</g>
<!-- Node16 -->
<g id="node16" class="node"><title>Node16</title>
<g id="a_node16"><a xlink:href="classo2_1_1quality__control__modules_1_1phos_1_1RawCheck.html" target="_top" xlink:title="PHOS raw data check It is final because there is no reason to derive from it. Just remove it if neede...">
<polygon fill="none" stroke="black" points="189.5,-451 189.5,-481 329.5,-481 329.5,-451 189.5,-451"/>
<text text-anchor="start" x="197.5" y="-469" font-family="Helvetica,sans-Serif" font-size="10.00">o2::quality_control</text>
<text text-anchor="middle" x="259.5" y="-458" font-family="Helvetica,sans-Serif" font-size="10.00">_modules::phos::RawCheck</text>
</a>
</g>
</g>
<!-- Node1&#45;&gt;Node16 -->
<g id="edge15" class="edge"><title>Node1&#45;&gt;Node16</title>
<path fill="none" stroke="midnightblue" d="M81.6087,-575.526C99.2328,-550.852 130.167,-512.67 166,-491 173.117,-486.696 180.983,-483.119 189.033,-480.15"/>
<polygon fill="midnightblue" stroke="midnightblue" points="78.5834,-573.746 75.7335,-583.95 84.3249,-577.75 78.5834,-573.746"/>
</g>
<!-- Node17 -->
<g id="node17" class="node"><title>Node17</title>
<g id="a_node17"><a xlink:href="classo2_1_1quality__control__modules_1_1skeleton_1_1SkeletonCheck.html" target="_top" xlink:title="Example QC Check. ">
<polygon fill="none" stroke="black" points="206,-391.5 206,-432.5 313,-432.5 313,-391.5 206,-391.5"/>
<text text-anchor="start" x="214" y="-420.5" font-family="Helvetica,sans-Serif" font-size="10.00">o2::quality_control</text>
<text text-anchor="start" x="214" y="-409.5" font-family="Helvetica,sans-Serif" font-size="10.00">_modules::skeleton::</text>
<text text-anchor="middle" x="259.5" y="-398.5" font-family="Helvetica,sans-Serif" font-size="10.00">SkeletonCheck</text>
</a>
</g>
</g>
<!-- Node1&#45;&gt;Node17 -->
<g id="edge16" class="edge"><title>Node1&#45;&gt;Node17</title>
<path fill="none" stroke="midnightblue" d="M75.4293,-574.189C89.7989,-539.63 120.409,-477.284 166,-442 177.615,-433.01 192.019,-426.666 205.975,-422.207"/>
<polygon fill="midnightblue" stroke="midnightblue" points="72.145,-572.975 71.6498,-583.558 78.6367,-575.594 72.145,-572.975"/>
</g>
<!-- Node18 -->
<g id="node18" class="node"><title>Node18</title>
<g id="a_node18"><a xlink:href="classo2_1_1quality__control__modules_1_1tof_1_1CheckCompressedData.html" target="_top" xlink:title="Checker for the data produced by the TOF compressor (i.e. checking raw data) ">
<polygon fill="none" stroke="black" points="166,-343 166,-373 353,-373 353,-343 166,-343"/>
<text text-anchor="start" x="174" y="-361" font-family="Helvetica,sans-Serif" font-size="10.00">o2::quality_control</text>
<text text-anchor="middle" x="259.5" y="-350" font-family="Helvetica,sans-Serif" font-size="10.00">_modules::tof::CheckCompressedData</text>
</a>
</g>
</g>
<!-- Node1&#45;&gt;Node18 -->
<g id="edge17" class="edge"><title>Node1&#45;&gt;Node18</title>
<path fill="none" stroke="midnightblue" d="M70.2865,-574.088C79.4224,-528.778 105.164,-432.87 166,-382 170.073,-378.594 174.573,-375.665 179.329,-373.146"/>
<polygon fill="midnightblue" stroke="midnightblue" points="66.8391,-573.482 68.3999,-583.961 73.7147,-574.796 66.8391,-573.482"/>
</g>
<!-- Node19 -->
<g id="node19" class="node"><title>Node19</title>
<g id="a_node19"><a xlink:href="classo2_1_1quality__control__modules_1_1tof_1_1CheckDiagnostics.html" target="_top" xlink:title="Checker for diagnostic histogram of TOF Raw data. ">
<polygon fill="none" stroke="black" points="178.5,-294 178.5,-324 340.5,-324 340.5,-294 178.5,-294"/>
<text text-anchor="start" x="186.5" y="-312" font-family="Helvetica,sans-Serif" font-size="10.00">o2::quality_control</text>
<text text-anchor="middle" x="259.5" y="-301" font-family="Helvetica,sans-Serif" font-size="10.00">_modules::tof::CheckDiagnostics</text>
</a>
</g>
</g>
<!-- Node1&#45;&gt;Node19 -->
<g id="edge18" class="edge"><title>Node1&#45;&gt;Node19</title>
<path fill="none" stroke="midnightblue" d="M68.0566,-573.625C73.7192,-520.921 94.2692,-399.098 166,-334 170.188,-330.199 174.896,-326.967 179.911,-324.219"/>
<polygon fill="midnightblue" stroke="midnightblue" points="64.5538,-573.484 67.0612,-583.778 71.5204,-574.167 64.5538,-573.484"/>
</g>
<!-- Node20 -->
<g id="node20" class="node"><title>Node20</title>
<g id="a_node20"><a xlink:href="classo2_1_1quality__control__modules_1_1tof_1_1CheckRawMultiplicity.html" target="_top" xlink:title="Check whether a plot is empty or not. ">
<polygon fill="none" stroke="black" points="171,-245 171,-275 348,-275 348,-245 171,-245"/>
<text text-anchor="start" x="179" y="-263" font-family="Helvetica,sans-Serif" font-size="10.00">o2::quality_control</text>
<text text-anchor="middle" x="259.5" y="-252" font-family="Helvetica,sans-Serif" font-size="10.00">_modules::tof::CheckRawMultiplicity</text>
</a>
</g>
</g>
<!-- Node1&#45;&gt;Node20 -->
<g id="edge19" class="edge"><title>Node1&#45;&gt;Node20</title>
<path fill="none" stroke="midnightblue" d="M66.3245,-573.628C68.5095,-514.179 82.4967,-364.879 166,-285 169.967,-281.205 174.448,-277.973 179.245,-275.222"/>
<polygon fill="midnightblue" stroke="midnightblue" points="62.8166,-573.866 66.0337,-583.96 69.8138,-574.063 62.8166,-573.866"/>
</g>
<!-- Node21 -->
<g id="node21" class="node"><title>Node21</title>
<g id="a_node21"><a xlink:href="classo2_1_1quality__control__modules_1_1tof_1_1CheckRawTime.html" target="_top" xlink:title="o2::quality_control\l_modules::tof::CheckRawTime">
<polygon fill="none" stroke="black" points="183.5,-196 183.5,-226 335.5,-226 335.5,-196 183.5,-196"/>
<text text-anchor="start" x="191.5" y="-214" font-family="Helvetica,sans-Serif" font-size="10.00">o2::quality_control</text>
<text text-anchor="middle" x="259.5" y="-203" font-family="Helvetica,sans-Serif" font-size="10.00">_modules::tof::CheckRawTime</text>
</a>
</g>
</g>
<!-- Node1&#45;&gt;Node21 -->
<g id="edge20" class="edge"><title>Node1&#45;&gt;Node21</title>
<path fill="none" stroke="midnightblue" d="M69.7026,-573.47C80.9893,-499.059 117.19,-284.574 166,-236 171.07,-230.954 177.047,-226.898 183.483,-223.642"/>
<polygon fill="midnightblue" stroke="midnightblue" points="66.1783,-573.374 68.1631,-583.781 73.1016,-574.408 66.1783,-573.374"/>
</g>
<!-- Node22 -->
<g id="node22" class="node"><title>Node22</title>
<g id="a_node22"><a xlink:href="classo2_1_1quality__control__modules_1_1tof_1_1CheckRawToT.html" target="_top" xlink:title="o2::quality_control\l_modules::tof::CheckRawToT">
<polygon fill="none" stroke="black" points="185.5,-147 185.5,-177 333.5,-177 333.5,-147 185.5,-147"/>
<text text-anchor="start" x="193.5" y="-165" font-family="Helvetica,sans-Serif" font-size="10.00">o2::quality_control</text>
<text text-anchor="middle" x="259.5" y="-154" font-family="Helvetica,sans-Serif" font-size="10.00">_modules::tof::CheckRawToT</text>
</a>
</g>
</g>
<!-- Node1&#45;&gt;Node22 -->
<g id="edge21" class="edge"><title>Node1&#45;&gt;Node22</title>
<path fill="none" stroke="midnightblue" d="M68.8244,-573.312C78.2519,-492.149 111.174,-243.262 166,-187 171.457,-181.4 178.028,-177.014 185.12,-173.585"/>
<polygon fill="midnightblue" stroke="midnightblue" points="65.3053,-573.282 67.6503,-583.614 72.2603,-574.074 65.3053,-573.282"/>
</g>
<!-- Node23 -->
<g id="node23" class="node"><title>Node23</title>
<g id="a_node23"><a xlink:href="classo2_1_1quality__control__modules_1_1tpc_1_1PIDClusterCheck.html" target="_top" xlink:title="Check whether the cluster number for a track is smaller than 159 in PID task. ">
<polygon fill="none" stroke="black" points="179,-98 179,-128 340,-128 340,-98 179,-98"/>
<text text-anchor="start" x="187" y="-116" font-family="Helvetica,sans-Serif" font-size="10.00">o2::quality_control</text>
<text text-anchor="middle" x="259.5" y="-105" font-family="Helvetica,sans-Serif" font-size="10.00">_modules::tpc::PIDClusterCheck</text>
</a>
</g>
</g>
<!-- Node1&#45;&gt;Node23 -->
<g id="edge22" class="edge"><title>Node1&#45;&gt;Node23</title>
<path fill="none" stroke="midnightblue" d="M68.0707,-573.75C75.6944,-486.883 104.981,-202.171 166,-138 169.783,-134.022 174.127,-130.654 178.826,-127.805"/>
<polygon fill="midnightblue" stroke="midnightblue" points="64.5781,-573.515 67.2106,-583.778 71.5525,-574.113 64.5781,-573.515"/>
</g>
<!-- Node24 -->
<g id="node24" class="node"><title>Node24</title>
<g id="a_node24"><a xlink:href="classo2_1_1quality__control__modules_1_1tpc_1_1TrackClusterCheck.html" target="_top" xlink:title="Check whether the cluster number for a track is smaller than 40 or 20 in Track task. ">
<polygon fill="none" stroke="black" points="189.5,-38.5 189.5,-79.5 329.5,-79.5 329.5,-38.5 189.5,-38.5"/>
<text text-anchor="start" x="197.5" y="-67.5" font-family="Helvetica,sans-Serif" font-size="10.00">o2::quality_control</text>
<text text-anchor="start" x="197.5" y="-56.5" font-family="Helvetica,sans-Serif" font-size="10.00">_modules::tpc::TrackCluster</text>
<text text-anchor="middle" x="259.5" y="-45.5" font-family="Helvetica,sans-Serif" font-size="10.00">Check</text>
</a>
</g>
</g>
<!-- Node1&#45;&gt;Node24 -->
<g id="edge23" class="edge"><title>Node1&#45;&gt;Node24</title>
<path fill="none" stroke="midnightblue" d="M67.6312,-573.658C74.0813,-481.065 100.713,-162.632 166,-89 172.384,-81.7997 180.511,-76.3185 189.288,-72.1479"/>
<polygon fill="midnightblue" stroke="midnightblue" points="64.1283,-573.585 66.9435,-583.799 71.1122,-574.059 64.1283,-573.585"/>
</g>
<!-- Node25 -->
<g id="node25" class="node"><title>Node25</title>
<g id="a_node25"><a xlink:href="classTestCheck.html" target="_top" xlink:title="TestCheck">
<polygon fill="none" stroke="black" points="227,-0.5 227,-19.5 292,-19.5 292,-0.5 227,-0.5"/>
<text text-anchor="middle" x="259.5" y="-7.5" font-family="Helvetica,sans-Serif" font-size="10.00">TestCheck</text>
</a>
</g>
</g>
<!-- Node1&#45;&gt;Node25 -->
<g id="edge24" class="edge"><title>Node1&#45;&gt;Node25</title>
<path fill="none" stroke="midnightblue" d="M66.7837,-573.719C70.4074,-473.859 88.8213,-108.443 166,-29 181.536,-13.0079 206.671,-8.64508 226.821,-8.06885"/>
<polygon fill="midnightblue" stroke="midnightblue" points="63.2828,-573.687 66.4362,-583.801 70.2787,-573.928 63.2828,-573.687"/>
</g>
</g>
</svg>
