<?xml version="1.0" encoding="UTF-8" standalone="no"?>
<!DOCTYPE svg PUBLIC "-//W3C//DTD SVG 1.1//EN"
 "http://www.w3.org/Graphics/SVG/1.1/DTD/svg11.dtd">
<!-- Generated by graphviz version 2.38.0 (20140413.2041)
 -->
<!-- Title: Graphical Class Hierarchy Pages: 1 -->
<svg width="362pt" height="327pt"
 viewBox="0.00 0.00 362.00 326.50" xmlns="http://www.w3.org/2000/svg" xmlns:xlink="http://www.w3.org/1999/xlink">
<g id="graph0" class="graph" transform="scale(1 1) rotate(0) translate(4 322.5)">
<title>Graphical Class Hierarchy</title>
<!-- Node1 -->
<g id="node1" class="node"><title>Node1</title>
<g id="a_node1"><a xlink:href="classo2_1_1quality__control_1_1postprocessing_1_1PostProcessingInterface.html" target="_top" xlink:title="Skeleton of a post&#45;processing task. ">
<polygon fill="none" stroke="black" points="0,-138.5 0,-179.5 164,-179.5 164,-138.5 0,-138.5"/>
<text text-anchor="start" x="8" y="-167.5" font-family="Helvetica,sans-Serif" font-size="10.00">o2::quality_control</text>
<text text-anchor="start" x="8" y="-156.5" font-family="Helvetica,sans-Serif" font-size="10.00">::postprocessing::PostProcessing</text>
<text text-anchor="middle" x="82" y="-145.5" font-family="Helvetica,sans-Serif" font-size="10.00">Interface</text>
</a>
</g>
</g>
<!-- Node2 -->
<g id="node2" class="node"><title>Node2</title>
<g id="a_node2"><a xlink:href="classo2_1_1quality__control_1_1postprocessing_1_1TrendingTask.html" target="_top" xlink:title="A post&#45;processing task which trends values, stores them in a TTree and produces plots. ">
<polygon fill="none" stroke="black" points="200,-288 200,-318 354,-318 354,-288 200,-288"/>
<text text-anchor="start" x="208" y="-306" font-family="Helvetica,sans-Serif" font-size="10.00">o2::quality_control</text>
<text text-anchor="middle" x="277" y="-295" font-family="Helvetica,sans-Serif" font-size="10.00">::postprocessing::TrendingTask</text>
</a>
</g>
</g>
<!-- Node1&#45;&gt;Node2 -->
<g id="edge1" class="edge"><title>Node1&#45;&gt;Node2</title>
<path fill="none" stroke="midnightblue" d="M104.227,-187.856C125.601,-214.991 160.932,-254.941 200,-279 205.537,-282.41 211.603,-285.377 217.817,-287.948"/>
<polygon fill="midnightblue" stroke="midnightblue" points="106.941,-185.644 98.0532,-179.877 101.405,-189.928 106.941,-185.644"/>
</g>
<!-- Node3 -->
<g id="node3" class="node"><title>Node3</title>
<g id="a_node3"><a xlink:href="classo2_1_1quality__control_1_1postprocessing_1_1TrendingTaskITSFhr.html" target="_top" xlink:title="A post&#45;processing task which trends values, stores them in a TTree and produces plots. ">
<polygon fill="none" stroke="black" points="211,-228.5 211,-269.5 343,-269.5 343,-228.5 211,-228.5"/>
<text text-anchor="start" x="219" y="-257.5" font-family="Helvetica,sans-Serif" font-size="10.00">o2::quality_control</text>
<text text-anchor="start" x="219" y="-246.5" font-family="Helvetica,sans-Serif" font-size="10.00">::postprocessing::Trending</text>
<text text-anchor="middle" x="277" y="-235.5" font-family="Helvetica,sans-Serif" font-size="10.00">TaskITSFhr</text>
</a>
</g>
</g>
<!-- Node1&#45;&gt;Node3 -->
<g id="edge2" class="edge"><title>Node1&#45;&gt;Node3</title>
<path fill="none" stroke="midnightblue" d="M129.846,-184.352C151.036,-195.474 176.539,-208.384 200,-219 206.979,-222.158 214.395,-225.318 221.754,-228.34"/>
<polygon fill="midnightblue" stroke="midnightblue" points="131.22,-181.12 120.743,-179.546 127.951,-187.31 131.22,-181.12"/>
</g>
<!-- Node4 -->
<g id="node4" class="node"><title>Node4</title>
<g id="a_node4"><a xlink:href="classo2_1_1quality__control_1_1postprocessing_1_1TrendingTaskITSThr.html" target="_top" xlink:title="A post&#45;processing task which trends values, stores them in a TTree and produces plots. ">
<polygon fill="none" stroke="black" points="211,-168.5 211,-209.5 343,-209.5 343,-168.5 211,-168.5"/>
<text text-anchor="start" x="219" y="-197.5" font-family="Helvetica,sans-Serif" font-size="10.00">o2::quality_control</text>
<text text-anchor="start" x="219" y="-186.5" font-family="Helvetica,sans-Serif" font-size="10.00">::postprocessing::Trending</text>
<text text-anchor="middle" x="277" y="-175.5" font-family="Helvetica,sans-Serif" font-size="10.00">TaskITSThr</text>
</a>
</g>
</g>
<!-- Node1&#45;&gt;Node4 -->
<g id="edge3" class="edge"><title>Node1&#45;&gt;Node4</title>
<path fill="none" stroke="midnightblue" d="M173.926,-173.134C186.342,-175.063 198.881,-177.013 210.718,-178.853"/>
<polygon fill="midnightblue" stroke="midnightblue" points="174.429,-169.67 164.01,-171.592 173.354,-176.587 174.429,-169.67"/>
</g>
<!-- Node5 -->
<g id="node5" class="node"><title>Node5</title>
<g id="a_node5"><a xlink:href="classo2_1_1quality__control__modules_1_1skeleton_1_1SkeletonPostProcessing.html" target="_top" xlink:title="Example Quality Control Postprocessing Task. ">
<polygon fill="none" stroke="black" points="215,-108.5 215,-149.5 339,-149.5 339,-108.5 215,-108.5"/>
<text text-anchor="start" x="223" y="-137.5" font-family="Helvetica,sans-Serif" font-size="10.00">o2::quality_control</text>
<text text-anchor="start" x="223" y="-126.5" font-family="Helvetica,sans-Serif" font-size="10.00">_modules::skeleton::</text>
<text text-anchor="middle" x="277" y="-115.5" font-family="Helvetica,sans-Serif" font-size="10.00">SkeletonPostProcessing</text>
</a>
</g>
</g>
<!-- Node1&#45;&gt;Node5 -->
<g id="edge4" class="edge"><title>Node1&#45;&gt;Node5</title>
<path fill="none" stroke="midnightblue" d="M174.043,-144.848C187.88,-142.697 201.866,-140.523 214.861,-138.504"/>
<polygon fill="midnightblue" stroke="midnightblue" points="173.354,-141.413 164.01,-146.408 174.429,-148.33 173.354,-141.413"/>
</g>
<!-- Node6 -->
<g id="node6" class="node"><title>Node6</title>
<g id="a_node6"><a xlink:href="classo2_1_1quality__control__modules_1_1test_1_1TestTask.html" target="_top" xlink:title="o2::quality_control\l_modules::test::TestTask">
<polygon fill="none" stroke="black" points="213,-60 213,-90 341,-90 341,-60 213,-60"/>
<text text-anchor="start" x="221" y="-78" font-family="Helvetica,sans-Serif" font-size="10.00">o2::quality_control</text>
<text text-anchor="middle" x="277" y="-67" font-family="Helvetica,sans-Serif" font-size="10.00">_modules::test::TestTask</text>
</a>
</g>
</g>
<!-- Node1&#45;&gt;Node6 -->
<g id="edge5" class="edge"><title>Node1&#45;&gt;Node6</title>
<path fill="none" stroke="midnightblue" d="M128.005,-133.675C149.415,-122.213 175.612,-109.021 200,-99 207.679,-95.8447 215.933,-92.8501 224.071,-90.1142"/>
<polygon fill="midnightblue" stroke="midnightblue" points="126.273,-130.632 119.141,-138.467 129.602,-136.789 126.273,-130.632"/>
</g>
<!-- Node7 -->
<g id="node7" class="node"><title>Node7</title>
<g id="a_node7"><a xlink:href="classo2_1_1quality__control__modules_1_1tof_1_1PostProcessDiagnosticPerCrate.html" target="_top" xlink:title="Post processing to rearrange TOF information at the level of the crate (maybe we should do the opposi...">
<polygon fill="none" stroke="black" points="208,-0.5 208,-41.5 346,-41.5 346,-0.5 208,-0.5"/>
<text text-anchor="start" x="216" y="-29.5" font-family="Helvetica,sans-Serif" font-size="10.00">o2::quality_control</text>
<text text-anchor="start" x="216" y="-18.5" font-family="Helvetica,sans-Serif" font-size="10.00">_modules::tof::PostProcess</text>
<text text-anchor="middle" x="277" y="-7.5" font-family="Helvetica,sans-Serif" font-size="10.00">DiagnosticPerCrate</text>
</a>
</g>
</g>
<!-- Node1&#45;&gt;Node7 -->
<g id="edge6" class="edge"><title>Node1&#45;&gt;Node7</title>
<path fill="none" stroke="midnightblue" d="M107.8,-130.881C130.025,-107.048 164.511,-73.2843 200,-51 205.406,-47.6055 211.26,-44.4774 217.237,-41.627"/>
<polygon fill="midnightblue" stroke="midnightblue" points="105.222,-128.513 101.028,-138.243 110.374,-133.252 105.222,-128.513"/>
</g>
</g>
</svg>
