<?xml version="1.0" encoding="UTF-8" standalone="no"?>
<!DOCTYPE svg PUBLIC "-//W3C//DTD SVG 1.1//EN"
 "http://www.w3.org/Graphics/SVG/1.1/DTD/svg11.dtd">
<!-- Generated by graphviz version 2.38.0 (20140413.2041)
 -->
<!-- Title: Modules/ITS/src/ITSOnlineTask.cxx Pages: 1 -->
<svg width="1886pt" height="341pt"
 viewBox="0.00 0.00 1885.50 341.00" xmlns="http://www.w3.org/2000/svg" xmlns:xlink="http://www.w3.org/1999/xlink">
<g id="graph0" class="graph" transform="scale(1 1) rotate(0) translate(4 337)">
<title>Modules/ITS/src/ITSOnlineTask.cxx</title>
<!-- Node1 -->
<g id="node1" class="node"><title>Node1</title>
<polygon fill="#bfbfbf" stroke="black" points="1401,-302.5 1401,-332.5 1536,-332.5 1536,-302.5 1401,-302.5"/>
<text text-anchor="start" x="1409" y="-320.5" font-family="Helvetica,sans-Serif" font-size="10.00">Modules/ITS/src/ITSOnline</text>
<text text-anchor="middle" x="1468.5" y="-309.5" font-family="Helvetica,sans-Serif" font-size="10.00">Task.cxx</text>
</g>
<!-- Node2 -->
<g id="node2" class="node"><title>Node2</title>
<g id="a_node2"><a xlink:href="ITSOnlineTask_8h.html" target="_top" xlink:title="ITS/ITSOnlineTask.h">
<polygon fill="none" stroke="black" points="553,-246.5 553,-265.5 662,-265.5 662,-246.5 553,-246.5"/>
<text text-anchor="middle" x="607.5" y="-253.5" font-family="Helvetica,sans-Serif" font-size="10.00">ITS/ITSOnlineTask.h</text>
</a>
</g>
</g>
<!-- Node1&#45;&gt;Node2 -->
<g id="edge1" class="edge"><title>Node1&#45;&gt;Node2</title>
<path fill="none" stroke="midnightblue" d="M1400.94,-311.831C1239.18,-300.653 831.307,-272.466 672.343,-261.481"/>
<polygon fill="midnightblue" stroke="midnightblue" points="672.455,-257.981 662.238,-260.783 671.973,-264.964 672.455,-257.981"/>
</g>
<!-- Node21 -->
<g id="node21" class="node"><title>Node21</title>
<g id="a_node21"><a xlink:href="QcInfoLogger_8h.html" target="_top" xlink:title="QualityControl/QcInfoLogger.h">
<polygon fill="none" stroke="black" points="1288,-123.5 1288,-142.5 1437,-142.5 1437,-123.5 1288,-123.5"/>
<text text-anchor="middle" x="1362.5" y="-130.5" font-family="Helvetica,sans-Serif" font-size="10.00">QualityControl/QcInfoLogger.h</text>
</a>
</g>
</g>
<!-- Node1&#45;&gt;Node21 -->
<g id="edge38" class="edge"><title>Node1&#45;&gt;Node21</title>
<path fill="none" stroke="midnightblue" d="M1400.96,-316.106C1314.43,-314.001 1171.63,-304.587 1138.5,-266 1084.53,-203.143 1223.09,-162.566 1305.85,-144.632"/>
<polygon fill="midnightblue" stroke="midnightblue" points="1306.59,-148.053 1315.65,-142.557 1305.14,-141.204 1306.59,-148.053"/>
</g>
<!-- Node32 -->
<g id="node32" class="node"><title>Node32</title>
<polygon fill="none" stroke="#bfbfbf" points="1018,-185 1018,-204 1091,-204 1091,-185 1018,-185"/>
<text text-anchor="middle" x="1054.5" y="-192" font-family="Helvetica,sans-Serif" font-size="10.00">TPaveText.h</text>
</g>
<!-- Node1&#45;&gt;Node32 -->
<g id="edge45" class="edge"><title>Node1&#45;&gt;Node32</title>
<path fill="none" stroke="midnightblue" d="M1400.69,-313.376C1309.69,-308.124 1153.89,-295.1 1105.5,-266 1085.13,-253.751 1070.53,-229.927 1062.31,-213.384"/>
<polygon fill="midnightblue" stroke="midnightblue" points="1065.42,-211.772 1058.02,-204.192 1059.08,-214.734 1065.42,-211.772"/>
</g>
<!-- Node33 -->
<g id="node33" class="node"><title>Node33</title>
<polygon fill="none" stroke="#bfbfbf" points="1147.5,-246.5 1147.5,-265.5 1263.5,-265.5 1263.5,-246.5 1147.5,-246.5"/>
<text text-anchor="middle" x="1205.5" y="-253.5" font-family="Helvetica,sans-Serif" font-size="10.00">DPLUtils/RawParser.h</text>
</g>
<!-- Node1&#45;&gt;Node33 -->
<g id="edge39" class="edge"><title>Node1&#45;&gt;Node33</title>
<path fill="none" stroke="midnightblue" d="M1406.51,-302.475C1359.55,-291.851 1296,-277.473 1253.02,-267.751"/>
<polygon fill="midnightblue" stroke="midnightblue" points="1253.63,-264.299 1243.1,-265.506 1252.08,-271.127 1253.63,-264.299"/>
</g>
<!-- Node34 -->
<g id="node34" class="node"><title>Node34</title>
<polygon fill="none" stroke="#bfbfbf" points="1281.5,-246.5 1281.5,-265.5 1417.5,-265.5 1417.5,-246.5 1281.5,-246.5"/>
<text text-anchor="middle" x="1349.5" y="-253.5" font-family="Helvetica,sans-Serif" font-size="10.00">DPLUtils/DPLRawParser.h</text>
</g>
<!-- Node1&#45;&gt;Node34 -->
<g id="edge40" class="edge"><title>Node1&#45;&gt;Node34</title>
<path fill="none" stroke="midnightblue" d="M1440.3,-302.399C1420.78,-292.639 1394.97,-279.737 1375.87,-270.183"/>
<polygon fill="midnightblue" stroke="midnightblue" points="1377.33,-266.999 1366.82,-265.658 1374.19,-273.26 1377.33,-266.999"/>
</g>
<!-- Node35 -->
<g id="node35" class="node"><title>Node35</title>
<polygon fill="none" stroke="#bfbfbf" points="1436,-246.5 1436,-265.5 1501,-265.5 1501,-246.5 1436,-246.5"/>
<text text-anchor="middle" x="1468.5" y="-253.5" font-family="Helvetica,sans-Serif" font-size="10.00">TCanvas.h</text>
</g>
<!-- Node1&#45;&gt;Node35 -->
<g id="edge41" class="edge"><title>Node1&#45;&gt;Node35</title>
<path fill="none" stroke="midnightblue" d="M1468.5,-302.399C1468.5,-294.466 1468.5,-284.458 1468.5,-275.858"/>
<polygon fill="midnightblue" stroke="midnightblue" points="1472,-275.658 1468.5,-265.658 1465,-275.658 1472,-275.658"/>
</g>
<!-- Node36 -->
<g id="node36" class="node"><title>Node36</title>
<polygon fill="none" stroke="#bfbfbf" points="1519.5,-246.5 1519.5,-265.5 1581.5,-265.5 1581.5,-246.5 1519.5,-246.5"/>
<text text-anchor="middle" x="1550.5" y="-253.5" font-family="Helvetica,sans-Serif" font-size="10.00">TDatime.h</text>
</g>
<!-- Node1&#45;&gt;Node36 -->
<g id="edge42" class="edge"><title>Node1&#45;&gt;Node36</title>
<path fill="none" stroke="midnightblue" d="M1487.93,-302.399C1500.71,-293.129 1517.39,-281.025 1530.31,-271.647"/>
<polygon fill="midnightblue" stroke="midnightblue" points="1532.53,-274.364 1538.57,-265.658 1528.42,-268.698 1532.53,-274.364"/>
</g>
<!-- Node37 -->
<g id="node37" class="node"><title>Node37</title>
<polygon fill="none" stroke="#bfbfbf" points="1600,-246.5 1600,-265.5 1657,-265.5 1657,-246.5 1600,-246.5"/>
<text text-anchor="middle" x="1628.5" y="-253.5" font-family="Helvetica,sans-Serif" font-size="10.00">TGraph.h</text>
</g>
<!-- Node1&#45;&gt;Node37 -->
<g id="edge43" class="edge"><title>Node1&#45;&gt;Node37</title>
<path fill="none" stroke="midnightblue" d="M1506.42,-302.399C1533.62,-292.283 1569.9,-278.791 1595.83,-269.149"/>
<polygon fill="midnightblue" stroke="midnightblue" points="1597.07,-272.424 1605.22,-265.658 1594.63,-265.863 1597.07,-272.424"/>
</g>
<!-- Node38 -->
<g id="node38" class="node"><title>Node38</title>
<polygon fill="none" stroke="#bfbfbf" points="1675.5,-246.5 1675.5,-265.5 1719.5,-265.5 1719.5,-246.5 1675.5,-246.5"/>
<text text-anchor="middle" x="1697.5" y="-253.5" font-family="Helvetica,sans-Serif" font-size="10.00">TH1.h</text>
</g>
<!-- Node1&#45;&gt;Node38 -->
<g id="edge44" class="edge"><title>Node1&#45;&gt;Node38</title>
<path fill="none" stroke="midnightblue" d="M1525.82,-302.41C1563.1,-293.123 1613.01,-280.465 1665.37,-266.249"/>
<polygon fill="midnightblue" stroke="midnightblue" points="1666.45,-269.583 1675.17,-263.577 1664.61,-262.83 1666.45,-269.583"/>
</g>
<!-- Node39 -->
<g id="node39" class="node"><title>Node39</title>
<polygon fill="none" stroke="#bfbfbf" points="1738,-246.5 1738,-265.5 1815,-265.5 1815,-246.5 1738,-246.5"/>
<text text-anchor="middle" x="1776.5" y="-253.5" font-family="Helvetica,sans-Serif" font-size="10.00">TPaveStats.h</text>
</g>
<!-- Node1&#45;&gt;Node39 -->
<g id="edge46" class="edge"><title>Node1&#45;&gt;Node39</title>
<path fill="none" stroke="midnightblue" d="M1536.09,-303.442C1594.03,-292.25 1676.09,-276.397 1727.79,-266.41"/>
<polygon fill="midnightblue" stroke="midnightblue" points="1728.55,-269.827 1737.71,-264.494 1727.22,-262.954 1728.55,-269.827"/>
</g>
<!-- Node40 -->
<g id="node40" class="node"><title>Node40</title>
<polygon fill="none" stroke="#bfbfbf" points="1833.5,-246.5 1833.5,-265.5 1877.5,-265.5 1877.5,-246.5 1833.5,-246.5"/>
<text text-anchor="middle" x="1855.5" y="-253.5" font-family="Helvetica,sans-Serif" font-size="10.00">time.h</text>
</g>
<!-- Node1&#45;&gt;Node40 -->
<g id="edge47" class="edge"><title>Node1&#45;&gt;Node40</title>
<path fill="none" stroke="midnightblue" d="M1536.26,-309.779C1606.08,-302.201 1718.14,-288.23 1823.41,-265.978"/>
<polygon fill="midnightblue" stroke="midnightblue" points="1824.2,-269.388 1833.25,-263.87 1822.73,-262.543 1824.2,-269.388"/>
</g>
<!-- Node3 -->
<g id="node3" class="node"><title>Node3</title>
<g id="a_node3"><a xlink:href="TaskInterface_8h.html" target="_top" xlink:title="QualityControl/TaskInterface.h">
<polygon fill="none" stroke="black" points="712.5,-185 712.5,-204 862.5,-204 862.5,-185 712.5,-185"/>
<text text-anchor="middle" x="787.5" y="-192" font-family="Helvetica,sans-Serif" font-size="10.00">QualityControl/TaskInterface.h</text>
</a>
</g>
</g>
<!-- Node2&#45;&gt;Node3 -->
<g id="edge2" class="edge"><title>Node2&#45;&gt;Node3</title>
<path fill="none" stroke="midnightblue" d="M633.29,-246.475C664.433,-236.18 716.981,-218.81 751.953,-207.25"/>
<polygon fill="midnightblue" stroke="midnightblue" points="753.362,-210.471 761.758,-204.009 751.165,-203.825 753.362,-210.471"/>
</g>
<!-- Node24 -->
<g id="node24" class="node"><title>Node24</title>
<polygon fill="none" stroke="#bfbfbf" points="881,-179.5 881,-209.5 1000,-209.5 1000,-179.5 881,-179.5"/>
<text text-anchor="start" x="889" y="-197.5" font-family="Helvetica,sans-Serif" font-size="10.00">ITSMFTReconstruction</text>
<text text-anchor="middle" x="940.5" y="-186.5" font-family="Helvetica,sans-Serif" font-size="10.00">/ChipMappingITS.h</text>
</g>
<!-- Node2&#45;&gt;Node24 -->
<g id="edge29" class="edge"><title>Node2&#45;&gt;Node24</title>
<path fill="none" stroke="midnightblue" d="M661.205,-246.464C712.434,-238.183 792.017,-224.956 870.612,-210.126"/>
<polygon fill="midnightblue" stroke="midnightblue" points="871.516,-213.517 880.689,-208.215 870.212,-206.64 871.516,-213.517"/>
</g>
<!-- Node25 -->
<g id="node25" class="node"><title>Node25</title>
<polygon fill="none" stroke="#bfbfbf" points="0,-179.5 0,-209.5 119,-209.5 119,-179.5 0,-179.5"/>
<text text-anchor="start" x="8" y="-197.5" font-family="Helvetica,sans-Serif" font-size="10.00">ITSMFTReconstruction</text>
<text text-anchor="middle" x="59.5" y="-186.5" font-family="Helvetica,sans-Serif" font-size="10.00">/PixelData.h</text>
</g>
<!-- Node2&#45;&gt;Node25 -->
<g id="edge30" class="edge"><title>Node2&#45;&gt;Node25</title>
<path fill="none" stroke="midnightblue" d="M552.898,-251.96C465.399,-246.634 288.228,-233.977 129.102,-210.139"/>
<polygon fill="midnightblue" stroke="midnightblue" points="129.543,-206.666 119.132,-208.627 128.494,-213.587 129.543,-206.666"/>
</g>
<!-- Node26 -->
<g id="node26" class="node"><title>Node26</title>
<polygon fill="none" stroke="#bfbfbf" points="137,-185 137,-204 270,-204 270,-185 137,-185"/>
<text text-anchor="middle" x="203.5" y="-192" font-family="Helvetica,sans-Serif" font-size="10.00">ITSBase/GeometryTGeo.h</text>
</g>
<!-- Node2&#45;&gt;Node26 -->
<g id="edge31" class="edge"><title>Node2&#45;&gt;Node26</title>
<path fill="none" stroke="midnightblue" d="M552.931,-248.47C487.552,-240.43 374.772,-225.878 278.5,-210 271.039,-208.77 263.182,-207.368 255.474,-205.932"/>
<polygon fill="midnightblue" stroke="midnightblue" points="255.951,-202.461 245.474,-204.037 254.647,-209.338 255.951,-202.461"/>
</g>
<!-- Node27 -->
<g id="node27" class="node"><title>Node27</title>
<polygon fill="none" stroke="#bfbfbf" points="288,-179.5 288,-209.5 407,-209.5 407,-179.5 288,-179.5"/>
<text text-anchor="start" x="296" y="-197.5" font-family="Helvetica,sans-Serif" font-size="10.00">ITSMFTReconstruction</text>
<text text-anchor="middle" x="347.5" y="-186.5" font-family="Helvetica,sans-Serif" font-size="10.00">/RawPixelDecoder.h</text>
</g>
<!-- Node2&#45;&gt;Node27 -->
<g id="edge32" class="edge"><title>Node2&#45;&gt;Node27</title>
<path fill="none" stroke="midnightblue" d="M570.248,-246.475C530.445,-237.366 466.437,-222.718 417.227,-211.457"/>
<polygon fill="midnightblue" stroke="midnightblue" points="417.808,-207.999 407.279,-209.18 416.246,-214.823 417.808,-207.999"/>
</g>
<!-- Node28 -->
<g id="node28" class="node"><title>Node28</title>
<polygon fill="none" stroke="#bfbfbf" points="425.5,-185 425.5,-204 499.5,-204 499.5,-185 425.5,-185"/>
<text text-anchor="middle" x="462.5" y="-192" font-family="Helvetica,sans-Serif" font-size="10.00">THnSparse.h</text>
</g>
<!-- Node2&#45;&gt;Node28 -->
<g id="edge33" class="edge"><title>Node2&#45;&gt;Node28</title>
<path fill="none" stroke="midnightblue" d="M586.725,-246.475C562.068,-236.357 520.755,-219.405 492.598,-207.851"/>
<polygon fill="midnightblue" stroke="midnightblue" points="493.817,-204.567 483.236,-204.009 491.159,-211.043 493.817,-204.567"/>
</g>
<!-- Node29 -->
<g id="node29" class="node"><title>Node29</title>
<polygon fill="none" stroke="#bfbfbf" points="517.5,-185 517.5,-204 567.5,-204 567.5,-185 517.5,-185"/>
<text text-anchor="middle" x="542.5" y="-192" font-family="Helvetica,sans-Serif" font-size="10.00">TText.h</text>
</g>
<!-- Node2&#45;&gt;Node29 -->
<g id="edge34" class="edge"><title>Node2&#45;&gt;Node29</title>
<path fill="none" stroke="midnightblue" d="M598.187,-246.475C588.051,-237.197 571.636,-222.171 559.248,-210.831"/>
<polygon fill="midnightblue" stroke="midnightblue" points="561.535,-208.18 551.796,-204.009 556.809,-213.343 561.535,-208.18"/>
</g>
<!-- Node30 -->
<g id="node30" class="node"><title>Node30</title>
<polygon fill="none" stroke="#bfbfbf" points="585.5,-185 585.5,-204 629.5,-204 629.5,-185 585.5,-185"/>
<text text-anchor="middle" x="607.5" y="-192" font-family="Helvetica,sans-Serif" font-size="10.00">TH2.h</text>
</g>
<!-- Node2&#45;&gt;Node30 -->
<g id="edge35" class="edge"><title>Node2&#45;&gt;Node30</title>
<path fill="none" stroke="midnightblue" d="M607.5,-246.475C607.5,-238.08 607.5,-224.981 607.5,-214.163"/>
<polygon fill="midnightblue" stroke="midnightblue" points="611,-214.009 607.5,-204.009 604,-214.009 611,-214.009"/>
</g>
<!-- Node31 -->
<g id="node31" class="node"><title>Node31</title>
<polygon fill="none" stroke="#bfbfbf" points="648,-185 648,-204 695,-204 695,-185 648,-185"/>
<text text-anchor="middle" x="671.5" y="-192" font-family="Helvetica,sans-Serif" font-size="10.00">TH2I.h</text>
</g>
<!-- Node2&#45;&gt;Node31 -->
<g id="edge36" class="edge"><title>Node2&#45;&gt;Node31</title>
<path fill="none" stroke="midnightblue" d="M616.67,-246.475C626.65,-237.197 642.812,-222.171 655.009,-210.831"/>
<polygon fill="midnightblue" stroke="midnightblue" points="657.407,-213.381 662.347,-204.009 652.64,-208.255 657.407,-213.381"/>
</g>
<!-- Node2&#45;&gt;Node32 -->
<g id="edge37" class="edge"><title>Node2&#45;&gt;Node32</title>
<path fill="none" stroke="midnightblue" d="M662.191,-252.223C739.881,-247.521 886.333,-235.855 1008.5,-210 1012.44,-209.166 1016.53,-208.133 1020.56,-207.005"/>
<polygon fill="midnightblue" stroke="midnightblue" points="1021.81,-210.287 1030.38,-204.067 1019.8,-203.58 1021.81,-210.287"/>
</g>
<!-- Node4 -->
<g id="node4" class="node"><title>Node4</title>
<polygon fill="none" stroke="#bfbfbf" points="1166,-0.5 1166,-19.5 1201,-19.5 1201,-0.5 1166,-0.5"/>
<text text-anchor="middle" x="1183.5" y="-7.5" font-family="Helvetica,sans-Serif" font-size="10.00">map</text>
</g>
<!-- Node3&#45;&gt;Node4 -->
<g id="edge3" class="edge"><title>Node3&#45;&gt;Node4</title>
<path fill="none" stroke="midnightblue" d="M834.528,-184.967C846.562,-182.897 859.495,-180.773 871.5,-179 936.397,-169.418 1117.64,-188.904 1164.5,-143 1194.87,-113.251 1191.45,-58.2651 1187.09,-29.5524"/>
<polygon fill="midnightblue" stroke="midnightblue" points="1190.52,-28.8878 1185.38,-19.6275 1183.62,-30.0767 1190.52,-28.8878"/>
</g>
<!-- Node5 -->
<g id="node5" class="node"><title>Node5</title>
<polygon fill="none" stroke="#bfbfbf" points="540.5,-62 540.5,-81 592.5,-81 592.5,-62 540.5,-62"/>
<text text-anchor="middle" x="566.5" y="-69" font-family="Helvetica,sans-Serif" font-size="10.00">memory</text>
</g>
<!-- Node3&#45;&gt;Node5 -->
<g id="edge4" class="edge"><title>Node3&#45;&gt;Node5</title>
<path fill="none" stroke="midnightblue" d="M740.473,-184.96C728.439,-182.891 715.506,-180.768 703.5,-179 638.163,-169.38 452.279,-192.446 408.5,-143 371.291,-100.974 472.593,-82.7376 530.017,-75.9527"/>
<polygon fill="midnightblue" stroke="midnightblue" points="530.637,-79.4054 540.186,-74.8159 529.859,-72.4487 530.637,-79.4054"/>
</g>
<!-- Node6 -->
<g id="node6" class="node"><title>Node6</title>
<polygon fill="none" stroke="#bfbfbf" points="821,-0.5 821,-19.5 862,-19.5 862,-0.5 821,-0.5"/>
<text text-anchor="middle" x="841.5" y="-7.5" font-family="Helvetica,sans-Serif" font-size="10.00">string</text>
</g>
<!-- Node3&#45;&gt;Node6 -->
<g id="edge5" class="edge"><title>Node3&#45;&gt;Node6</title>
<path fill="none" stroke="midnightblue" d="M740.918,-185C728.76,-182.907 715.656,-180.763 703.5,-179 635.74,-169.173 442.999,-194.165 397.5,-143 391.593,-136.358 392.827,-130.561 397.5,-123 432.506,-66.3593 467.966,-75.9252 531.5,-56 630.462,-24.9641 754.017,-15.1958 810.603,-12.2319"/>
<polygon fill="midnightblue" stroke="midnightblue" points="810.868,-15.7232 820.685,-11.7397 810.527,-8.73156 810.868,-15.7232"/>
</g>
<!-- Node7 -->
<g id="node7" class="node"><title>Node7</title>
<polygon fill="none" stroke="#bfbfbf" points="496,-0.5 496,-19.5 579,-19.5 579,-0.5 496,-0.5"/>
<text text-anchor="middle" x="537.5" y="-7.5" font-family="Helvetica,sans-Serif" font-size="10.00">unordered_map</text>
</g>
<!-- Node3&#45;&gt;Node7 -->
<g id="edge6" class="edge"><title>Node3&#45;&gt;Node7</title>
<path fill="none" stroke="midnightblue" d="M740.921,-184.978C728.763,-182.886 715.658,-180.747 703.5,-179 634.198,-169.041 437.093,-195.259 390.5,-143 366.748,-116.36 390.236,-89.1657 427.5,-56 445.197,-40.2496 469.146,-29.5754 490.18,-22.5924"/>
<polygon fill="midnightblue" stroke="midnightblue" points="491.418,-25.8723 499.918,-19.5469 489.329,-19.1915 491.418,-25.8723"/>
</g>
<!-- Node8 -->
<g id="node8" class="node"><title>Node8</title>
<polygon fill="none" stroke="#bfbfbf" points="418,-123.5 418,-142.5 543,-142.5 543,-123.5 418,-123.5"/>
<text text-anchor="middle" x="480.5" y="-130.5" font-family="Helvetica,sans-Serif" font-size="10.00">Framework/InitContext.h</text>
</g>
<!-- Node3&#45;&gt;Node8 -->
<g id="edge7" class="edge"><title>Node3&#45;&gt;Node8</title>
<path fill="none" stroke="midnightblue" d="M743.514,-184.975C688.345,-174.283 593.795,-155.958 534.353,-144.437"/>
<polygon fill="midnightblue" stroke="midnightblue" points="534.887,-140.976 524.404,-142.509 533.555,-147.848 534.887,-140.976"/>
</g>
<!-- Node9 -->
<g id="node9" class="node"><title>Node9</title>
<polygon fill="none" stroke="#bfbfbf" points="561.5,-123.5 561.5,-142.5 721.5,-142.5 721.5,-123.5 561.5,-123.5"/>
<text text-anchor="middle" x="641.5" y="-130.5" font-family="Helvetica,sans-Serif" font-size="10.00">Framework/ProcessingContext.h</text>
</g>
<!-- Node3&#45;&gt;Node9 -->
<g id="edge8" class="edge"><title>Node3&#45;&gt;Node9</title>
<path fill="none" stroke="midnightblue" d="M766.582,-184.975C741.754,-174.857 700.157,-157.905 671.806,-146.351"/>
<polygon fill="midnightblue" stroke="midnightblue" points="672.961,-143.042 662.379,-142.509 670.319,-149.524 672.961,-143.042"/>
</g>
<!-- Node10 -->
<g id="node10" class="node"><title>Node10</title>
<polygon fill="none" stroke="#bfbfbf" points="740,-123.5 740,-142.5 835,-142.5 835,-123.5 740,-123.5"/>
<text text-anchor="middle" x="787.5" y="-130.5" font-family="Helvetica,sans-Serif" font-size="10.00">CCDB/CcdbApi.h</text>
</g>
<!-- Node3&#45;&gt;Node10 -->
<g id="edge9" class="edge"><title>Node3&#45;&gt;Node10</title>
<path fill="none" stroke="midnightblue" d="M787.5,-184.975C787.5,-176.58 787.5,-163.481 787.5,-152.663"/>
<polygon fill="midnightblue" stroke="midnightblue" points="791,-152.509 787.5,-142.509 784,-152.509 791,-152.509"/>
</g>
<!-- Node11 -->
<g id="node11" class="node"><title>Node11</title>
<g id="a_node11"><a xlink:href="Activity_8h.html" target="_top" xlink:title="QualityControl/Activity.h">
<polygon fill="none" stroke="black" points="853,-123.5 853,-142.5 976,-142.5 976,-123.5 853,-123.5"/>
<text text-anchor="middle" x="914.5" y="-130.5" font-family="Helvetica,sans-Serif" font-size="10.00">QualityControl/Activity.h</text>
</a>
</g>
</g>
<!-- Node3&#45;&gt;Node11 -->
<g id="edge10" class="edge"><title>Node3&#45;&gt;Node11</title>
<path fill="none" stroke="midnightblue" d="M805.696,-184.975C827.009,-174.99 862.531,-158.348 887.163,-146.807"/>
<polygon fill="midnightblue" stroke="midnightblue" points="888.767,-149.921 896.338,-142.509 885.797,-143.582 888.767,-149.921"/>
</g>
<!-- Node12 -->
<g id="node12" class="node"><title>Node12</title>
<g id="a_node12"><a xlink:href="ObjectsManager_8h.html" target="_top" xlink:title="QualityControl/ObjectsManager.h">
<polygon fill="none" stroke="black" points="994,-123.5 994,-142.5 1155,-142.5 1155,-123.5 994,-123.5"/>
<text text-anchor="middle" x="1074.5" y="-130.5" font-family="Helvetica,sans-Serif" font-size="10.00">QualityControl/ObjectsManager.h</text>
</a>
</g>
</g>
<!-- Node3&#45;&gt;Node12 -->
<g id="edge11" class="edge"><title>Node3&#45;&gt;Node12</title>
<path fill="none" stroke="midnightblue" d="M828.62,-184.975C879.982,-174.327 967.856,-156.109 1023.46,-144.581"/>
<polygon fill="midnightblue" stroke="midnightblue" points="1024.37,-147.966 1033.46,-142.509 1022.95,-141.112 1024.37,-147.966"/>
</g>
<!-- Node3&#45;&gt;Node21 -->
<g id="edge26" class="edge"><title>Node3&#45;&gt;Node21</title>
<path fill="none" stroke="midnightblue" d="M833.175,-184.936C845.579,-182.796 859.029,-180.645 871.5,-179 1013.5,-160.267 1179.64,-146.797 1277.7,-139.714"/>
<polygon fill="midnightblue" stroke="midnightblue" points="1278.12,-143.192 1287.85,-138.986 1277.62,-136.21 1278.12,-143.192"/>
</g>
<!-- Node12&#45;&gt;Node5 -->
<g id="edge25" class="edge"><title>Node12&#45;&gt;Node5</title>
<path fill="none" stroke="midnightblue" d="M1001.72,-123.475C891.347,-110.548 685.728,-86.4647 602.68,-76.7376"/>
<polygon fill="midnightblue" stroke="midnightblue" points="603.053,-73.2574 592.714,-75.5703 602.238,-80.2099 603.053,-73.2574"/>
</g>
<!-- Node12&#45;&gt;Node6 -->
<g id="edge24" class="edge"><title>Node12&#45;&gt;Node6</title>
<path fill="none" stroke="midnightblue" d="M1056.2,-123.454C1037.35,-114.582 1007.19,-100.181 981.5,-87 940.558,-65.9965 893.698,-40.1914 865.906,-24.6982"/>
<polygon fill="midnightblue" stroke="midnightblue" points="867.349,-21.4952 856.912,-19.6729 863.935,-27.606 867.349,-21.4952"/>
</g>
<!-- Node13 -->
<g id="node13" class="node"><title>Node13</title>
<g id="a_node13"><a xlink:href="MonitorObject_8h.html" target="_top" xlink:title="QualityControl/MonitorObject.h">
<polygon fill="none" stroke="black" points="991,-62 991,-81 1142,-81 1142,-62 991,-62"/>
<text text-anchor="middle" x="1066.5" y="-69" font-family="Helvetica,sans-Serif" font-size="10.00">QualityControl/MonitorObject.h</text>
</a>
</g>
</g>
<!-- Node12&#45;&gt;Node13 -->
<g id="edge12" class="edge"><title>Node12&#45;&gt;Node13</title>
<path fill="none" stroke="midnightblue" d="M1073.35,-123.475C1072.23,-115.08 1070.46,-101.981 1069.01,-91.1631"/>
<polygon fill="midnightblue" stroke="midnightblue" points="1072.45,-90.4535 1067.64,-81.0091 1065.51,-91.3863 1072.45,-90.4535"/>
</g>
<!-- Node17 -->
<g id="node17" class="node"><title>Node17</title>
<g id="a_node17"><a xlink:href="MonitorObjectCollection_8h.html" target="_top" xlink:title="QualityControl/MonitorObject\lCollection.h">
<polygon fill="none" stroke="black" points="1212,-56.5 1212,-86.5 1355,-86.5 1355,-56.5 1212,-56.5"/>
<text text-anchor="start" x="1220" y="-74.5" font-family="Helvetica,sans-Serif" font-size="10.00">QualityControl/MonitorObject</text>
<text text-anchor="middle" x="1283.5" y="-63.5" font-family="Helvetica,sans-Serif" font-size="10.00">Collection.h</text>
</a>
</g>
</g>
<!-- Node12&#45;&gt;Node17 -->
<g id="edge18" class="edge"><title>Node12&#45;&gt;Node17</title>
<path fill="none" stroke="midnightblue" d="M1104.44,-123.475C1135.66,-114.588 1185.4,-100.429 1224.54,-89.2859"/>
<polygon fill="midnightblue" stroke="midnightblue" points="1225.58,-92.6274 1234.24,-86.523 1223.67,-85.8949 1225.58,-92.6274"/>
</g>
<!-- Node20 -->
<g id="node20" class="node"><title>Node20</title>
<g id="a_node20"><a xlink:href="TaskConfig_8h.html" target="_top" xlink:title="QualityControl/TaskConfig.h">
<polygon fill="none" stroke="black" points="771.5,-62 771.5,-81 911.5,-81 911.5,-62 771.5,-62"/>
<text text-anchor="middle" x="841.5" y="-69" font-family="Helvetica,sans-Serif" font-size="10.00">QualityControl/TaskConfig.h</text>
</a>
</g>
</g>
<!-- Node12&#45;&gt;Node20 -->
<g id="edge21" class="edge"><title>Node12&#45;&gt;Node20</title>
<path fill="none" stroke="midnightblue" d="M1041.12,-123.475C999.938,-112.959 929.85,-95.0615 884.631,-83.5142"/>
<polygon fill="midnightblue" stroke="midnightblue" points="885.376,-80.0922 874.821,-81.0091 883.644,-86.8746 885.376,-80.0922"/>
</g>
<!-- Node13&#45;&gt;Node4 -->
<g id="edge14" class="edge"><title>Node13&#45;&gt;Node4</title>
<path fill="none" stroke="midnightblue" d="M1083.26,-61.9751C1102.72,-52.078 1135.05,-35.6416 1157.71,-24.1151"/>
<polygon fill="midnightblue" stroke="midnightblue" points="1159.44,-27.1619 1166.77,-19.5091 1156.27,-20.9224 1159.44,-27.1619"/>
</g>
<!-- Node13&#45;&gt;Node6 -->
<g id="edge13" class="edge"><title>Node13&#45;&gt;Node6</title>
<path fill="none" stroke="midnightblue" d="M1031.31,-61.9818C993.97,-52.8225 933.033,-37.5319 871.872,-20.2978"/>
<polygon fill="midnightblue" stroke="midnightblue" points="872.634,-16.8758 862.058,-17.5158 870.725,-23.6104 872.634,-16.8758"/>
</g>
<!-- Node14 -->
<g id="node14" class="node"><title>Node14</title>
<polygon fill="none" stroke="#bfbfbf" points="1091.5,-0.5 1091.5,-19.5 1147.5,-19.5 1147.5,-0.5 1091.5,-0.5"/>
<text text-anchor="middle" x="1119.5" y="-7.5" font-family="Helvetica,sans-Serif" font-size="10.00">Rtypes.h</text>
</g>
<!-- Node13&#45;&gt;Node14 -->
<g id="edge15" class="edge"><title>Node13&#45;&gt;Node14</title>
<path fill="none" stroke="midnightblue" d="M1074.09,-61.9751C1082.2,-52.8733 1095.23,-38.241 1105.26,-26.983"/>
<polygon fill="midnightblue" stroke="midnightblue" points="1107.88,-29.3043 1111.92,-19.5091 1102.66,-24.6483 1107.88,-29.3043"/>
</g>
<!-- Node15 -->
<g id="node15" class="node"><title>Node15</title>
<polygon fill="none" stroke="#bfbfbf" points="880,-0.5 880,-19.5 939,-19.5 939,-0.5 880,-0.5"/>
<text text-anchor="middle" x="909.5" y="-7.5" font-family="Helvetica,sans-Serif" font-size="10.00">TObject.h</text>
</g>
<!-- Node13&#45;&gt;Node15 -->
<g id="edge16" class="edge"><title>Node13&#45;&gt;Node15</title>
<path fill="none" stroke="midnightblue" d="M1044.01,-61.9751C1017.19,-51.8129 972.185,-34.7564 941.691,-23.1996"/>
<polygon fill="midnightblue" stroke="midnightblue" points="942.544,-19.7801 931.953,-19.5091 940.063,-26.3258 942.544,-19.7801"/>
</g>
<!-- Node16 -->
<g id="node16" class="node"><title>Node16</title>
<polygon fill="none" stroke="#bfbfbf" points="957.5,-0.5 957.5,-19.5 1073.5,-19.5 1073.5,-0.5 957.5,-0.5"/>
<text text-anchor="middle" x="1015.5" y="-7.5" font-family="Helvetica,sans-Serif" font-size="10.00">Common/Exceptions.h</text>
</g>
<!-- Node13&#45;&gt;Node16 -->
<g id="edge17" class="edge"><title>Node13&#45;&gt;Node16</title>
<path fill="none" stroke="midnightblue" d="M1059.19,-61.9751C1051.47,-52.9617 1039.09,-38.5246 1029.48,-27.3118"/>
<polygon fill="midnightblue" stroke="midnightblue" points="1031.96,-24.8239 1022.79,-19.5091 1026.64,-29.3795 1031.96,-24.8239"/>
</g>
<!-- Node18 -->
<g id="node18" class="node"><title>Node18</title>
<polygon fill="none" stroke="#bfbfbf" points="1366,-0.5 1366,-19.5 1435,-19.5 1435,-0.5 1366,-0.5"/>
<text text-anchor="middle" x="1400.5" y="-7.5" font-family="Helvetica,sans-Serif" font-size="10.00">TObjArray.h</text>
</g>
<!-- Node17&#45;&gt;Node18 -->
<g id="edge19" class="edge"><title>Node17&#45;&gt;Node18</title>
<path fill="none" stroke="midnightblue" d="M1311.23,-56.3993C1330.33,-46.6837 1355.56,-33.8551 1374.32,-24.3137"/>
<polygon fill="midnightblue" stroke="midnightblue" points="1376.15,-27.3106 1383.48,-19.6578 1372.98,-21.071 1376.15,-27.3106"/>
</g>
<!-- Node19 -->
<g id="node19" class="node"><title>Node19</title>
<polygon fill="none" stroke="#bfbfbf" points="1219.5,-0.5 1219.5,-19.5 1347.5,-19.5 1347.5,-0.5 1219.5,-0.5"/>
<text text-anchor="middle" x="1283.5" y="-7.5" font-family="Helvetica,sans-Serif" font-size="10.00">Mergers/MergeInterface.h</text>
</g>
<!-- Node17&#45;&gt;Node19 -->
<g id="edge20" class="edge"><title>Node17&#45;&gt;Node19</title>
<path fill="none" stroke="midnightblue" d="M1283.5,-56.3993C1283.5,-48.4664 1283.5,-38.458 1283.5,-29.8583"/>
<polygon fill="midnightblue" stroke="midnightblue" points="1287,-29.6577 1283.5,-19.6578 1280,-29.6578 1287,-29.6577"/>
</g>
<!-- Node20&#45;&gt;Node6 -->
<g id="edge22" class="edge"><title>Node20&#45;&gt;Node6</title>
<path fill="none" stroke="midnightblue" d="M841.5,-61.9751C841.5,-53.5803 841.5,-40.4806 841.5,-29.6631"/>
<polygon fill="midnightblue" stroke="midnightblue" points="845,-29.5091 841.5,-19.5091 838,-29.5091 845,-29.5091"/>
</g>
<!-- Node20&#45;&gt;Node7 -->
<g id="edge23" class="edge"><title>Node20&#45;&gt;Node7</title>
<path fill="none" stroke="midnightblue" d="M797.944,-61.9751C742.808,-51.1836 647.948,-32.6173 589.199,-21.1186"/>
<polygon fill="midnightblue" stroke="midnightblue" points="589.509,-17.6131 579.023,-19.1271 588.165,-24.4828 589.509,-17.6131"/>
</g>
<!-- Node22 -->
<g id="node22" class="node"><title>Node22</title>
<polygon fill="none" stroke="#bfbfbf" points="1373.5,-62 1373.5,-81 1503.5,-81 1503.5,-62 1373.5,-62"/>
<text text-anchor="middle" x="1438.5" y="-69" font-family="Helvetica,sans-Serif" font-size="10.00">InfoLogger/InfoLogger.hxx</text>
</g>
<!-- Node21&#45;&gt;Node22 -->
<g id="edge27" class="edge"><title>Node21&#45;&gt;Node22</title>
<path fill="none" stroke="midnightblue" d="M1373.39,-123.475C1385.47,-114.02 1405.17,-98.5961 1419.74,-87.1871"/>
<polygon fill="midnightblue" stroke="midnightblue" points="1421.91,-89.9295 1427.63,-81.0091 1417.6,-84.4177 1421.91,-89.9295"/>
</g>
<!-- Node23 -->
<g id="node23" class="node"><title>Node23</title>
<polygon fill="none" stroke="#bfbfbf" points="1521.5,-62 1521.5,-81 1683.5,-81 1683.5,-62 1521.5,-62"/>
<text text-anchor="middle" x="1602.5" y="-69" font-family="Helvetica,sans-Serif" font-size="10.00">InfoLogger/InfoLoggerMacros.hxx</text>
</g>
<!-- Node21&#45;&gt;Node23 -->
<g id="edge28" class="edge"><title>Node21&#45;&gt;Node23</title>
<path fill="none" stroke="midnightblue" d="M1396.89,-123.475C1439.39,-112.937 1511.8,-94.9863 1558.37,-83.4415"/>
<polygon fill="midnightblue" stroke="midnightblue" points="1559.31,-86.8126 1568.18,-81.0091 1557.63,-80.0183 1559.31,-86.8126"/>
</g>
</g>
</svg>
