<?xml version="1.0" encoding="UTF-8" standalone="no"?>
<!DOCTYPE svg PUBLIC "-//W3C//DTD SVG 1.1//EN"
 "http://www.w3.org/Graphics/SVG/1.1/DTD/svg11.dtd">
<!-- Generated by graphviz version 2.38.0 (20140413.2041)
 -->
<!-- Title: Modules/MUON/MCH/src/PedestalsTask.cxx Pages: 1 -->
<svg width="1944pt" height="464pt"
 viewBox="0.00 0.00 1943.50 464.00" xmlns="http://www.w3.org/2000/svg" xmlns:xlink="http://www.w3.org/1999/xlink">
<g id="graph0" class="graph" transform="scale(1 1) rotate(0) translate(4 460)">
<title>Modules/MUON/MCH/src/PedestalsTask.cxx</title>
<!-- Node1 -->
<g id="node1" class="node"><title>Node1</title>
<polygon fill="#bfbfbf" stroke="black" points="787.5,-425.5 787.5,-455.5 917.5,-455.5 917.5,-425.5 787.5,-425.5"/>
<text text-anchor="start" x="795.5" y="-443.5" font-family="Helvetica,sans-Serif" font-size="10.00">Modules/MUON/MCH/src</text>
<text text-anchor="middle" x="852.5" y="-432.5" font-family="Helvetica,sans-Serif" font-size="10.00">/PedestalsTask.cxx</text>
</g>
<!-- Node2 -->
<g id="node2" class="node"><title>Node2</title>
<polygon fill="none" stroke="#bfbfbf" points="0,-364 0,-383 65,-383 65,-364 0,-364"/>
<text text-anchor="middle" x="32.5" y="-371" font-family="Helvetica,sans-Serif" font-size="10.00">TCanvas.h</text>
</g>
<!-- Node1&#45;&gt;Node2 -->
<g id="edge1" class="edge"><title>Node1&#45;&gt;Node2</title>
<path fill="none" stroke="midnightblue" d="M787.48,-437.516C626.059,-432.232 210.261,-416.326 74.5,-389 70.8039,-388.256 66.9882,-387.268 63.2334,-386.155"/>
<polygon fill="midnightblue" stroke="midnightblue" points="64.1522,-382.774 53.5599,-383.004 61.9839,-389.429 64.1522,-382.774"/>
</g>
<!-- Node3 -->
<g id="node3" class="node"><title>Node3</title>
<polygon fill="none" stroke="#bfbfbf" points="83.5,-364 83.5,-383 127.5,-383 127.5,-364 83.5,-364"/>
<text text-anchor="middle" x="105.5" y="-371" font-family="Helvetica,sans-Serif" font-size="10.00">TH1.h</text>
</g>
<!-- Node1&#45;&gt;Node3 -->
<g id="edge2" class="edge"><title>Node1&#45;&gt;Node3</title>
<path fill="none" stroke="midnightblue" d="M787.476,-437.47C636.02,-432.323 263.358,-417.134 141.5,-389 138.669,-388.346 135.77,-387.501 132.906,-386.548"/>
<polygon fill="midnightblue" stroke="midnightblue" points="134.049,-383.239 123.457,-383.011 131.595,-389.795 134.049,-383.239"/>
</g>
<!-- Node4 -->
<g id="node4" class="node"><title>Node4</title>
<polygon fill="none" stroke="#bfbfbf" points="109.5,-246.5 109.5,-265.5 153.5,-265.5 153.5,-246.5 109.5,-246.5"/>
<text text-anchor="middle" x="131.5" y="-253.5" font-family="Helvetica,sans-Serif" font-size="10.00">TH2.h</text>
</g>
<!-- Node1&#45;&gt;Node4 -->
<g id="edge3" class="edge"><title>Node1&#45;&gt;Node4</title>
<path fill="none" stroke="midnightblue" d="M787.434,-435.114C637.658,-423.944 273.752,-390.346 174.5,-322 157.659,-310.403 145.716,-289.846 138.758,-274.95"/>
<polygon fill="midnightblue" stroke="midnightblue" points="141.94,-273.491 134.738,-265.72 135.522,-276.286 141.94,-273.491"/>
</g>
<!-- Node5 -->
<g id="node5" class="node"><title>Node5</title>
<polygon fill="none" stroke="#bfbfbf" points="829,-364 829,-383 876,-383 876,-364 829,-364"/>
<text text-anchor="middle" x="852.5" y="-371" font-family="Helvetica,sans-Serif" font-size="10.00">TFile.h</text>
</g>
<!-- Node1&#45;&gt;Node5 -->
<g id="edge4" class="edge"><title>Node1&#45;&gt;Node5</title>
<path fill="none" stroke="midnightblue" d="M852.5,-425.396C852.5,-416.064 852.5,-403.714 852.5,-393.517"/>
<polygon fill="midnightblue" stroke="midnightblue" points="856,-393.195 852.5,-383.195 849,-393.195 856,-393.195"/>
</g>
<!-- Node6 -->
<g id="node6" class="node"><title>Node6</title>
<polygon fill="none" stroke="#bfbfbf" points="894,-364 894,-383 1035,-383 1035,-364 894,-364"/>
<text text-anchor="middle" x="964.5" y="-371" font-family="Helvetica,sans-Serif" font-size="10.00">Headers/RAWDataHeader.h</text>
</g>
<!-- Node1&#45;&gt;Node6 -->
<g id="edge5" class="edge"><title>Node1&#45;&gt;Node6</title>
<path fill="none" stroke="midnightblue" d="M876.802,-425.396C895.845,-414.344 922.18,-399.061 941.011,-388.132"/>
<polygon fill="midnightblue" stroke="midnightblue" points="942.95,-391.054 949.842,-383.007 939.436,-384.999 942.95,-391.054"/>
</g>
<!-- Node7 -->
<g id="node7" class="node"><title>Node7</title>
<polygon fill="none" stroke="#bfbfbf" points="1053.5,-364 1053.5,-383 1201.5,-383 1201.5,-364 1053.5,-364"/>
<text text-anchor="middle" x="1127.5" y="-371" font-family="Helvetica,sans-Serif" font-size="10.00">Framework/CallbackService.h</text>
</g>
<!-- Node1&#45;&gt;Node7 -->
<g id="edge6" class="edge"><title>Node1&#45;&gt;Node7</title>
<path fill="none" stroke="midnightblue" d="M911.832,-425.476C962.73,-413.446 1035.02,-396.358 1081.6,-385.349"/>
<polygon fill="midnightblue" stroke="midnightblue" points="1082.49,-388.735 1091.42,-383.029 1080.88,-381.923 1082.49,-388.735"/>
</g>
<!-- Node8 -->
<g id="node8" class="node"><title>Node8</title>
<polygon fill="none" stroke="#bfbfbf" points="1220,-364 1220,-383 1361,-383 1361,-364 1220,-364"/>
<text text-anchor="middle" x="1290.5" y="-371" font-family="Helvetica,sans-Serif" font-size="10.00">Framework/ControlService.h</text>
</g>
<!-- Node1&#45;&gt;Node8 -->
<g id="edge7" class="edge"><title>Node1&#45;&gt;Node8</title>
<path fill="none" stroke="midnightblue" d="M917.615,-431.094C989.448,-421.64 1108.41,-405.447 1210.5,-389 1218.52,-387.707 1226.99,-386.262 1235.28,-384.799"/>
<polygon fill="midnightblue" stroke="midnightblue" points="1236.05,-388.217 1245.28,-383.015 1234.82,-381.326 1236.05,-388.217"/>
</g>
<!-- Node9 -->
<g id="node9" class="node"><title>Node9</title>
<polygon fill="none" stroke="#bfbfbf" points="1379.5,-364 1379.5,-383 1477.5,-383 1477.5,-364 1379.5,-364"/>
<text text-anchor="middle" x="1428.5" y="-371" font-family="Helvetica,sans-Serif" font-size="10.00">Framework/Task.h</text>
</g>
<!-- Node1&#45;&gt;Node9 -->
<g id="edge8" class="edge"><title>Node1&#45;&gt;Node9</title>
<path fill="none" stroke="midnightblue" d="M917.516,-436.252C1016.06,-430.635 1208.9,-416.92 1370.5,-389 1376.27,-388.004 1382.31,-386.743 1388.22,-385.383"/>
<polygon fill="midnightblue" stroke="midnightblue" points="1389.08,-388.776 1397.98,-383.029 1387.44,-381.971 1389.08,-388.776"/>
</g>
<!-- Node10 -->
<g id="node10" class="node"><title>Node10</title>
<polygon fill="none" stroke="#bfbfbf" points="1495.5,-364 1495.5,-383 1631.5,-383 1631.5,-364 1495.5,-364"/>
<text text-anchor="middle" x="1563.5" y="-371" font-family="Helvetica,sans-Serif" font-size="10.00">DPLUtils/DPLRawParser.h</text>
</g>
<!-- Node1&#45;&gt;Node10 -->
<g id="edge9" class="edge"><title>Node1&#45;&gt;Node10</title>
<path fill="none" stroke="midnightblue" d="M917.543,-436.612C1032.66,-430.99 1279.65,-416.634 1486.5,-389 1494.93,-387.874 1503.84,-386.432 1512.48,-384.897"/>
<polygon fill="midnightblue" stroke="midnightblue" points="1513.27,-388.312 1522.47,-383.065 1512,-381.427 1513.27,-388.312"/>
</g>
<!-- Node11 -->
<g id="node11" class="node"><title>Node11</title>
<g id="a_node11"><a xlink:href="QcInfoLogger_8h.html" target="_top" xlink:title="QualityControl/QcInfoLogger.h">
<polygon fill="none" stroke="black" points="1145,-123.5 1145,-142.5 1294,-142.5 1294,-123.5 1145,-123.5"/>
<text text-anchor="middle" x="1219.5" y="-130.5" font-family="Helvetica,sans-Serif" font-size="10.00">QualityControl/QcInfoLogger.h</text>
</a>
</g>
</g>
<!-- Node1&#45;&gt;Node11 -->
<g id="edge10" class="edge"><title>Node1&#45;&gt;Node11</title>
<path fill="none" stroke="midnightblue" d="M841.716,-425.144C834.819,-415.384 826.141,-401.94 820.5,-389 806.543,-356.982 800.5,-347.928 800.5,-313 800.5,-313 800.5,-313 800.5,-255 800.5,-186.142 1012.01,-154.049 1134.48,-141.239"/>
<polygon fill="midnightblue" stroke="midnightblue" points="1135,-144.704 1144.59,-140.203 1134.29,-137.74 1135,-144.704"/>
</g>
<!-- Node14 -->
<g id="node14" class="node"><title>Node14</title>
<g id="a_node14"><a xlink:href="PedestalsTask_8h.html" target="_top" xlink:title="MCH/PedestalsTask.h">
<polygon fill="none" stroke="black" points="483.5,-364 483.5,-383 599.5,-383 599.5,-364 483.5,-364"/>
<text text-anchor="middle" x="541.5" y="-371" font-family="Helvetica,sans-Serif" font-size="10.00">MCH/PedestalsTask.h</text>
</a>
</g>
</g>
<!-- Node1&#45;&gt;Node14 -->
<g id="edge13" class="edge"><title>Node1&#45;&gt;Node14</title>
<path fill="none" stroke="midnightblue" d="M787.304,-425.874C729.24,-413.738 645.469,-396.23 592.265,-385.11"/>
<polygon fill="midnightblue" stroke="midnightblue" points="592.878,-381.663 582.374,-383.043 591.446,-388.515 592.878,-381.663"/>
</g>
<!-- Node34 -->
<g id="node34" class="node"><title>Node34</title>
<polygon fill="none" stroke="#bfbfbf" points="657,-179.5 657,-209.5 772,-209.5 772,-179.5 657,-179.5"/>
<text text-anchor="start" x="665" y="-197.5" font-family="Helvetica,sans-Serif" font-size="10.00">MCHMappingInterface</text>
<text text-anchor="middle" x="714.5" y="-186.5" font-family="Helvetica,sans-Serif" font-size="10.00">/Segmentation.h</text>
</g>
<!-- Node1&#45;&gt;Node34 -->
<g id="edge52" class="edge"><title>Node1&#45;&gt;Node34</title>
<path fill="none" stroke="midnightblue" d="M827.051,-425.436C813.244,-416.618 796.92,-404.072 786.5,-389 748.759,-334.409 769.753,-306.954 743.5,-246 739.447,-236.59 734.058,-226.716 729.026,-218.22"/>
<polygon fill="midnightblue" stroke="midnightblue" points="731.982,-216.344 723.786,-209.63 726.006,-219.989 731.982,-216.344"/>
</g>
<!-- Node37 -->
<g id="node37" class="node"><title>Node37</title>
<polygon fill="none" stroke="#bfbfbf" points="640.5,-246.5 640.5,-265.5 734.5,-265.5 734.5,-246.5 640.5,-246.5"/>
<text text-anchor="middle" x="687.5" y="-253.5" font-family="Helvetica,sans-Serif" font-size="10.00">MCHBase/Digit.h</text>
</g>
<!-- Node1&#45;&gt;Node37 -->
<g id="edge51" class="edge"><title>Node1&#45;&gt;Node37</title>
<path fill="none" stroke="midnightblue" d="M807.316,-425.412C787.293,-417.342 764.665,-405.477 748.5,-389 716.335,-356.213 699.079,-303.36 691.787,-275.521"/>
<polygon fill="midnightblue" stroke="midnightblue" points="695.121,-274.426 689.327,-265.557 688.325,-276.104 695.121,-274.426"/>
</g>
<!-- Node39 -->
<g id="node39" class="node"><title>Node39</title>
<polygon fill="none" stroke="#bfbfbf" points="1650,-358.5 1650,-388.5 1775,-388.5 1775,-358.5 1650,-358.5"/>
<text text-anchor="start" x="1658" y="-376.5" font-family="Helvetica,sans-Serif" font-size="10.00">MCHMappingInterface</text>
<text text-anchor="middle" x="1712.5" y="-365.5" font-family="Helvetica,sans-Serif" font-size="10.00">/CathodeSegmentation.h</text>
</g>
<!-- Node1&#45;&gt;Node39 -->
<g id="edge53" class="edge"><title>Node1&#45;&gt;Node39</title>
<path fill="none" stroke="midnightblue" d="M917.653,-438.29C1051.26,-435.166 1365.98,-424.504 1639.63,-388.982"/>
<polygon fill="midnightblue" stroke="midnightblue" points="1640.3,-392.425 1649.75,-387.654 1639.38,-385.484 1640.3,-392.425"/>
</g>
<!-- Node40 -->
<g id="node40" class="node"><title>Node40</title>
<polygon fill="none" stroke="#bfbfbf" points="1793.5,-364 1793.5,-383 1935.5,-383 1935.5,-364 1793.5,-364"/>
<text text-anchor="middle" x="1864.5" y="-371" font-family="Helvetica,sans-Serif" font-size="10.00">MCHRawElecMap/Mapper.h</text>
</g>
<!-- Node1&#45;&gt;Node40 -->
<g id="edge54" class="edge"><title>Node1&#45;&gt;Node40</title>
<path fill="none" stroke="midnightblue" d="M917.709,-438.77C1069.98,-436.453 1460.61,-426.977 1784.5,-389 1793.77,-387.914 1803.58,-386.422 1813.04,-384.806"/>
<polygon fill="midnightblue" stroke="midnightblue" points="1813.89,-388.21 1823.13,-383.018 1812.67,-381.317 1813.89,-388.21"/>
</g>
<!-- Node12 -->
<g id="node12" class="node"><title>Node12</title>
<polygon fill="none" stroke="#bfbfbf" points="1321.5,-62 1321.5,-81 1451.5,-81 1451.5,-62 1321.5,-62"/>
<text text-anchor="middle" x="1386.5" y="-69" font-family="Helvetica,sans-Serif" font-size="10.00">InfoLogger/InfoLogger.hxx</text>
</g>
<!-- Node11&#45;&gt;Node12 -->
<g id="edge11" class="edge"><title>Node11&#45;&gt;Node12</title>
<path fill="none" stroke="midnightblue" d="M1243.43,-123.475C1272.2,-113.225 1320.66,-95.9593 1353.1,-84.3994"/>
<polygon fill="midnightblue" stroke="midnightblue" points="1354.37,-87.6624 1362.62,-81.0091 1352.02,-81.0684 1354.37,-87.6624"/>
</g>
<!-- Node13 -->
<g id="node13" class="node"><title>Node13</title>
<polygon fill="none" stroke="#bfbfbf" points="1141.5,-62 1141.5,-81 1303.5,-81 1303.5,-62 1141.5,-62"/>
<text text-anchor="middle" x="1222.5" y="-69" font-family="Helvetica,sans-Serif" font-size="10.00">InfoLogger/InfoLoggerMacros.hxx</text>
</g>
<!-- Node11&#45;&gt;Node13 -->
<g id="edge12" class="edge"><title>Node11&#45;&gt;Node13</title>
<path fill="none" stroke="midnightblue" d="M1219.93,-123.475C1220.35,-115.08 1221.01,-101.981 1221.56,-91.1631"/>
<polygon fill="midnightblue" stroke="midnightblue" points="1225.06,-91.1727 1222.07,-81.0091 1218.07,-90.8201 1225.06,-91.1727"/>
</g>
<!-- Node15 -->
<g id="node15" class="node"><title>Node15</title>
<g id="a_node15"><a xlink:href="TaskInterface_8h.html" target="_top" xlink:title="QualityControl/TaskInterface.h">
<polygon fill="none" stroke="black" points="489.5,-185 489.5,-204 639.5,-204 639.5,-185 489.5,-185"/>
<text text-anchor="middle" x="564.5" y="-192" font-family="Helvetica,sans-Serif" font-size="10.00">QualityControl/TaskInterface.h</text>
</a>
</g>
</g>
<!-- Node14&#45;&gt;Node15 -->
<g id="edge14" class="edge"><title>Node14&#45;&gt;Node15</title>
<path fill="none" stroke="midnightblue" d="M512.84,-363.921C457.103,-345.78 343.054,-300.674 384.5,-246 398.308,-227.785 451.409,-214.327 496.386,-205.905"/>
<polygon fill="midnightblue" stroke="midnightblue" points="497.218,-209.311 506.431,-204.08 495.967,-202.424 497.218,-209.311"/>
</g>
<!-- Node33 -->
<g id="node33" class="node"><title>Node33</title>
<g id="a_node33"><a xlink:href="Mapping_8h_source.html" target="_top" xlink:title="MCH/Mapping.h">
<polygon fill="none" stroke="black" points="534.5,-246.5 534.5,-265.5 622.5,-265.5 622.5,-246.5 534.5,-246.5"/>
<text text-anchor="middle" x="578.5" y="-253.5" font-family="Helvetica,sans-Serif" font-size="10.00">MCH/Mapping.h</text>
</a>
</g>
</g>
<!-- Node14&#45;&gt;Node33 -->
<g id="edge39" class="edge"><title>Node14&#45;&gt;Node33</title>
<path fill="none" stroke="midnightblue" d="M544.71,-363.974C548.434,-353.975 554.679,-336.875 559.5,-322 564.54,-306.447 569.711,-288.611 573.384,-275.562"/>
<polygon fill="midnightblue" stroke="midnightblue" points="576.768,-276.454 576.08,-265.881 570.025,-274.575 576.768,-276.454"/>
</g>
<!-- Node35 -->
<g id="node35" class="node"><title>Node35</title>
<g id="a_node35"><a xlink:href="Decoding_8h.html" target="_top" xlink:title="MCH/Decoding.h">
<polygon fill="none" stroke="black" points="458.5,-302.5 458.5,-321.5 550.5,-321.5 550.5,-302.5 458.5,-302.5"/>
<text text-anchor="middle" x="504.5" y="-309.5" font-family="Helvetica,sans-Serif" font-size="10.00">MCH/Decoding.h</text>
</a>
</g>
</g>
<!-- Node14&#45;&gt;Node35 -->
<g id="edge42" class="edge"><title>Node14&#45;&gt;Node35</title>
<path fill="none" stroke="midnightblue" d="M536.199,-363.975C530.759,-355.227 522.141,-341.369 515.264,-330.309"/>
<polygon fill="midnightblue" stroke="midnightblue" points="518.044,-328.153 509.791,-321.509 512.1,-331.849 518.044,-328.153"/>
</g>
<!-- Node14&#45;&gt;Node37 -->
<g id="edge47" class="edge"><title>Node14&#45;&gt;Node37</title>
<path fill="none" stroke="midnightblue" d="M552.474,-363.819C577.206,-344.253 637.548,-296.517 668.502,-272.03"/>
<polygon fill="midnightblue" stroke="midnightblue" points="670.728,-274.731 676.399,-265.782 666.385,-269.241 670.728,-274.731"/>
</g>
<!-- Node38 -->
<g id="node38" class="node"><title>Node38</title>
<g id="a_node38"><a xlink:href="GlobalHistogram_8h_source.html" target="_top" xlink:title="MCH/GlobalHistogram.h">
<polygon fill="none" stroke="black" points="183.5,-302.5 183.5,-321.5 307.5,-321.5 307.5,-302.5 183.5,-302.5"/>
<text text-anchor="middle" x="245.5" y="-309.5" font-family="Helvetica,sans-Serif" font-size="10.00">MCH/GlobalHistogram.h</text>
</a>
</g>
</g>
<!-- Node14&#45;&gt;Node38 -->
<g id="edge48" class="edge"><title>Node14&#45;&gt;Node38</title>
<path fill="none" stroke="midnightblue" d="M499.09,-363.975C446.008,-353.305 355.112,-335.034 297.779,-323.509"/>
<polygon fill="midnightblue" stroke="midnightblue" points="298.325,-320.049 287.831,-321.509 296.945,-326.911 298.325,-320.049"/>
</g>
<!-- Node15&#45;&gt;Node11 -->
<g id="edge38" class="edge"><title>Node15&#45;&gt;Node11</title>
<path fill="none" stroke="midnightblue" d="M609.283,-184.951C621.928,-182.76 635.722,-180.579 648.5,-179 860.377,-152.812 914.805,-161.394 1127.5,-143 1129.86,-142.796 1132.26,-142.585 1134.67,-142.37"/>
<polygon fill="midnightblue" stroke="midnightblue" points="1135.06,-145.849 1144.7,-141.459 1134.42,-138.878 1135.06,-145.849"/>
</g>
<!-- Node16 -->
<g id="node16" class="node"><title>Node16</title>
<polygon fill="none" stroke="#bfbfbf" points="174,-0.5 174,-19.5 209,-19.5 209,-0.5 174,-0.5"/>
<text text-anchor="middle" x="191.5" y="-7.5" font-family="Helvetica,sans-Serif" font-size="10.00">map</text>
</g>
<!-- Node15&#45;&gt;Node16 -->
<g id="edge15" class="edge"><title>Node15&#45;&gt;Node16</title>
<path fill="none" stroke="midnightblue" d="M489.35,-186.272C417.634,-178.283 315.616,-163.742 281.5,-143 237.385,-116.178 209.841,-58.5741 198.093,-29.1324"/>
<polygon fill="midnightblue" stroke="midnightblue" points="201.316,-27.7616 194.478,-19.6688 194.777,-30.2595 201.316,-27.7616"/>
</g>
<!-- Node17 -->
<g id="node17" class="node"><title>Node17</title>
<polygon fill="none" stroke="#bfbfbf" points="247.5,-62 247.5,-81 299.5,-81 299.5,-62 247.5,-62"/>
<text text-anchor="middle" x="273.5" y="-69" font-family="Helvetica,sans-Serif" font-size="10.00">memory</text>
</g>
<!-- Node15&#45;&gt;Node17 -->
<g id="edge16" class="edge"><title>Node15&#45;&gt;Node17</title>
<path fill="none" stroke="midnightblue" d="M489.493,-187.413C421.461,-180.462 327.64,-166.842 299.5,-143 284.296,-130.119 277.979,-107.51 275.357,-91.3675"/>
<polygon fill="midnightblue" stroke="midnightblue" points="278.825,-90.8914 274.068,-81.4244 271.883,-91.7914 278.825,-90.8914"/>
</g>
<!-- Node18 -->
<g id="node18" class="node"><title>Node18</title>
<polygon fill="none" stroke="#bfbfbf" points="746,-0.5 746,-19.5 787,-19.5 787,-0.5 746,-0.5"/>
<text text-anchor="middle" x="766.5" y="-7.5" font-family="Helvetica,sans-Serif" font-size="10.00">string</text>
</g>
<!-- Node15&#45;&gt;Node18 -->
<g id="edge17" class="edge"><title>Node15&#45;&gt;Node18</title>
<path fill="none" stroke="midnightblue" d="M551.692,-184.893C532.534,-171.004 500.493,-143.168 518.5,-123 612.938,-17.2305 741.062,-192.77 835.5,-87 844.676,-76.7227 842.062,-68.1145 835.5,-56 827.174,-40.6299 811.07,-29.6786 796.512,-22.4303"/>
<polygon fill="midnightblue" stroke="midnightblue" points="797.815,-19.1776 787.267,-18.1927 794.899,-25.5411 797.815,-19.1776"/>
</g>
<!-- Node19 -->
<g id="node19" class="node"><title>Node19</title>
<polygon fill="none" stroke="#bfbfbf" points="943,-0.5 943,-19.5 1026,-19.5 1026,-0.5 943,-0.5"/>
<text text-anchor="middle" x="984.5" y="-7.5" font-family="Helvetica,sans-Serif" font-size="10.00">unordered_map</text>
</g>
<!-- Node15&#45;&gt;Node19 -->
<g id="edge18" class="edge"><title>Node15&#45;&gt;Node19</title>
<path fill="none" stroke="midnightblue" d="M609.289,-184.997C621.934,-182.806 635.727,-180.615 648.5,-179 697.824,-172.765 1060.79,-179.542 1094.5,-143 1132.94,-101.329 1053.68,-48.7782 1010.29,-24.4693"/>
<polygon fill="midnightblue" stroke="midnightblue" points="1011.83,-21.323 1001.38,-19.5899 1008.47,-27.4628 1011.83,-21.323"/>
</g>
<!-- Node20 -->
<g id="node20" class="node"><title>Node20</title>
<polygon fill="none" stroke="#bfbfbf" points="527,-123.5 527,-142.5 652,-142.5 652,-123.5 527,-123.5"/>
<text text-anchor="middle" x="589.5" y="-130.5" font-family="Helvetica,sans-Serif" font-size="10.00">Framework/InitContext.h</text>
</g>
<!-- Node15&#45;&gt;Node20 -->
<g id="edge19" class="edge"><title>Node15&#45;&gt;Node20</title>
<path fill="none" stroke="midnightblue" d="M568.082,-184.975C571.683,-176.404 577.346,-162.927 581.944,-151.983"/>
<polygon fill="midnightblue" stroke="midnightblue" points="585.278,-153.084 585.925,-142.509 578.824,-150.373 585.278,-153.084"/>
</g>
<!-- Node21 -->
<g id="node21" class="node"><title>Node21</title>
<polygon fill="none" stroke="#bfbfbf" points="670.5,-123.5 670.5,-142.5 830.5,-142.5 830.5,-123.5 670.5,-123.5"/>
<text text-anchor="middle" x="750.5" y="-130.5" font-family="Helvetica,sans-Serif" font-size="10.00">Framework/ProcessingContext.h</text>
</g>
<!-- Node15&#45;&gt;Node21 -->
<g id="edge20" class="edge"><title>Node15&#45;&gt;Node21</title>
<path fill="none" stroke="midnightblue" d="M591.149,-184.975C623.469,-174.636 678.097,-157.161 714.233,-145.602"/>
<polygon fill="midnightblue" stroke="midnightblue" points="715.442,-148.89 723.9,-142.509 713.309,-142.222 715.442,-148.89"/>
</g>
<!-- Node22 -->
<g id="node22" class="node"><title>Node22</title>
<polygon fill="none" stroke="#bfbfbf" points="849,-123.5 849,-142.5 944,-142.5 944,-123.5 849,-123.5"/>
<text text-anchor="middle" x="896.5" y="-130.5" font-family="Helvetica,sans-Serif" font-size="10.00">CCDB/CcdbApi.h</text>
</g>
<!-- Node15&#45;&gt;Node22 -->
<g id="edge21" class="edge"><title>Node15&#45;&gt;Node22</title>
<path fill="none" stroke="midnightblue" d="M612.068,-184.975C671.976,-174.239 774.825,-155.806 839.056,-144.295"/>
<polygon fill="midnightblue" stroke="midnightblue" points="839.795,-147.718 849.021,-142.509 838.56,-140.828 839.795,-147.718"/>
</g>
<!-- Node23 -->
<g id="node23" class="node"><title>Node23</title>
<g id="a_node23"><a xlink:href="Activity_8h.html" target="_top" xlink:title="QualityControl/Activity.h">
<polygon fill="none" stroke="black" points="962,-123.5 962,-142.5 1085,-142.5 1085,-123.5 962,-123.5"/>
<text text-anchor="middle" x="1023.5" y="-130.5" font-family="Helvetica,sans-Serif" font-size="10.00">QualityControl/Activity.h</text>
</a>
</g>
</g>
<!-- Node15&#45;&gt;Node23 -->
<g id="edge22" class="edge"><title>Node15&#45;&gt;Node23</title>
<path fill="none" stroke="midnightblue" d="M611.522,-184.927C623.557,-182.858 636.491,-180.744 648.5,-179 780.282,-159.863 816.287,-159.7 951.34,-143.251"/>
<polygon fill="midnightblue" stroke="midnightblue" points="952.168,-146.676 961.668,-141.985 951.316,-139.728 952.168,-146.676"/>
</g>
<!-- Node24 -->
<g id="node24" class="node"><title>Node24</title>
<g id="a_node24"><a xlink:href="ObjectsManager_8h.html" target="_top" xlink:title="QualityControl/ObjectsManager.h">
<polygon fill="none" stroke="black" points="309,-123.5 309,-142.5 470,-142.5 470,-123.5 309,-123.5"/>
<text text-anchor="middle" x="389.5" y="-130.5" font-family="Helvetica,sans-Serif" font-size="10.00">QualityControl/ObjectsManager.h</text>
</a>
</g>
</g>
<!-- Node15&#45;&gt;Node24 -->
<g id="edge23" class="edge"><title>Node15&#45;&gt;Node24</title>
<path fill="none" stroke="midnightblue" d="M539.427,-184.975C509.148,-174.68 458.06,-157.31 424.059,-145.75"/>
<polygon fill="midnightblue" stroke="midnightblue" points="425.121,-142.414 414.527,-142.509 422.868,-149.042 425.121,-142.414"/>
</g>
<!-- Node24&#45;&gt;Node17 -->
<g id="edge37" class="edge"><title>Node24&#45;&gt;Node17</title>
<path fill="none" stroke="midnightblue" d="M372.88,-123.475C353.585,-113.578 321.541,-97.1416 299.069,-85.6151"/>
<polygon fill="midnightblue" stroke="midnightblue" points="300.584,-82.4589 290.089,-81.0091 297.39,-88.6873 300.584,-82.4589"/>
</g>
<!-- Node24&#45;&gt;Node18 -->
<g id="edge36" class="edge"><title>Node24&#45;&gt;Node18</title>
<path fill="none" stroke="midnightblue" d="M458.935,-123.467C521.424,-115.073 608.1,-101.446 639.5,-87 659.301,-77.8903 659.223,-67.8756 677.5,-56 696.487,-43.6625 719.302,-32.1864 737.079,-23.9114"/>
<polygon fill="midnightblue" stroke="midnightblue" points="738.741,-27 746.38,-19.6584 735.83,-20.6339 738.741,-27"/>
</g>
<!-- Node25 -->
<g id="node25" class="node"><title>Node25</title>
<g id="a_node25"><a xlink:href="MonitorObject_8h.html" target="_top" xlink:title="QualityControl/MonitorObject.h">
<polygon fill="none" stroke="black" points="479,-62 479,-81 630,-81 630,-62 479,-62"/>
<text text-anchor="middle" x="554.5" y="-69" font-family="Helvetica,sans-Serif" font-size="10.00">QualityControl/MonitorObject.h</text>
</a>
</g>
</g>
<!-- Node24&#45;&gt;Node25 -->
<g id="edge24" class="edge"><title>Node24&#45;&gt;Node25</title>
<path fill="none" stroke="midnightblue" d="M413.14,-123.475C441.444,-113.269 489.033,-96.108 521.086,-84.5492"/>
<polygon fill="midnightblue" stroke="midnightblue" points="522.684,-87.6939 530.903,-81.0091 520.309,-81.1089 522.684,-87.6939"/>
</g>
<!-- Node29 -->
<g id="node29" class="node"><title>Node29</title>
<g id="a_node29"><a xlink:href="MonitorObjectCollection_8h.html" target="_top" xlink:title="QualityControl/MonitorObject\lCollection.h">
<polygon fill="none" stroke="black" points="318,-56.5 318,-86.5 461,-86.5 461,-56.5 318,-56.5"/>
<text text-anchor="start" x="326" y="-74.5" font-family="Helvetica,sans-Serif" font-size="10.00">QualityControl/MonitorObject</text>
<text text-anchor="middle" x="389.5" y="-63.5" font-family="Helvetica,sans-Serif" font-size="10.00">Collection.h</text>
</a>
</g>
</g>
<!-- Node24&#45;&gt;Node29 -->
<g id="edge30" class="edge"><title>Node24&#45;&gt;Node29</title>
<path fill="none" stroke="midnightblue" d="M389.5,-123.475C389.5,-116.471 389.5,-106.192 389.5,-96.6956"/>
<polygon fill="midnightblue" stroke="midnightblue" points="393,-96.5229 389.5,-86.523 386,-96.523 393,-96.5229"/>
</g>
<!-- Node32 -->
<g id="node32" class="node"><title>Node32</title>
<g id="a_node32"><a xlink:href="TaskConfig_8h.html" target="_top" xlink:title="QualityControl/TaskConfig.h">
<polygon fill="none" stroke="black" points="686.5,-62 686.5,-81 826.5,-81 826.5,-62 686.5,-62"/>
<text text-anchor="middle" x="756.5" y="-69" font-family="Helvetica,sans-Serif" font-size="10.00">QualityControl/TaskConfig.h</text>
</a>
</g>
</g>
<!-- Node24&#45;&gt;Node32 -->
<g id="edge33" class="edge"><title>Node24&#45;&gt;Node32</title>
<path fill="none" stroke="midnightblue" d="M444.581,-123.463C501.637,-114.567 593.36,-100.122 672.5,-87 680.685,-85.6429 689.313,-84.1848 697.799,-82.735"/>
<polygon fill="midnightblue" stroke="midnightblue" points="698.395,-86.184 707.659,-81.0434 697.211,-79.2848 698.395,-86.184"/>
</g>
<!-- Node25&#45;&gt;Node16 -->
<g id="edge26" class="edge"><title>Node25&#45;&gt;Node16</title>
<path fill="none" stroke="midnightblue" d="M506.566,-61.9736C494.784,-59.9475 482.195,-57.8411 470.5,-56 361.482,-38.8383 329.682,-46.2462 219.139,-20.0337"/>
<polygon fill="midnightblue" stroke="midnightblue" points="219.81,-16.5954 209.268,-17.6546 218.17,-23.4005 219.81,-16.5954"/>
</g>
<!-- Node25&#45;&gt;Node18 -->
<g id="edge25" class="edge"><title>Node25&#45;&gt;Node18</title>
<path fill="none" stroke="midnightblue" d="M586.653,-61.9576C621.337,-52.6702 678.415,-37.1775 736.264,-20.3025"/>
<polygon fill="midnightblue" stroke="midnightblue" points="737.316,-23.6416 745.929,-17.4722 735.349,-16.9237 737.316,-23.6416"/>
</g>
<!-- Node26 -->
<g id="node26" class="node"><title>Node26</title>
<polygon fill="none" stroke="#bfbfbf" points="594.5,-0.5 594.5,-19.5 650.5,-19.5 650.5,-0.5 594.5,-0.5"/>
<text text-anchor="middle" x="622.5" y="-7.5" font-family="Helvetica,sans-Serif" font-size="10.00">Rtypes.h</text>
</g>
<!-- Node25&#45;&gt;Node26 -->
<g id="edge27" class="edge"><title>Node25&#45;&gt;Node26</title>
<path fill="none" stroke="midnightblue" d="M564.243,-61.9751C574.847,-52.6966 592.019,-37.6706 604.979,-26.331"/>
<polygon fill="midnightblue" stroke="midnightblue" points="607.554,-28.7282 612.775,-19.5091 602.945,-23.4601 607.554,-28.7282"/>
</g>
<!-- Node27 -->
<g id="node27" class="node"><title>Node27</title>
<polygon fill="none" stroke="#bfbfbf" points="669,-0.5 669,-19.5 728,-19.5 728,-0.5 669,-0.5"/>
<text text-anchor="middle" x="698.5" y="-7.5" font-family="Helvetica,sans-Serif" font-size="10.00">TObject.h</text>
</g>
<!-- Node25&#45;&gt;Node27 -->
<g id="edge28" class="edge"><title>Node25&#45;&gt;Node27</title>
<path fill="none" stroke="midnightblue" d="M575.132,-61.9751C599.619,-51.8571 640.647,-34.9046 668.609,-23.3507"/>
<polygon fill="midnightblue" stroke="midnightblue" points="670.001,-26.5627 677.907,-19.5091 667.328,-20.0932 670.001,-26.5627"/>
</g>
<!-- Node28 -->
<g id="node28" class="node"><title>Node28</title>
<polygon fill="none" stroke="#bfbfbf" points="460.5,-0.5 460.5,-19.5 576.5,-19.5 576.5,-0.5 460.5,-0.5"/>
<text text-anchor="middle" x="518.5" y="-7.5" font-family="Helvetica,sans-Serif" font-size="10.00">Common/Exceptions.h</text>
</g>
<!-- Node25&#45;&gt;Node28 -->
<g id="edge29" class="edge"><title>Node25&#45;&gt;Node28</title>
<path fill="none" stroke="midnightblue" d="M549.342,-61.9751C544.049,-53.2268 535.665,-39.3691 528.973,-28.3093"/>
<polygon fill="midnightblue" stroke="midnightblue" points="531.82,-26.2531 523.648,-19.5091 525.83,-29.8768 531.82,-26.2531"/>
</g>
<!-- Node30 -->
<g id="node30" class="node"><title>Node30</title>
<polygon fill="none" stroke="#bfbfbf" points="227,-0.5 227,-19.5 296,-19.5 296,-0.5 227,-0.5"/>
<text text-anchor="middle" x="261.5" y="-7.5" font-family="Helvetica,sans-Serif" font-size="10.00">TObjArray.h</text>
</g>
<!-- Node29&#45;&gt;Node30 -->
<g id="edge31" class="edge"><title>Node29&#45;&gt;Node30</title>
<path fill="none" stroke="midnightblue" d="M359.166,-56.3993C337.977,-46.55 309.906,-33.5014 289.298,-23.9217"/>
<polygon fill="midnightblue" stroke="midnightblue" points="290.669,-20.6993 280.125,-19.6578 287.718,-27.047 290.669,-20.6993"/>
</g>
<!-- Node31 -->
<g id="node31" class="node"><title>Node31</title>
<polygon fill="none" stroke="#bfbfbf" points="314.5,-0.5 314.5,-19.5 442.5,-19.5 442.5,-0.5 314.5,-0.5"/>
<text text-anchor="middle" x="378.5" y="-7.5" font-family="Helvetica,sans-Serif" font-size="10.00">Mergers/MergeInterface.h</text>
</g>
<!-- Node29&#45;&gt;Node31 -->
<g id="edge32" class="edge"><title>Node29&#45;&gt;Node31</title>
<path fill="none" stroke="midnightblue" d="M386.893,-56.3993C385.41,-48.3772 383.535,-38.2328 381.933,-29.569"/>
<polygon fill="midnightblue" stroke="midnightblue" points="385.36,-28.8548 380.101,-19.6578 378.477,-30.1275 385.36,-28.8548"/>
</g>
<!-- Node32&#45;&gt;Node18 -->
<g id="edge34" class="edge"><title>Node32&#45;&gt;Node18</title>
<path fill="none" stroke="midnightblue" d="M757.933,-61.9751C759.344,-53.5803 761.545,-40.4806 763.363,-29.6631"/>
<polygon fill="midnightblue" stroke="midnightblue" points="766.864,-29.9509 765.07,-19.5091 759.961,-28.7906 766.864,-29.9509"/>
</g>
<!-- Node32&#45;&gt;Node19 -->
<g id="edge35" class="edge"><title>Node32&#45;&gt;Node19</title>
<path fill="none" stroke="midnightblue" d="M789.167,-61.9751C829.377,-51.4815 897.758,-33.6367 942.015,-22.087"/>
<polygon fill="midnightblue" stroke="midnightblue" points="943.102,-25.4208 951.894,-19.5091 941.334,-18.6477 943.102,-25.4208"/>
</g>
<!-- Node33&#45;&gt;Node15 -->
<g id="edge41" class="edge"><title>Node33&#45;&gt;Node15</title>
<path fill="none" stroke="midnightblue" d="M576.494,-246.475C574.498,-237.992 571.372,-224.704 568.811,-213.822"/>
<polygon fill="midnightblue" stroke="midnightblue" points="572.2,-212.942 566.502,-204.009 565.386,-214.545 572.2,-212.942"/>
</g>
<!-- Node33&#45;&gt;Node34 -->
<g id="edge40" class="edge"><title>Node33&#45;&gt;Node34</title>
<path fill="none" stroke="midnightblue" d="M597.985,-246.475C617.524,-237.927 648.212,-224.501 673.189,-213.573"/>
<polygon fill="midnightblue" stroke="midnightblue" points="674.689,-216.738 682.447,-209.523 671.883,-210.325 674.689,-216.738"/>
</g>
<!-- Node35&#45;&gt;Node15 -->
<g id="edge43" class="edge"><title>Node35&#45;&gt;Node15</title>
<path fill="none" stroke="midnightblue" d="M459.984,-302.417C420.513,-292.742 372.176,-274.531 393.5,-246 406.738,-228.287 458.46,-214.616 501.589,-205.992"/>
<polygon fill="midnightblue" stroke="midnightblue" points="502.339,-209.412 511.488,-204.07 501.004,-202.541 502.339,-209.412"/>
</g>
<!-- Node35&#45;&gt;Node33 -->
<g id="edge45" class="edge"><title>Node35&#45;&gt;Node33</title>
<path fill="none" stroke="midnightblue" d="M516.389,-302.324C527.65,-294.107 544.787,-281.602 558.209,-271.807"/>
<polygon fill="midnightblue" stroke="midnightblue" points="560.38,-274.556 566.394,-265.834 556.253,-268.901 560.38,-274.556"/>
</g>
<!-- Node36 -->
<g id="node36" class="node"><title>Node36</title>
<g id="a_node36"><a xlink:href="sampa__header_8h_source.html" target="_top" xlink:title="MCH/sampa_header.h">
<polygon fill="none" stroke="black" points="402,-246.5 402,-265.5 517,-265.5 517,-246.5 402,-246.5"/>
<text text-anchor="middle" x="459.5" y="-253.5" font-family="Helvetica,sans-Serif" font-size="10.00">MCH/sampa_header.h</text>
</a>
</g>
</g>
<!-- Node35&#45;&gt;Node36 -->
<g id="edge44" class="edge"><title>Node35&#45;&gt;Node36</title>
<path fill="none" stroke="midnightblue" d="M497.069,-302.083C490.647,-294.377 481.194,-283.033 473.378,-273.653"/>
<polygon fill="midnightblue" stroke="midnightblue" points="475.883,-271.193 466.793,-265.751 470.506,-275.674 475.883,-271.193"/>
</g>
<!-- Node35&#45;&gt;Node37 -->
<g id="edge46" class="edge"><title>Node35&#45;&gt;Node37</title>
<path fill="none" stroke="midnightblue" d="M533.497,-302.444C564.685,-293.241 614.43,-278.562 648.908,-268.388"/>
<polygon fill="midnightblue" stroke="midnightblue" points="650.038,-271.704 658.639,-265.516 648.057,-264.99 650.038,-271.704"/>
</g>
<!-- Node38&#45;&gt;Node4 -->
<g id="edge50" class="edge"><title>Node38&#45;&gt;Node4</title>
<path fill="none" stroke="midnightblue" d="M227.436,-302.444C208.925,-293.675 179.919,-279.935 158.645,-269.858"/>
<polygon fill="midnightblue" stroke="midnightblue" points="160.015,-266.634 149.479,-265.516 157.018,-272.96 160.015,-266.634"/>
</g>
<!-- Node38&#45;&gt;Node16 -->
<g id="edge49" class="edge"><title>Node38&#45;&gt;Node16</title>
<path fill="none" stroke="midnightblue" d="M236.601,-302.345C219.016,-284.266 181.5,-240.432 181.5,-195.5 181.5,-195.5 181.5,-195.5 181.5,-132 181.5,-95.7712 186.008,-53.6475 188.97,-29.8749"/>
<polygon fill="midnightblue" stroke="midnightblue" points="192.463,-30.1512 190.274,-19.7851 185.521,-29.2541 192.463,-30.1512"/>
</g>
</g>
</svg>
