<?xml version="1.0" encoding="UTF-8" standalone="no"?>
<!DOCTYPE svg PUBLIC "-//W3C//DTD SVG 1.1//EN"
 "http://www.w3.org/Graphics/SVG/1.1/DTD/svg11.dtd">
<!-- Generated by graphviz version 2.38.0 (20140413.2041)
 -->
<!-- Title: Modules/MUON/MCH/src/PhysicsTaskPreclusters.cxx Pages: 1 -->
<!--zoomable 341 -->
<svg id="main" version="1.1" xmlns="http://www.w3.org/2000/svg" xmlns:xlink="http://www.w3.org/1999/xlink" xml:space="preserve" onload="init(evt)">
<style type="text/css"><![CDATA[
.edge:hover path { stroke: red; }
.edge:hover polygon { stroke: red; fill: red; }
]]></style>
<script type="text/javascript"><![CDATA[
var edges = document.getElementsByTagName('g');
if (edges && edges.length) {
  for (var i=0;i<edges.length;i++) {
    if (edges[i].id.substr(0,4)=='edge') {
      edges[i].setAttribute('class','edge');
    }
  }
}
]]></script>
        <defs>
                <circle id="rim" cx="0" cy="0" r="7"/>
                <circle id="rim2" cx="0" cy="0" r="3.5"/>
                <g id="zoomPlus">
                        <use xlink:href="#rim" fill="#404040">
                                <set attributeName="fill" to="#808080" begin="zoomplus.mouseover" end="zoomplus.mouseout"/>
                        </use>
                        <path d="M-4,0h8M0,-4v8" fill="none" stroke="white" stroke-width="1.5" pointer-events="none"/>
                </g>
                <g id="zoomMin">
                        <use xlink:href="#rim" fill="#404040">
                                <set attributeName="fill" to="#808080" begin="zoomminus.mouseover" end="zoomminus.mouseout"/>
                        </use>
                        <path d="M-4,0h8" fill="none" stroke="white" stroke-width="1.5" pointer-events="none"/>
                </g>
                <g id="dirArrow">
                        <path fill="none" stroke="white" stroke-width="1.5" d="M0,-3.0v7 M-2.5,-0.5L0,-3.0L2.5,-0.5"/>
                </g>
               <g id="resetDef">
                       <use xlink:href="#rim2" fill="#404040">
                               <set attributeName="fill" to="#808080" begin="reset.mouseover" end="reset.mouseout"/>
                       </use>
               </g>
        </defs>

<script type="text/javascript">
var viewWidth = 2196;
var viewHeight = 341;
var sectionId = 'dynsection-0';
</script>
<script xlink:href="svgpan.js"/>
<svg id="graph" class="graph">
<g id="viewport">
<title>Modules/MUON/MCH/src/PhysicsTaskPreclusters.cxx</title>
<!-- Node1 -->
<g id="node1" class="node"><title>Node1</title>
<polygon fill="#bfbfbf" stroke="black" points="1347.5,-302.5 1347.5,-332.5 1492.5,-332.5 1492.5,-302.5 1347.5,-302.5"/>
<text text-anchor="start" x="1355.5" y="-320.5" font-family="Helvetica,sans-Serif" font-size="10.00">Modules/MUON/MCH/src</text>
<text text-anchor="middle" x="1420" y="-309.5" font-family="Helvetica,sans-Serif" font-size="10.00">/PhysicsTaskPreclusters.cxx</text>
</g>
<!-- Node2 -->
<g id="node2" class="node"><title>Node2</title>
<polygon fill="none" stroke="#bfbfbf" points="803.5,-241 803.5,-260 868.5,-260 868.5,-241 803.5,-241"/>
<text text-anchor="middle" x="836" y="-248" font-family="Helvetica,sans-Serif" font-size="10.00">TCanvas.h</text>
</g>
<!-- Node1&#45;&gt;Node2 -->
<g id="edge1" class="edge"><title>Node1&#45;&gt;Node2</title>
<path fill="none" stroke="midnightblue" d="M1347.27,-315.233C1242.46,-312.168 1043.35,-301.705 878,-266 874.501,-265.244 870.89,-264.286 867.323,-263.224"/>
<polygon fill="midnightblue" stroke="midnightblue" points="868.109,-259.799 857.517,-260.035 865.944,-266.456 868.109,-259.799"/>
</g>
<!-- Node3 -->
<g id="node3" class="node"><title>Node3</title>
<polygon fill="none" stroke="#bfbfbf" points="887,-241 887,-260 931,-260 931,-241 887,-241"/>
<text text-anchor="middle" x="909" y="-248" font-family="Helvetica,sans-Serif" font-size="10.00">TH1.h</text>
</g>
<!-- Node1&#45;&gt;Node3 -->
<g id="edge2" class="edge"><title>Node1&#45;&gt;Node3</title>
<path fill="none" stroke="midnightblue" d="M1347.45,-316.304C1252.23,-314.375 1080.67,-305.109 940,-266 938.068,-265.463 936.107,-264.815 934.157,-264.096"/>
<polygon fill="midnightblue" stroke="midnightblue" points="935.273,-260.767 924.701,-260.077 932.535,-267.21 935.273,-260.767"/>
</g>
<!-- Node4 -->
<g id="node4" class="node"><title>Node4</title>
<polygon fill="none" stroke="#bfbfbf" points="949,-241 949,-260 991,-260 991,-241 949,-241"/>
<text text-anchor="middle" x="970" y="-248" font-family="Helvetica,sans-Serif" font-size="10.00">TF1.h</text>
</g>
<!-- Node1&#45;&gt;Node4 -->
<g id="edge3" class="edge"><title>Node1&#45;&gt;Node4</title>
<path fill="none" stroke="midnightblue" d="M1347.28,-313.622C1263.54,-308.942 1122.41,-296.846 1005,-266 1002.55,-265.357 1000.05,-264.579 997.56,-263.721"/>
<polygon fill="midnightblue" stroke="midnightblue" points="998.794,-260.446 988.204,-260.138 996.29,-266.983 998.794,-260.446"/>
</g>
<!-- Node5 -->
<g id="node5" class="node"><title>Node5</title>
<polygon fill="none" stroke="#bfbfbf" points="1595,-123.5 1595,-142.5 1639,-142.5 1639,-123.5 1595,-123.5"/>
<text text-anchor="middle" x="1617" y="-130.5" font-family="Helvetica,sans-Serif" font-size="10.00">TH2.h</text>
</g>
<!-- Node1&#45;&gt;Node5 -->
<g id="edge4" class="edge"><title>Node1&#45;&gt;Node5</title>
<path fill="none" stroke="midnightblue" d="M1413.64,-302.364C1406.71,-284.578 1398.54,-254.06 1414,-235 1462.94,-174.69 1523.66,-246.643 1585,-199 1599.72,-187.564 1608.12,-167.581 1612.59,-152.782"/>
<polygon fill="midnightblue" stroke="midnightblue" points="1616.08,-153.267 1615.28,-142.703 1609.32,-151.464 1616.08,-153.267"/>
</g>
<!-- Node6 -->
<g id="node6" class="node"><title>Node6</title>
<polygon fill="none" stroke="#bfbfbf" points="1422.5,-241 1422.5,-260 1469.5,-260 1469.5,-241 1422.5,-241"/>
<text text-anchor="middle" x="1446" y="-248" font-family="Helvetica,sans-Serif" font-size="10.00">TFile.h</text>
</g>
<!-- Node1&#45;&gt;Node6 -->
<g id="edge5" class="edge"><title>Node1&#45;&gt;Node6</title>
<path fill="none" stroke="midnightblue" d="M1425.64,-302.396C1429.49,-292.763 1434.63,-279.914 1438.79,-269.537"/>
<polygon fill="midnightblue" stroke="midnightblue" points="1442.06,-270.779 1442.52,-260.195 1435.56,-268.179 1442.06,-270.779"/>
</g>
<!-- Node7 -->
<g id="node7" class="node"><title>Node7</title>
<polygon fill="none" stroke="#bfbfbf" points="1488,-241 1488,-260 1544,-260 1544,-241 1488,-241"/>
<text text-anchor="middle" x="1516" y="-248" font-family="Helvetica,sans-Serif" font-size="10.00">algorithm</text>
</g>
<!-- Node1&#45;&gt;Node7 -->
<g id="edge6" class="edge"><title>Node1&#45;&gt;Node7</title>
<path fill="none" stroke="midnightblue" d="M1440.83,-302.396C1456.78,-291.597 1478.7,-276.756 1494.75,-265.887"/>
<polygon fill="midnightblue" stroke="midnightblue" points="1497.12,-268.512 1503.44,-260.007 1493.19,-262.715 1497.12,-268.512"/>
</g>
<!-- Node8 -->
<g id="node8" class="node"><title>Node8</title>
<g id="a_node8"><a xlink:href="PhysicsTaskPreclusters_8h.html" target="_top" xlink:title="MCH/PhysicsTaskPreclusters.h">
<polygon fill="none" stroke="black" points="1208,-241 1208,-260 1366,-260 1366,-241 1208,-241"/>
<text text-anchor="middle" x="1287" y="-248" font-family="Helvetica,sans-Serif" font-size="10.00">MCH/PhysicsTaskPreclusters.h</text>
</a>
</g>
</g>
<!-- Node1&#45;&gt;Node8 -->
<g id="edge7" class="edge"><title>Node1&#45;&gt;Node8</title>
<path fill="none" stroke="midnightblue" d="M1391.14,-302.396C1368.11,-291.142 1336.11,-275.501 1313.68,-264.538"/>
<polygon fill="midnightblue" stroke="midnightblue" points="1314.93,-261.253 1304.41,-260.007 1311.85,-267.543 1314.93,-261.253"/>
</g>
<!-- Node28 -->
<g id="node28" class="node"><title>Node28</title>
<g id="a_node28"><a xlink:href="QcInfoLogger_8h.html" target="_top" xlink:title="QualityControl/QcInfoLogger.h">
<polygon fill="none" stroke="black" points="238.5,-123.5 238.5,-142.5 387.5,-142.5 387.5,-123.5 238.5,-123.5"/>
<text text-anchor="middle" x="313" y="-130.5" font-family="Helvetica,sans-Serif" font-size="10.00">QualityControl/QcInfoLogger.h</text>
</a>
</g>
</g>
<!-- Node1&#45;&gt;Node28 -->
<g id="edge46" class="edge"><title>Node1&#45;&gt;Node28</title>
<path fill="none" stroke="midnightblue" d="M1352.89,-302.495C1270.12,-285.45 1125.02,-256.309 1000,-235 778.134,-197.185 514.496,-160.809 388.01,-143.885"/>
<polygon fill="midnightblue" stroke="midnightblue" points="388.414,-140.408 378.039,-142.553 387.487,-147.346 388.414,-140.408"/>
</g>
<!-- Node34 -->
<g id="node34" class="node"><title>Node34</title>
<polygon fill="none" stroke="#bfbfbf" points="1561.5,-235.5 1561.5,-265.5 1676.5,-265.5 1676.5,-235.5 1561.5,-235.5"/>
<text text-anchor="start" x="1569.5" y="-253.5" font-family="Helvetica,sans-Serif" font-size="10.00">MCHMappingInterface</text>
<text text-anchor="middle" x="1619" y="-242.5" font-family="Helvetica,sans-Serif" font-size="10.00">/Segmentation.h</text>
</g>
<!-- Node1&#45;&gt;Node34 -->
<g id="edge42" class="edge"><title>Node1&#45;&gt;Node34</title>
<path fill="none" stroke="midnightblue" d="M1463.18,-302.396C1493.43,-292.515 1534.03,-279.252 1566.21,-268.743"/>
<polygon fill="midnightblue" stroke="midnightblue" points="1567.49,-272.008 1575.9,-265.577 1565.31,-265.354 1567.49,-272.008"/>
</g>
<!-- Node35 -->
<g id="node35" class="node"><title>Node35</title>
<polygon fill="none" stroke="#bfbfbf" points="1694.5,-235.5 1694.5,-265.5 1819.5,-265.5 1819.5,-235.5 1694.5,-235.5"/>
<text text-anchor="start" x="1702.5" y="-253.5" font-family="Helvetica,sans-Serif" font-size="10.00">MCHMappingInterface</text>
<text text-anchor="middle" x="1757" y="-242.5" font-family="Helvetica,sans-Serif" font-size="10.00">/CathodeSegmentation.h</text>
</g>
<!-- Node1&#45;&gt;Node35 -->
<g id="edge43" class="edge"><title>Node1&#45;&gt;Node35</title>
<path fill="none" stroke="midnightblue" d="M1492.59,-302.999C1543.69,-293.43 1613.97,-280.139 1684.36,-266.311"/>
<polygon fill="midnightblue" stroke="midnightblue" points="1685.15,-269.721 1694.29,-264.356 1683.8,-262.853 1685.15,-269.721"/>
</g>
<!-- Node36 -->
<g id="node36" class="node"><title>Node36</title>
<polygon fill="none" stroke="#bfbfbf" points="1838,-235.5 1838,-265.5 2002,-265.5 2002,-235.5 1838,-235.5"/>
<text text-anchor="start" x="1846" y="-253.5" font-family="Helvetica,sans-Serif" font-size="10.00">MCHMappingSegContour</text>
<text text-anchor="middle" x="1920" y="-242.5" font-family="Helvetica,sans-Serif" font-size="10.00">/CathodeSegmentationContours.h</text>
</g>
<!-- Node1&#45;&gt;Node36 -->
<g id="edge44" class="edge"><title>Node1&#45;&gt;Node36</title>
<path fill="none" stroke="midnightblue" d="M1492.51,-308.328C1572.18,-299.17 1704.21,-283.478 1827.67,-266.16"/>
<polygon fill="midnightblue" stroke="midnightblue" points="1828.27,-269.611 1837.68,-264.75 1827.29,-262.68 1828.27,-269.611"/>
</g>
<!-- Node37 -->
<g id="node37" class="node"><title>Node37</title>
<polygon fill="none" stroke="#bfbfbf" points="2020.5,-241 2020.5,-260 2187.5,-260 2187.5,-241 2020.5,-241"/>
<text text-anchor="middle" x="2104" y="-248" font-family="Helvetica,sans-Serif" font-size="10.00">MCHRawDecoder/PageDecoder.h</text>
</g>
<!-- Node1&#45;&gt;Node37 -->
<g id="edge45" class="edge"><title>Node1&#45;&gt;Node37</title>
<path fill="none" stroke="midnightblue" d="M1492.95,-311.903C1604.72,-304.491 1824.93,-288.428 2011,-266 2021.45,-264.74 2032.53,-263.197 2043.26,-261.592"/>
<polygon fill="midnightblue" stroke="midnightblue" points="2044.05,-265.011 2053.41,-260.041 2042.99,-258.091 2044.05,-265.011"/>
</g>
<!-- Node8&#45;&gt;Node5 -->
<g id="edge9" class="edge"><title>Node8&#45;&gt;Node5</title>
<path fill="none" stroke="midnightblue" d="M1337.97,-240.958C1414.29,-228.041 1550.39,-204.464 1560,-199 1580.1,-187.575 1596.65,-166.367 1606.64,-151.285"/>
<polygon fill="midnightblue" stroke="midnightblue" points="1609.6,-153.15 1611.99,-142.827 1603.69,-149.408 1609.6,-153.15"/>
</g>
<!-- Node9 -->
<g id="node9" class="node"><title>Node9</title>
<polygon fill="none" stroke="#bfbfbf" points="1115,-179.5 1115,-198.5 1159,-198.5 1159,-179.5 1115,-179.5"/>
<text text-anchor="middle" x="1137" y="-186.5" font-family="Helvetica,sans-Serif" font-size="10.00">vector</text>
</g>
<!-- Node8&#45;&gt;Node9 -->
<g id="edge8" class="edge"><title>Node8&#45;&gt;Node9</title>
<path fill="none" stroke="midnightblue" d="M1265.51,-240.975C1239.89,-230.813 1196.89,-213.756 1167.76,-202.2"/>
<polygon fill="midnightblue" stroke="midnightblue" points="1169.04,-198.943 1158.45,-198.509 1166.46,-205.45 1169.04,-198.943"/>
</g>
<!-- Node10 -->
<g id="node10" class="node"><title>Node10</title>
<g id="a_node10"><a xlink:href="TaskInterface_8h.html" target="_top" xlink:title="QualityControl/TaskInterface.h">
<polygon fill="none" stroke="black" points="947,-179.5 947,-198.5 1097,-198.5 1097,-179.5 947,-179.5"/>
<text text-anchor="middle" x="1022" y="-186.5" font-family="Helvetica,sans-Serif" font-size="10.00">QualityControl/TaskInterface.h</text>
</a>
</g>
</g>
<!-- Node8&#45;&gt;Node10 -->
<g id="edge10" class="edge"><title>Node8&#45;&gt;Node10</title>
<path fill="none" stroke="midnightblue" d="M1249.03,-240.975C1201.8,-230.371 1121.14,-212.26 1069.76,-200.724"/>
<polygon fill="midnightblue" stroke="midnightblue" points="1070.42,-197.285 1059.9,-198.509 1068.89,-204.115 1070.42,-197.285"/>
</g>
<!-- Node31 -->
<g id="node31" class="node"><title>Node31</title>
<g id="a_node31"><a xlink:href="GlobalHistogram_8h_source.html" target="_top" xlink:title="MCH/GlobalHistogram.h">
<polygon fill="none" stroke="black" points="1427,-179.5 1427,-198.5 1551,-198.5 1551,-179.5 1427,-179.5"/>
<text text-anchor="middle" x="1489" y="-186.5" font-family="Helvetica,sans-Serif" font-size="10.00">MCH/GlobalHistogram.h</text>
</a>
</g>
</g>
<!-- Node8&#45;&gt;Node31 -->
<g id="edge37" class="edge"><title>Node8&#45;&gt;Node31</title>
<path fill="none" stroke="midnightblue" d="M1315.94,-240.975C1351.27,-230.57 1411.13,-212.937 1450.36,-201.38"/>
<polygon fill="midnightblue" stroke="midnightblue" points="1451.51,-204.692 1460.11,-198.509 1449.53,-197.977 1451.51,-204.692"/>
</g>
<!-- Node32 -->
<g id="node32" class="node"><title>Node32</title>
<polygon fill="none" stroke="#bfbfbf" points="1177,-179.5 1177,-198.5 1271,-198.5 1271,-179.5 1177,-179.5"/>
<text text-anchor="middle" x="1224" y="-186.5" font-family="Helvetica,sans-Serif" font-size="10.00">MCHBase/Digit.h</text>
</g>
<!-- Node8&#45;&gt;Node32 -->
<g id="edge40" class="edge"><title>Node8&#45;&gt;Node32</title>
<path fill="none" stroke="midnightblue" d="M1277.97,-240.975C1268.24,-231.785 1252.54,-216.956 1240.58,-205.656"/>
<polygon fill="midnightblue" stroke="midnightblue" points="1242.68,-202.831 1233.01,-198.509 1237.88,-207.92 1242.68,-202.831"/>
</g>
<!-- Node33 -->
<g id="node33" class="node"><title>Node33</title>
<polygon fill="none" stroke="#bfbfbf" points="1289,-179.5 1289,-198.5 1409,-198.5 1409,-179.5 1289,-179.5"/>
<text text-anchor="middle" x="1349" y="-186.5" font-family="Helvetica,sans-Serif" font-size="10.00">MCHBase/PreCluster.h</text>
</g>
<!-- Node8&#45;&gt;Node33 -->
<g id="edge41" class="edge"><title>Node8&#45;&gt;Node33</title>
<path fill="none" stroke="midnightblue" d="M1295.88,-240.975C1305.46,-231.785 1320.91,-216.956 1332.69,-205.656"/>
<polygon fill="midnightblue" stroke="midnightblue" points="1335.34,-207.958 1340.13,-198.509 1330.49,-202.908 1335.34,-207.958"/>
</g>
<!-- Node11 -->
<g id="node11" class="node"><title>Node11</title>
<polygon fill="none" stroke="#bfbfbf" points="1511.5,-0.5 1511.5,-19.5 1546.5,-19.5 1546.5,-0.5 1511.5,-0.5"/>
<text text-anchor="middle" x="1529" y="-7.5" font-family="Helvetica,sans-Serif" font-size="10.00">map</text>
</g>
<!-- Node10&#45;&gt;Node11 -->
<g id="edge11" class="edge"><title>Node10&#45;&gt;Node11</title>
<path fill="none" stroke="midnightblue" d="M1097.1,-179.887C1100.1,-179.583 1103.08,-179.286 1106,-179 1150.85,-174.599 1477.28,-173.994 1510,-143 1540.86,-113.762 1537.23,-58.554 1532.7,-29.6749"/>
<polygon fill="midnightblue" stroke="midnightblue" points="1536.13,-28.9244 1530.93,-19.6886 1529.23,-30.1459 1536.13,-28.9244"/>
</g>
<!-- Node12 -->
<g id="node12" class="node"><title>Node12</title>
<polygon fill="none" stroke="#bfbfbf" points="894,-62 894,-81 946,-81 946,-62 894,-62"/>
<text text-anchor="middle" x="920" y="-69" font-family="Helvetica,sans-Serif" font-size="10.00">memory</text>
</g>
<!-- Node10&#45;&gt;Node12 -->
<g id="edge12" class="edge"><title>Node10&#45;&gt;Node12</title>
<path fill="none" stroke="midnightblue" d="M957.604,-179.434C935.643,-173.087 913.296,-162.076 900,-143 888.794,-126.923 898.314,-104.67 907.675,-89.4931"/>
<polygon fill="midnightblue" stroke="midnightblue" points="910.653,-91.336 913.297,-81.0762 904.832,-87.4481 910.653,-91.336"/>
</g>
<!-- Node13 -->
<g id="node13" class="node"><title>Node13</title>
<polygon fill="none" stroke="#bfbfbf" points="526.5,-0.5 526.5,-19.5 567.5,-19.5 567.5,-0.5 526.5,-0.5"/>
<text text-anchor="middle" x="547" y="-7.5" font-family="Helvetica,sans-Serif" font-size="10.00">string</text>
</g>
<!-- Node10&#45;&gt;Node13 -->
<g id="edge13" class="edge"><title>Node10&#45;&gt;Node13</title>
<path fill="none" stroke="midnightblue" d="M946.675,-180.329C823.406,-167.752 591.959,-144.027 590,-143 560.969,-127.776 553.373,-117.744 542,-87 535.134,-68.4383 538.005,-45.6025 541.575,-29.8352"/>
<polygon fill="midnightblue" stroke="midnightblue" points="545.064,-30.3225 544.169,-19.7655 538.285,-28.5764 545.064,-30.3225"/>
</g>
<!-- Node14 -->
<g id="node14" class="node"><title>Node14</title>
<polygon fill="none" stroke="#bfbfbf" points="669.5,-0.5 669.5,-19.5 752.5,-19.5 752.5,-0.5 669.5,-0.5"/>
<text text-anchor="middle" x="711" y="-7.5" font-family="Helvetica,sans-Serif" font-size="10.00">unordered_map</text>
</g>
<!-- Node10&#45;&gt;Node14 -->
<g id="edge14" class="edge"><title>Node10&#45;&gt;Node14</title>
<path fill="none" stroke="midnightblue" d="M985.298,-179.349C966.166,-172.775 944.428,-161.583 933,-143 918.993,-120.222 947.757,-112.741 955,-87 958.732,-73.7372 963.815,-66.589 955,-56 954.226,-55.0706 834.359,-33.2814 762.941,-20.3695"/>
<polygon fill="midnightblue" stroke="midnightblue" points="763.239,-16.8666 752.776,-18.5324 761.994,-23.7551 763.239,-16.8666"/>
</g>
<!-- Node15 -->
<g id="node15" class="node"><title>Node15</title>
<polygon fill="none" stroke="#bfbfbf" points="942.5,-123.5 942.5,-142.5 1067.5,-142.5 1067.5,-123.5 942.5,-123.5"/>
<text text-anchor="middle" x="1005" y="-130.5" font-family="Helvetica,sans-Serif" font-size="10.00">Framework/InitContext.h</text>
</g>
<!-- Node10&#45;&gt;Node15 -->
<g id="edge15" class="edge"><title>Node10&#45;&gt;Node15</title>
<path fill="none" stroke="midnightblue" d="M1019.19,-179.083C1016.92,-171.849 1013.63,-161.409 1010.79,-152.397"/>
<polygon fill="midnightblue" stroke="midnightblue" points="1014.1,-151.239 1007.75,-142.751 1007.42,-153.341 1014.1,-151.239"/>
</g>
<!-- Node16 -->
<g id="node16" class="node"><title>Node16</title>
<polygon fill="none" stroke="#bfbfbf" points="1086,-123.5 1086,-142.5 1246,-142.5 1246,-123.5 1086,-123.5"/>
<text text-anchor="middle" x="1166" y="-130.5" font-family="Helvetica,sans-Serif" font-size="10.00">Framework/ProcessingContext.h</text>
</g>
<!-- Node10&#45;&gt;Node16 -->
<g id="edge16" class="edge"><title>Node10&#45;&gt;Node16</title>
<path fill="none" stroke="midnightblue" d="M1044.82,-179.444C1068.83,-170.438 1106.83,-156.189 1133.87,-146.049"/>
<polygon fill="midnightblue" stroke="midnightblue" points="1135.16,-149.305 1143.29,-142.516 1132.7,-142.751 1135.16,-149.305"/>
</g>
<!-- Node17 -->
<g id="node17" class="node"><title>Node17</title>
<polygon fill="none" stroke="#bfbfbf" points="1264.5,-123.5 1264.5,-142.5 1359.5,-142.5 1359.5,-123.5 1264.5,-123.5"/>
<text text-anchor="middle" x="1312" y="-130.5" font-family="Helvetica,sans-Serif" font-size="10.00">CCDB/CcdbApi.h</text>
</g>
<!-- Node10&#45;&gt;Node17 -->
<g id="edge17" class="edge"><title>Node10&#45;&gt;Node17</title>
<path fill="none" stroke="midnightblue" d="M1067.95,-179.444C1119.07,-169.925 1201.65,-154.547 1256.38,-144.356"/>
<polygon fill="midnightblue" stroke="midnightblue" points="1257.07,-147.788 1266.26,-142.516 1255.79,-140.906 1257.07,-147.788"/>
</g>
<!-- Node18 -->
<g id="node18" class="node"><title>Node18</title>
<g id="a_node18"><a xlink:href="Activity_8h.html" target="_top" xlink:title="QualityControl/Activity.h">
<polygon fill="none" stroke="black" points="1377.5,-123.5 1377.5,-142.5 1500.5,-142.5 1500.5,-123.5 1377.5,-123.5"/>
<text text-anchor="middle" x="1439" y="-130.5" font-family="Helvetica,sans-Serif" font-size="10.00">QualityControl/Activity.h</text>
</a>
</g>
</g>
<!-- Node10&#45;&gt;Node18 -->
<g id="edge18" class="edge"><title>Node10&#45;&gt;Node18</title>
<path fill="none" stroke="midnightblue" d="M1088.07,-179.444C1164.12,-169.596 1288.59,-153.478 1367.03,-143.319"/>
<polygon fill="midnightblue" stroke="midnightblue" points="1367.84,-146.744 1377.31,-141.988 1366.95,-139.802 1367.84,-146.744"/>
</g>
<!-- Node19 -->
<g id="node19" class="node"><title>Node19</title>
<g id="a_node19"><a xlink:href="ObjectsManager_8h.html" target="_top" xlink:title="QualityControl/ObjectsManager.h">
<polygon fill="none" stroke="black" points="599.5,-123.5 599.5,-142.5 760.5,-142.5 760.5,-123.5 599.5,-123.5"/>
<text text-anchor="middle" x="680" y="-130.5" font-family="Helvetica,sans-Serif" font-size="10.00">QualityControl/ObjectsManager.h</text>
</a>
</g>
</g>
<!-- Node10&#45;&gt;Node19 -->
<g id="edge19" class="edge"><title>Node10&#45;&gt;Node19</title>
<path fill="none" stroke="midnightblue" d="M967.809,-179.444C907.022,-169.846 808.513,-154.292 743.99,-144.104"/>
<polygon fill="midnightblue" stroke="midnightblue" points="744.361,-140.619 733.937,-142.516 743.269,-147.533 744.361,-140.619"/>
</g>
<!-- Node10&#45;&gt;Node28 -->
<g id="edge34" class="edge"><title>Node10&#45;&gt;Node28</title>
<path fill="none" stroke="midnightblue" d="M946.751,-180.239C942.099,-179.806 937.487,-179.39 933,-179 742.076,-162.421 517.708,-147.19 398.155,-139.414"/>
<polygon fill="midnightblue" stroke="midnightblue" points="398.178,-135.909 387.973,-138.754 397.725,-142.894 398.178,-135.909"/>
</g>
<!-- Node19&#45;&gt;Node12 -->
<g id="edge33" class="edge"><title>Node19&#45;&gt;Node12</title>
<path fill="none" stroke="midnightblue" d="M729.648,-123.435C771.33,-115.679 832.201,-103.024 884,-87 886.281,-86.2944 888.621,-85.5062 890.958,-84.672"/>
<polygon fill="midnightblue" stroke="midnightblue" points="892.306,-87.9041 900.407,-81.0759 889.816,-81.3619 892.306,-87.9041"/>
</g>
<!-- Node19&#45;&gt;Node13 -->
<g id="edge32" class="edge"><title>Node19&#45;&gt;Node13</title>
<path fill="none" stroke="midnightblue" d="M619.599,-123.486C596.645,-117.169 572.354,-106.165 557,-87 544.155,-70.9665 543.165,-46.6335 544.404,-29.8411"/>
<polygon fill="midnightblue" stroke="midnightblue" points="547.914,-29.9308 545.499,-19.615 540.954,-29.1854 547.914,-29.9308"/>
</g>
<!-- Node20 -->
<g id="node20" class="node"><title>Node20</title>
<g id="a_node20"><a xlink:href="MonitorObject_8h.html" target="_top" xlink:title="QualityControl/MonitorObject.h">
<polygon fill="none" stroke="black" points="724.5,-62 724.5,-81 875.5,-81 875.5,-62 724.5,-62"/>
<text text-anchor="middle" x="800" y="-69" font-family="Helvetica,sans-Serif" font-size="10.00">QualityControl/MonitorObject.h</text>
</a>
</g>
</g>
<!-- Node19&#45;&gt;Node20 -->
<g id="edge20" class="edge"><title>Node19&#45;&gt;Node20</title>
<path fill="none" stroke="midnightblue" d="M697.193,-123.475C717.243,-113.534 750.599,-96.9947 773.86,-85.461"/>
<polygon fill="midnightblue" stroke="midnightblue" points="775.434,-88.5871 782.839,-81.0091 772.325,-82.3157 775.434,-88.5871"/>
</g>
<!-- Node24 -->
<g id="node24" class="node"><title>Node24</title>
<g id="a_node24"><a xlink:href="MonitorObjectCollection_8h.html" target="_top" xlink:title="QualityControl/MonitorObject\lCollection.h">
<polygon fill="none" stroke="black" points="328.5,-56.5 328.5,-86.5 471.5,-86.5 471.5,-56.5 328.5,-56.5"/>
<text text-anchor="start" x="336.5" y="-74.5" font-family="Helvetica,sans-Serif" font-size="10.00">QualityControl/MonitorObject</text>
<text text-anchor="middle" x="400" y="-63.5" font-family="Helvetica,sans-Serif" font-size="10.00">Collection.h</text>
</a>
</g>
</g>
<!-- Node19&#45;&gt;Node24 -->
<g id="edge26" class="edge"><title>Node19&#45;&gt;Node24</title>
<path fill="none" stroke="midnightblue" d="M639.883,-123.475C597.265,-114.419 528.88,-99.8869 476.009,-88.6518"/>
<polygon fill="midnightblue" stroke="midnightblue" points="476.5,-85.1781 465.99,-86.523 475.045,-92.0252 476.5,-85.1781"/>
</g>
<!-- Node27 -->
<g id="node27" class="node"><title>Node27</title>
<g id="a_node27"><a xlink:href="TaskConfig_8h.html" target="_top" xlink:title="QualityControl/TaskConfig.h">
<polygon fill="none" stroke="black" points="566,-62 566,-81 706,-81 706,-62 566,-62"/>
<text text-anchor="middle" x="636" y="-69" font-family="Helvetica,sans-Serif" font-size="10.00">QualityControl/TaskConfig.h</text>
</a>
</g>
</g>
<!-- Node19&#45;&gt;Node27 -->
<g id="edge29" class="edge"><title>Node19&#45;&gt;Node27</title>
<path fill="none" stroke="midnightblue" d="M673.696,-123.475C667.096,-114.55 656.563,-100.307 648.307,-89.1425"/>
<polygon fill="midnightblue" stroke="midnightblue" points="651.052,-86.9684 642.292,-81.0091 645.424,-91.1305 651.052,-86.9684"/>
</g>
<!-- Node20&#45;&gt;Node11 -->
<g id="edge22" class="edge"><title>Node20&#45;&gt;Node11</title>
<path fill="none" stroke="midnightblue" d="M844.874,-61.9889C857.789,-59.7723 871.92,-57.5687 885,-56 1122.42,-27.5258 1411.4,-15.2573 1501.1,-11.9599"/>
<polygon fill="midnightblue" stroke="midnightblue" points="1501.4,-15.4515 1511.27,-11.5935 1501.15,-8.45602 1501.4,-15.4515"/>
</g>
<!-- Node20&#45;&gt;Node13 -->
<g id="edge21" class="edge"><title>Node20&#45;&gt;Node13</title>
<path fill="none" stroke="midnightblue" d="M763.751,-61.9751C713.703,-50.2048 624.326,-29.1853 577.51,-18.1753"/>
<polygon fill="midnightblue" stroke="midnightblue" points="578.189,-14.7397 567.654,-15.8573 576.587,-21.5537 578.189,-14.7397"/>
</g>
<!-- Node21 -->
<g id="node21" class="node"><title>Node21</title>
<polygon fill="none" stroke="#bfbfbf" points="595,-0.5 595,-19.5 651,-19.5 651,-0.5 595,-0.5"/>
<text text-anchor="middle" x="623" y="-7.5" font-family="Helvetica,sans-Serif" font-size="10.00">Rtypes.h</text>
</g>
<!-- Node20&#45;&gt;Node21 -->
<g id="edge23" class="edge"><title>Node20&#45;&gt;Node21</title>
<path fill="none" stroke="midnightblue" d="M774.64,-61.9751C744.016,-51.6804 692.343,-34.3103 657.954,-22.7502"/>
<polygon fill="midnightblue" stroke="midnightblue" points="658.907,-19.3779 648.313,-19.5091 656.676,-26.0131 658.907,-19.3779"/>
</g>
<!-- Node22 -->
<g id="node22" class="node"><title>Node22</title>
<polygon fill="none" stroke="#bfbfbf" points="770.5,-0.5 770.5,-19.5 829.5,-19.5 829.5,-0.5 770.5,-0.5"/>
<text text-anchor="middle" x="800" y="-7.5" font-family="Helvetica,sans-Serif" font-size="10.00">TObject.h</text>
</g>
<!-- Node20&#45;&gt;Node22 -->
<g id="edge24" class="edge"><title>Node20&#45;&gt;Node22</title>
<path fill="none" stroke="midnightblue" d="M800,-61.9751C800,-53.5803 800,-40.4806 800,-29.6631"/>
<polygon fill="midnightblue" stroke="midnightblue" points="803.5,-29.5091 800,-19.5091 796.5,-29.5091 803.5,-29.5091"/>
</g>
<!-- Node23 -->
<g id="node23" class="node"><title>Node23</title>
<polygon fill="none" stroke="#bfbfbf" points="848,-0.5 848,-19.5 964,-19.5 964,-0.5 848,-0.5"/>
<text text-anchor="middle" x="906" y="-7.5" font-family="Helvetica,sans-Serif" font-size="10.00">Common/Exceptions.h</text>
</g>
<!-- Node20&#45;&gt;Node23 -->
<g id="edge25" class="edge"><title>Node20&#45;&gt;Node23</title>
<path fill="none" stroke="midnightblue" d="M815.187,-61.9751C832.662,-52.1664 861.579,-35.9346 882.083,-24.425"/>
<polygon fill="midnightblue" stroke="midnightblue" points="883.834,-27.456 890.841,-19.5091 880.408,-21.3519 883.834,-27.456"/>
</g>
<!-- Node25 -->
<g id="node25" class="node"><title>Node25</title>
<polygon fill="none" stroke="#bfbfbf" points="266.5,-0.5 266.5,-19.5 335.5,-19.5 335.5,-0.5 266.5,-0.5"/>
<text text-anchor="middle" x="301" y="-7.5" font-family="Helvetica,sans-Serif" font-size="10.00">TObjArray.h</text>
</g>
<!-- Node24&#45;&gt;Node25 -->
<g id="edge27" class="edge"><title>Node24&#45;&gt;Node25</title>
<path fill="none" stroke="midnightblue" d="M376.538,-56.3993C360.669,-46.8619 339.809,-34.3248 324.032,-24.8422"/>
<polygon fill="midnightblue" stroke="midnightblue" points="325.779,-21.8093 315.405,-19.6578 322.174,-27.809 325.779,-21.8093"/>
</g>
<!-- Node26 -->
<g id="node26" class="node"><title>Node26</title>
<polygon fill="none" stroke="#bfbfbf" points="354,-0.5 354,-19.5 482,-19.5 482,-0.5 354,-0.5"/>
<text text-anchor="middle" x="418" y="-7.5" font-family="Helvetica,sans-Serif" font-size="10.00">Mergers/MergeInterface.h</text>
</g>
<!-- Node24&#45;&gt;Node26 -->
<g id="edge28" class="edge"><title>Node24&#45;&gt;Node26</title>
<path fill="none" stroke="midnightblue" d="M404.266,-56.3993C406.72,-48.2881 409.83,-38.0071 412.47,-29.2807"/>
<polygon fill="midnightblue" stroke="midnightblue" points="415.835,-30.2429 415.381,-19.6578 409.135,-28.2159 415.835,-30.2429"/>
</g>
<!-- Node27&#45;&gt;Node13 -->
<g id="edge30" class="edge"><title>Node27&#45;&gt;Node13</title>
<path fill="none" stroke="midnightblue" d="M623.248,-61.9751C608.973,-52.4315 585.603,-36.8073 568.492,-25.3683"/>
<polygon fill="midnightblue" stroke="midnightblue" points="569.986,-22.1572 559.728,-19.5091 566.096,-27.9766 569.986,-22.1572"/>
</g>
<!-- Node27&#45;&gt;Node14 -->
<g id="edge31" class="edge"><title>Node27&#45;&gt;Node14</title>
<path fill="none" stroke="midnightblue" d="M646.746,-61.9751C658.553,-52.6082 677.743,-37.3839 692.082,-26.0081"/>
<polygon fill="midnightblue" stroke="midnightblue" points="694.615,-28.4661 700.274,-19.5091 690.265,-22.9822 694.615,-28.4661"/>
</g>
<!-- Node29 -->
<g id="node29" class="node"><title>Node29</title>
<polygon fill="none" stroke="#bfbfbf" points="0,-62 0,-81 130,-81 130,-62 0,-62"/>
<text text-anchor="middle" x="65" y="-69" font-family="Helvetica,sans-Serif" font-size="10.00">InfoLogger/InfoLogger.hxx</text>
</g>
<!-- Node28&#45;&gt;Node29 -->
<g id="edge35" class="edge"><title>Node28&#45;&gt;Node29</title>
<path fill="none" stroke="midnightblue" d="M277.468,-123.475C233.454,-112.915 158.411,-94.911 110.302,-83.3689"/>
<polygon fill="midnightblue" stroke="midnightblue" points="111.007,-79.9387 100.466,-81.0091 109.374,-86.7456 111.007,-79.9387"/>
</g>
<!-- Node30 -->
<g id="node30" class="node"><title>Node30</title>
<polygon fill="none" stroke="#bfbfbf" points="148,-62 148,-81 310,-81 310,-62 148,-62"/>
<text text-anchor="middle" x="229" y="-69" font-family="Helvetica,sans-Serif" font-size="10.00">InfoLogger/InfoLoggerMacros.hxx</text>
</g>
<!-- Node28&#45;&gt;Node30 -->
<g id="edge36" class="edge"><title>Node28&#45;&gt;Node30</title>
<path fill="none" stroke="midnightblue" d="M300.965,-123.475C287.492,-113.931 265.434,-98.3073 249.285,-86.8683"/>
<polygon fill="midnightblue" stroke="midnightblue" points="251.196,-83.9332 241.013,-81.0091 247.15,-89.6454 251.196,-83.9332"/>
</g>
<!-- Node31&#45;&gt;Node5 -->
<g id="edge39" class="edge"><title>Node31&#45;&gt;Node5</title>
<path fill="none" stroke="midnightblue" d="M1509.28,-179.444C1530.35,-170.557 1563.52,-156.563 1587.49,-146.451"/>
<polygon fill="midnightblue" stroke="midnightblue" points="1588.96,-149.628 1596.81,-142.516 1586.24,-143.179 1588.96,-149.628"/>
</g>
<!-- Node31&#45;&gt;Node11 -->
<g id="edge38" class="edge"><title>Node31&#45;&gt;Node11</title>
<path fill="none" stroke="midnightblue" d="M1505.63,-179.464C1518.49,-171.841 1535.34,-159.356 1543,-143 1560.61,-105.398 1546.5,-55.3393 1536.59,-28.9842"/>
<polygon fill="midnightblue" stroke="midnightblue" points="1539.78,-27.5321 1532.83,-19.5353 1533.28,-30.1207 1539.78,-27.5321"/>
</g>
</g>
</svg>
        <g id="navigator" transform="translate(0 0)" fill="#404254">
                <rect fill="#f2f5e9" fill-opacity="0.5" stroke="#606060" stroke-width=".5" x="0" y="0" width="60" height="60"/>
                <use id="zoomplus" xlink:href="#zoomPlus" x="17" y="9" onmousedown="handleZoom(evt,'in')"/>
                <use id="zoomminus" xlink:href="#zoomMin" x="42" y="9" onmousedown="handleZoom(evt,'out')"/>
                <use id="reset" xlink:href="#resetDef" x="30" y="36" onmousedown="handleReset()"/>
                <g id="arrowUp" xlink:href="#dirArrow" transform="translate(30 24)" onmousedown="handlePan(0,-1)">
                  <use xlink:href="#rim" fill="#404040">
                        <set attributeName="fill" to="#808080" begin="arrowUp.mouseover" end="arrowUp.mouseout"/>
                  </use>
                  <path fill="none" stroke="white" stroke-width="1.5" d="M0,-3.0v7 M-2.5,-0.5L0,-3.0L2.5,-0.5"/>
                </g>
                <g id="arrowRight" xlink:href="#dirArrow" transform="rotate(90) translate(36 -43)" onmousedown="handlePan(1,0)">
                  <use xlink:href="#rim" fill="#404040">
                        <set attributeName="fill" to="#808080" begin="arrowRight.mouseover" end="arrowRight.mouseout"/>
                  </use>
                  <path fill="none" stroke="white" stroke-width="1.5" d="M0,-3.0v7 M-2.5,-0.5L0,-3.0L2.5,-0.5"/>
                </g>
                <g id="arrowDown" xlink:href="#dirArrow" transform="rotate(180) translate(-30 -48)" onmousedown="handlePan(0,1)">
                  <use xlink:href="#rim" fill="#404040">
                        <set attributeName="fill" to="#808080" begin="arrowDown.mouseover" end="arrowDown.mouseout"/>
                  </use>
                  <path fill="none" stroke="white" stroke-width="1.5" d="M0,-3.0v7 M-2.5,-0.5L0,-3.0L2.5,-0.5"/>
                </g>
                <g id="arrowLeft" xlink:href="#dirArrow" transform="rotate(270) translate(-36 17)" onmousedown="handlePan(-1,0)">
                  <use xlink:href="#rim" fill="#404040">
                        <set attributeName="fill" to="#808080" begin="arrowLeft.mouseover" end="arrowLeft.mouseout"/>
                  </use>
                  <path fill="none" stroke="white" stroke-width="1.5" d="M0,-3.0v7 M-2.5,-0.5L0,-3.0L2.5,-0.5"/>
                </g>
        </g>
        <svg viewBox="0 0 15 15" width="100%" height="30px" preserveAspectRatio="xMaxYMin meet">
         <g id="arrow_out" transform="scale(0.3 0.3)">
          <a xlink:href="PhysicsTaskPreclusters_8cxx__incl_org.svg" target="_base">
           <rect id="button" ry="5" rx="5" y="6" x="6" height="38" width="38"
                fill="#f2f5e9" fill-opacity="0.5" stroke="#606060" stroke-width="1.0"/>
           <path id="arrow"
             d="M 11.500037,31.436501 C 11.940474,20.09759 22.043105,11.32322 32.158766,21.979434 L 37.068811,17.246167 C 37.068811,17.246167 37.088388,32 37.088388,32 L 22.160133,31.978069 C 22.160133,31.978069 26.997745,27.140456 26.997745,27.140456 C 18.528582,18.264221 13.291696,25.230495 11.500037,31.436501 z"
             style="fill:#404040;"/>
          </a>
         </g>
        </svg>
</svg>
