<?xml version="1.0" encoding="UTF-8" standalone="no"?>
<!DOCTYPE svg PUBLIC "-//W3C//DTD SVG 1.1//EN"
 "http://www.w3.org/Graphics/SVG/1.1/DTD/svg11.dtd">
<!-- Generated by graphviz version 2.38.0 (20140413.2041)
 -->
<!-- Title: Framework/include/QualityControl/PostProcessingInterface.h Pages: 1 -->
<svg width="2113pt" height="184pt"
 viewBox="0.00 0.00 2113.00 184.00" xmlns="http://www.w3.org/2000/svg" xmlns:xlink="http://www.w3.org/1999/xlink">
<g id="graph0" class="graph" transform="scale(1 1) rotate(0) translate(4 180)">
<title>Framework/include/QualityControl/PostProcessingInterface.h</title>
<!-- Node1 -->
<g id="node1" class="node"><title>Node1</title>
<polygon fill="#bfbfbf" stroke="black" points="1351.5,-145.5 1351.5,-175.5 1518.5,-175.5 1518.5,-145.5 1351.5,-145.5"/>
<text text-anchor="start" x="1359.5" y="-163.5" font-family="Helvetica,sans-Serif" font-size="10.00">Framework/include/Quality</text>
<text text-anchor="middle" x="1435" y="-152.5" font-family="Helvetica,sans-Serif" font-size="10.00">Control/PostProcessingInterface.h</text>
</g>
<!-- Node2 -->
<g id="node2" class="node"><title>Node2</title>
<g id="a_node2"><a xlink:href="PostProcessingRunner_8h.html" target="_top" xlink:title="Framework/include/Quality\lControl/PostProcessingRunner.h">
<polygon fill="none" stroke="black" points="454,-73 454,-103 614,-103 614,-73 454,-73"/>
<text text-anchor="start" x="462" y="-91" font-family="Helvetica,sans-Serif" font-size="10.00">Framework/include/Quality</text>
<text text-anchor="middle" x="534" y="-80" font-family="Helvetica,sans-Serif" font-size="10.00">Control/PostProcessingRunner.h</text>
</a>
</g>
</g>
<!-- Node1&#45;&gt;Node2 -->
<g id="edge1" class="edge"><title>Node1&#45;&gt;Node2</title>
<path fill="none" stroke="midnightblue" d="M1341.34,-152.172C1163.75,-138.275 780.93,-108.321 614.264,-95.2804"/>
<polygon fill="midnightblue" stroke="midnightblue" points="1341.21,-155.672 1351.45,-152.962 1341.75,-148.693 1341.21,-155.672"/>
</g>
<!-- Node8 -->
<g id="node8" class="node"><title>Node8</title>
<g id="a_node8"><a xlink:href="TrendingTask_8h.html" target="_top" xlink:title="Framework/include/Quality\lControl/TrendingTask.h">
<polygon fill="none" stroke="black" points="938.5,-73 938.5,-103 1071.5,-103 1071.5,-73 938.5,-73"/>
<text text-anchor="start" x="946.5" y="-91" font-family="Helvetica,sans-Serif" font-size="10.00">Framework/include/Quality</text>
<text text-anchor="middle" x="1005" y="-80" font-family="Helvetica,sans-Serif" font-size="10.00">Control/TrendingTask.h</text>
</a>
</g>
</g>
<!-- Node1&#45;&gt;Node8 -->
<g id="edge7" class="edge"><title>Node1&#45;&gt;Node8</title>
<path fill="none" stroke="midnightblue" d="M1340.86,-149.076C1269.23,-140.421 1168.43,-126.679 1081,-109 1072.57,-107.296 1063.69,-105.22 1055.09,-103.058"/>
<polygon fill="midnightblue" stroke="midnightblue" points="1340.86,-152.602 1351.21,-150.316 1341.69,-145.652 1340.86,-152.602"/>
</g>
<!-- Node11 -->
<g id="node11" class="node"><title>Node11</title>
<g id="a_node11"><a xlink:href="PostProcessingInterface_8cxx.html" target="_top" xlink:title="Framework/src/PostProcessing\lInterface.cxx">
<polygon fill="none" stroke="black" points="1090,-73 1090,-103 1244,-103 1244,-73 1090,-73"/>
<text text-anchor="start" x="1098" y="-91" font-family="Helvetica,sans-Serif" font-size="10.00">Framework/src/PostProcessing</text>
<text text-anchor="middle" x="1167" y="-80" font-family="Helvetica,sans-Serif" font-size="10.00">Interface.cxx</text>
</a>
</g>
</g>
<!-- Node1&#45;&gt;Node11 -->
<g id="edge10" class="edge"><title>Node1&#45;&gt;Node11</title>
<path fill="none" stroke="midnightblue" d="M1371.87,-142.894C1325.88,-130.794 1264.24,-114.581 1220.63,-103.107"/>
<polygon fill="midnightblue" stroke="midnightblue" points="1371.17,-146.328 1381.73,-145.487 1372.95,-139.558 1371.17,-146.328"/>
</g>
<!-- Node12 -->
<g id="node12" class="node"><title>Node12</title>
<g id="a_node12"><a xlink:href="testPostProcessingInterface_8cxx.html" target="_top" xlink:title="Framework/test/testPostProcessing\lInterface.cxx">
<polygon fill="none" stroke="black" points="1262.5,-73 1262.5,-103 1435.5,-103 1435.5,-73 1262.5,-73"/>
<text text-anchor="start" x="1270.5" y="-91" font-family="Helvetica,sans-Serif" font-size="10.00">Framework/test/testPostProcessing</text>
<text text-anchor="middle" x="1349" y="-80" font-family="Helvetica,sans-Serif" font-size="10.00">Interface.cxx</text>
</a>
</g>
</g>
<!-- Node1&#45;&gt;Node12 -->
<g id="edge11" class="edge"><title>Node1&#45;&gt;Node12</title>
<path fill="none" stroke="midnightblue" d="M1409.73,-138.788C1395.68,-127.266 1378.56,-113.233 1366.08,-103.005"/>
<polygon fill="midnightblue" stroke="midnightblue" points="1407.64,-141.6 1417.6,-145.233 1412.08,-136.187 1407.64,-141.6"/>
</g>
<!-- Node13 -->
<g id="node13" class="node"><title>Node13</title>
<g id="a_node13"><a xlink:href="TrendingTaskITSFhr_8h.html" target="_top" xlink:title="Modules/ITS/include\l/ITS/TrendingTaskITSFhr.h">
<polygon fill="none" stroke="black" points="1454,-73 1454,-103 1590,-103 1590,-73 1454,-73"/>
<text text-anchor="start" x="1462" y="-91" font-family="Helvetica,sans-Serif" font-size="10.00">Modules/ITS/include</text>
<text text-anchor="middle" x="1522" y="-80" font-family="Helvetica,sans-Serif" font-size="10.00">/ITS/TrendingTaskITSFhr.h</text>
</a>
</g>
</g>
<!-- Node1&#45;&gt;Node13 -->
<g id="edge12" class="edge"><title>Node1&#45;&gt;Node13</title>
<path fill="none" stroke="midnightblue" d="M1460.56,-138.788C1474.78,-127.266 1492.1,-113.233 1504.72,-103.005"/>
<polygon fill="midnightblue" stroke="midnightblue" points="1458.17,-136.218 1452.61,-145.233 1462.58,-141.657 1458.17,-136.218"/>
</g>
<!-- Node15 -->
<g id="node15" class="node"><title>Node15</title>
<g id="a_node15"><a xlink:href="TrendingTaskITSThr_8h.html" target="_top" xlink:title="Modules/ITS/include\l/ITS/TrendingTaskITSThr.h">
<polygon fill="none" stroke="black" points="1608,-73 1608,-103 1744,-103 1744,-73 1608,-73"/>
<text text-anchor="start" x="1616" y="-91" font-family="Helvetica,sans-Serif" font-size="10.00">Modules/ITS/include</text>
<text text-anchor="middle" x="1676" y="-80" font-family="Helvetica,sans-Serif" font-size="10.00">/ITS/TrendingTaskITSThr.h</text>
</a>
</g>
</g>
<!-- Node1&#45;&gt;Node15 -->
<g id="edge14" class="edge"><title>Node1&#45;&gt;Node15</title>
<path fill="none" stroke="midnightblue" d="M1492.55,-142.665C1533.82,-130.591 1588.8,-114.508 1627.78,-103.107"/>
<polygon fill="midnightblue" stroke="midnightblue" points="1491.52,-139.32 1482.9,-145.487 1493.48,-146.039 1491.52,-139.32"/>
</g>
<!-- Node17 -->
<g id="node17" class="node"><title>Node17</title>
<g id="a_node17"><a xlink:href="SkeletonPostProcessing_8h.html" target="_top" xlink:title="Modules/Skeleton/include\l/Skeleton/SkeletonPostProcessing.h">
<polygon fill="none" stroke="black" points="1762,-73 1762,-103 1938,-103 1938,-73 1762,-73"/>
<text text-anchor="start" x="1770" y="-91" font-family="Helvetica,sans-Serif" font-size="10.00">Modules/Skeleton/include</text>
<text text-anchor="middle" x="1850" y="-80" font-family="Helvetica,sans-Serif" font-size="10.00">/Skeleton/SkeletonPostProcessing.h</text>
</a>
</g>
</g>
<!-- Node1&#45;&gt;Node17 -->
<g id="edge16" class="edge"><title>Node1&#45;&gt;Node17</title>
<path fill="none" stroke="midnightblue" d="M1528.52,-145.801C1591.98,-136.224 1677.7,-122.734 1753,-109 1763.06,-107.164 1773.69,-105.101 1784.07,-103.016"/>
<polygon fill="midnightblue" stroke="midnightblue" points="1527.9,-142.355 1518.54,-147.304 1528.95,-149.277 1527.9,-142.355"/>
</g>
<!-- Node19 -->
<g id="node19" class="node"><title>Node19</title>
<g id="a_node19"><a xlink:href="PostProcessDiagnosticPerCrate_8h.html" target="_top" xlink:title="Post processing to rearrange TOF information at the level of the crate (maybe we should do the opposi...">
<polygon fill="none" stroke="black" points="1956.5,-67.5 1956.5,-108.5 2101.5,-108.5 2101.5,-67.5 1956.5,-67.5"/>
<text text-anchor="start" x="1964.5" y="-96.5" font-family="Helvetica,sans-Serif" font-size="10.00">Modules/TOF/include</text>
<text text-anchor="start" x="1964.5" y="-85.5" font-family="Helvetica,sans-Serif" font-size="10.00">/TOF/PostProcessDiagnostic</text>
<text text-anchor="middle" x="2029" y="-74.5" font-family="Helvetica,sans-Serif" font-size="10.00">PerCrate.h</text>
</a>
</g>
</g>
<!-- Node1&#45;&gt;Node19 -->
<g id="edge18" class="edge"><title>Node1&#45;&gt;Node19</title>
<path fill="none" stroke="midnightblue" d="M1528.92,-154.219C1632.01,-147.498 1802.14,-133.684 1947,-109 1950.03,-108.483 1953.12,-107.916 1956.23,-107.312"/>
<polygon fill="midnightblue" stroke="midnightblue" points="1528.6,-150.732 1518.84,-154.867 1529.05,-157.718 1528.6,-150.732"/>
</g>
<!-- Node3 -->
<g id="node3" class="node"><title>Node3</title>
<g id="a_node3"><a xlink:href="PostProcessingDevice_8cxx.html" target="_top" xlink:title="Framework/src/PostProcessing\lDevice.cxx">
<polygon fill="none" stroke="black" points="0,-0.5 0,-30.5 154,-30.5 154,-0.5 0,-0.5"/>
<text text-anchor="start" x="8" y="-18.5" font-family="Helvetica,sans-Serif" font-size="10.00">Framework/src/PostProcessing</text>
<text text-anchor="middle" x="77" y="-7.5" font-family="Helvetica,sans-Serif" font-size="10.00">Device.cxx</text>
</a>
</g>
</g>
<!-- Node2&#45;&gt;Node3 -->
<g id="edge2" class="edge"><title>Node2&#45;&gt;Node3</title>
<path fill="none" stroke="midnightblue" d="M444.058,-73.8665C368.883,-62.7831 258.879,-46.3178 163,-31 160.159,-30.5461 157.266,-30.0798 154.345,-29.6053"/>
<polygon fill="midnightblue" stroke="midnightblue" points="443.566,-77.3316 453.969,-75.3263 444.586,-70.4064 443.566,-77.3316"/>
</g>
<!-- Node4 -->
<g id="node4" class="node"><title>Node4</title>
<polygon fill="none" stroke="#bfbfbf" points="172,-0.5 172,-30.5 326,-30.5 326,-0.5 172,-0.5"/>
<text text-anchor="start" x="180" y="-18.5" font-family="Helvetica,sans-Serif" font-size="10.00">Framework/src/PostProcessing</text>
<text text-anchor="middle" x="249" y="-7.5" font-family="Helvetica,sans-Serif" font-size="10.00">Runner.cxx</text>
</g>
<!-- Node2&#45;&gt;Node4 -->
<g id="edge3" class="edge"><title>Node2&#45;&gt;Node4</title>
<path fill="none" stroke="midnightblue" d="M467.483,-70.5457C418.506,-58.4305 352.606,-42.1288 306.028,-30.6069"/>
<polygon fill="midnightblue" stroke="midnightblue" points="466.805,-73.9834 477.352,-72.9872 468.485,-67.1882 466.805,-73.9834"/>
</g>
<!-- Node5 -->
<g id="node5" class="node"><title>Node5</title>
<g id="a_node5"><a xlink:href="runPostProcessing_8cxx.html" target="_top" xlink:title="This is a standalone executable to run postprocessing. ">
<polygon fill="none" stroke="black" points="344,-6 344,-25 530,-25 530,-6 344,-6"/>
<text text-anchor="middle" x="437" y="-13" font-family="Helvetica,sans-Serif" font-size="10.00">Framework/src/runPostProcessing.cxx</text>
</a>
</g>
</g>
<!-- Node2&#45;&gt;Node5 -->
<g id="edge4" class="edge"><title>Node2&#45;&gt;Node5</title>
<path fill="none" stroke="midnightblue" d="M506.093,-66.7172C487.174,-52.9665 463.12,-35.4842 448.958,-25.1911"/>
<polygon fill="midnightblue" stroke="midnightblue" points="504.224,-69.6852 514.371,-72.7333 508.339,-64.0228 504.224,-69.6852"/>
</g>
<!-- Node6 -->
<g id="node6" class="node"><title>Node6</title>
<g id="a_node6"><a xlink:href="runPostProcessingOCC_8cxx.html" target="_top" xlink:title="This is an OCC executable to run postprocessing. ">
<polygon fill="none" stroke="black" points="547.5,-0.5 547.5,-30.5 714.5,-30.5 714.5,-0.5 547.5,-0.5"/>
<text text-anchor="start" x="555.5" y="-18.5" font-family="Helvetica,sans-Serif" font-size="10.00">Framework/src/runPostProcessing</text>
<text text-anchor="middle" x="631" y="-7.5" font-family="Helvetica,sans-Serif" font-size="10.00">OCC.cxx</text>
</a>
</g>
</g>
<!-- Node2&#45;&gt;Node6 -->
<g id="edge5" class="edge"><title>Node2&#45;&gt;Node6</title>
<path fill="none" stroke="midnightblue" d="M562.054,-66.6101C577.989,-55.0289 597.527,-40.8282 611.731,-30.5049"/>
<polygon fill="midnightblue" stroke="midnightblue" points="559.661,-64.0228 553.629,-72.7333 563.776,-69.6852 559.661,-64.0228"/>
</g>
<!-- Node7 -->
<g id="node7" class="node"><title>Node7</title>
<g id="a_node7"><a xlink:href="testPostProcessingRunner_8cxx.html" target="_top" xlink:title="Framework/test/testPostProcessing\lRunner.cxx">
<polygon fill="none" stroke="black" points="732.5,-0.5 732.5,-30.5 905.5,-30.5 905.5,-0.5 732.5,-0.5"/>
<text text-anchor="start" x="740.5" y="-18.5" font-family="Helvetica,sans-Serif" font-size="10.00">Framework/test/testPostProcessing</text>
<text text-anchor="middle" x="819" y="-7.5" font-family="Helvetica,sans-Serif" font-size="10.00">Runner.cxx</text>
</a>
</g>
</g>
<!-- Node2&#45;&gt;Node7 -->
<g id="edge6" class="edge"><title>Node2&#45;&gt;Node7</title>
<path fill="none" stroke="midnightblue" d="M600.517,-70.5457C649.494,-58.4305 715.394,-42.1288 761.972,-30.6069"/>
<polygon fill="midnightblue" stroke="midnightblue" points="599.515,-67.1882 590.648,-72.9872 601.195,-73.9834 599.515,-67.1882"/>
</g>
<!-- Node9 -->
<g id="node9" class="node"><title>Node9</title>
<g id="a_node9"><a xlink:href="TrendingTask_8cxx.html" target="_top" xlink:title="Framework/src/TrendingTask.cxx">
<polygon fill="none" stroke="black" points="923.5,-6 923.5,-25 1086.5,-25 1086.5,-6 923.5,-6"/>
<text text-anchor="middle" x="1005" y="-13" font-family="Helvetica,sans-Serif" font-size="10.00">Framework/src/TrendingTask.cxx</text>
</a>
</g>
</g>
<!-- Node8&#45;&gt;Node9 -->
<g id="edge8" class="edge"><title>Node8&#45;&gt;Node9</title>
<path fill="none" stroke="midnightblue" d="M1005,-62.5913C1005,-49.7136 1005,-34.6974 1005,-25.3932"/>
<polygon fill="midnightblue" stroke="midnightblue" points="1001.5,-62.7332 1005,-72.7333 1008.5,-62.7333 1001.5,-62.7332"/>
</g>
<!-- Node10 -->
<g id="node10" class="node"><title>Node10</title>
<g id="a_node10"><a xlink:href="testTrendingTask_8cxx.html" target="_top" xlink:title="Framework/test/testTrending\lTask.cxx">
<polygon fill="none" stroke="black" points="1105,-0.5 1105,-30.5 1247,-30.5 1247,-0.5 1105,-0.5"/>
<text text-anchor="start" x="1113" y="-18.5" font-family="Helvetica,sans-Serif" font-size="10.00">Framework/test/testTrending</text>
<text text-anchor="middle" x="1176" y="-7.5" font-family="Helvetica,sans-Serif" font-size="10.00">Task.cxx</text>
</a>
</g>
</g>
<!-- Node8&#45;&gt;Node10 -->
<g id="edge9" class="edge"><title>Node8&#45;&gt;Node10</title>
<path fill="none" stroke="midnightblue" d="M1048.66,-68.9991C1077.62,-57.0585 1115.09,-41.6135 1141.87,-30.5729"/>
<polygon fill="midnightblue" stroke="midnightblue" points="1047.1,-65.8553 1039.19,-72.9027 1049.77,-72.3269 1047.1,-65.8553"/>
</g>
<!-- Node14 -->
<g id="node14" class="node"><title>Node14</title>
<g id="a_node14"><a xlink:href="TrendingTaskITSFhr_8cxx.html" target="_top" xlink:title="Modules/ITS/src/Trending\lTaskITSFhr.cxx">
<polygon fill="none" stroke="black" points="1457.5,-0.5 1457.5,-30.5 1586.5,-30.5 1586.5,-0.5 1457.5,-0.5"/>
<text text-anchor="start" x="1465.5" y="-18.5" font-family="Helvetica,sans-Serif" font-size="10.00">Modules/ITS/src/Trending</text>
<text text-anchor="middle" x="1522" y="-7.5" font-family="Helvetica,sans-Serif" font-size="10.00">TaskITSFhr.cxx</text>
</a>
</g>
</g>
<!-- Node13&#45;&gt;Node14 -->
<g id="edge13" class="edge"><title>Node13&#45;&gt;Node14</title>
<path fill="none" stroke="midnightblue" d="M1522,-62.7317C1522,-52.0679 1522,-39.9145 1522,-30.7455"/>
<polygon fill="midnightblue" stroke="midnightblue" points="1518.5,-62.7332 1522,-72.7333 1525.5,-62.7333 1518.5,-62.7332"/>
</g>
<!-- Node16 -->
<g id="node16" class="node"><title>Node16</title>
<g id="a_node16"><a xlink:href="TrendingTaskITSThr_8cxx.html" target="_top" xlink:title="Modules/ITS/src/Trending\lTaskITSThr.cxx">
<polygon fill="none" stroke="black" points="1611.5,-0.5 1611.5,-30.5 1740.5,-30.5 1740.5,-0.5 1611.5,-0.5"/>
<text text-anchor="start" x="1619.5" y="-18.5" font-family="Helvetica,sans-Serif" font-size="10.00">Modules/ITS/src/Trending</text>
<text text-anchor="middle" x="1676" y="-7.5" font-family="Helvetica,sans-Serif" font-size="10.00">TaskITSThr.cxx</text>
</a>
</g>
</g>
<!-- Node15&#45;&gt;Node16 -->
<g id="edge15" class="edge"><title>Node15&#45;&gt;Node16</title>
<path fill="none" stroke="midnightblue" d="M1676,-62.7317C1676,-52.0679 1676,-39.9145 1676,-30.7455"/>
<polygon fill="midnightblue" stroke="midnightblue" points="1672.5,-62.7332 1676,-72.7333 1679.5,-62.7333 1672.5,-62.7332"/>
</g>
<!-- Node18 -->
<g id="node18" class="node"><title>Node18</title>
<polygon fill="none" stroke="#bfbfbf" points="1777,-0.5 1777,-30.5 1923,-30.5 1923,-0.5 1777,-0.5"/>
<text text-anchor="start" x="1785" y="-18.5" font-family="Helvetica,sans-Serif" font-size="10.00">Modules/Skeleton/src</text>
<text text-anchor="middle" x="1850" y="-7.5" font-family="Helvetica,sans-Serif" font-size="10.00">/SkeletonPostProcessing.cxx</text>
</g>
<!-- Node17&#45;&gt;Node18 -->
<g id="edge17" class="edge"><title>Node17&#45;&gt;Node18</title>
<path fill="none" stroke="midnightblue" d="M1850,-62.7317C1850,-52.0679 1850,-39.9145 1850,-30.7455"/>
<polygon fill="midnightblue" stroke="midnightblue" points="1846.5,-62.7332 1850,-72.7333 1853.5,-62.7333 1846.5,-62.7332"/>
</g>
<!-- Node20 -->
<g id="node20" class="node"><title>Node20</title>
<g id="a_node20"><a xlink:href="PostProcessDiagnosticPerCrate_8cxx.html" target="_top" xlink:title="Post processing to rearrange TOF information at the level of the crate (maybe we should do the opposi...">
<polygon fill="none" stroke="black" points="1953,-0.5 1953,-30.5 2105,-30.5 2105,-0.5 1953,-0.5"/>
<text text-anchor="start" x="1961" y="-18.5" font-family="Helvetica,sans-Serif" font-size="10.00">Modules/TOF/src/PostProcess</text>
<text text-anchor="middle" x="2029" y="-7.5" font-family="Helvetica,sans-Serif" font-size="10.00">DiagnosticPerCrate.cxx</text>
</a>
</g>
</g>
<!-- Node19&#45;&gt;Node20 -->
<g id="edge19" class="edge"><title>Node19&#45;&gt;Node20</title>
<path fill="none" stroke="midnightblue" d="M2029,-57.08C2029,-48.0061 2029,-38.4498 2029,-30.8916"/>
<polygon fill="midnightblue" stroke="midnightblue" points="2025.5,-57.3618 2029,-67.3618 2032.5,-57.3619 2025.5,-57.3618"/>
</g>
</g>
</svg>
