<?xml version="1.0" encoding="UTF-8" standalone="no"?>
<!DOCTYPE svg PUBLIC "-//W3C//DTD SVG 1.1//EN"
 "http://www.w3.org/Graphics/SVG/1.1/DTD/svg11.dtd">
<!-- Generated by graphviz version 2.38.0 (20140413.2041)
 -->
<!-- Title: Framework/include/QualityControl/TaskFactory.h Pages: 1 -->
<svg width="2240pt" height="106pt"
 viewBox="0.00 0.00 2239.50 106.00" xmlns="http://www.w3.org/2000/svg" xmlns:xlink="http://www.w3.org/1999/xlink">
<g id="graph0" class="graph" transform="scale(1 1) rotate(0) translate(4 102)">
<title>Framework/include/QualityControl/TaskFactory.h</title>
<!-- Node1 -->
<g id="node1" class="node"><title>Node1</title>
<polygon fill="#bfbfbf" stroke="black" points="1038.5,-67.5 1038.5,-97.5 1171.5,-97.5 1171.5,-67.5 1038.5,-67.5"/>
<text text-anchor="start" x="1046.5" y="-85.5" font-family="Helvetica,sans-Serif" font-size="10.00">Framework/include/Quality</text>
<text text-anchor="middle" x="1105" y="-74.5" font-family="Helvetica,sans-Serif" font-size="10.00">Control/TaskFactory.h</text>
</g>
<!-- Node2 -->
<g id="node2" class="node"><title>Node2</title>
<g id="a_node2"><a xlink:href="TaskFactory_8cxx.html" target="_top" xlink:title="Framework/src/TaskFactory.cxx">
<polygon fill="none" stroke="black" points="0,-6 0,-25 158,-25 158,-6 0,-6"/>
<text text-anchor="middle" x="79" y="-13" font-family="Helvetica,sans-Serif" font-size="10.00">Framework/src/TaskFactory.cxx</text>
</a>
</g>
</g>
<!-- Node1&#45;&gt;Node2 -->
<g id="edge1" class="edge"><title>Node1&#45;&gt;Node2</title>
<path fill="none" stroke="midnightblue" d="M1028.02,-80.207C867.489,-76.8838 485.47,-65.705 167,-31 153.301,-29.5071 138.49,-27.2997 124.998,-25.055"/>
<polygon fill="midnightblue" stroke="midnightblue" points="1028.2,-83.7113 1038.27,-80.4147 1028.34,-76.7127 1028.2,-83.7113"/>
</g>
<!-- Node3 -->
<g id="node3" class="node"><title>Node3</title>
<g id="a_node3"><a xlink:href="TaskRunner_8cxx.html" target="_top" xlink:title="Framework/src/TaskRunner.cxx">
<polygon fill="none" stroke="black" points="176.5,-6 176.5,-25 333.5,-25 333.5,-6 176.5,-6"/>
<text text-anchor="middle" x="255" y="-13" font-family="Helvetica,sans-Serif" font-size="10.00">Framework/src/TaskRunner.cxx</text>
</a>
</g>
</g>
<!-- Node1&#45;&gt;Node3 -->
<g id="edge2" class="edge"><title>Node1&#45;&gt;Node3</title>
<path fill="none" stroke="midnightblue" d="M1028.43,-78.943C890.701,-73.7854 592.223,-60.0602 342,-31 328.615,-29.4455 314.152,-27.2463 300.933,-25.0294"/>
<polygon fill="midnightblue" stroke="midnightblue" points="1028.34,-82.442 1038.46,-79.3142 1028.6,-75.4468 1028.34,-82.442"/>
</g>
<!-- Node4 -->
<g id="node4" class="node"><title>Node4</title>
<g id="a_node4"><a xlink:href="testTaskInterface_8cxx.html" target="_top" xlink:title="Framework/test/testTaskInterface.cxx">
<polygon fill="none" stroke="black" points="351.5,-6 351.5,-25 534.5,-25 534.5,-6 351.5,-6"/>
<text text-anchor="middle" x="443" y="-13" font-family="Helvetica,sans-Serif" font-size="10.00">Framework/test/testTaskInterface.cxx</text>
</a>
</g>
</g>
<!-- Node1&#45;&gt;Node4 -->
<g id="edge3" class="edge"><title>Node1&#45;&gt;Node4</title>
<path fill="none" stroke="midnightblue" d="M1028.22,-75.8796C920.041,-67.6671 716.664,-51.1514 544,-31 529.22,-29.2751 513.265,-27.121 498.498,-25.005"/>
<polygon fill="midnightblue" stroke="midnightblue" points="1028.15,-79.3844 1038.39,-76.6483 1028.68,-72.4043 1028.15,-79.3844"/>
</g>
<!-- Node5 -->
<g id="node5" class="node"><title>Node5</title>
<g id="a_node5"><a xlink:href="testEMCAL_8cxx.html" target="_top" xlink:title="Modules/EMCAL/test\l/testEMCAL.cxx">
<polygon fill="none" stroke="black" points="553,-0.5 553,-30.5 663,-30.5 663,-0.5 553,-0.5"/>
<text text-anchor="start" x="561" y="-18.5" font-family="Helvetica,sans-Serif" font-size="10.00">Modules/EMCAL/test</text>
<text text-anchor="middle" x="608" y="-7.5" font-family="Helvetica,sans-Serif" font-size="10.00">/testEMCAL.cxx</text>
</a>
</g>
</g>
<!-- Node1&#45;&gt;Node5 -->
<g id="edge4" class="edge"><title>Node1&#45;&gt;Node5</title>
<path fill="none" stroke="midnightblue" d="M1028.26,-75.0441C941.434,-67.1618 795.962,-52.209 672,-31 669.08,-30.5005 666.094,-29.9528 663.083,-29.372"/>
<polygon fill="midnightblue" stroke="midnightblue" points="1028.02,-78.5365 1038.29,-75.9471 1028.65,-71.5647 1028.02,-78.5365"/>
</g>
<!-- Node6 -->
<g id="node6" class="node"><title>Node6</title>
<polygon fill="none" stroke="#bfbfbf" points="681,-0.5 681,-30.5 795,-30.5 795,-0.5 681,-0.5"/>
<text text-anchor="start" x="689" y="-18.5" font-family="Helvetica,sans-Serif" font-size="10.00">Modules/Example/test</text>
<text text-anchor="middle" x="738" y="-7.5" font-family="Helvetica,sans-Serif" font-size="10.00">/testFactory.cxx</text>
</g>
<!-- Node1&#45;&gt;Node6 -->
<g id="edge5" class="edge"><title>Node1&#45;&gt;Node6</title>
<path fill="none" stroke="midnightblue" d="M1028.55,-69.7556C967.594,-60.1318 880.134,-45.7404 804,-31 801.121,-30.4425 798.174,-29.8556 795.201,-29.2504"/>
<polygon fill="midnightblue" stroke="midnightblue" points="1028.05,-73.2206 1038.47,-71.3178 1029.14,-66.3057 1028.05,-73.2206"/>
</g>
<!-- Node7 -->
<g id="node7" class="node"><title>Node7</title>
<g id="a_node7"><a xlink:href="testQcExample_8cxx.html" target="_top" xlink:title="Modules/Example/test\l/testQcExample.cxx">
<polygon fill="none" stroke="black" points="813,-0.5 813,-30.5 927,-30.5 927,-0.5 813,-0.5"/>
<text text-anchor="start" x="821" y="-18.5" font-family="Helvetica,sans-Serif" font-size="10.00">Modules/Example/test</text>
<text text-anchor="middle" x="870" y="-7.5" font-family="Helvetica,sans-Serif" font-size="10.00">/testQcExample.cxx</text>
</a>
</g>
</g>
<!-- Node1&#45;&gt;Node7 -->
<g id="edge6" class="edge"><title>Node1&#45;&gt;Node7</title>
<path fill="none" stroke="midnightblue" d="M1044.32,-64.7149C1006.07,-54.1373 957.257,-40.6348 921.016,-30.6109"/>
<polygon fill="midnightblue" stroke="midnightblue" points="1043.73,-68.1834 1054.3,-67.476 1045.59,-61.4367 1043.73,-68.1834"/>
</g>
<!-- Node8 -->
<g id="node8" class="node"><title>Node8</title>
<g id="a_node8"><a xlink:href="testITS_8cxx.html" target="_top" xlink:title="Modules/ITS/test/testITS.cxx">
<polygon fill="none" stroke="black" points="945,-6 945,-25 1091,-25 1091,-6 945,-6"/>
<text text-anchor="middle" x="1018" y="-13" font-family="Helvetica,sans-Serif" font-size="10.00">Modules/ITS/test/testITS.cxx</text>
</a>
</g>
</g>
<!-- Node1&#45;&gt;Node8 -->
<g id="edge7" class="edge"><title>Node1&#45;&gt;Node8</title>
<path fill="none" stroke="midnightblue" d="M1078.02,-61.3425C1061.78,-49.2128 1041.94,-34.389 1029.64,-25.1945"/>
<polygon fill="midnightblue" stroke="midnightblue" points="1076.02,-64.2145 1086.12,-67.396 1080.21,-58.6068 1076.02,-64.2145"/>
</g>
<!-- Node9 -->
<g id="node9" class="node"><title>Node9</title>
<polygon fill="none" stroke="#bfbfbf" points="1109.5,-6 1109.5,-25 1276.5,-25 1276.5,-6 1109.5,-6"/>
<text text-anchor="middle" x="1193" y="-13" font-family="Helvetica,sans-Serif" font-size="10.00">Modules/MFT/test/testQcMFT.cxx</text>
</g>
<!-- Node1&#45;&gt;Node9 -->
<g id="edge8" class="edge"><title>Node1&#45;&gt;Node9</title>
<path fill="none" stroke="midnightblue" d="M1132.34,-61.3056C1148.86,-49.0999 1169.07,-34.1772 1181.48,-25.007"/>
<polygon fill="midnightblue" stroke="midnightblue" points="1130.06,-58.6393 1124.09,-67.396 1134.22,-64.2699 1130.06,-58.6393"/>
</g>
<!-- Node10 -->
<g id="node10" class="node"><title>Node10</title>
<polygon fill="none" stroke="#bfbfbf" points="1295,-6 1295,-25 1459,-25 1459,-6 1295,-6"/>
<text text-anchor="middle" x="1377" y="-13" font-family="Helvetica,sans-Serif" font-size="10.00">Modules/MID/test/testQcMID.cxx</text>
</g>
<!-- Node1&#45;&gt;Node10 -->
<g id="edge9" class="edge"><title>Node1&#45;&gt;Node10</title>
<path fill="none" stroke="midnightblue" d="M1173.42,-65.1489C1226.8,-52.3942 1298.79,-35.1905 1341.31,-25.0287"/>
<polygon fill="midnightblue" stroke="midnightblue" points="1172.6,-61.7475 1163.69,-67.476 1174.22,-68.5558 1172.6,-61.7475"/>
</g>
<!-- Node11 -->
<g id="node11" class="node"><title>Node11</title>
<g id="a_node11"><a xlink:href="testMuonChambers_8cxx.html" target="_top" xlink:title="Modules/MUON/MCH/test\l/testMuonChambers.cxx">
<polygon fill="none" stroke="black" points="1477.5,-0.5 1477.5,-30.5 1610.5,-30.5 1610.5,-0.5 1477.5,-0.5"/>
<text text-anchor="start" x="1485.5" y="-18.5" font-family="Helvetica,sans-Serif" font-size="10.00">Modules/MUON/MCH/test</text>
<text text-anchor="middle" x="1544" y="-7.5" font-family="Helvetica,sans-Serif" font-size="10.00">/testMuonChambers.cxx</text>
</a>
</g>
</g>
<!-- Node1&#45;&gt;Node11 -->
<g id="edge10" class="edge"><title>Node1&#45;&gt;Node11</title>
<path fill="none" stroke="midnightblue" d="M1181.83,-71.9509C1255.42,-62.5357 1369.52,-47.2349 1468,-31 1471.05,-30.4975 1474.16,-29.9682 1477.31,-29.4211"/>
<polygon fill="midnightblue" stroke="midnightblue" points="1181.2,-68.5031 1171.72,-73.2399 1182.09,-75.4469 1181.2,-68.5031"/>
</g>
<!-- Node12 -->
<g id="node12" class="node"><title>Node12</title>
<polygon fill="none" stroke="#bfbfbf" points="1629,-0.5 1629,-30.5 1743,-30.5 1743,-0.5 1629,-0.5"/>
<text text-anchor="start" x="1637" y="-18.5" font-family="Helvetica,sans-Serif" font-size="10.00">Modules/Skeleton/test</text>
<text text-anchor="middle" x="1686" y="-7.5" font-family="Helvetica,sans-Serif" font-size="10.00">/.testEmpty.cxx</text>
</g>
<!-- Node1&#45;&gt;Node12 -->
<g id="edge11" class="edge"><title>Node1&#45;&gt;Node12</title>
<path fill="none" stroke="midnightblue" d="M1181.68,-76.8297C1282.62,-70.0322 1465.37,-55.4792 1620,-31 1622.9,-30.5414 1625.86,-30.0341 1628.84,-29.492"/>
<polygon fill="midnightblue" stroke="midnightblue" points="1181.32,-73.3458 1171.58,-77.5027 1181.79,-80.3303 1181.32,-73.3458"/>
</g>
<!-- Node13 -->
<g id="node13" class="node"><title>Node13</title>
<g id="a_node13"><a xlink:href="testQcSkeleton_8cxx.html" target="_top" xlink:title="Modules/Skeleton/test\l/testQcSkeleton.cxx">
<polygon fill="none" stroke="black" points="1761,-0.5 1761,-30.5 1875,-30.5 1875,-0.5 1761,-0.5"/>
<text text-anchor="start" x="1769" y="-18.5" font-family="Helvetica,sans-Serif" font-size="10.00">Modules/Skeleton/test</text>
<text text-anchor="middle" x="1818" y="-7.5" font-family="Helvetica,sans-Serif" font-size="10.00">/testQcSkeleton.cxx</text>
</a>
</g>
</g>
<!-- Node1&#45;&gt;Node13 -->
<g id="edge12" class="edge"><title>Node1&#45;&gt;Node13</title>
<path fill="none" stroke="midnightblue" d="M1182.27,-78.9258C1303.99,-74.0946 1547.59,-61.2825 1752,-31 1754.9,-30.5702 1757.87,-30.086 1760.85,-29.5623"/>
<polygon fill="midnightblue" stroke="midnightblue" points="1181.79,-75.4414 1171.94,-79.3281 1182.07,-82.4361 1181.79,-75.4414"/>
</g>
<!-- Node14 -->
<g id="node14" class="node"><title>Node14</title>
<g id="a_node14"><a xlink:href="testTOF_8cxx.html" target="_top" xlink:title="Modules/TOF/test/testTOF.cxx">
<polygon fill="none" stroke="black" points="1893.5,-6 1893.5,-25 2046.5,-25 2046.5,-6 1893.5,-6"/>
<text text-anchor="middle" x="1970" y="-13" font-family="Helvetica,sans-Serif" font-size="10.00">Modules/TOF/test/testTOF.cxx</text>
</a>
</g>
</g>
<!-- Node1&#45;&gt;Node14 -->
<g id="edge13" class="edge"><title>Node1&#45;&gt;Node14</title>
<path fill="none" stroke="midnightblue" d="M1181.84,-79.1259C1321.85,-74.2205 1627.74,-60.8304 1884,-31 1897.23,-29.4594 1911.53,-27.2645 1924.6,-25.0473"/>
<polygon fill="midnightblue" stroke="midnightblue" points="1181.51,-75.6349 1171.64,-79.4784 1181.75,-82.6307 1181.51,-75.6349"/>
</g>
<!-- Node15 -->
<g id="node15" class="node"><title>Node15</title>
<polygon fill="none" stroke="#bfbfbf" points="2064.5,-6 2064.5,-25 2231.5,-25 2231.5,-6 2064.5,-6"/>
<text text-anchor="middle" x="2148" y="-13" font-family="Helvetica,sans-Serif" font-size="10.00">Modules/TPC/test/testQcTPC.cxx</text>
</g>
<!-- Node1&#45;&gt;Node15 -->
<g id="edge14" class="edge"><title>Node1&#45;&gt;Node15</title>
<path fill="none" stroke="midnightblue" d="M1182.12,-80.1023C1344.3,-76.5704 1732.39,-65.002 2056,-31 2070.31,-29.4962 2085.79,-27.2855 2099.9,-25.0411"/>
<polygon fill="midnightblue" stroke="midnightblue" points="1181.69,-76.6106 1171.77,-80.3235 1181.84,-83.609 1181.69,-76.6106"/>
</g>
</g>
</svg>
