<?xml version="1.0" encoding="UTF-8" standalone="no"?>
<!DOCTYPE svg PUBLIC "-//W3C//DTD SVG 1.1//EN"
 "http://www.w3.org/Graphics/SVG/1.1/DTD/svg11.dtd">
<!-- Generated by graphviz version 2.38.0 (20140413.2041)
 -->
<!-- Title: Modules/TOF/src/TaskDigits.cxx Pages: 1 -->
<svg width="1903pt" height="319pt"
 viewBox="0.00 0.00 1903.00 319.00" xmlns="http://www.w3.org/2000/svg" xmlns:xlink="http://www.w3.org/1999/xlink">
<g id="graph0" class="graph" transform="scale(1 1) rotate(0) translate(4 315)">
<title>Modules/TOF/src/TaskDigits.cxx</title>
<!-- Node1 -->
<g id="node1" class="node"><title>Node1</title>
<polygon fill="#bfbfbf" stroke="black" points="290,-291.5 290,-310.5 451,-310.5 451,-291.5 290,-291.5"/>
<text text-anchor="middle" x="370.5" y="-298.5" font-family="Helvetica,sans-Serif" font-size="10.00">Modules/TOF/src/TaskDigits.cxx</text>
</g>
<!-- Node2 -->
<g id="node2" class="node"><title>Node2</title>
<polygon fill="none" stroke="#bfbfbf" points="0,-235.5 0,-254.5 65,-254.5 65,-235.5 0,-235.5"/>
<text text-anchor="middle" x="32.5" y="-242.5" font-family="Helvetica,sans-Serif" font-size="10.00">TCanvas.h</text>
</g>
<!-- Node1&#45;&gt;Node2 -->
<g id="edge1" class="edge"><title>Node1&#45;&gt;Node2</title>
<path fill="none" stroke="midnightblue" d="M307.089,-291.486C249.256,-283.465 161.222,-270.616 74.9819,-254.99"/>
<polygon fill="midnightblue" stroke="midnightblue" points="75.4869,-251.524 65.0208,-253.171 74.2294,-258.41 75.4869,-251.524"/>
</g>
<!-- Node3 -->
<g id="node3" class="node"><title>Node3</title>
<polygon fill="none" stroke="#bfbfbf" points="83.5,-235.5 83.5,-254.5 127.5,-254.5 127.5,-235.5 83.5,-235.5"/>
<text text-anchor="middle" x="105.5" y="-242.5" font-family="Helvetica,sans-Serif" font-size="10.00">TH1.h</text>
</g>
<!-- Node1&#45;&gt;Node3 -->
<g id="edge2" class="edge"><title>Node1&#45;&gt;Node3</title>
<path fill="none" stroke="midnightblue" d="M318.62,-291.443C273.237,-283.638 205.37,-271.196 137.756,-255.133"/>
<polygon fill="midnightblue" stroke="midnightblue" points="138.326,-251.671 127.785,-252.737 136.691,-258.477 138.326,-251.671"/>
</g>
<!-- Node4 -->
<g id="node4" class="node"><title>Node4</title>
<polygon fill="none" stroke="#bfbfbf" points="145.5,-235.5 145.5,-254.5 195.5,-254.5 195.5,-235.5 145.5,-235.5"/>
<text text-anchor="middle" x="170.5" y="-242.5" font-family="Helvetica,sans-Serif" font-size="10.00">TH1F.h</text>
</g>
<!-- Node1&#45;&gt;Node4 -->
<g id="edge3" class="edge"><title>Node1&#45;&gt;Node4</title>
<path fill="none" stroke="midnightblue" d="M338.809,-291.444C302.565,-281.657 243.386,-265.679 205.725,-255.511"/>
<polygon fill="midnightblue" stroke="midnightblue" points="206.276,-252.034 195.71,-252.807 204.452,-258.792 206.276,-252.034"/>
</g>
<!-- Node5 -->
<g id="node5" class="node"><title>Node5</title>
<polygon fill="none" stroke="#bfbfbf" points="213.5,-235.5 213.5,-254.5 263.5,-254.5 263.5,-235.5 213.5,-235.5"/>
<text text-anchor="middle" x="238.5" y="-242.5" font-family="Helvetica,sans-Serif" font-size="10.00">TH2F.h</text>
</g>
<!-- Node1&#45;&gt;Node5 -->
<g id="edge4" class="edge"><title>Node1&#45;&gt;Node5</title>
<path fill="none" stroke="midnightblue" d="M349.584,-291.444C327.764,-282.517 293.35,-268.439 268.608,-258.317"/>
<polygon fill="midnightblue" stroke="midnightblue" points="269.899,-255.063 259.318,-254.516 267.248,-261.542 269.899,-255.063"/>
</g>
<!-- Node6 -->
<g id="node6" class="node"><title>Node6</title>
<polygon fill="none" stroke="#bfbfbf" points="282,-235.5 282,-254.5 329,-254.5 329,-235.5 282,-235.5"/>
<text text-anchor="middle" x="305.5" y="-242.5" font-family="Helvetica,sans-Serif" font-size="10.00">TH1I.h</text>
</g>
<!-- Node1&#45;&gt;Node6 -->
<g id="edge5" class="edge"><title>Node1&#45;&gt;Node6</title>
<path fill="none" stroke="midnightblue" d="M360.057,-291.324C350.354,-283.263 335.685,-271.077 324,-261.369"/>
<polygon fill="midnightblue" stroke="midnightblue" points="326.062,-258.532 316.133,-254.834 321.589,-263.916 326.062,-258.532"/>
</g>
<!-- Node7 -->
<g id="node7" class="node"><title>Node7</title>
<polygon fill="none" stroke="#bfbfbf" points="347,-235.5 347,-254.5 394,-254.5 394,-235.5 347,-235.5"/>
<text text-anchor="middle" x="370.5" y="-242.5" font-family="Helvetica,sans-Serif" font-size="10.00">TH2I.h</text>
</g>
<!-- Node1&#45;&gt;Node7 -->
<g id="edge6" class="edge"><title>Node1&#45;&gt;Node7</title>
<path fill="none" stroke="midnightblue" d="M370.5,-291.083C370.5,-284.006 370.5,-273.861 370.5,-264.986"/>
<polygon fill="midnightblue" stroke="midnightblue" points="374,-264.751 370.5,-254.751 367,-264.751 374,-264.751"/>
</g>
<!-- Node8 -->
<g id="node8" class="node"><title>Node8</title>
<polygon fill="none" stroke="#bfbfbf" points="412.5,-235.5 412.5,-254.5 502.5,-254.5 502.5,-235.5 412.5,-235.5"/>
<text text-anchor="middle" x="457.5" y="-242.5" font-family="Helvetica,sans-Serif" font-size="10.00">TOFBase/Digit.h</text>
</g>
<!-- Node1&#45;&gt;Node8 -->
<g id="edge7" class="edge"><title>Node1&#45;&gt;Node8</title>
<path fill="none" stroke="midnightblue" d="M384.478,-291.324C398.05,-282.9 418.88,-269.971 434.825,-260.074"/>
<polygon fill="midnightblue" stroke="midnightblue" points="436.906,-262.902 443.557,-254.655 433.214,-256.954 436.906,-262.902"/>
</g>
<!-- Node9 -->
<g id="node9" class="node"><title>Node9</title>
<polygon fill="none" stroke="#bfbfbf" points="520.5,-235.5 520.5,-254.5 608.5,-254.5 608.5,-235.5 520.5,-235.5"/>
<text text-anchor="middle" x="564.5" y="-242.5" font-family="Helvetica,sans-Serif" font-size="10.00">TOFBase/Geo.h</text>
</g>
<!-- Node1&#45;&gt;Node9 -->
<g id="edge8" class="edge"><title>Node1&#45;&gt;Node9</title>
<path fill="none" stroke="midnightblue" d="M401.24,-291.444C434.444,-282.201 487.491,-267.436 524.057,-257.257"/>
<polygon fill="midnightblue" stroke="midnightblue" points="525.209,-260.57 533.904,-254.516 523.332,-253.826 525.209,-260.57"/>
</g>
<!-- Node10 -->
<g id="node10" class="node"><title>Node10</title>
<polygon fill="none" stroke="#bfbfbf" points="626,-235.5 626,-254.5 723,-254.5 723,-235.5 626,-235.5"/>
<text text-anchor="middle" x="674.5" y="-242.5" font-family="Helvetica,sans-Serif" font-size="10.00">fairlogger/Logger.h</text>
</g>
<!-- Node1&#45;&gt;Node10 -->
<g id="edge9" class="edge"><title>Node1&#45;&gt;Node10</title>
<path fill="none" stroke="midnightblue" d="M418.67,-291.444C472.369,-281.905 559.186,-266.483 616.554,-256.293"/>
<polygon fill="midnightblue" stroke="midnightblue" points="617.322,-259.712 626.556,-254.516 616.098,-252.819 617.322,-259.712"/>
</g>
<!-- Node11 -->
<g id="node11" class="node"><title>Node11</title>
<g id="a_node11"><a xlink:href="QcInfoLogger_8h.html" target="_top" xlink:title="QualityControl/QcInfoLogger.h">
<polygon fill="none" stroke="black" points="593,-123.5 593,-142.5 742,-142.5 742,-123.5 593,-123.5"/>
<text text-anchor="middle" x="667.5" y="-130.5" font-family="Helvetica,sans-Serif" font-size="10.00">QualityControl/QcInfoLogger.h</text>
</a>
</g>
</g>
<!-- Node1&#45;&gt;Node11 -->
<g id="edge10" class="edge"><title>Node1&#45;&gt;Node11</title>
<path fill="none" stroke="midnightblue" d="M451.213,-295.545C552.193,-289.131 714.182,-275.736 732.5,-255 761.669,-221.98 714.876,-173.595 686.575,-149.224"/>
<polygon fill="midnightblue" stroke="midnightblue" points="688.743,-146.474 678.825,-142.746 684.254,-151.845 688.743,-146.474"/>
</g>
<!-- Node14 -->
<g id="node14" class="node"><title>Node14</title>
<g id="a_node14"><a xlink:href="TaskDigits_8h.html" target="_top" xlink:title="Task to monitor quantities in TOF digits in both data and MC. ">
<polygon fill="none" stroke="black" points="880,-235.5 880,-254.5 975,-254.5 975,-235.5 880,-235.5"/>
<text text-anchor="middle" x="927.5" y="-242.5" font-family="Helvetica,sans-Serif" font-size="10.00">TOF/TaskDigits.h</text>
</a>
</g>
</g>
<!-- Node1&#45;&gt;Node14 -->
<g id="edge13" class="edge"><title>Node1&#45;&gt;Node14</title>
<path fill="none" stroke="midnightblue" d="M451.195,-292.177C564.906,-281.153 769.544,-261.314 869.449,-251.628"/>
<polygon fill="midnightblue" stroke="midnightblue" points="870.038,-255.087 879.653,-250.639 869.362,-248.12 870.038,-255.087"/>
</g>
<!-- Node12 -->
<g id="node12" class="node"><title>Node12</title>
<polygon fill="none" stroke="#bfbfbf" points="435.5,-62 435.5,-81 565.5,-81 565.5,-62 435.5,-62"/>
<text text-anchor="middle" x="500.5" y="-69" font-family="Helvetica,sans-Serif" font-size="10.00">InfoLogger/InfoLogger.hxx</text>
</g>
<!-- Node11&#45;&gt;Node12 -->
<g id="edge11" class="edge"><title>Node11&#45;&gt;Node12</title>
<path fill="none" stroke="midnightblue" d="M643.573,-123.475C614.803,-113.225 566.344,-95.9593 533.898,-84.3994"/>
<polygon fill="midnightblue" stroke="midnightblue" points="534.977,-81.0684 524.383,-81.0091 532.628,-87.6624 534.977,-81.0684"/>
</g>
<!-- Node13 -->
<g id="node13" class="node"><title>Node13</title>
<polygon fill="none" stroke="#bfbfbf" points="583.5,-62 583.5,-81 745.5,-81 745.5,-62 583.5,-62"/>
<text text-anchor="middle" x="664.5" y="-69" font-family="Helvetica,sans-Serif" font-size="10.00">InfoLogger/InfoLoggerMacros.hxx</text>
</g>
<!-- Node11&#45;&gt;Node13 -->
<g id="edge12" class="edge"><title>Node11&#45;&gt;Node13</title>
<path fill="none" stroke="midnightblue" d="M667.07,-123.475C666.647,-115.08 665.986,-101.981 665.441,-91.1631"/>
<polygon fill="midnightblue" stroke="midnightblue" points="668.928,-90.8201 664.929,-81.0091 661.937,-91.1727 668.928,-90.8201"/>
</g>
<!-- Node15 -->
<g id="node15" class="node"><title>Node15</title>
<g id="a_node15"><a xlink:href="TaskInterface_8h.html" target="_top" xlink:title="QualityControl/TaskInterface.h">
<polygon fill="none" stroke="black" points="865.5,-179.5 865.5,-198.5 1015.5,-198.5 1015.5,-179.5 865.5,-179.5"/>
<text text-anchor="middle" x="940.5" y="-186.5" font-family="Helvetica,sans-Serif" font-size="10.00">QualityControl/TaskInterface.h</text>
</a>
</g>
</g>
<!-- Node14&#45;&gt;Node15 -->
<g id="edge14" class="edge"><title>Node14&#45;&gt;Node15</title>
<path fill="none" stroke="midnightblue" d="M929.647,-235.083C931.369,-227.927 933.847,-217.635 936,-208.691"/>
<polygon fill="midnightblue" stroke="midnightblue" points="939.455,-209.293 938.393,-198.751 932.65,-207.654 939.455,-209.293"/>
</g>
<!-- Node15&#45;&gt;Node11 -->
<g id="edge38" class="edge"><title>Node15&#45;&gt;Node11</title>
<path fill="none" stroke="midnightblue" d="M897.242,-179.444C849.319,-169.964 772.022,-154.675 720.5,-144.483"/>
<polygon fill="midnightblue" stroke="midnightblue" points="721.044,-141.023 710.555,-142.516 719.686,-147.89 721.044,-141.023"/>
</g>
<!-- Node16 -->
<g id="node16" class="node"><title>Node16</title>
<polygon fill="none" stroke="#bfbfbf" points="1626,-0.5 1626,-19.5 1661,-19.5 1661,-0.5 1626,-0.5"/>
<text text-anchor="middle" x="1643.5" y="-7.5" font-family="Helvetica,sans-Serif" font-size="10.00">map</text>
</g>
<!-- Node15&#45;&gt;Node16 -->
<g id="edge15" class="edge"><title>Node15&#45;&gt;Node16</title>
<path fill="none" stroke="midnightblue" d="M1015.57,-188.286C1183.98,-188.195 1580.61,-183.621 1624.5,-143 1655.7,-114.121 1651.92,-58.7574 1647.28,-29.7612"/>
<polygon fill="midnightblue" stroke="midnightblue" points="1650.69,-28.9509 1645.47,-19.7315 1643.81,-30.1942 1650.69,-28.9509"/>
</g>
<!-- Node17 -->
<g id="node17" class="node"><title>Node17</title>
<polygon fill="none" stroke="#bfbfbf" points="1000.5,-62 1000.5,-81 1052.5,-81 1052.5,-62 1000.5,-62"/>
<text text-anchor="middle" x="1026.5" y="-69" font-family="Helvetica,sans-Serif" font-size="10.00">memory</text>
</g>
<!-- Node15&#45;&gt;Node17 -->
<g id="edge16" class="edge"><title>Node15&#45;&gt;Node17</title>
<path fill="none" stroke="midnightblue" d="M918.041,-179.499C891.328,-168.083 852.373,-146.5 869.5,-123 896.897,-85.4075 952.752,-75.1904 989.91,-72.7429"/>
<polygon fill="midnightblue" stroke="midnightblue" points="990.508,-76.2176 1000.32,-72.2263 990.161,-69.2262 990.508,-76.2176"/>
</g>
<!-- Node18 -->
<g id="node18" class="node"><title>Node18</title>
<polygon fill="none" stroke="#bfbfbf" points="1281,-0.5 1281,-19.5 1322,-19.5 1322,-0.5 1281,-0.5"/>
<text text-anchor="middle" x="1301.5" y="-7.5" font-family="Helvetica,sans-Serif" font-size="10.00">string</text>
</g>
<!-- Node15&#45;&gt;Node18 -->
<g id="edge17" class="edge"><title>Node15&#45;&gt;Node18</title>
<path fill="none" stroke="midnightblue" d="M913.336,-179.425C884.402,-168.744 844.764,-148.722 860.5,-123 894.626,-67.2153 929.191,-75.8535 991.5,-56 1090.32,-24.5132 1213.94,-14.9658 1270.58,-12.1439"/>
<polygon fill="midnightblue" stroke="midnightblue" points="1270.84,-15.6356 1280.67,-11.678 1270.51,-8.64306 1270.84,-15.6356"/>
</g>
<!-- Node19 -->
<g id="node19" class="node"><title>Node19</title>
<polygon fill="none" stroke="#bfbfbf" points="956,-0.5 956,-19.5 1039,-19.5 1039,-0.5 956,-0.5"/>
<text text-anchor="middle" x="997.5" y="-7.5" font-family="Helvetica,sans-Serif" font-size="10.00">unordered_map</text>
</g>
<!-- Node15&#45;&gt;Node19 -->
<g id="edge18" class="edge"><title>Node15&#45;&gt;Node19</title>
<path fill="none" stroke="midnightblue" d="M865.312,-182.153C839.604,-176.12 813.358,-164.614 797.5,-143 774.627,-111.824 773.345,-86.1936 797.5,-56 815.738,-33.2024 892.742,-21.1433 945.699,-15.422"/>
<polygon fill="midnightblue" stroke="midnightblue" points="946.359,-18.8724 955.946,-14.3609 945.638,-11.9097 946.359,-18.8724"/>
</g>
<!-- Node20 -->
<g id="node20" class="node"><title>Node20</title>
<polygon fill="none" stroke="#bfbfbf" points="878,-123.5 878,-142.5 1003,-142.5 1003,-123.5 878,-123.5"/>
<text text-anchor="middle" x="940.5" y="-130.5" font-family="Helvetica,sans-Serif" font-size="10.00">Framework/InitContext.h</text>
</g>
<!-- Node15&#45;&gt;Node20 -->
<g id="edge19" class="edge"><title>Node15&#45;&gt;Node20</title>
<path fill="none" stroke="midnightblue" d="M940.5,-179.083C940.5,-172.006 940.5,-161.861 940.5,-152.986"/>
<polygon fill="midnightblue" stroke="midnightblue" points="944,-152.751 940.5,-142.751 937,-152.751 944,-152.751"/>
</g>
<!-- Node21 -->
<g id="node21" class="node"><title>Node21</title>
<polygon fill="none" stroke="#bfbfbf" points="1021.5,-123.5 1021.5,-142.5 1181.5,-142.5 1181.5,-123.5 1021.5,-123.5"/>
<text text-anchor="middle" x="1101.5" y="-130.5" font-family="Helvetica,sans-Serif" font-size="10.00">Framework/ProcessingContext.h</text>
</g>
<!-- Node15&#45;&gt;Node21 -->
<g id="edge20" class="edge"><title>Node15&#45;&gt;Node21</title>
<path fill="none" stroke="midnightblue" d="M966.011,-179.444C993.096,-170.359 1036.09,-155.939 1066.37,-145.783"/>
<polygon fill="midnightblue" stroke="midnightblue" points="1067.74,-149.015 1076.11,-142.516 1065.51,-142.378 1067.74,-149.015"/>
</g>
<!-- Node22 -->
<g id="node22" class="node"><title>Node22</title>
<polygon fill="none" stroke="#bfbfbf" points="1200,-123.5 1200,-142.5 1295,-142.5 1295,-123.5 1200,-123.5"/>
<text text-anchor="middle" x="1247.5" y="-130.5" font-family="Helvetica,sans-Serif" font-size="10.00">CCDB/CcdbApi.h</text>
</g>
<!-- Node15&#45;&gt;Node22 -->
<g id="edge21" class="edge"><title>Node15&#45;&gt;Node22</title>
<path fill="none" stroke="midnightblue" d="M989.145,-179.444C1043.61,-169.863 1131.82,-154.347 1189.75,-144.158"/>
<polygon fill="midnightblue" stroke="midnightblue" points="1190.6,-147.563 1199.84,-142.383 1189.38,-140.669 1190.6,-147.563"/>
</g>
<!-- Node23 -->
<g id="node23" class="node"><title>Node23</title>
<g id="a_node23"><a xlink:href="Activity_8h.html" target="_top" xlink:title="QualityControl/Activity.h">
<polygon fill="none" stroke="black" points="1313,-123.5 1313,-142.5 1436,-142.5 1436,-123.5 1313,-123.5"/>
<text text-anchor="middle" x="1374.5" y="-130.5" font-family="Helvetica,sans-Serif" font-size="10.00">QualityControl/Activity.h</text>
</a>
</g>
</g>
<!-- Node15&#45;&gt;Node23 -->
<g id="edge22" class="edge"><title>Node15&#45;&gt;Node23</title>
<path fill="none" stroke="midnightblue" d="M1010.29,-179.474C1081.36,-170.769 1195.02,-156.784 1302.61,-143.234"/>
<polygon fill="midnightblue" stroke="midnightblue" points="1303.18,-146.69 1312.67,-141.967 1302.31,-139.745 1303.18,-146.69"/>
</g>
<!-- Node24 -->
<g id="node24" class="node"><title>Node24</title>
<g id="a_node24"><a xlink:href="ObjectsManager_8h.html" target="_top" xlink:title="QualityControl/ObjectsManager.h">
<polygon fill="none" stroke="black" points="1454,-123.5 1454,-142.5 1615,-142.5 1615,-123.5 1454,-123.5"/>
<text text-anchor="middle" x="1534.5" y="-130.5" font-family="Helvetica,sans-Serif" font-size="10.00">QualityControl/ObjectsManager.h</text>
</a>
</g>
</g>
<!-- Node15&#45;&gt;Node24 -->
<g id="edge23" class="edge"><title>Node15&#45;&gt;Node24</title>
<path fill="none" stroke="midnightblue" d="M1015.82,-181.57C1112.41,-173.261 1285.4,-158.168 1443.58,-143.174"/>
<polygon fill="midnightblue" stroke="midnightblue" points="1444.35,-146.616 1453.97,-142.186 1443.69,-139.648 1444.35,-146.616"/>
</g>
<!-- Node24&#45;&gt;Node17 -->
<g id="edge37" class="edge"><title>Node24&#45;&gt;Node17</title>
<path fill="none" stroke="midnightblue" d="M1461.72,-123.475C1351.35,-110.548 1145.73,-86.4647 1062.68,-76.7376"/>
<polygon fill="midnightblue" stroke="midnightblue" points="1063.05,-73.2574 1052.71,-75.5703 1062.24,-80.2099 1063.05,-73.2574"/>
</g>
<!-- Node24&#45;&gt;Node18 -->
<g id="edge36" class="edge"><title>Node24&#45;&gt;Node18</title>
<path fill="none" stroke="midnightblue" d="M1516.41,-123.413C1497.79,-114.508 1467.96,-100.083 1442.5,-87 1401.35,-65.8543 1354.13,-40.0918 1326.11,-24.6459"/>
<polygon fill="midnightblue" stroke="midnightblue" points="1327.49,-21.4088 1317.04,-19.6373 1324.1,-27.5361 1327.49,-21.4088"/>
</g>
<!-- Node25 -->
<g id="node25" class="node"><title>Node25</title>
<g id="a_node25"><a xlink:href="MonitorObject_8h.html" target="_top" xlink:title="QualityControl/MonitorObject.h">
<polygon fill="none" stroke="black" points="1451,-62 1451,-81 1602,-81 1602,-62 1451,-62"/>
<text text-anchor="middle" x="1526.5" y="-69" font-family="Helvetica,sans-Serif" font-size="10.00">QualityControl/MonitorObject.h</text>
</a>
</g>
</g>
<!-- Node24&#45;&gt;Node25 -->
<g id="edge24" class="edge"><title>Node24&#45;&gt;Node25</title>
<path fill="none" stroke="midnightblue" d="M1533.35,-123.475C1532.23,-115.08 1530.46,-101.981 1529.01,-91.1631"/>
<polygon fill="midnightblue" stroke="midnightblue" points="1532.45,-90.4535 1527.64,-81.0091 1525.51,-91.3863 1532.45,-90.4535"/>
</g>
<!-- Node29 -->
<g id="node29" class="node"><title>Node29</title>
<g id="a_node29"><a xlink:href="MonitorObjectCollection_8h.html" target="_top" xlink:title="QualityControl/MonitorObject\lCollection.h">
<polygon fill="none" stroke="black" points="1672,-56.5 1672,-86.5 1815,-86.5 1815,-56.5 1672,-56.5"/>
<text text-anchor="start" x="1680" y="-74.5" font-family="Helvetica,sans-Serif" font-size="10.00">QualityControl/MonitorObject</text>
<text text-anchor="middle" x="1743.5" y="-63.5" font-family="Helvetica,sans-Serif" font-size="10.00">Collection.h</text>
</a>
</g>
</g>
<!-- Node24&#45;&gt;Node29 -->
<g id="edge30" class="edge"><title>Node24&#45;&gt;Node29</title>
<path fill="none" stroke="midnightblue" d="M1564.44,-123.475C1595.66,-114.588 1645.4,-100.429 1684.54,-89.2859"/>
<polygon fill="midnightblue" stroke="midnightblue" points="1685.58,-92.6274 1694.24,-86.523 1683.67,-85.8949 1685.58,-92.6274"/>
</g>
<!-- Node32 -->
<g id="node32" class="node"><title>Node32</title>
<g id="a_node32"><a xlink:href="TaskConfig_8h.html" target="_top" xlink:title="QualityControl/TaskConfig.h">
<polygon fill="none" stroke="black" points="1231.5,-62 1231.5,-81 1371.5,-81 1371.5,-62 1231.5,-62"/>
<text text-anchor="middle" x="1301.5" y="-69" font-family="Helvetica,sans-Serif" font-size="10.00">QualityControl/TaskConfig.h</text>
</a>
</g>
</g>
<!-- Node24&#45;&gt;Node32 -->
<g id="edge33" class="edge"><title>Node24&#45;&gt;Node32</title>
<path fill="none" stroke="midnightblue" d="M1501.12,-123.475C1459.94,-112.959 1389.85,-95.0615 1344.63,-83.5142"/>
<polygon fill="midnightblue" stroke="midnightblue" points="1345.38,-80.0922 1334.82,-81.0091 1343.64,-86.8746 1345.38,-80.0922"/>
</g>
<!-- Node25&#45;&gt;Node16 -->
<g id="edge26" class="edge"><title>Node25&#45;&gt;Node16</title>
<path fill="none" stroke="midnightblue" d="M1543.26,-61.9751C1562.72,-52.078 1595.05,-35.6416 1617.71,-24.1151"/>
<polygon fill="midnightblue" stroke="midnightblue" points="1619.44,-27.1619 1626.77,-19.5091 1616.27,-20.9224 1619.44,-27.1619"/>
</g>
<!-- Node25&#45;&gt;Node18 -->
<g id="edge25" class="edge"><title>Node25&#45;&gt;Node18</title>
<path fill="none" stroke="midnightblue" d="M1491.87,-61.9556C1454.79,-52.7114 1393.98,-37.2882 1332.07,-20.0774"/>
<polygon fill="midnightblue" stroke="midnightblue" points="1332.7,-16.6194 1322.13,-17.3005 1330.82,-23.3614 1332.7,-16.6194"/>
</g>
<!-- Node26 -->
<g id="node26" class="node"><title>Node26</title>
<polygon fill="none" stroke="#bfbfbf" points="1551.5,-0.5 1551.5,-19.5 1607.5,-19.5 1607.5,-0.5 1551.5,-0.5"/>
<text text-anchor="middle" x="1579.5" y="-7.5" font-family="Helvetica,sans-Serif" font-size="10.00">Rtypes.h</text>
</g>
<!-- Node25&#45;&gt;Node26 -->
<g id="edge27" class="edge"><title>Node25&#45;&gt;Node26</title>
<path fill="none" stroke="midnightblue" d="M1534.09,-61.9751C1542.2,-52.8733 1555.23,-38.241 1565.26,-26.983"/>
<polygon fill="midnightblue" stroke="midnightblue" points="1567.88,-29.3043 1571.92,-19.5091 1562.66,-24.6483 1567.88,-29.3043"/>
</g>
<!-- Node27 -->
<g id="node27" class="node"><title>Node27</title>
<polygon fill="none" stroke="#bfbfbf" points="1340,-0.5 1340,-19.5 1399,-19.5 1399,-0.5 1340,-0.5"/>
<text text-anchor="middle" x="1369.5" y="-7.5" font-family="Helvetica,sans-Serif" font-size="10.00">TObject.h</text>
</g>
<!-- Node25&#45;&gt;Node27 -->
<g id="edge28" class="edge"><title>Node25&#45;&gt;Node27</title>
<path fill="none" stroke="midnightblue" d="M1504.01,-61.9751C1477.19,-51.8129 1432.18,-34.7564 1401.69,-23.1996"/>
<polygon fill="midnightblue" stroke="midnightblue" points="1402.54,-19.7801 1391.95,-19.5091 1400.06,-26.3258 1402.54,-19.7801"/>
</g>
<!-- Node28 -->
<g id="node28" class="node"><title>Node28</title>
<polygon fill="none" stroke="#bfbfbf" points="1417.5,-0.5 1417.5,-19.5 1533.5,-19.5 1533.5,-0.5 1417.5,-0.5"/>
<text text-anchor="middle" x="1475.5" y="-7.5" font-family="Helvetica,sans-Serif" font-size="10.00">Common/Exceptions.h</text>
</g>
<!-- Node25&#45;&gt;Node28 -->
<g id="edge29" class="edge"><title>Node25&#45;&gt;Node28</title>
<path fill="none" stroke="midnightblue" d="M1519.19,-61.9751C1511.47,-52.9617 1499.09,-38.5246 1489.48,-27.3118"/>
<polygon fill="midnightblue" stroke="midnightblue" points="1491.96,-24.8239 1482.79,-19.5091 1486.64,-29.3795 1491.96,-24.8239"/>
</g>
<!-- Node30 -->
<g id="node30" class="node"><title>Node30</title>
<polygon fill="none" stroke="#bfbfbf" points="1826,-0.5 1826,-19.5 1895,-19.5 1895,-0.5 1826,-0.5"/>
<text text-anchor="middle" x="1860.5" y="-7.5" font-family="Helvetica,sans-Serif" font-size="10.00">TObjArray.h</text>
</g>
<!-- Node29&#45;&gt;Node30 -->
<g id="edge31" class="edge"><title>Node29&#45;&gt;Node30</title>
<path fill="none" stroke="midnightblue" d="M1771.23,-56.3993C1790.33,-46.6837 1815.56,-33.8551 1834.32,-24.3137"/>
<polygon fill="midnightblue" stroke="midnightblue" points="1836.15,-27.3106 1843.48,-19.6578 1832.98,-21.071 1836.15,-27.3106"/>
</g>
<!-- Node31 -->
<g id="node31" class="node"><title>Node31</title>
<polygon fill="none" stroke="#bfbfbf" points="1679.5,-0.5 1679.5,-19.5 1807.5,-19.5 1807.5,-0.5 1679.5,-0.5"/>
<text text-anchor="middle" x="1743.5" y="-7.5" font-family="Helvetica,sans-Serif" font-size="10.00">Mergers/MergeInterface.h</text>
</g>
<!-- Node29&#45;&gt;Node31 -->
<g id="edge32" class="edge"><title>Node29&#45;&gt;Node31</title>
<path fill="none" stroke="midnightblue" d="M1743.5,-56.3993C1743.5,-48.4664 1743.5,-38.458 1743.5,-29.8583"/>
<polygon fill="midnightblue" stroke="midnightblue" points="1747,-29.6577 1743.5,-19.6578 1740,-29.6578 1747,-29.6577"/>
</g>
<!-- Node32&#45;&gt;Node18 -->
<g id="edge34" class="edge"><title>Node32&#45;&gt;Node18</title>
<path fill="none" stroke="midnightblue" d="M1301.5,-61.9751C1301.5,-53.5803 1301.5,-40.4806 1301.5,-29.6631"/>
<polygon fill="midnightblue" stroke="midnightblue" points="1305,-29.5091 1301.5,-19.5091 1298,-29.5091 1305,-29.5091"/>
</g>
<!-- Node32&#45;&gt;Node19 -->
<g id="edge35" class="edge"><title>Node32&#45;&gt;Node19</title>
<path fill="none" stroke="midnightblue" d="M1257.94,-61.9751C1202.81,-51.1836 1107.95,-32.6173 1049.2,-21.1186"/>
<polygon fill="midnightblue" stroke="midnightblue" points="1049.51,-17.6131 1039.02,-19.1271 1048.16,-24.4828 1049.51,-17.6131"/>
</g>
</g>
</svg>
