<?xml version="1.0" encoding="UTF-8" standalone="no"?>
<!DOCTYPE svg PUBLIC "-//W3C//DTD SVG 1.1//EN"
 "http://www.w3.org/Graphics/SVG/1.1/DTD/svg11.dtd">
<!-- Generated by graphviz version 2.38.0 (20140413.2041)
 -->
<!-- Title: Framework/src/TaskRunner.cxx Pages: 1 -->
<!--zoomable 341 -->
<svg id="main" version="1.1" xmlns="http://www.w3.org/2000/svg" xmlns:xlink="http://www.w3.org/1999/xlink" xml:space="preserve" onload="init(evt)">
<style type="text/css"><![CDATA[
.edge:hover path { stroke: red; }
.edge:hover polygon { stroke: red; fill: red; }
]]></style>
<script type="text/javascript"><![CDATA[
var edges = document.getElementsByTagName('g');
if (edges && edges.length) {
  for (var i=0;i<edges.length;i++) {
    if (edges[i].id.substr(0,4)=='edge') {
      edges[i].setAttribute('class','edge');
    }
  }
}
]]></script>
        <defs>
                <circle id="rim" cx="0" cy="0" r="7"/>
                <circle id="rim2" cx="0" cy="0" r="3.5"/>
                <g id="zoomPlus">
                        <use xlink:href="#rim" fill="#404040">
                                <set attributeName="fill" to="#808080" begin="zoomplus.mouseover" end="zoomplus.mouseout"/>
                        </use>
                        <path d="M-4,0h8M0,-4v8" fill="none" stroke="white" stroke-width="1.5" pointer-events="none"/>
                </g>
                <g id="zoomMin">
                        <use xlink:href="#rim" fill="#404040">
                                <set attributeName="fill" to="#808080" begin="zoomminus.mouseover" end="zoomminus.mouseout"/>
                        </use>
                        <path d="M-4,0h8" fill="none" stroke="white" stroke-width="1.5" pointer-events="none"/>
                </g>
                <g id="dirArrow">
                        <path fill="none" stroke="white" stroke-width="1.5" d="M0,-3.0v7 M-2.5,-0.5L0,-3.0L2.5,-0.5"/>
                </g>
               <g id="resetDef">
                       <use xlink:href="#rim2" fill="#404040">
                               <set attributeName="fill" to="#808080" begin="reset.mouseover" end="reset.mouseout"/>
                       </use>
               </g>
        </defs>

<script type="text/javascript">
var viewWidth = 4131;
var viewHeight = 341;
var sectionId = 'dynsection-0';
</script>
<script xlink:href="svgpan.js"/>
<svg id="graph" class="graph">
<g id="viewport">
<title>Framework/src/TaskRunner.cxx</title>
<!-- Node1 -->
<g id="node1" class="node"><title>Node1</title>
<polygon fill="#bfbfbf" stroke="black" points="2685.48,-313.5 2685.48,-332.5 2842.48,-332.5 2842.48,-313.5 2685.48,-313.5"/>
<text text-anchor="middle" x="2763.98" y="-320.5" font-family="Helvetica,sans-Serif" font-size="10.00">Framework/src/TaskRunner.cxx</text>
</g>
<!-- Node2 -->
<g id="node2" class="node"><title>Node2</title>
<g id="a_node2"><a xlink:href="TaskRunner_8h.html" target="_top" xlink:title="QualityControl/TaskRunner.h">
<polygon fill="none" stroke="black" points="528.484,-252 528.484,-271 671.484,-271 671.484,-252 528.484,-252"/>
<text text-anchor="middle" x="599.984" y="-259" font-family="Helvetica,sans-Serif" font-size="10.00">QualityControl/TaskRunner.h</text>
</a>
</g>
</g>
<!-- Node1&#45;&gt;Node2 -->
<g id="edge1" class="edge"><title>Node1&#45;&gt;Node2</title>
<path fill="none" stroke="midnightblue" d="M2685.26,-319.889C2447.67,-313.511 1716.86,-293.843 1110.98,-277 959.384,-272.786 782.489,-267.737 681.615,-264.845"/>
<polygon fill="midnightblue" stroke="midnightblue" points="681.592,-261.343 671.496,-264.555 681.391,-268.34 681.592,-261.343"/>
</g>
<!-- Node12 -->
<g id="node12" class="node"><title>Node12</title>
<polygon fill="none" stroke="#bfbfbf" points="1709.48,-0.5 1709.48,-19.5 1750.48,-19.5 1750.48,-0.5 1709.48,-0.5"/>
<text text-anchor="middle" x="1729.98" y="-7.5" font-family="Helvetica,sans-Serif" font-size="10.00">string</text>
</g>
<!-- Node1&#45;&gt;Node12 -->
<g id="edge56" class="edge"><title>Node1&#45;&gt;Node12</title>
<path fill="none" stroke="midnightblue" d="M2685.33,-322.031C2524.35,-321.252 2145.93,-315.108 1830.98,-277 1522.15,-239.631 1341.78,-383.107 1143.98,-143 1138.33,-136.139 1138.32,-129.85 1143.98,-123 1153.07,-112.019 1579.73,-37.1256 1699.19,-16.3402"/>
<polygon fill="midnightblue" stroke="midnightblue" points="1699.9,-19.7703 1709.15,-14.6093 1698.7,-12.8737 1699.9,-19.7703"/>
</g>
<!-- Node16 -->
<g id="node16" class="node"><title>Node16</title>
<polygon fill="none" stroke="#bfbfbf" points="2164.98,-62 2164.98,-81 2216.98,-81 2216.98,-62 2164.98,-62"/>
<text text-anchor="middle" x="2190.98" y="-69" font-family="Helvetica,sans-Serif" font-size="10.00">memory</text>
</g>
<!-- Node1&#45;&gt;Node16 -->
<g id="edge38" class="edge"><title>Node1&#45;&gt;Node16</title>
<path fill="none" stroke="midnightblue" d="M2685.04,-322.537C2570.06,-321.96 2363.42,-315.383 2300.98,-277 2232.09,-234.646 2203.62,-133.095 2194.53,-91.1312"/>
<polygon fill="midnightblue" stroke="midnightblue" points="2197.93,-90.282 2192.5,-81.1832 2191.07,-91.6809 2197.93,-90.282"/>
</g>
<!-- Node24 -->
<g id="node24" class="node"><title>Node24</title>
<polygon fill="none" stroke="#bfbfbf" points="2378.98,-0.5 2378.98,-19.5 2494.98,-19.5 2494.98,-0.5 2378.98,-0.5"/>
<text text-anchor="middle" x="2436.98" y="-7.5" font-family="Helvetica,sans-Serif" font-size="10.00">Common/Exceptions.h</text>
</g>
<!-- Node1&#45;&gt;Node24 -->
<g id="edge39" class="edge"><title>Node1&#45;&gt;Node24</title>
<path fill="none" stroke="midnightblue" d="M2685.18,-318.846C2573.02,-313.536 2378.44,-300.964 2356.98,-277 2347.79,-266.736 2351.04,-258.431 2356.98,-246 2405.51,-144.484 2505.46,-188.516 2553.98,-87 2559.93,-74.5692 2561.78,-67.3572 2553.98,-56 2542.5,-39.272 2523.85,-28.7599 2504.79,-22.1547"/>
<polygon fill="midnightblue" stroke="midnightblue" points="2505.72,-18.7769 2495.13,-19.1304 2503.63,-25.4574 2505.72,-18.7769"/>
</g>
<!-- Node28 -->
<g id="node28" class="node"><title>Node28</title>
<g id="a_node28"><a xlink:href="QcInfoLogger_8h.html" target="_top" xlink:title="QualityControl/QcInfoLogger.h">
<polygon fill="none" stroke="black" points="2225.48,-123.5 2225.48,-142.5 2374.48,-142.5 2374.48,-123.5 2225.48,-123.5"/>
<text text-anchor="middle" x="2299.98" y="-130.5" font-family="Helvetica,sans-Serif" font-size="10.00">QualityControl/QcInfoLogger.h</text>
</a>
</g>
</g>
<!-- Node1&#45;&gt;Node28 -->
<g id="edge51" class="edge"><title>Node1&#45;&gt;Node28</title>
<path fill="none" stroke="midnightblue" d="M2685.26,-319.057C2565.78,-313.837 2349.75,-301.16 2323.98,-277 2289.79,-244.937 2292.64,-183.859 2296.74,-152.94"/>
<polygon fill="midnightblue" stroke="midnightblue" points="2300.25,-153.102 2298.3,-142.69 2293.33,-152.051 2300.25,-153.102"/>
</g>
<!-- Node31 -->
<g id="node31" class="node"><title>Node31</title>
<polygon fill="none" stroke="#bfbfbf" points="2366.48,-246.5 2366.48,-276.5 2501.48,-276.5 2501.48,-246.5 2366.48,-246.5"/>
<text text-anchor="start" x="2374.48" y="-264.5" font-family="Helvetica,sans-Serif" font-size="10.00">Configuration/Configuration</text>
<text text-anchor="middle" x="2433.98" y="-253.5" font-family="Helvetica,sans-Serif" font-size="10.00">Factory.h</text>
</g>
<!-- Node1&#45;&gt;Node31 -->
<g id="edge40" class="edge"><title>Node1&#45;&gt;Node31</title>
<path fill="none" stroke="midnightblue" d="M2714.78,-313.481C2665.79,-304.953 2588.15,-291.321 2511.79,-277.321"/>
<polygon fill="midnightblue" stroke="midnightblue" points="2511.99,-273.798 2501.52,-275.433 2510.72,-280.683 2511.99,-273.798"/>
</g>
<!-- Node32 -->
<g id="node32" class="node"><title>Node32</title>
<polygon fill="none" stroke="#bfbfbf" points="2519.48,-252 2519.48,-271 2670.48,-271 2670.48,-252 2519.48,-252"/>
<text text-anchor="middle" x="2594.98" y="-259" font-family="Helvetica,sans-Serif" font-size="10.00">Monitoring/MonitoringFactory.h</text>
</g>
<!-- Node1&#45;&gt;Node32 -->
<g id="edge41" class="edge"><title>Node1&#45;&gt;Node32</title>
<path fill="none" stroke="midnightblue" d="M2739.77,-313.475C2710.66,-303.225 2661.62,-285.959 2628.78,-274.399"/>
<polygon fill="midnightblue" stroke="midnightblue" points="2629.75,-271.029 2619.15,-271.009 2627.42,-277.631 2629.75,-271.029"/>
</g>
<!-- Node33 -->
<g id="node33" class="node"><title>Node33</title>
<polygon fill="none" stroke="#bfbfbf" points="2688.48,-252 2688.48,-271 2839.48,-271 2839.48,-252 2688.48,-252"/>
<text text-anchor="middle" x="2763.98" y="-259" font-family="Helvetica,sans-Serif" font-size="10.00">DataSampling/DataSampling.h</text>
</g>
<!-- Node1&#45;&gt;Node33 -->
<g id="edge42" class="edge"><title>Node1&#45;&gt;Node33</title>
<path fill="none" stroke="midnightblue" d="M2763.98,-313.475C2763.98,-305.08 2763.98,-291.981 2763.98,-281.163"/>
<polygon fill="midnightblue" stroke="midnightblue" points="2767.48,-281.009 2763.98,-271.009 2760.48,-281.009 2767.48,-281.009"/>
</g>
<!-- Node34 -->
<g id="node34" class="node"><title>Node34</title>
<polygon fill="none" stroke="#bfbfbf" points="2857.98,-252 2857.98,-271 3005.98,-271 3005.98,-252 2857.98,-252"/>
<text text-anchor="middle" x="2931.98" y="-259" font-family="Helvetica,sans-Serif" font-size="10.00">Framework/CallbackService.h</text>
</g>
<!-- Node1&#45;&gt;Node34 -->
<g id="edge43" class="edge"><title>Node1&#45;&gt;Node34</title>
<path fill="none" stroke="midnightblue" d="M2788.05,-313.475C2817,-303.225 2865.75,-285.959 2898.39,-274.399"/>
<polygon fill="midnightblue" stroke="midnightblue" points="2899.7,-277.647 2907.96,-271.009 2897.36,-271.048 2899.7,-277.647"/>
</g>
<!-- Node35 -->
<g id="node35" class="node"><title>Node35</title>
<polygon fill="none" stroke="#bfbfbf" points="3024.48,-246.5 3024.48,-276.5 3169.48,-276.5 3169.48,-246.5 3024.48,-246.5"/>
<text text-anchor="start" x="3032.48" y="-264.5" font-family="Helvetica,sans-Serif" font-size="10.00">Framework/CompletionPolicy</text>
<text text-anchor="middle" x="3096.98" y="-253.5" font-family="Helvetica,sans-Serif" font-size="10.00">Helpers.h</text>
</g>
<!-- Node1&#45;&gt;Node35 -->
<g id="edge44" class="edge"><title>Node1&#45;&gt;Node35</title>
<path fill="none" stroke="midnightblue" d="M2811.7,-313.475C2864.44,-304.05 2950.38,-288.695 3014.17,-277.297"/>
<polygon fill="midnightblue" stroke="midnightblue" points="3014.98,-280.707 3024.21,-275.503 3013.75,-273.817 3014.98,-280.707"/>
</g>
<!-- Node36 -->
<g id="node36" class="node"><title>Node36</title>
<polygon fill="none" stroke="#bfbfbf" points="3187.48,-252 3187.48,-271 3330.48,-271 3330.48,-252 3187.48,-252"/>
<text text-anchor="middle" x="3258.98" y="-259" font-family="Helvetica,sans-Serif" font-size="10.00">Framework/TimesliceIndex.h</text>
</g>
<!-- Node1&#45;&gt;Node36 -->
<g id="edge45" class="edge"><title>Node1&#45;&gt;Node36</title>
<path fill="none" stroke="midnightblue" d="M2842.78,-315.063C2926.23,-307.337 3061.69,-293.709 3177.98,-277 3186.61,-275.76 3195.73,-274.287 3204.62,-272.763"/>
<polygon fill="midnightblue" stroke="midnightblue" points="3205.26,-276.203 3214.51,-271.03 3204.06,-269.308 3205.26,-276.203"/>
</g>
<!-- Node37 -->
<g id="node37" class="node"><title>Node37</title>
<polygon fill="none" stroke="#bfbfbf" points="3348.98,-252 3348.98,-271 3488.98,-271 3488.98,-252 3348.98,-252"/>
<text text-anchor="middle" x="3418.98" y="-259" font-family="Helvetica,sans-Serif" font-size="10.00">Framework/DataSpecUtils.h</text>
</g>
<!-- Node1&#45;&gt;Node37 -->
<g id="edge46" class="edge"><title>Node1&#45;&gt;Node37</title>
<path fill="none" stroke="midnightblue" d="M2842.51,-318.446C2953.63,-312.832 3162.94,-300.1 3339.98,-277 3348.72,-275.86 3357.97,-274.398 3366.93,-272.844"/>
<polygon fill="midnightblue" stroke="midnightblue" points="3367.66,-276.269 3376.88,-271.062 3366.42,-269.379 3367.66,-276.269"/>
</g>
<!-- Node38 -->
<g id="node38" class="node"><title>Node38</title>
<polygon fill="none" stroke="#bfbfbf" points="3506.98,-246.5 3506.98,-276.5 3640.98,-276.5 3640.98,-246.5 3506.98,-246.5"/>
<text text-anchor="start" x="3514.98" y="-264.5" font-family="Helvetica,sans-Serif" font-size="10.00">Framework/DataDescriptor</text>
<text text-anchor="middle" x="3573.98" y="-253.5" font-family="Helvetica,sans-Serif" font-size="10.00">QueryBuilder.h</text>
</g>
<!-- Node1&#45;&gt;Node38 -->
<g id="edge47" class="edge"><title>Node1&#45;&gt;Node38</title>
<path fill="none" stroke="midnightblue" d="M2842.5,-320.463C2975.29,-317.142 3252.75,-307.095 3496.79,-277.036"/>
<polygon fill="midnightblue" stroke="midnightblue" points="3497.43,-280.484 3506.92,-275.775 3496.57,-273.537 3497.43,-280.484"/>
</g>
<!-- Node39 -->
<g id="node39" class="node"><title>Node39</title>
<polygon fill="none" stroke="#bfbfbf" points="3658.98,-252 3658.98,-271 3828.98,-271 3828.98,-252 3658.98,-252"/>
<text text-anchor="middle" x="3743.98" y="-259" font-family="Helvetica,sans-Serif" font-size="10.00">Framework/ConfigParamRegistry.h</text>
</g>
<!-- Node1&#45;&gt;Node39 -->
<g id="edge48" class="edge"><title>Node1&#45;&gt;Node39</title>
<path fill="none" stroke="midnightblue" d="M2842.71,-320.702C2997.65,-317.551 3352.93,-307.374 3649.98,-277 3661.29,-275.844 3673.31,-274.261 3684.85,-272.565"/>
<polygon fill="midnightblue" stroke="midnightblue" points="3685.47,-276.011 3694.83,-271.052 3684.42,-269.09 3685.47,-276.011"/>
</g>
<!-- Node40 -->
<g id="node40" class="node"><title>Node40</title>
<polygon fill="none" stroke="#bfbfbf" points="3847.48,-252 3847.48,-271 4008.48,-271 4008.48,-252 3847.48,-252"/>
<text text-anchor="middle" x="3927.98" y="-259" font-family="Helvetica,sans-Serif" font-size="10.00">Framework/InputRecordWalker.h</text>
</g>
<!-- Node1&#45;&gt;Node40 -->
<g id="edge49" class="edge"><title>Node1&#45;&gt;Node40</title>
<path fill="none" stroke="midnightblue" d="M2842.7,-321.872C3020.56,-320.891 3466.87,-314.538 3837.98,-277 3848.83,-275.903 3860.36,-274.345 3871.42,-272.655"/>
<polygon fill="midnightblue" stroke="midnightblue" points="3872.08,-276.095 3881.41,-271.076 3870.99,-269.181 3872.08,-276.095"/>
</g>
<!-- Node41 -->
<g id="node41" class="node"><title>Node41</title>
<polygon fill="none" stroke="#bfbfbf" points="4026.48,-252 4026.48,-271 4123.48,-271 4123.48,-252 4026.48,-252"/>
<text text-anchor="middle" x="4074.98" y="-259" font-family="Helvetica,sans-Serif" font-size="10.00">fairlogger/Logger.h</text>
</g>
<!-- Node1&#45;&gt;Node41 -->
<g id="edge50" class="edge"><title>Node1&#45;&gt;Node41</title>
<path fill="none" stroke="midnightblue" d="M2842.55,-321.371C3080.27,-319.122 3789.54,-309.772 4017.98,-277 4024.01,-276.136 4030.31,-274.889 4036.44,-273.484"/>
<polygon fill="midnightblue" stroke="midnightblue" points="4037.64,-276.794 4046.52,-271.009 4035.97,-269.996 4037.64,-276.794"/>
</g>
<!-- Node42 -->
<g id="node42" class="node"><title>Node42</title>
<g id="a_node42"><a xlink:href="TaskFactory_8h.html" target="_top" xlink:title="QualityControl/TaskFactory.h">
<polygon fill="none" stroke="black" points="1840.48,-252 1840.48,-271 1985.48,-271 1985.48,-252 1840.48,-252"/>
<text text-anchor="middle" x="1912.98" y="-259" font-family="Helvetica,sans-Serif" font-size="10.00">QualityControl/TaskFactory.h</text>
</a>
</g>
</g>
<!-- Node1&#45;&gt;Node42 -->
<g id="edge52" class="edge"><title>Node1&#45;&gt;Node42</title>
<path fill="none" stroke="midnightblue" d="M2685.45,-316.509C2524.74,-305.273 2159.71,-279.75 1995.6,-268.276"/>
<polygon fill="midnightblue" stroke="midnightblue" points="1995.78,-264.781 1985.56,-267.575 1995.29,-271.764 1995.78,-264.781"/>
</g>
<!-- Node3 -->
<g id="node3" class="node"><title>Node3</title>
<polygon fill="none" stroke="#bfbfbf" points="549.484,-179.5 549.484,-209.5 650.484,-209.5 650.484,-179.5 549.484,-179.5"/>
<text text-anchor="start" x="557.484" y="-197.5" font-family="Helvetica,sans-Serif" font-size="10.00">boost/property_tree</text>
<text text-anchor="middle" x="599.984" y="-186.5" font-family="Helvetica,sans-Serif" font-size="10.00">/ptree.hpp</text>
</g>
<!-- Node2&#45;&gt;Node3 -->
<g id="edge2" class="edge"><title>Node2&#45;&gt;Node3</title>
<path fill="none" stroke="midnightblue" d="M599.984,-251.734C599.984,-243.541 599.984,-230.923 599.984,-219.714"/>
<polygon fill="midnightblue" stroke="midnightblue" points="603.485,-219.589 599.984,-209.589 596.485,-219.589 603.485,-219.589"/>
</g>
<!-- Node4 -->
<g id="node4" class="node"><title>Node4</title>
<polygon fill="none" stroke="#bfbfbf" points="668.984,-185 668.984,-204 760.984,-204 760.984,-185 668.984,-185"/>
<text text-anchor="middle" x="714.984" y="-192" font-family="Helvetica,sans-Serif" font-size="10.00">Common/Timer.h</text>
</g>
<!-- Node2&#45;&gt;Node4 -->
<g id="edge3" class="edge"><title>Node2&#45;&gt;Node4</title>
<path fill="none" stroke="midnightblue" d="M615.494,-251.734C634.892,-240.769 668.311,-221.881 691.012,-209.049"/>
<polygon fill="midnightblue" stroke="midnightblue" points="692.737,-212.095 699.721,-204.127 689.293,-206.001 692.737,-212.095"/>
</g>
<!-- Node5 -->
<g id="node5" class="node"><title>Node5</title>
<polygon fill="none" stroke="#bfbfbf" points="778.984,-185 778.984,-204 876.984,-204 876.984,-185 778.984,-185"/>
<text text-anchor="middle" x="827.984" y="-192" font-family="Helvetica,sans-Serif" font-size="10.00">Framework/Task.h</text>
</g>
<!-- Node2&#45;&gt;Node5 -->
<g id="edge4" class="edge"><title>Node2&#45;&gt;Node5</title>
<path fill="none" stroke="midnightblue" d="M630.261,-251.869C670.916,-240.278 743.23,-219.662 788.23,-206.834"/>
<polygon fill="midnightblue" stroke="midnightblue" points="789.289,-210.171 797.946,-204.064 787.369,-203.439 789.289,-210.171"/>
</g>
<!-- Node6 -->
<g id="node6" class="node"><title>Node6</title>
<polygon fill="none" stroke="#bfbfbf" points="894.984,-185 894.984,-204 1058.98,-204 1058.98,-185 894.984,-185"/>
<text text-anchor="middle" x="976.984" y="-192" font-family="Helvetica,sans-Serif" font-size="10.00">Framework/DataProcessorSpec.h</text>
</g>
<!-- Node2&#45;&gt;Node6 -->
<g id="edge5" class="edge"><title>Node2&#45;&gt;Node6</title>
<path fill="none" stroke="midnightblue" d="M649.658,-251.936C718.691,-240.033 843.467,-218.52 917.415,-205.771"/>
<polygon fill="midnightblue" stroke="midnightblue" points="918.241,-209.18 927.5,-204.032 917.051,-202.282 918.241,-209.18"/>
</g>
<!-- Node7 -->
<g id="node7" class="node"><title>Node7</title>
<polygon fill="none" stroke="#bfbfbf" points="16.4845,-185 16.4845,-204 169.484,-204 169.484,-185 16.4845,-185"/>
<text text-anchor="middle" x="92.9845" y="-192" font-family="Helvetica,sans-Serif" font-size="10.00">Framework/CompletionPolicy.h</text>
</g>
<!-- Node2&#45;&gt;Node7 -->
<g id="edge6" class="edge"><title>Node2&#45;&gt;Node7</title>
<path fill="none" stroke="midnightblue" d="M528.476,-252.638C445.513,-243.327 304.663,-226.933 183.984,-210 174.46,-208.664 164.391,-207.155 154.558,-205.629"/>
<polygon fill="midnightblue" stroke="midnightblue" points="154.851,-202.133 144.429,-204.039 153.765,-209.048 154.851,-202.133"/>
</g>
<!-- Node8 -->
<g id="node8" class="node"><title>Node8</title>
<polygon fill="none" stroke="#bfbfbf" points="225.984,-185 225.984,-204 395.984,-204 395.984,-185 225.984,-185"/>
<text text-anchor="middle" x="310.984" y="-192" font-family="Helvetica,sans-Serif" font-size="10.00">Framework/EndOfStreamContext.h</text>
</g>
<!-- Node2&#45;&gt;Node8 -->
<g id="edge7" class="edge"><title>Node2&#45;&gt;Node8</title>
<path fill="none" stroke="midnightblue" d="M561.906,-251.936C509.708,-240.196 415.937,-219.105 358.99,-206.297"/>
<polygon fill="midnightblue" stroke="midnightblue" points="359.672,-202.863 349.148,-204.083 358.136,-209.693 359.672,-202.863"/>
</g>
<!-- Node9 -->
<g id="node9" class="node"><title>Node9</title>
<polygon fill="none" stroke="#bfbfbf" points="414.484,-185 414.484,-204 531.484,-204 531.484,-185 414.484,-185"/>
<text text-anchor="middle" x="472.984" y="-192" font-family="Helvetica,sans-Serif" font-size="10.00">Headers/DataHeader.h</text>
</g>
<!-- Node2&#45;&gt;Node9 -->
<g id="edge8" class="edge"><title>Node2&#45;&gt;Node9</title>
<path fill="none" stroke="midnightblue" d="M583.12,-251.869C561.581,-240.845 524.088,-221.655 498.908,-208.768"/>
<polygon fill="midnightblue" stroke="midnightblue" points="500.415,-205.608 489.919,-204.167 497.226,-211.839 500.415,-205.608"/>
</g>
<!-- Node10 -->
<g id="node10" class="node"><title>Node10</title>
<polygon fill="none" stroke="#bfbfbf" points="1153.48,-123.5 1153.48,-142.5 1278.48,-142.5 1278.48,-123.5 1153.48,-123.5"/>
<text text-anchor="middle" x="1215.98" y="-130.5" font-family="Helvetica,sans-Serif" font-size="10.00">Framework/InitContext.h</text>
</g>
<!-- Node2&#45;&gt;Node10 -->
<g id="edge9" class="edge"><title>Node2&#45;&gt;Node10</title>
<path fill="none" stroke="midnightblue" d="M528.388,-256.092C423.214,-248.877 237.158,-233.008 216.984,-210 207.901,-199.64 207.464,-188.959 216.984,-179 248.904,-145.61 918.377,-136.635 1143.14,-134.558"/>
<polygon fill="midnightblue" stroke="midnightblue" points="1143.21,-138.058 1153.18,-134.468 1143.15,-131.058 1143.21,-138.058"/>
</g>
<!-- Node11 -->
<g id="node11" class="node"><title>Node11</title>
<g id="a_node11"><a xlink:href="TaskConfig_8h.html" target="_top" xlink:title="QualityControl/TaskConfig.h">
<polygon fill="none" stroke="black" points="1138.98,-62 1138.98,-81 1278.98,-81 1278.98,-62 1138.98,-62"/>
<text text-anchor="middle" x="1208.98" y="-69" font-family="Helvetica,sans-Serif" font-size="10.00">QualityControl/TaskConfig.h</text>
</a>
</g>
</g>
<!-- Node2&#45;&gt;Node11 -->
<g id="edge10" class="edge"><title>Node2&#45;&gt;Node11</title>
<path fill="none" stroke="midnightblue" d="M528.356,-259.708C378.246,-257.302 41.625,-247.716 6.98448,-210 -2.33539,-199.853 -2.31804,-189.163 6.98448,-179 82.6655,-96.3169 871.879,-77.4475 1128.71,-73.4822"/>
<polygon fill="midnightblue" stroke="midnightblue" points="1128.77,-76.9818 1138.71,-73.3312 1128.66,-69.9826 1128.77,-76.9818"/>
</g>
<!-- Node14 -->
<g id="node14" class="node"><title>Node14</title>
<g id="a_node14"><a xlink:href="TaskInterface_8h.html" target="_top" xlink:title="QualityControl/TaskInterface.h">
<polygon fill="none" stroke="black" points="1657.98,-185 1657.98,-204 1807.98,-204 1807.98,-185 1657.98,-185"/>
<text text-anchor="middle" x="1732.98" y="-192" font-family="Helvetica,sans-Serif" font-size="10.00">QualityControl/TaskInterface.h</text>
</a>
</g>
</g>
<!-- Node2&#45;&gt;Node14 -->
<g id="edge13" class="edge"><title>Node2&#45;&gt;Node14</title>
<path fill="none" stroke="midnightblue" d="M671.718,-256.385C871.295,-244.935 1432.49,-212.739 1647.6,-200.399"/>
<polygon fill="midnightblue" stroke="midnightblue" points="1648.1,-203.876 1657.88,-199.809 1647.7,-196.887 1648.1,-203.876"/>
</g>
<!-- Node11&#45;&gt;Node12 -->
<g id="edge11" class="edge"><title>Node11&#45;&gt;Node12</title>
<path fill="none" stroke="midnightblue" d="M1279.3,-62.0705C1296.22,-60.0615 1314.25,-57.9386 1330.98,-56 1468.08,-40.1223 1631.76,-21.8893 1698.91,-14.4401"/>
<polygon fill="midnightblue" stroke="midnightblue" points="1699.66,-17.8792 1709.21,-13.2985 1698.89,-10.9218 1699.66,-17.8792"/>
</g>
<!-- Node13 -->
<g id="node13" class="node"><title>Node13</title>
<polygon fill="none" stroke="#bfbfbf" points="1216.48,-0.5 1216.48,-19.5 1299.48,-19.5 1299.48,-0.5 1216.48,-0.5"/>
<text text-anchor="middle" x="1257.98" y="-7.5" font-family="Helvetica,sans-Serif" font-size="10.00">unordered_map</text>
</g>
<!-- Node11&#45;&gt;Node13 -->
<g id="edge12" class="edge"><title>Node11&#45;&gt;Node13</title>
<path fill="none" stroke="midnightblue" d="M1216,-61.9751C1223.43,-52.9617 1235.32,-38.5246 1244.55,-27.3118"/>
<polygon fill="midnightblue" stroke="midnightblue" points="1247.32,-29.4534 1250.98,-19.5091 1241.92,-25.0034 1247.32,-29.4534"/>
</g>
<!-- Node14&#45;&gt;Node10 -->
<g id="edge18" class="edge"><title>Node14&#45;&gt;Node10</title>
<path fill="none" stroke="midnightblue" d="M1658.24,-184.969C1570.7,-174.967 1421.3,-157.863 1292.98,-143 1291.52,-142.831 1290.04,-142.659 1288.55,-142.486"/>
<polygon fill="midnightblue" stroke="midnightblue" points="1288.94,-139.007 1278.6,-141.33 1288.13,-145.96 1288.94,-139.007"/>
</g>
<!-- Node14&#45;&gt;Node12 -->
<g id="edge16" class="edge"><title>Node14&#45;&gt;Node12</title>
<path fill="none" stroke="midnightblue" d="M1738.93,-184.674C1745.1,-174.954 1754.33,-158.622 1757.98,-143 1767.51,-102.302 1750.16,-54.2158 1738.76,-28.8081"/>
<polygon fill="midnightblue" stroke="midnightblue" points="1741.9,-27.2437 1734.48,-19.6764 1735.56,-30.2163 1741.9,-27.2437"/>
</g>
<!-- Node14&#45;&gt;Node13 -->
<g id="edge17" class="edge"><title>Node14&#45;&gt;Node13</title>
<path fill="none" stroke="midnightblue" d="M1657.67,-192.869C1554.69,-190.567 1376.91,-181.012 1325.98,-143 1292.17,-117.761 1308.21,-93.0308 1287.98,-56 1282.75,-46.4205 1276.09,-36.2617 1270.37,-28.0252"/>
<polygon fill="midnightblue" stroke="midnightblue" points="1273.08,-25.8037 1264.44,-19.676 1267.37,-29.8561 1273.08,-25.8037"/>
</g>
<!-- Node15 -->
<g id="node15" class="node"><title>Node15</title>
<polygon fill="none" stroke="#bfbfbf" points="1790.48,-0.5 1790.48,-19.5 1825.48,-19.5 1825.48,-0.5 1790.48,-0.5"/>
<text text-anchor="middle" x="1807.98" y="-7.5" font-family="Helvetica,sans-Serif" font-size="10.00">map</text>
</g>
<!-- Node14&#45;&gt;Node15 -->
<g id="edge14" class="edge"><title>Node14&#45;&gt;Node15</title>
<path fill="none" stroke="midnightblue" d="M1742.18,-184.681C1751.52,-175.219 1765.75,-159.336 1773.98,-143 1792.92,-105.45 1801.95,-56.4272 1805.7,-29.9524"/>
<polygon fill="midnightblue" stroke="midnightblue" points="1809.2,-30.1613 1807.04,-19.7907 1802.26,-29.2498 1809.2,-30.1613"/>
</g>
<!-- Node14&#45;&gt;Node16 -->
<g id="edge15" class="edge"><title>Node14&#45;&gt;Node16</title>
<path fill="none" stroke="midnightblue" d="M1802.29,-184.988C1859.71,-177 1943.08,-163.229 2013.98,-143 2068.41,-127.471 2129.16,-101.205 2163.46,-85.4927"/>
<polygon fill="midnightblue" stroke="midnightblue" points="2165.2,-88.5419 2172.81,-81.1687 2162.27,-82.1879 2165.2,-88.5419"/>
</g>
<!-- Node17 -->
<g id="node17" class="node"><title>Node17</title>
<polygon fill="none" stroke="#bfbfbf" points="1334.98,-123.5 1334.98,-142.5 1494.98,-142.5 1494.98,-123.5 1334.98,-123.5"/>
<text text-anchor="middle" x="1414.98" y="-130.5" font-family="Helvetica,sans-Serif" font-size="10.00">Framework/ProcessingContext.h</text>
</g>
<!-- Node14&#45;&gt;Node17 -->
<g id="edge19" class="edge"><title>Node14&#45;&gt;Node17</title>
<path fill="none" stroke="midnightblue" d="M1687.42,-184.975C1630.16,-174.261 1531.93,-155.882 1470.39,-144.366"/>
<polygon fill="midnightblue" stroke="midnightblue" points="1470.93,-140.908 1460.46,-142.509 1469.65,-147.789 1470.93,-140.908"/>
</g>
<!-- Node18 -->
<g id="node18" class="node"><title>Node18</title>
<polygon fill="none" stroke="#bfbfbf" points="1513.48,-123.5 1513.48,-142.5 1608.48,-142.5 1608.48,-123.5 1513.48,-123.5"/>
<text text-anchor="middle" x="1560.98" y="-130.5" font-family="Helvetica,sans-Serif" font-size="10.00">CCDB/CcdbApi.h</text>
</g>
<!-- Node14&#45;&gt;Node18 -->
<g id="edge20" class="edge"><title>Node14&#45;&gt;Node18</title>
<path fill="none" stroke="midnightblue" d="M1708.34,-184.975C1678.71,-174.725 1628.8,-157.459 1595.38,-145.899"/>
<polygon fill="midnightblue" stroke="midnightblue" points="1596.18,-142.471 1585.58,-142.509 1593.89,-149.086 1596.18,-142.471"/>
</g>
<!-- Node19 -->
<g id="node19" class="node"><title>Node19</title>
<g id="a_node19"><a xlink:href="Activity_8h.html" target="_top" xlink:title="QualityControl/Activity.h">
<polygon fill="none" stroke="black" points="1626.48,-123.5 1626.48,-142.5 1749.48,-142.5 1749.48,-123.5 1626.48,-123.5"/>
<text text-anchor="middle" x="1687.98" y="-130.5" font-family="Helvetica,sans-Serif" font-size="10.00">QualityControl/Activity.h</text>
</a>
</g>
</g>
<!-- Node14&#45;&gt;Node19 -->
<g id="edge21" class="edge"><title>Node14&#45;&gt;Node19</title>
<path fill="none" stroke="midnightblue" d="M1726.54,-184.975C1719.79,-176.05 1709.02,-161.807 1700.57,-150.643"/>
<polygon fill="midnightblue" stroke="midnightblue" points="1703.24,-148.374 1694.42,-142.509 1697.66,-152.596 1703.24,-148.374"/>
</g>
<!-- Node20 -->
<g id="node20" class="node"><title>Node20</title>
<g id="a_node20"><a xlink:href="ObjectsManager_8h.html" target="_top" xlink:title="QualityControl/ObjectsManager.h">
<polygon fill="none" stroke="black" points="1844.48,-123.5 1844.48,-142.5 2005.48,-142.5 2005.48,-123.5 1844.48,-123.5"/>
<text text-anchor="middle" x="1924.98" y="-130.5" font-family="Helvetica,sans-Serif" font-size="10.00">QualityControl/ObjectsManager.h</text>
</a>
</g>
</g>
<!-- Node14&#45;&gt;Node20 -->
<g id="edge22" class="edge"><title>Node14&#45;&gt;Node20</title>
<path fill="none" stroke="midnightblue" d="M1760.49,-184.975C1793.86,-174.636 1850.25,-157.161 1887.55,-145.602"/>
<polygon fill="midnightblue" stroke="midnightblue" points="1889.01,-148.812 1897.53,-142.509 1886.94,-142.126 1889.01,-148.812"/>
</g>
<!-- Node14&#45;&gt;Node28 -->
<g id="edge35" class="edge"><title>Node14&#45;&gt;Node28</title>
<path fill="none" stroke="midnightblue" d="M1807.99,-185.63C1913.35,-174.573 2104.64,-154.5 2215.09,-142.908"/>
<polygon fill="midnightblue" stroke="midnightblue" points="2215.62,-146.373 2225.2,-141.848 2214.89,-139.411 2215.62,-146.373"/>
</g>
<!-- Node20&#45;&gt;Node11 -->
<g id="edge32" class="edge"><title>Node20&#45;&gt;Node11</title>
<path fill="none" stroke="midnightblue" d="M1844.24,-125.29C1706.25,-113.823 1426.65,-90.5884 1289.09,-79.1572"/>
<polygon fill="midnightblue" stroke="midnightblue" points="1289.29,-75.6618 1279.04,-78.3216 1288.71,-82.6378 1289.29,-75.6618"/>
</g>
<!-- Node20&#45;&gt;Node12 -->
<g id="edge33" class="edge"><title>Node20&#45;&gt;Node12</title>
<path fill="none" stroke="midnightblue" d="M1901.52,-123.387C1880.7,-115.301 1849.84,-102.195 1824.98,-87 1795.45,-68.9413 1764.79,-42.8542 1746.56,-26.4208"/>
<polygon fill="midnightblue" stroke="midnightblue" points="1748.85,-23.7711 1739.1,-19.6131 1744.13,-28.9405 1748.85,-23.7711"/>
</g>
<!-- Node20&#45;&gt;Node16 -->
<g id="edge34" class="edge"><title>Node20&#45;&gt;Node16</title>
<path fill="none" stroke="midnightblue" d="M1984.82,-123.486C2031.69,-116.055 2098.22,-103.818 2154.98,-87 2157.42,-86.2798 2159.91,-85.4581 2162.39,-84.5802"/>
<polygon fill="midnightblue" stroke="midnightblue" points="2163.69,-87.8338 2171.79,-81.0125 2161.2,-81.2895 2163.69,-87.8338"/>
</g>
<!-- Node21 -->
<g id="node21" class="node"><title>Node21</title>
<g id="a_node21"><a xlink:href="MonitorObject_8h.html" target="_top" xlink:title="QualityControl/MonitorObject.h">
<polygon fill="none" stroke="black" points="1834.48,-62 1834.48,-81 1985.48,-81 1985.48,-62 1834.48,-62"/>
<text text-anchor="middle" x="1909.98" y="-69" font-family="Helvetica,sans-Serif" font-size="10.00">QualityControl/MonitorObject.h</text>
</a>
</g>
</g>
<!-- Node20&#45;&gt;Node21 -->
<g id="edge23" class="edge"><title>Node20&#45;&gt;Node21</title>
<path fill="none" stroke="midnightblue" d="M1922.84,-123.475C1920.7,-114.992 1917.35,-101.704 1914.6,-90.8222"/>
<polygon fill="midnightblue" stroke="midnightblue" points="1917.97,-89.8501 1912.13,-81.0091 1911.18,-91.5613 1917.97,-89.8501"/>
</g>
<!-- Node25 -->
<g id="node25" class="node"><title>Node25</title>
<g id="a_node25"><a xlink:href="MonitorObjectCollection_8h.html" target="_top" xlink:title="QualityControl/MonitorObject\lCollection.h">
<polygon fill="none" stroke="black" points="2003.48,-56.5 2003.48,-86.5 2146.48,-86.5 2146.48,-56.5 2003.48,-56.5"/>
<text text-anchor="start" x="2011.48" y="-74.5" font-family="Helvetica,sans-Serif" font-size="10.00">QualityControl/MonitorObject</text>
<text text-anchor="middle" x="2074.98" y="-63.5" font-family="Helvetica,sans-Serif" font-size="10.00">Collection.h</text>
</a>
</g>
</g>
<!-- Node20&#45;&gt;Node25 -->
<g id="edge29" class="edge"><title>Node20&#45;&gt;Node25</title>
<path fill="none" stroke="midnightblue" d="M1946.48,-123.475C1968.22,-114.852 2002.47,-101.264 2030.15,-90.2852"/>
<polygon fill="midnightblue" stroke="midnightblue" points="2031.63,-93.4636 2039.63,-86.523 2029.05,-86.9568 2031.63,-93.4636"/>
</g>
<!-- Node21&#45;&gt;Node12 -->
<g id="edge24" class="edge"><title>Node21&#45;&gt;Node12</title>
<path fill="none" stroke="midnightblue" d="M1884.19,-61.9751C1851.46,-51.1539 1795.07,-32.5153 1760.31,-21.0241"/>
<polygon fill="midnightblue" stroke="midnightblue" points="1761.28,-17.6599 1750.69,-17.8445 1759.09,-24.3062 1761.28,-17.6599"/>
</g>
<!-- Node21&#45;&gt;Node15 -->
<g id="edge25" class="edge"><title>Node21&#45;&gt;Node15</title>
<path fill="none" stroke="midnightblue" d="M1895.37,-61.9751C1878.63,-52.2106 1850.98,-36.0807 1831.27,-24.5808"/>
<polygon fill="midnightblue" stroke="midnightblue" points="1832.97,-21.5246 1822.57,-19.5091 1829.45,-27.5711 1832.97,-21.5246"/>
</g>
<!-- Node22 -->
<g id="node22" class="node"><title>Node22</title>
<polygon fill="none" stroke="#bfbfbf" points="1929.98,-0.5 1929.98,-19.5 1985.98,-19.5 1985.98,-0.5 1929.98,-0.5"/>
<text text-anchor="middle" x="1957.98" y="-7.5" font-family="Helvetica,sans-Serif" font-size="10.00">Rtypes.h</text>
</g>
<!-- Node21&#45;&gt;Node22 -->
<g id="edge26" class="edge"><title>Node21&#45;&gt;Node22</title>
<path fill="none" stroke="midnightblue" d="M1916.86,-61.9751C1924.13,-52.9617 1935.78,-38.5246 1944.83,-27.3118"/>
<polygon fill="midnightblue" stroke="midnightblue" points="1947.57,-29.4898 1951.12,-19.5091 1942.12,-25.0946 1947.57,-29.4898"/>
</g>
<!-- Node23 -->
<g id="node23" class="node"><title>Node23</title>
<polygon fill="none" stroke="#bfbfbf" points="1852.48,-0.5 1852.48,-19.5 1911.48,-19.5 1911.48,-0.5 1852.48,-0.5"/>
<text text-anchor="middle" x="1881.98" y="-7.5" font-family="Helvetica,sans-Serif" font-size="10.00">TObject.h</text>
</g>
<!-- Node21&#45;&gt;Node23 -->
<g id="edge27" class="edge"><title>Node21&#45;&gt;Node23</title>
<path fill="none" stroke="midnightblue" d="M1905.97,-61.9751C1901.9,-53.3152 1895.47,-39.6486 1890.29,-28.6453"/>
<polygon fill="midnightblue" stroke="midnightblue" points="1893.41,-27.067 1885.99,-19.5091 1887.08,-30.0476 1893.41,-27.067"/>
</g>
<!-- Node21&#45;&gt;Node24 -->
<g id="edge28" class="edge"><title>Node21&#45;&gt;Node24</title>
<path fill="none" stroke="midnightblue" d="M1956.11,-61.9429C1968.39,-59.8273 1981.67,-57.6865 1993.98,-56 2126.23,-37.8918 2281.61,-23.7396 2368.76,-16.4445"/>
<polygon fill="midnightblue" stroke="midnightblue" points="2369.1,-19.9276 2378.78,-15.6105 2368.52,-12.9517 2369.1,-19.9276"/>
</g>
<!-- Node26 -->
<g id="node26" class="node"><title>Node26</title>
<polygon fill="none" stroke="#bfbfbf" points="2154.48,-0.5 2154.48,-19.5 2223.48,-19.5 2223.48,-0.5 2154.48,-0.5"/>
<text text-anchor="middle" x="2188.98" y="-7.5" font-family="Helvetica,sans-Serif" font-size="10.00">TObjArray.h</text>
</g>
<!-- Node25&#45;&gt;Node26 -->
<g id="edge30" class="edge"><title>Node25&#45;&gt;Node26</title>
<path fill="none" stroke="midnightblue" d="M2102,-56.3993C2120.62,-46.6837 2145.19,-33.8551 2163.48,-24.3137"/>
<polygon fill="midnightblue" stroke="midnightblue" points="2165.15,-27.3876 2172.4,-19.6578 2161.91,-21.182 2165.15,-27.3876"/>
</g>
<!-- Node27 -->
<g id="node27" class="node"><title>Node27</title>
<polygon fill="none" stroke="#bfbfbf" points="2007.98,-0.5 2007.98,-19.5 2135.98,-19.5 2135.98,-0.5 2007.98,-0.5"/>
<text text-anchor="middle" x="2071.98" y="-7.5" font-family="Helvetica,sans-Serif" font-size="10.00">Mergers/MergeInterface.h</text>
</g>
<!-- Node25&#45;&gt;Node27 -->
<g id="edge31" class="edge"><title>Node25&#45;&gt;Node27</title>
<path fill="none" stroke="midnightblue" d="M2074.27,-56.3993C2073.87,-48.4664 2073.37,-38.458 2072.94,-29.8583"/>
<polygon fill="midnightblue" stroke="midnightblue" points="2076.42,-29.4688 2072.42,-19.6578 2069.43,-29.8214 2076.42,-29.4688"/>
</g>
<!-- Node29 -->
<g id="node29" class="node"><title>Node29</title>
<polygon fill="none" stroke="#bfbfbf" points="2234.98,-62 2234.98,-81 2364.98,-81 2364.98,-62 2234.98,-62"/>
<text text-anchor="middle" x="2299.98" y="-69" font-family="Helvetica,sans-Serif" font-size="10.00">InfoLogger/InfoLogger.hxx</text>
</g>
<!-- Node28&#45;&gt;Node29 -->
<g id="edge36" class="edge"><title>Node28&#45;&gt;Node29</title>
<path fill="none" stroke="midnightblue" d="M2299.98,-123.475C2299.98,-115.08 2299.98,-101.981 2299.98,-91.1631"/>
<polygon fill="midnightblue" stroke="midnightblue" points="2303.48,-91.0091 2299.98,-81.0091 2296.48,-91.0091 2303.48,-91.0091"/>
</g>
<!-- Node30 -->
<g id="node30" class="node"><title>Node30</title>
<polygon fill="none" stroke="#bfbfbf" points="2382.98,-62 2382.98,-81 2544.98,-81 2544.98,-62 2382.98,-62"/>
<text text-anchor="middle" x="2463.98" y="-69" font-family="Helvetica,sans-Serif" font-size="10.00">InfoLogger/InfoLoggerMacros.hxx</text>
</g>
<!-- Node28&#45;&gt;Node30 -->
<g id="edge37" class="edge"><title>Node28&#45;&gt;Node30</title>
<path fill="none" stroke="midnightblue" d="M2323.48,-123.475C2351.61,-113.269 2398.91,-96.108 2430.77,-84.5492"/>
<polygon fill="midnightblue" stroke="midnightblue" points="2432.32,-87.7098 2440.53,-81.0091 2429.94,-81.1295 2432.32,-87.7098"/>
</g>
<!-- Node42&#45;&gt;Node11 -->
<g id="edge54" class="edge"><title>Node42&#45;&gt;Node11</title>
<path fill="none" stroke="midnightblue" d="M1840.2,-260.854C1666.11,-259.992 1233.46,-247.187 1143.98,-143 1126.4,-122.528 1157.15,-99.7165 1182.07,-85.7355"/>
<polygon fill="midnightblue" stroke="midnightblue" points="1183.73,-88.8168 1190.88,-81.0048 1180.42,-82.6485 1183.73,-88.8168"/>
</g>
<!-- Node42&#45;&gt;Node14 -->
<g id="edge55" class="edge"><title>Node42&#45;&gt;Node14</title>
<path fill="none" stroke="midnightblue" d="M1889.08,-251.869C1857.53,-240.473 1801.81,-220.353 1766.18,-207.487"/>
<polygon fill="midnightblue" stroke="midnightblue" points="1767.29,-204.168 1756.7,-204.064 1764.92,-210.752 1767.29,-204.168"/>
</g>
<!-- Node42&#45;&gt;Node16 -->
<g id="edge53" class="edge"><title>Node42&#45;&gt;Node16</title>
<path fill="none" stroke="midnightblue" d="M1925.65,-251.934C1969.43,-222.327 2114.67,-124.111 2169.64,-86.9316"/>
<polygon fill="midnightblue" stroke="midnightblue" points="2171.92,-89.618 2178.24,-81.1168 2168,-83.8195 2171.92,-89.618"/>
</g>
</g>
</svg>
        <g id="navigator" transform="translate(0 0)" fill="#404254">
                <rect fill="#f2f5e9" fill-opacity="0.5" stroke="#606060" stroke-width=".5" x="0" y="0" width="60" height="60"/>
                <use id="zoomplus" xlink:href="#zoomPlus" x="17" y="9" onmousedown="handleZoom(evt,'in')"/>
                <use id="zoomminus" xlink:href="#zoomMin" x="42" y="9" onmousedown="handleZoom(evt,'out')"/>
                <use id="reset" xlink:href="#resetDef" x="30" y="36" onmousedown="handleReset()"/>
                <g id="arrowUp" xlink:href="#dirArrow" transform="translate(30 24)" onmousedown="handlePan(0,-1)">
                  <use xlink:href="#rim" fill="#404040">
                        <set attributeName="fill" to="#808080" begin="arrowUp.mouseover" end="arrowUp.mouseout"/>
                  </use>
                  <path fill="none" stroke="white" stroke-width="1.5" d="M0,-3.0v7 M-2.5,-0.5L0,-3.0L2.5,-0.5"/>
                </g>
                <g id="arrowRight" xlink:href="#dirArrow" transform="rotate(90) translate(36 -43)" onmousedown="handlePan(1,0)">
                  <use xlink:href="#rim" fill="#404040">
                        <set attributeName="fill" to="#808080" begin="arrowRight.mouseover" end="arrowRight.mouseout"/>
                  </use>
                  <path fill="none" stroke="white" stroke-width="1.5" d="M0,-3.0v7 M-2.5,-0.5L0,-3.0L2.5,-0.5"/>
                </g>
                <g id="arrowDown" xlink:href="#dirArrow" transform="rotate(180) translate(-30 -48)" onmousedown="handlePan(0,1)">
                  <use xlink:href="#rim" fill="#404040">
                        <set attributeName="fill" to="#808080" begin="arrowDown.mouseover" end="arrowDown.mouseout"/>
                  </use>
                  <path fill="none" stroke="white" stroke-width="1.5" d="M0,-3.0v7 M-2.5,-0.5L0,-3.0L2.5,-0.5"/>
                </g>
                <g id="arrowLeft" xlink:href="#dirArrow" transform="rotate(270) translate(-36 17)" onmousedown="handlePan(-1,0)">
                  <use xlink:href="#rim" fill="#404040">
                        <set attributeName="fill" to="#808080" begin="arrowLeft.mouseover" end="arrowLeft.mouseout"/>
                  </use>
                  <path fill="none" stroke="white" stroke-width="1.5" d="M0,-3.0v7 M-2.5,-0.5L0,-3.0L2.5,-0.5"/>
                </g>
        </g>
        <svg viewBox="0 0 15 15" width="100%" height="30px" preserveAspectRatio="xMaxYMin meet">
         <g id="arrow_out" transform="scale(0.3 0.3)">
          <a xlink:href="TaskRunner_8cxx__incl_org.svg" target="_base">
           <rect id="button" ry="5" rx="5" y="6" x="6" height="38" width="38"
                fill="#f2f5e9" fill-opacity="0.5" stroke="#606060" stroke-width="1.0"/>
           <path id="arrow"
             d="M 11.500037,31.436501 C 11.940474,20.09759 22.043105,11.32322 32.158766,21.979434 L 37.068811,17.246167 C 37.068811,17.246167 37.088388,32 37.088388,32 L 22.160133,31.978069 C 22.160133,31.978069 26.997745,27.140456 26.997745,27.140456 C 18.528582,18.264221 13.291696,25.230495 11.500037,31.436501 z"
             style="fill:#404040;"/>
          </a>
         </g>
        </svg>
</svg>
