<?xml version="1.0" encoding="UTF-8" standalone="no"?>
<!DOCTYPE svg PUBLIC "-//W3C//DTD SVG 1.1//EN"
 "http://www.w3.org/Graphics/SVG/1.1/DTD/svg11.dtd">
<!-- Generated by graphviz version 2.38.0 (20140413.2041)
 -->
<!-- Title: Modules/TOF/src/TaskDiagnostics.cxx Pages: 1 -->
<!--zoomable 330 -->
<svg id="main" version="1.1" xmlns="http://www.w3.org/2000/svg" xmlns:xlink="http://www.w3.org/1999/xlink" xml:space="preserve" onload="init(evt)">
<style type="text/css"><![CDATA[
.edge:hover path { stroke: red; }
.edge:hover polygon { stroke: red; fill: red; }
]]></style>
<script type="text/javascript"><![CDATA[
var edges = document.getElementsByTagName('g');
if (edges && edges.length) {
  for (var i=0;i<edges.length;i++) {
    if (edges[i].id.substr(0,4)=='edge') {
      edges[i].setAttribute('class','edge');
    }
  }
}
]]></script>
        <defs>
                <circle id="rim" cx="0" cy="0" r="7"/>
                <circle id="rim2" cx="0" cy="0" r="3.5"/>
                <g id="zoomPlus">
                        <use xlink:href="#rim" fill="#404040">
                                <set attributeName="fill" to="#808080" begin="zoomplus.mouseover" end="zoomplus.mouseout"/>
                        </use>
                        <path d="M-4,0h8M0,-4v8" fill="none" stroke="white" stroke-width="1.5" pointer-events="none"/>
                </g>
                <g id="zoomMin">
                        <use xlink:href="#rim" fill="#404040">
                                <set attributeName="fill" to="#808080" begin="zoomminus.mouseover" end="zoomminus.mouseout"/>
                        </use>
                        <path d="M-4,0h8" fill="none" stroke="white" stroke-width="1.5" pointer-events="none"/>
                </g>
                <g id="dirArrow">
                        <path fill="none" stroke="white" stroke-width="1.5" d="M0,-3.0v7 M-2.5,-0.5L0,-3.0L2.5,-0.5"/>
                </g>
               <g id="resetDef">
                       <use xlink:href="#rim2" fill="#404040">
                               <set attributeName="fill" to="#808080" begin="reset.mouseover" end="reset.mouseout"/>
                       </use>
               </g>
        </defs>

<script type="text/javascript">
var viewWidth = 1925;
var viewHeight = 330;
var sectionId = 'dynsection-0';
</script>
<script xlink:href="svgpan.js"/>
<svg id="graph" class="graph">
<g id="viewport">
<title>Modules/TOF/src/TaskDiagnostics.cxx</title>
<!-- Node1 -->
<g id="node1" class="node"><title>Node1</title>
<polygon fill="#bfbfbf" stroke="black" points="225,-302.5 225,-321.5 413,-321.5 413,-302.5 225,-302.5"/>
<text text-anchor="middle" x="319" y="-309.5" font-family="Helvetica,sans-Serif" font-size="10.00">Modules/TOF/src/TaskDiagnostics.cxx</text>
</g>
<!-- Node2 -->
<g id="node2" class="node"><title>Node2</title>
<polygon fill="none" stroke="#bfbfbf" points="0,-246.5 0,-265.5 50,-265.5 50,-246.5 0,-246.5"/>
<text text-anchor="middle" x="25" y="-253.5" font-family="Helvetica,sans-Serif" font-size="10.00">TH1F.h</text>
</g>
<!-- Node1&#45;&gt;Node2 -->
<g id="edge1" class="edge"><title>Node1&#45;&gt;Node2</title>
<path fill="none" stroke="midnightblue" d="M261.147,-302.471C210.542,-294.675 134.879,-282.21 60.2367,-266.12"/>
<polygon fill="midnightblue" stroke="midnightblue" points="60.7074,-262.64 50.1914,-263.931 59.2169,-269.48 60.7074,-262.64"/>
</g>
<!-- Node3 -->
<g id="node3" class="node"><title>Node3</title>
<polygon fill="none" stroke="#bfbfbf" points="68,-246.5 68,-265.5 118,-265.5 118,-246.5 68,-246.5"/>
<text text-anchor="middle" x="93" y="-253.5" font-family="Helvetica,sans-Serif" font-size="10.00">TH2F.h</text>
</g>
<!-- Node1&#45;&gt;Node3 -->
<g id="edge2" class="edge"><title>Node1&#45;&gt;Node3</title>
<path fill="none" stroke="midnightblue" d="M283.19,-302.444C240.646,-292.278 170.139,-275.431 127.968,-265.355"/>
<polygon fill="midnightblue" stroke="midnightblue" points="128.686,-261.928 118.146,-263.008 127.059,-268.737 128.686,-261.928"/>
</g>
<!-- Node4 -->
<g id="node4" class="node"><title>Node4</title>
<polygon fill="none" stroke="#bfbfbf" points="205,-179.5 205,-209.5 357,-209.5 357,-179.5 205,-179.5"/>
<text text-anchor="start" x="213" y="-197.5" font-family="Helvetica,sans-Serif" font-size="10.00">DataFormatsTOF/Compressed</text>
<text text-anchor="middle" x="281" y="-186.5" font-family="Helvetica,sans-Serif" font-size="10.00">DataFormat.h</text>
</g>
<!-- Node1&#45;&gt;Node4 -->
<g id="edge3" class="edge"><title>Node1&#45;&gt;Node4</title>
<path fill="none" stroke="midnightblue" d="M266.099,-302.46C226.568,-294.872 177.321,-282.437 165,-266 146.911,-241.869 175.893,-224.247 209.406,-212.656"/>
<polygon fill="midnightblue" stroke="midnightblue" points="210.52,-215.974 218.943,-209.546 208.35,-209.319 210.52,-215.974"/>
</g>
<!-- Node5 -->
<g id="node5" class="node"><title>Node5</title>
<polygon fill="none" stroke="#bfbfbf" points="174,-246.5 174,-265.5 308,-265.5 308,-246.5 174,-246.5"/>
<text text-anchor="middle" x="241" y="-253.5" font-family="Helvetica,sans-Serif" font-size="10.00">Framework/DataRefUtils.h</text>
</g>
<!-- Node1&#45;&gt;Node5 -->
<g id="edge4" class="edge"><title>Node1&#45;&gt;Node5</title>
<path fill="none" stroke="midnightblue" d="M306.468,-302.324C294.414,-293.979 275.973,-281.212 261.731,-271.352"/>
<polygon fill="midnightblue" stroke="midnightblue" points="263.715,-268.469 253.501,-265.655 259.731,-274.224 263.715,-268.469"/>
</g>
<!-- Node6 -->
<g id="node6" class="node"><title>Node6</title>
<polygon fill="none" stroke="#bfbfbf" points="326.5,-246.5 326.5,-265.5 467.5,-265.5 467.5,-246.5 326.5,-246.5"/>
<text text-anchor="middle" x="397" y="-253.5" font-family="Helvetica,sans-Serif" font-size="10.00">Headers/RAWDataHeader.h</text>
</g>
<!-- Node1&#45;&gt;Node6 -->
<g id="edge5" class="edge"><title>Node1&#45;&gt;Node6</title>
<path fill="none" stroke="midnightblue" d="M331.532,-302.324C343.586,-293.979 362.027,-281.212 376.269,-271.352"/>
<polygon fill="midnightblue" stroke="midnightblue" points="378.269,-274.224 384.499,-265.655 374.285,-268.469 378.269,-274.224"/>
</g>
<!-- Node7 -->
<g id="node7" class="node"><title>Node7</title>
<polygon fill="none" stroke="#bfbfbf" points="485.5,-246.5 485.5,-265.5 616.5,-265.5 616.5,-246.5 485.5,-246.5"/>
<text text-anchor="middle" x="551" y="-253.5" font-family="Helvetica,sans-Serif" font-size="10.00">DetectorsRaw/HBFUtils.h</text>
</g>
<!-- Node1&#45;&gt;Node7 -->
<g id="edge6" class="edge"><title>Node1&#45;&gt;Node7</title>
<path fill="none" stroke="midnightblue" d="M355.761,-302.444C396.063,-293.063 460.809,-277.993 504.585,-267.804"/>
<polygon fill="midnightblue" stroke="midnightblue" points="505.465,-271.192 514.411,-265.516 503.878,-264.375 505.465,-271.192"/>
</g>
<!-- Node8 -->
<g id="node8" class="node"><title>Node8</title>
<g id="a_node8"><a xlink:href="QcInfoLogger_8h.html" target="_top" xlink:title="QualityControl/QcInfoLogger.h">
<polygon fill="none" stroke="black" points="624.5,-123.5 624.5,-142.5 773.5,-142.5 773.5,-123.5 624.5,-123.5"/>
<text text-anchor="middle" x="699" y="-130.5" font-family="Helvetica,sans-Serif" font-size="10.00">QualityControl/QcInfoLogger.h</text>
</a>
</g>
</g>
<!-- Node1&#45;&gt;Node8 -->
<g id="edge7" class="edge"><title>Node1&#45;&gt;Node8</title>
<path fill="none" stroke="midnightblue" d="M413.015,-307.709C536.231,-302.463 739.631,-290.224 764,-266 791.488,-238.675 788.682,-212.959 770,-179 762.113,-164.663 747.514,-154.253 733.597,-147.079"/>
<polygon fill="midnightblue" stroke="midnightblue" points="734.698,-143.728 724.161,-142.622 731.708,-150.058 734.698,-143.728"/>
</g>
<!-- Node11 -->
<g id="node11" class="node"><title>Node11</title>
<g id="a_node11"><a xlink:href="TaskDiagnostics_8h.html" target="_top" xlink:title="Task to check the diagnostic words of TOF crates received trough the TOF compressor. Here are defined the counters to check the diagnostics words of the TOF crates obtained from the compressor. This is why the DiagnosticCounter class derives from DecoderBase: it reads data from the decoder. ">
<polygon fill="none" stroke="black" points="634.5,-246.5 634.5,-265.5 755.5,-265.5 755.5,-246.5 634.5,-246.5"/>
<text text-anchor="middle" x="695" y="-253.5" font-family="Helvetica,sans-Serif" font-size="10.00">TOF/TaskDiagnostics.h</text>
</a>
</g>
</g>
<!-- Node1&#45;&gt;Node11 -->
<g id="edge10" class="edge"><title>Node1&#45;&gt;Node11</title>
<path fill="none" stroke="midnightblue" d="M378.578,-302.444C445.683,-292.806 554.603,-277.163 625.522,-266.978"/>
<polygon fill="midnightblue" stroke="midnightblue" points="626.3,-270.403 635.7,-265.516 625.304,-263.474 626.3,-270.403"/>
</g>
<!-- Node9 -->
<g id="node9" class="node"><title>Node9</title>
<polygon fill="none" stroke="#bfbfbf" points="428,-62 428,-81 558,-81 558,-62 428,-62"/>
<text text-anchor="middle" x="493" y="-69" font-family="Helvetica,sans-Serif" font-size="10.00">InfoLogger/InfoLogger.hxx</text>
</g>
<!-- Node8&#45;&gt;Node9 -->
<g id="edge8" class="edge"><title>Node8&#45;&gt;Node9</title>
<path fill="none" stroke="midnightblue" d="M669.485,-123.475C633.384,-113.048 572.152,-95.3618 532.146,-83.8066"/>
<polygon fill="midnightblue" stroke="midnightblue" points="533.039,-80.4215 522.46,-81.0091 531.096,-87.1466 533.039,-80.4215"/>
</g>
<!-- Node10 -->
<g id="node10" class="node"><title>Node10</title>
<polygon fill="none" stroke="#bfbfbf" points="576,-62 576,-81 738,-81 738,-62 576,-62"/>
<text text-anchor="middle" x="657" y="-69" font-family="Helvetica,sans-Serif" font-size="10.00">InfoLogger/InfoLoggerMacros.hxx</text>
</g>
<!-- Node8&#45;&gt;Node10 -->
<g id="edge9" class="edge"><title>Node8&#45;&gt;Node10</title>
<path fill="none" stroke="midnightblue" d="M692.982,-123.475C686.745,-114.638 676.827,-100.589 668.982,-89.475"/>
<polygon fill="midnightblue" stroke="midnightblue" points="671.633,-87.1604 663.006,-81.0091 665.914,-91.1972 671.633,-87.1604"/>
</g>
<!-- Node11&#45;&gt;Node4 -->
<g id="edge12" class="edge"><title>Node11&#45;&gt;Node4</title>
<path fill="none" stroke="midnightblue" d="M635.684,-246.475C565.356,-236.368 447.574,-219.44 367.187,-207.887"/>
<polygon fill="midnightblue" stroke="midnightblue" points="367.481,-204.393 357.085,-206.435 366.485,-211.322 367.481,-204.393"/>
</g>
<!-- Node12 -->
<g id="node12" class="node"><title>Node12</title>
<polygon fill="none" stroke="#bfbfbf" points="619,-179.5 619,-209.5 761,-209.5 761,-179.5 619,-179.5"/>
<text text-anchor="start" x="627" y="-197.5" font-family="Helvetica,sans-Serif" font-size="10.00">TOFReconstruction/Decoder</text>
<text text-anchor="middle" x="690" y="-186.5" font-family="Helvetica,sans-Serif" font-size="10.00">Base.h</text>
</g>
<!-- Node11&#45;&gt;Node12 -->
<g id="edge11" class="edge"><title>Node11&#45;&gt;Node12</title>
<path fill="none" stroke="midnightblue" d="M694.284,-246.475C693.695,-239.471 692.831,-229.192 692.033,-219.696"/>
<polygon fill="midnightblue" stroke="midnightblue" points="695.504,-219.195 691.178,-209.523 688.528,-219.781 695.504,-219.195"/>
</g>
<!-- Node13 -->
<g id="node13" class="node"><title>Node13</title>
<g id="a_node13"><a xlink:href="TaskInterface_8h.html" target="_top" xlink:title="QualityControl/TaskInterface.h">
<polygon fill="none" stroke="black" points="1208,-185 1208,-204 1358,-204 1358,-185 1208,-185"/>
<text text-anchor="middle" x="1283" y="-192" font-family="Helvetica,sans-Serif" font-size="10.00">QualityControl/TaskInterface.h</text>
</a>
</g>
</g>
<!-- Node11&#45;&gt;Node13 -->
<g id="edge13" class="edge"><title>Node11&#45;&gt;Node13</title>
<path fill="none" stroke="midnightblue" d="M755.712,-248.857C860.919,-238.211 1077.36,-216.309 1197.65,-204.137"/>
<polygon fill="midnightblue" stroke="midnightblue" points="1198.32,-207.587 1207.92,-203.098 1197.62,-200.622 1198.32,-207.587"/>
</g>
<!-- Node31 -->
<g id="node31" class="node"><title>Node31</title>
<g id="a_node31"><a xlink:href="Counter_8h.html" target="_top" xlink:title="Utilities to count events and fill histograms at the end of the main processing loops. ">
<polygon fill="none" stroke="black" points="515.5,-185 515.5,-204 600.5,-204 600.5,-185 515.5,-185"/>
<text text-anchor="middle" x="558" y="-192" font-family="Helvetica,sans-Serif" font-size="10.00">Base/Counter.h</text>
</a>
</g>
</g>
<!-- Node11&#45;&gt;Node31 -->
<g id="edge38" class="edge"><title>Node11&#45;&gt;Node31</title>
<path fill="none" stroke="midnightblue" d="M675.371,-246.475C652.176,-236.401 613.381,-219.553 586.787,-208.002"/>
<polygon fill="midnightblue" stroke="midnightblue" points="588.159,-204.782 577.592,-204.009 585.37,-211.203 588.159,-204.782"/>
</g>
<!-- Node13&#45;&gt;Node8 -->
<g id="edge37" class="edge"><title>Node13&#45;&gt;Node8</title>
<path fill="none" stroke="midnightblue" d="M1207.85,-185.843C1099,-174.753 898.045,-154.279 783.952,-142.655"/>
<polygon fill="midnightblue" stroke="midnightblue" points="784.167,-139.159 773.864,-141.627 783.457,-146.123 784.167,-139.159"/>
</g>
<!-- Node14 -->
<g id="node14" class="node"><title>Node14</title>
<polygon fill="none" stroke="#bfbfbf" points="1881.5,-0.5 1881.5,-19.5 1916.5,-19.5 1916.5,-0.5 1881.5,-0.5"/>
<text text-anchor="middle" x="1899" y="-7.5" font-family="Helvetica,sans-Serif" font-size="10.00">map</text>
</g>
<!-- Node13&#45;&gt;Node14 -->
<g id="edge14" class="edge"><title>Node13&#45;&gt;Node14</title>
<path fill="none" stroke="midnightblue" d="M1358.27,-190.766C1448.28,-186.188 1602.94,-174.154 1732,-143 1800.37,-126.497 1833.26,-139.547 1880,-87 1893.95,-71.3128 1897.99,-46.9085 1898.99,-30.0048"/>
<polygon fill="midnightblue" stroke="midnightblue" points="1902.5,-29.7961 1899.29,-19.7 1895.5,-29.5956 1902.5,-29.7961"/>
</g>
<!-- Node15 -->
<g id="node15" class="node"><title>Node15</title>
<polygon fill="none" stroke="#bfbfbf" points="1819,-62 1819,-81 1871,-81 1871,-62 1819,-62"/>
<text text-anchor="middle" x="1845" y="-69" font-family="Helvetica,sans-Serif" font-size="10.00">memory</text>
</g>
<!-- Node13&#45;&gt;Node15 -->
<g id="edge15" class="edge"><title>Node13&#45;&gt;Node15</title>
<path fill="none" stroke="midnightblue" d="M1358.08,-191.241C1441.37,-187.135 1579.05,-175.572 1693,-143 1740.74,-129.353 1792.4,-102.559 1821.52,-86.2192"/>
<polygon fill="midnightblue" stroke="midnightblue" points="1823.54,-89.1004 1830.5,-81.1127 1820.07,-83.0163 1823.54,-89.1004"/>
</g>
<!-- Node16 -->
<g id="node16" class="node"><title>Node16</title>
<polygon fill="none" stroke="#bfbfbf" points="1536.5,-0.5 1536.5,-19.5 1577.5,-19.5 1577.5,-0.5 1536.5,-0.5"/>
<text text-anchor="middle" x="1557" y="-7.5" font-family="Helvetica,sans-Serif" font-size="10.00">string</text>
</g>
<!-- Node13&#45;&gt;Node16 -->
<g id="edge16" class="edge"><title>Node13&#45;&gt;Node16</title>
<path fill="none" stroke="midnightblue" d="M1358.21,-188.672C1462.49,-181.201 1640.46,-165.333 1660,-143 1678.62,-121.724 1609.48,-56.5717 1575.19,-26.5033"/>
<polygon fill="midnightblue" stroke="midnightblue" points="1577.15,-23.5684 1567.3,-19.6627 1572.56,-28.8577 1577.15,-23.5684"/>
</g>
<!-- Node17 -->
<g id="node17" class="node"><title>Node17</title>
<polygon fill="none" stroke="#bfbfbf" points="1228.5,-0.5 1228.5,-19.5 1311.5,-19.5 1311.5,-0.5 1228.5,-0.5"/>
<text text-anchor="middle" x="1270" y="-7.5" font-family="Helvetica,sans-Serif" font-size="10.00">unordered_map</text>
</g>
<!-- Node13&#45;&gt;Node17 -->
<g id="edge17" class="edge"><title>Node13&#45;&gt;Node17</title>
<path fill="none" stroke="midnightblue" d="M1207.83,-188.732C1103.06,-181.31 923.678,-165.474 904,-143 859.555,-92.24 1107.33,-40.3227 1218.34,-19.9625"/>
<polygon fill="midnightblue" stroke="midnightblue" points="1219.11,-23.38 1228.32,-18.1489 1217.86,-16.4927 1219.11,-23.38"/>
</g>
<!-- Node18 -->
<g id="node18" class="node"><title>Node18</title>
<polygon fill="none" stroke="#bfbfbf" points="913.5,-123.5 913.5,-142.5 1038.5,-142.5 1038.5,-123.5 913.5,-123.5"/>
<text text-anchor="middle" x="976" y="-130.5" font-family="Helvetica,sans-Serif" font-size="10.00">Framework/InitContext.h</text>
</g>
<!-- Node13&#45;&gt;Node18 -->
<g id="edge18" class="edge"><title>Node13&#45;&gt;Node18</title>
<path fill="none" stroke="midnightblue" d="M1239.01,-184.975C1183.85,-174.283 1089.3,-155.958 1029.85,-144.437"/>
<polygon fill="midnightblue" stroke="midnightblue" points="1030.39,-140.976 1019.9,-142.509 1029.06,-147.848 1030.39,-140.976"/>
</g>
<!-- Node19 -->
<g id="node19" class="node"><title>Node19</title>
<polygon fill="none" stroke="#bfbfbf" points="1057,-123.5 1057,-142.5 1217,-142.5 1217,-123.5 1057,-123.5"/>
<text text-anchor="middle" x="1137" y="-130.5" font-family="Helvetica,sans-Serif" font-size="10.00">Framework/ProcessingContext.h</text>
</g>
<!-- Node13&#45;&gt;Node19 -->
<g id="edge19" class="edge"><title>Node13&#45;&gt;Node19</title>
<path fill="none" stroke="midnightblue" d="M1262.08,-184.975C1237.25,-174.857 1195.66,-157.905 1167.31,-146.351"/>
<polygon fill="midnightblue" stroke="midnightblue" points="1168.46,-143.042 1157.88,-142.509 1165.82,-149.524 1168.46,-143.042"/>
</g>
<!-- Node20 -->
<g id="node20" class="node"><title>Node20</title>
<polygon fill="none" stroke="#bfbfbf" points="1235.5,-123.5 1235.5,-142.5 1330.5,-142.5 1330.5,-123.5 1235.5,-123.5"/>
<text text-anchor="middle" x="1283" y="-130.5" font-family="Helvetica,sans-Serif" font-size="10.00">CCDB/CcdbApi.h</text>
</g>
<!-- Node13&#45;&gt;Node20 -->
<g id="edge20" class="edge"><title>Node13&#45;&gt;Node20</title>
<path fill="none" stroke="midnightblue" d="M1283,-184.975C1283,-176.58 1283,-163.481 1283,-152.663"/>
<polygon fill="midnightblue" stroke="midnightblue" points="1286.5,-152.509 1283,-142.509 1279.5,-152.509 1286.5,-152.509"/>
</g>
<!-- Node21 -->
<g id="node21" class="node"><title>Node21</title>
<g id="a_node21"><a xlink:href="Activity_8h.html" target="_top" xlink:title="QualityControl/Activity.h">
<polygon fill="none" stroke="black" points="1348.5,-123.5 1348.5,-142.5 1471.5,-142.5 1471.5,-123.5 1348.5,-123.5"/>
<text text-anchor="middle" x="1410" y="-130.5" font-family="Helvetica,sans-Serif" font-size="10.00">QualityControl/Activity.h</text>
</a>
</g>
</g>
<!-- Node13&#45;&gt;Node21 -->
<g id="edge21" class="edge"><title>Node13&#45;&gt;Node21</title>
<path fill="none" stroke="midnightblue" d="M1301.2,-184.975C1322.51,-174.99 1358.03,-158.348 1382.66,-146.807"/>
<polygon fill="midnightblue" stroke="midnightblue" points="1384.27,-149.921 1391.84,-142.509 1381.3,-143.582 1384.27,-149.921"/>
</g>
<!-- Node22 -->
<g id="node22" class="node"><title>Node22</title>
<g id="a_node22"><a xlink:href="ObjectsManager_8h.html" target="_top" xlink:title="QualityControl/ObjectsManager.h">
<polygon fill="none" stroke="black" points="1489.5,-123.5 1489.5,-142.5 1650.5,-142.5 1650.5,-123.5 1489.5,-123.5"/>
<text text-anchor="middle" x="1570" y="-130.5" font-family="Helvetica,sans-Serif" font-size="10.00">QualityControl/ObjectsManager.h</text>
</a>
</g>
</g>
<!-- Node13&#45;&gt;Node22 -->
<g id="edge22" class="edge"><title>Node13&#45;&gt;Node22</title>
<path fill="none" stroke="midnightblue" d="M1324.12,-184.975C1375.48,-174.327 1463.36,-156.109 1518.96,-144.581"/>
<polygon fill="midnightblue" stroke="midnightblue" points="1519.87,-147.966 1528.96,-142.509 1518.45,-141.112 1519.87,-147.966"/>
</g>
<!-- Node22&#45;&gt;Node15 -->
<g id="edge36" class="edge"><title>Node22&#45;&gt;Node15</title>
<path fill="none" stroke="midnightblue" d="M1635.29,-123.499C1684.05,-116.254 1751.99,-104.25 1810,-87 1812.29,-86.3198 1814.63,-85.5412 1816.96,-84.7056"/>
<polygon fill="midnightblue" stroke="midnightblue" points="1818.31,-87.9373 1826.37,-81.0573 1815.78,-81.4112 1818.31,-87.9373"/>
</g>
<!-- Node22&#45;&gt;Node16 -->
<g id="edge35" class="edge"><title>Node22&#45;&gt;Node16</title>
<path fill="none" stroke="midnightblue" d="M1569.07,-123.298C1566.98,-103.85 1561.89,-56.49 1559.03,-29.9036"/>
<polygon fill="midnightblue" stroke="midnightblue" points="1562.47,-29.192 1557.93,-19.6232 1555.51,-29.9399 1562.47,-29.192"/>
</g>
<!-- Node23 -->
<g id="node23" class="node"><title>Node23</title>
<g id="a_node23"><a xlink:href="MonitorObject_8h.html" target="_top" xlink:title="QualityControl/MonitorObject.h">
<polygon fill="none" stroke="black" points="1649.5,-62 1649.5,-81 1800.5,-81 1800.5,-62 1649.5,-62"/>
<text text-anchor="middle" x="1725" y="-69" font-family="Helvetica,sans-Serif" font-size="10.00">QualityControl/MonitorObject.h</text>
</a>
</g>
</g>
<!-- Node22&#45;&gt;Node23 -->
<g id="edge23" class="edge"><title>Node22&#45;&gt;Node23</title>
<path fill="none" stroke="midnightblue" d="M1592.21,-123.475C1618.68,-113.313 1663.11,-96.2564 1693.22,-84.6996"/>
<polygon fill="midnightblue" stroke="midnightblue" points="1694.75,-87.8604 1702.83,-81.0091 1692.24,-81.3254 1694.75,-87.8604"/>
</g>
<!-- Node27 -->
<g id="node27" class="node"><title>Node27</title>
<g id="a_node27"><a xlink:href="MonitorObjectCollection_8h.html" target="_top" xlink:title="QualityControl/MonitorObject\lCollection.h">
<polygon fill="none" stroke="black" points="756.5,-56.5 756.5,-86.5 899.5,-86.5 899.5,-56.5 756.5,-56.5"/>
<text text-anchor="start" x="764.5" y="-74.5" font-family="Helvetica,sans-Serif" font-size="10.00">QualityControl/MonitorObject</text>
<text text-anchor="middle" x="828" y="-63.5" font-family="Helvetica,sans-Serif" font-size="10.00">Collection.h</text>
</a>
</g>
</g>
<!-- Node22&#45;&gt;Node27 -->
<g id="edge29" class="edge"><title>Node22&#45;&gt;Node27</title>
<path fill="none" stroke="midnightblue" d="M1489.48,-123.771C1486.62,-123.506 1483.78,-123.248 1481,-123 1275.55,-104.671 1033.39,-86.961 909.697,-78.1962"/>
<polygon fill="midnightblue" stroke="midnightblue" points="909.771,-74.6928 899.549,-77.4784 909.277,-81.6754 909.771,-74.6928"/>
</g>
<!-- Node30 -->
<g id="node30" class="node"><title>Node30</title>
<g id="a_node30"><a xlink:href="TaskConfig_8h.html" target="_top" xlink:title="QualityControl/TaskConfig.h">
<polygon fill="none" stroke="black" points="1402,-62 1402,-81 1542,-81 1542,-62 1402,-62"/>
<text text-anchor="middle" x="1472" y="-69" font-family="Helvetica,sans-Serif" font-size="10.00">QualityControl/TaskConfig.h</text>
</a>
</g>
</g>
<!-- Node22&#45;&gt;Node30 -->
<g id="edge32" class="edge"><title>Node22&#45;&gt;Node30</title>
<path fill="none" stroke="midnightblue" d="M1555.96,-123.475C1539.95,-113.755 1513.55,-97.7266 1494.63,-86.2372"/>
<polygon fill="midnightblue" stroke="midnightblue" points="1496.38,-83.2072 1486.01,-81.0091 1492.75,-89.1907 1496.38,-83.2072"/>
</g>
<!-- Node23&#45;&gt;Node14 -->
<g id="edge25" class="edge"><title>Node23&#45;&gt;Node14</title>
<path fill="none" stroke="midnightblue" d="M1749.93,-61.9751C1782.12,-50.9674 1837.97,-31.8704 1871.4,-20.4363"/>
<polygon fill="midnightblue" stroke="midnightblue" points="1872.68,-23.6987 1881.01,-17.1513 1870.42,-17.0752 1872.68,-23.6987"/>
</g>
<!-- Node23&#45;&gt;Node16 -->
<g id="edge24" class="edge"><title>Node23&#45;&gt;Node16</title>
<path fill="none" stroke="midnightblue" d="M1700.93,-61.9751C1670.92,-51.346 1619.61,-33.1744 1587.05,-21.6426"/>
<polygon fill="midnightblue" stroke="midnightblue" points="1588.19,-18.332 1577.59,-18.2926 1585.85,-24.9303 1588.19,-18.332"/>
</g>
<!-- Node24 -->
<g id="node24" class="node"><title>Node24</title>
<polygon fill="none" stroke="#bfbfbf" points="1807,-0.5 1807,-19.5 1863,-19.5 1863,-0.5 1807,-0.5"/>
<text text-anchor="middle" x="1835" y="-7.5" font-family="Helvetica,sans-Serif" font-size="10.00">Rtypes.h</text>
</g>
<!-- Node23&#45;&gt;Node24 -->
<g id="edge26" class="edge"><title>Node23&#45;&gt;Node24</title>
<path fill="none" stroke="midnightblue" d="M1740.76,-61.9751C1758.98,-52.1222 1789.17,-35.7883 1810.47,-24.2697"/>
<polygon fill="midnightblue" stroke="midnightblue" points="1812.14,-27.3453 1819.27,-19.5091 1808.81,-21.1883 1812.14,-27.3453"/>
</g>
<!-- Node25 -->
<g id="node25" class="node"><title>Node25</title>
<polygon fill="none" stroke="#bfbfbf" points="1595.5,-0.5 1595.5,-19.5 1654.5,-19.5 1654.5,-0.5 1595.5,-0.5"/>
<text text-anchor="middle" x="1625" y="-7.5" font-family="Helvetica,sans-Serif" font-size="10.00">TObject.h</text>
</g>
<!-- Node23&#45;&gt;Node25 -->
<g id="edge27" class="edge"><title>Node23&#45;&gt;Node25</title>
<path fill="none" stroke="midnightblue" d="M1710.67,-61.9751C1694.34,-52.2548 1667.4,-36.2266 1648.09,-24.7372"/>
<polygon fill="midnightblue" stroke="midnightblue" points="1649.68,-21.6146 1639.3,-19.5091 1646.11,-27.6303 1649.68,-21.6146"/>
</g>
<!-- Node26 -->
<g id="node26" class="node"><title>Node26</title>
<polygon fill="none" stroke="#bfbfbf" points="1673,-0.5 1673,-19.5 1789,-19.5 1789,-0.5 1673,-0.5"/>
<text text-anchor="middle" x="1731" y="-7.5" font-family="Helvetica,sans-Serif" font-size="10.00">Common/Exceptions.h</text>
</g>
<!-- Node23&#45;&gt;Node26 -->
<g id="edge28" class="edge"><title>Node23&#45;&gt;Node26</title>
<path fill="none" stroke="midnightblue" d="M1725.86,-61.9751C1726.71,-53.5803 1728.03,-40.4806 1729.12,-29.6631"/>
<polygon fill="midnightblue" stroke="midnightblue" points="1732.62,-29.8098 1730.14,-19.5091 1725.66,-29.1074 1732.62,-29.8098"/>
</g>
<!-- Node28 -->
<g id="node28" class="node"><title>Node28</title>
<polygon fill="none" stroke="#bfbfbf" points="734.5,-0.5 734.5,-19.5 803.5,-19.5 803.5,-0.5 734.5,-0.5"/>
<text text-anchor="middle" x="769" y="-7.5" font-family="Helvetica,sans-Serif" font-size="10.00">TObjArray.h</text>
</g>
<!-- Node27&#45;&gt;Node28 -->
<g id="edge30" class="edge"><title>Node27&#45;&gt;Node28</title>
<path fill="none" stroke="midnightblue" d="M814.018,-56.3993C805.268,-47.575 793.971,-36.1827 784.883,-27.0178"/>
<polygon fill="midnightblue" stroke="midnightblue" points="787.112,-24.2942 777.585,-19.6578 782.141,-29.2231 787.112,-24.2942"/>
</g>
<!-- Node29 -->
<g id="node29" class="node"><title>Node29</title>
<polygon fill="none" stroke="#bfbfbf" points="822,-0.5 822,-19.5 950,-19.5 950,-0.5 822,-0.5"/>
<text text-anchor="middle" x="886" y="-7.5" font-family="Helvetica,sans-Serif" font-size="10.00">Mergers/MergeInterface.h</text>
</g>
<!-- Node27&#45;&gt;Node29 -->
<g id="edge31" class="edge"><title>Node27&#45;&gt;Node29</title>
<path fill="none" stroke="midnightblue" d="M841.745,-56.3993C850.347,-47.575 861.452,-36.1827 870.386,-27.0178"/>
<polygon fill="midnightblue" stroke="midnightblue" points="873.086,-29.2616 877.56,-19.6578 868.074,-24.3755 873.086,-29.2616"/>
</g>
<!-- Node30&#45;&gt;Node16 -->
<g id="edge33" class="edge"><title>Node30&#45;&gt;Node16</title>
<path fill="none" stroke="midnightblue" d="M1484.18,-61.9751C1497.81,-52.4315 1520.13,-36.8073 1536.47,-25.3683"/>
<polygon fill="midnightblue" stroke="midnightblue" points="1538.66,-28.1111 1544.84,-19.5091 1534.64,-22.3764 1538.66,-28.1111"/>
</g>
<!-- Node30&#45;&gt;Node17 -->
<g id="edge34" class="edge"><title>Node30&#45;&gt;Node17</title>
<path fill="none" stroke="midnightblue" d="M1443.06,-61.9751C1407.73,-51.5699 1347.87,-33.9367 1308.64,-22.3801"/>
<polygon fill="midnightblue" stroke="midnightblue" points="1309.47,-18.9773 1298.89,-19.5091 1307.49,-25.6921 1309.47,-18.9773"/>
</g>
<!-- Node31&#45;&gt;Node8 -->
<g id="edge40" class="edge"><title>Node31&#45;&gt;Node8</title>
<path fill="none" stroke="midnightblue" d="M578.202,-184.975C602.074,-174.901 642.002,-158.053 669.373,-146.502"/>
<polygon fill="midnightblue" stroke="midnightblue" points="670.983,-149.622 678.836,-142.509 668.262,-143.172 670.983,-149.622"/>
</g>
<!-- Node32 -->
<g id="node32" class="node"><title>Node32</title>
<polygon fill="none" stroke="#bfbfbf" points="448,-123.5 448,-142.5 492,-142.5 492,-123.5 448,-123.5"/>
<text text-anchor="middle" x="470" y="-130.5" font-family="Helvetica,sans-Serif" font-size="10.00">TH1.h</text>
</g>
<!-- Node31&#45;&gt;Node32 -->
<g id="edge39" class="edge"><title>Node31&#45;&gt;Node32</title>
<path fill="none" stroke="midnightblue" d="M545.392,-184.975C531.277,-175.431 508.169,-159.807 491.251,-148.368"/>
<polygon fill="midnightblue" stroke="midnightblue" points="492.829,-145.211 482.585,-142.509 488.909,-151.01 492.829,-145.211"/>
</g>
<!-- Node33 -->
<g id="node33" class="node"><title>Node33</title>
<polygon fill="none" stroke="#bfbfbf" points="509.5,-123.5 509.5,-142.5 606.5,-142.5 606.5,-123.5 509.5,-123.5"/>
<text text-anchor="middle" x="558" y="-130.5" font-family="Helvetica,sans-Serif" font-size="10.00">fairlogger/Logger.h</text>
</g>
<!-- Node31&#45;&gt;Node33 -->
<g id="edge41" class="edge"><title>Node31&#45;&gt;Node33</title>
<path fill="none" stroke="midnightblue" d="M558,-184.975C558,-176.58 558,-163.481 558,-152.663"/>
<polygon fill="midnightblue" stroke="midnightblue" points="561.5,-152.509 558,-142.509 554.5,-152.509 561.5,-152.509"/>
</g>
</g>
</svg>
        <g id="navigator" transform="translate(0 0)" fill="#404254">
                <rect fill="#f2f5e9" fill-opacity="0.5" stroke="#606060" stroke-width=".5" x="0" y="0" width="60" height="60"/>
                <use id="zoomplus" xlink:href="#zoomPlus" x="17" y="9" onmousedown="handleZoom(evt,'in')"/>
                <use id="zoomminus" xlink:href="#zoomMin" x="42" y="9" onmousedown="handleZoom(evt,'out')"/>
                <use id="reset" xlink:href="#resetDef" x="30" y="36" onmousedown="handleReset()"/>
                <g id="arrowUp" xlink:href="#dirArrow" transform="translate(30 24)" onmousedown="handlePan(0,-1)">
                  <use xlink:href="#rim" fill="#404040">
                        <set attributeName="fill" to="#808080" begin="arrowUp.mouseover" end="arrowUp.mouseout"/>
                  </use>
                  <path fill="none" stroke="white" stroke-width="1.5" d="M0,-3.0v7 M-2.5,-0.5L0,-3.0L2.5,-0.5"/>
                </g>
                <g id="arrowRight" xlink:href="#dirArrow" transform="rotate(90) translate(36 -43)" onmousedown="handlePan(1,0)">
                  <use xlink:href="#rim" fill="#404040">
                        <set attributeName="fill" to="#808080" begin="arrowRight.mouseover" end="arrowRight.mouseout"/>
                  </use>
                  <path fill="none" stroke="white" stroke-width="1.5" d="M0,-3.0v7 M-2.5,-0.5L0,-3.0L2.5,-0.5"/>
                </g>
                <g id="arrowDown" xlink:href="#dirArrow" transform="rotate(180) translate(-30 -48)" onmousedown="handlePan(0,1)">
                  <use xlink:href="#rim" fill="#404040">
                        <set attributeName="fill" to="#808080" begin="arrowDown.mouseover" end="arrowDown.mouseout"/>
                  </use>
                  <path fill="none" stroke="white" stroke-width="1.5" d="M0,-3.0v7 M-2.5,-0.5L0,-3.0L2.5,-0.5"/>
                </g>
                <g id="arrowLeft" xlink:href="#dirArrow" transform="rotate(270) translate(-36 17)" onmousedown="handlePan(-1,0)">
                  <use xlink:href="#rim" fill="#404040">
                        <set attributeName="fill" to="#808080" begin="arrowLeft.mouseover" end="arrowLeft.mouseout"/>
                  </use>
                  <path fill="none" stroke="white" stroke-width="1.5" d="M0,-3.0v7 M-2.5,-0.5L0,-3.0L2.5,-0.5"/>
                </g>
        </g>
        <svg viewBox="0 0 15 15" width="100%" height="30px" preserveAspectRatio="xMaxYMin meet">
         <g id="arrow_out" transform="scale(0.3 0.3)">
          <a xlink:href="TaskDiagnostics_8cxx__incl_org.svg" target="_base">
           <rect id="button" ry="5" rx="5" y="6" x="6" height="38" width="38"
                fill="#f2f5e9" fill-opacity="0.5" stroke="#606060" stroke-width="1.0"/>
           <path id="arrow"
             d="M 11.500037,31.436501 C 11.940474,20.09759 22.043105,11.32322 32.158766,21.979434 L 37.068811,17.246167 C 37.068811,17.246167 37.088388,32 37.088388,32 L 22.160133,31.978069 C 22.160133,31.978069 26.997745,27.140456 26.997745,27.140456 C 18.528582,18.264221 13.291696,25.230495 11.500037,31.436501 z"
             style="fill:#404040;"/>
          </a>
         </g>
        </svg>
</svg>
