<?xml version="1.0" encoding="UTF-8" standalone="no"?>
<!DOCTYPE svg PUBLIC "-//W3C//DTD SVG 1.1//EN"
 "http://www.w3.org/Graphics/SVG/1.1/DTD/svg11.dtd">
<!-- Generated by graphviz version 2.38.0 (20140413.2041)
 -->
<!-- Title: Modules/TOF/src/TaskCompressedData.cxx Pages: 1 -->
<svg width="2055pt" height="341pt"
 viewBox="0.00 0.00 2054.50 341.00" xmlns="http://www.w3.org/2000/svg" xmlns:xlink="http://www.w3.org/1999/xlink">
<g id="graph0" class="graph" transform="scale(1 1) rotate(0) translate(4 337)">
<title>Modules/TOF/src/TaskCompressedData.cxx</title>
<!-- Node1 -->
<g id="node1" class="node"><title>Node1</title>
<polygon fill="#bfbfbf" stroke="black" points="294.5,-302.5 294.5,-332.5 467.5,-332.5 467.5,-302.5 294.5,-302.5"/>
<text text-anchor="start" x="302.5" y="-320.5" font-family="Helvetica,sans-Serif" font-size="10.00">Modules/TOF/src/TaskCompressed</text>
<text text-anchor="middle" x="381" y="-309.5" font-family="Helvetica,sans-Serif" font-size="10.00">Data.cxx</text>
</g>
<!-- Node2 -->
<g id="node2" class="node"><title>Node2</title>
<polygon fill="none" stroke="#bfbfbf" points="0,-246.5 0,-265.5 44,-265.5 44,-246.5 0,-246.5"/>
<text text-anchor="middle" x="22" y="-253.5" font-family="Helvetica,sans-Serif" font-size="10.00">TH1.h</text>
</g>
<!-- Node1&#45;&gt;Node2 -->
<g id="edge1" class="edge"><title>Node1&#45;&gt;Node2</title>
<path fill="none" stroke="midnightblue" d="M294.452,-306.292C230.455,-298.022 141.076,-284.961 54.2836,-266.051"/>
<polygon fill="midnightblue" stroke="midnightblue" points="54.7813,-262.576 44.2619,-263.838 53.2722,-269.412 54.7813,-262.576"/>
</g>
<!-- Node3 -->
<g id="node3" class="node"><title>Node3</title>
<polygon fill="none" stroke="#bfbfbf" points="62,-246.5 62,-265.5 112,-265.5 112,-246.5 62,-246.5"/>
<text text-anchor="middle" x="87" y="-253.5" font-family="Helvetica,sans-Serif" font-size="10.00">TH1F.h</text>
</g>
<!-- Node1&#45;&gt;Node3 -->
<g id="edge2" class="edge"><title>Node1&#45;&gt;Node3</title>
<path fill="none" stroke="midnightblue" d="M301.343,-302.456C252.256,-293.467 187.827,-281.073 122.302,-266.185"/>
<polygon fill="midnightblue" stroke="midnightblue" points="122.733,-262.693 112.204,-263.873 121.171,-269.517 122.733,-262.693"/>
</g>
<!-- Node4 -->
<g id="node4" class="node"><title>Node4</title>
<polygon fill="none" stroke="#bfbfbf" points="130,-246.5 130,-265.5 180,-265.5 180,-246.5 130,-246.5"/>
<text text-anchor="middle" x="155" y="-253.5" font-family="Helvetica,sans-Serif" font-size="10.00">TH2F.h</text>
</g>
<!-- Node1&#45;&gt;Node4 -->
<g id="edge3" class="edge"><title>Node1&#45;&gt;Node4</title>
<path fill="none" stroke="midnightblue" d="M327.727,-302.475C285.143,-291.263 226.677,-275.871 189.872,-266.181"/>
<polygon fill="midnightblue" stroke="midnightblue" points="190.658,-262.769 180.097,-263.607 188.876,-269.538 190.658,-262.769"/>
</g>
<!-- Node5 -->
<g id="node5" class="node"><title>Node5</title>
<polygon fill="none" stroke="#bfbfbf" points="387,-179.5 387,-209.5 539,-209.5 539,-179.5 387,-179.5"/>
<text text-anchor="start" x="395" y="-197.5" font-family="Helvetica,sans-Serif" font-size="10.00">DataFormatsTOF/Compressed</text>
<text text-anchor="middle" x="463" y="-186.5" font-family="Helvetica,sans-Serif" font-size="10.00">DataFormat.h</text>
</g>
<!-- Node1&#45;&gt;Node5 -->
<g id="edge4" class="edge"><title>Node1&#45;&gt;Node5</title>
<path fill="none" stroke="midnightblue" d="M294.371,-304.993C246.724,-294.983 201.901,-277.038 227,-246 245.835,-222.709 317.247,-209.682 376.631,-202.719"/>
<polygon fill="midnightblue" stroke="midnightblue" points="377.26,-206.17 386.804,-201.57 376.475,-199.214 377.26,-206.17"/>
</g>
<!-- Node6 -->
<g id="node6" class="node"><title>Node6</title>
<polygon fill="none" stroke="#bfbfbf" points="236,-246.5 236,-265.5 370,-265.5 370,-246.5 236,-246.5"/>
<text text-anchor="middle" x="303" y="-253.5" font-family="Helvetica,sans-Serif" font-size="10.00">Framework/DataRefUtils.h</text>
</g>
<!-- Node1&#45;&gt;Node6 -->
<g id="edge5" class="edge"><title>Node1&#45;&gt;Node6</title>
<path fill="none" stroke="midnightblue" d="M362.515,-302.399C350.48,-293.218 334.8,-281.258 322.557,-271.918"/>
<polygon fill="midnightblue" stroke="midnightblue" points="324.423,-268.94 314.35,-265.658 320.178,-274.506 324.423,-268.94"/>
</g>
<!-- Node7 -->
<g id="node7" class="node"><title>Node7</title>
<polygon fill="none" stroke="#bfbfbf" points="388.5,-246.5 388.5,-265.5 529.5,-265.5 529.5,-246.5 388.5,-246.5"/>
<text text-anchor="middle" x="459" y="-253.5" font-family="Helvetica,sans-Serif" font-size="10.00">Headers/RAWDataHeader.h</text>
</g>
<!-- Node1&#45;&gt;Node7 -->
<g id="edge6" class="edge"><title>Node1&#45;&gt;Node7</title>
<path fill="none" stroke="midnightblue" d="M399.485,-302.399C411.52,-293.218 427.2,-281.258 439.443,-271.918"/>
<polygon fill="midnightblue" stroke="midnightblue" points="441.822,-274.506 447.65,-265.658 437.577,-268.94 441.822,-274.506"/>
</g>
<!-- Node8 -->
<g id="node8" class="node"><title>Node8</title>
<polygon fill="none" stroke="#bfbfbf" points="547.5,-246.5 547.5,-265.5 678.5,-265.5 678.5,-246.5 547.5,-246.5"/>
<text text-anchor="middle" x="613" y="-253.5" font-family="Helvetica,sans-Serif" font-size="10.00">DetectorsRaw/HBFUtils.h</text>
</g>
<!-- Node1&#45;&gt;Node8 -->
<g id="edge7" class="edge"><title>Node1&#45;&gt;Node8</title>
<path fill="none" stroke="midnightblue" d="M435.687,-302.475C476.76,-291.941 532.226,-277.716 570.118,-267.998"/>
<polygon fill="midnightblue" stroke="midnightblue" points="571.015,-271.381 579.832,-265.506 569.276,-264.6 571.015,-271.381"/>
</g>
<!-- Node9 -->
<g id="node9" class="node"><title>Node9</title>
<polygon fill="none" stroke="#bfbfbf" points="696.5,-246.5 696.5,-265.5 793.5,-265.5 793.5,-246.5 696.5,-246.5"/>
<text text-anchor="middle" x="745" y="-253.5" font-family="Helvetica,sans-Serif" font-size="10.00">fairlogger/Logger.h</text>
</g>
<!-- Node1&#45;&gt;Node9 -->
<g id="edge8" class="edge"><title>Node1&#45;&gt;Node9</title>
<path fill="none" stroke="midnightblue" d="M466.802,-302.475C534.456,-291.416 626.997,-276.289 686.395,-266.58"/>
<polygon fill="midnightblue" stroke="midnightblue" points="687.055,-270.018 696.36,-264.951 685.926,-263.11 687.055,-270.018"/>
</g>
<!-- Node10 -->
<g id="node10" class="node"><title>Node10</title>
<g id="a_node10"><a xlink:href="QcInfoLogger_8h.html" target="_top" xlink:title="QualityControl/QcInfoLogger.h">
<polygon fill="none" stroke="black" points="744.5,-123.5 744.5,-142.5 893.5,-142.5 893.5,-123.5 744.5,-123.5"/>
<text text-anchor="middle" x="819" y="-130.5" font-family="Helvetica,sans-Serif" font-size="10.00">QualityControl/QcInfoLogger.h</text>
</a>
</g>
</g>
<!-- Node1&#45;&gt;Node10 -->
<g id="edge9" class="edge"><title>Node1&#45;&gt;Node10</title>
<path fill="none" stroke="midnightblue" d="M467.954,-311.715C584.287,-304.469 778.736,-289.063 802,-266 832.132,-236.129 827.784,-181.197 822.917,-152.523"/>
<polygon fill="midnightblue" stroke="midnightblue" points="826.339,-151.782 821.031,-142.613 819.462,-153.091 826.339,-151.782"/>
</g>
<!-- Node13 -->
<g id="node13" class="node"><title>Node13</title>
<g id="a_node13"><a xlink:href="TaskCompressedData_8h.html" target="_top" xlink:title="Task To monitor data converted from TOF compressor, it implements a dedicated decoder from DecoderBas...">
<polygon fill="none" stroke="black" points="850,-246.5 850,-265.5 996,-265.5 996,-246.5 850,-246.5"/>
<text text-anchor="middle" x="923" y="-253.5" font-family="Helvetica,sans-Serif" font-size="10.00">TOF/TaskCompressedData.h</text>
</a>
</g>
</g>
<!-- Node1&#45;&gt;Node13 -->
<g id="edge12" class="edge"><title>Node1&#45;&gt;Node13</title>
<path fill="none" stroke="midnightblue" d="M467.781,-306.973C570.132,-295.737 739.053,-277.193 839.814,-266.132"/>
<polygon fill="midnightblue" stroke="midnightblue" points="840.39,-269.59 849.949,-265.019 839.626,-262.632 840.39,-269.59"/>
</g>
<!-- Node11 -->
<g id="node11" class="node"><title>Node11</title>
<polygon fill="none" stroke="#bfbfbf" points="587,-62 587,-81 717,-81 717,-62 587,-62"/>
<text text-anchor="middle" x="652" y="-69" font-family="Helvetica,sans-Serif" font-size="10.00">InfoLogger/InfoLogger.hxx</text>
</g>
<!-- Node10&#45;&gt;Node11 -->
<g id="edge10" class="edge"><title>Node10&#45;&gt;Node11</title>
<path fill="none" stroke="midnightblue" d="M795.073,-123.475C766.303,-113.225 717.844,-95.9593 685.398,-84.3994"/>
<polygon fill="midnightblue" stroke="midnightblue" points="686.477,-81.0684 675.883,-81.0091 684.128,-87.6624 686.477,-81.0684"/>
</g>
<!-- Node12 -->
<g id="node12" class="node"><title>Node12</title>
<polygon fill="none" stroke="#bfbfbf" points="735,-62 735,-81 897,-81 897,-62 735,-62"/>
<text text-anchor="middle" x="816" y="-69" font-family="Helvetica,sans-Serif" font-size="10.00">InfoLogger/InfoLoggerMacros.hxx</text>
</g>
<!-- Node10&#45;&gt;Node12 -->
<g id="edge11" class="edge"><title>Node10&#45;&gt;Node12</title>
<path fill="none" stroke="midnightblue" d="M818.57,-123.475C818.147,-115.08 817.486,-101.981 816.941,-91.1631"/>
<polygon fill="midnightblue" stroke="midnightblue" points="820.428,-90.8201 816.429,-81.0091 813.437,-91.1727 820.428,-90.8201"/>
</g>
<!-- Node13&#45;&gt;Node5 -->
<g id="edge14" class="edge"><title>Node13&#45;&gt;Node5</title>
<path fill="none" stroke="midnightblue" d="M857.093,-246.475C776.122,-236.002 638.534,-218.205 549.227,-206.653"/>
<polygon fill="midnightblue" stroke="midnightblue" points="549.489,-203.158 539.123,-205.346 548.591,-210.1 549.489,-203.158"/>
</g>
<!-- Node14 -->
<g id="node14" class="node"><title>Node14</title>
<polygon fill="none" stroke="#bfbfbf" points="852,-179.5 852,-209.5 994,-209.5 994,-179.5 852,-179.5"/>
<text text-anchor="start" x="860" y="-197.5" font-family="Helvetica,sans-Serif" font-size="10.00">TOFReconstruction/Decoder</text>
<text text-anchor="middle" x="923" y="-186.5" font-family="Helvetica,sans-Serif" font-size="10.00">Base.h</text>
</g>
<!-- Node13&#45;&gt;Node14 -->
<g id="edge13" class="edge"><title>Node13&#45;&gt;Node14</title>
<path fill="none" stroke="midnightblue" d="M923,-246.475C923,-239.471 923,-229.192 923,-219.696"/>
<polygon fill="midnightblue" stroke="midnightblue" points="926.5,-219.523 923,-209.523 919.5,-219.523 926.5,-219.523"/>
</g>
<!-- Node15 -->
<g id="node15" class="node"><title>Node15</title>
<g id="a_node15"><a xlink:href="TaskInterface_8h.html" target="_top" xlink:title="QualityControl/TaskInterface.h">
<polygon fill="none" stroke="black" points="1017,-185 1017,-204 1167,-204 1167,-185 1017,-185"/>
<text text-anchor="middle" x="1092" y="-192" font-family="Helvetica,sans-Serif" font-size="10.00">QualityControl/TaskInterface.h</text>
</a>
</g>
</g>
<!-- Node13&#45;&gt;Node15 -->
<g id="edge15" class="edge"><title>Node13&#45;&gt;Node15</title>
<path fill="none" stroke="midnightblue" d="M947.214,-246.475C976.329,-236.225 1025.37,-218.959 1058.2,-207.399"/>
<polygon fill="midnightblue" stroke="midnightblue" points="1059.56,-210.631 1067.83,-204.009 1057.24,-204.029 1059.56,-210.631"/>
</g>
<!-- Node15&#45;&gt;Node10 -->
<g id="edge39" class="edge"><title>Node15&#45;&gt;Node10</title>
<path fill="none" stroke="midnightblue" d="M1052.89,-184.975C1004.13,-174.349 920.789,-156.185 867.876,-144.652"/>
<polygon fill="midnightblue" stroke="midnightblue" points="868.558,-141.219 858.042,-142.509 867.067,-148.058 868.558,-141.219"/>
</g>
<!-- Node16 -->
<g id="node16" class="node"><title>Node16</title>
<polygon fill="none" stroke="#bfbfbf" points="1777.5,-0.5 1777.5,-19.5 1812.5,-19.5 1812.5,-0.5 1777.5,-0.5"/>
<text text-anchor="middle" x="1795" y="-7.5" font-family="Helvetica,sans-Serif" font-size="10.00">map</text>
</g>
<!-- Node15&#45;&gt;Node16 -->
<g id="edge16" class="edge"><title>Node15&#45;&gt;Node16</title>
<path fill="none" stroke="midnightblue" d="M1167.09,-193.161C1335.54,-191.671 1732.25,-183.819 1776,-143 1807.09,-113.997 1803.35,-58.6869 1798.76,-29.7313"/>
<polygon fill="midnightblue" stroke="midnightblue" points="1802.17,-28.9417 1796.96,-19.7166 1795.28,-30.1775 1802.17,-28.9417"/>
</g>
<!-- Node17 -->
<g id="node17" class="node"><title>Node17</title>
<polygon fill="none" stroke="#bfbfbf" points="1152,-62 1152,-81 1204,-81 1204,-62 1152,-62"/>
<text text-anchor="middle" x="1178" y="-69" font-family="Helvetica,sans-Serif" font-size="10.00">memory</text>
</g>
<!-- Node15&#45;&gt;Node17 -->
<g id="edge17" class="edge"><title>Node15&#45;&gt;Node17</title>
<path fill="none" stroke="midnightblue" d="M1070.91,-184.858C1043.62,-172.409 1001.64,-148.149 1020,-123 1047.67,-85.1101 1104.11,-74.9937 1141.5,-72.6463"/>
<polygon fill="midnightblue" stroke="midnightblue" points="1142.14,-76.1203 1151.97,-72.159 1141.81,-69.1278 1142.14,-76.1203"/>
</g>
<!-- Node18 -->
<g id="node18" class="node"><title>Node18</title>
<polygon fill="none" stroke="#bfbfbf" points="1432.5,-0.5 1432.5,-19.5 1473.5,-19.5 1473.5,-0.5 1432.5,-0.5"/>
<text text-anchor="middle" x="1453" y="-7.5" font-family="Helvetica,sans-Serif" font-size="10.00">string</text>
</g>
<!-- Node15&#45;&gt;Node18 -->
<g id="edge18" class="edge"><title>Node15&#45;&gt;Node18</title>
<path fill="none" stroke="midnightblue" d="M1067.71,-184.992C1038.44,-173.303 995.142,-150.557 1012,-123 1046.13,-67.2153 1080.69,-75.8535 1143,-56 1241.82,-24.5132 1365.44,-14.9658 1422.08,-12.1439"/>
<polygon fill="midnightblue" stroke="midnightblue" points="1422.34,-15.6356 1432.17,-11.678 1422.01,-8.64306 1422.34,-15.6356"/>
</g>
<!-- Node19 -->
<g id="node19" class="node"><title>Node19</title>
<polygon fill="none" stroke="#bfbfbf" points="1107.5,-0.5 1107.5,-19.5 1190.5,-19.5 1190.5,-0.5 1107.5,-0.5"/>
<text text-anchor="middle" x="1149" y="-7.5" font-family="Helvetica,sans-Serif" font-size="10.00">unordered_map</text>
</g>
<!-- Node15&#45;&gt;Node19 -->
<g id="edge19" class="edge"><title>Node15&#45;&gt;Node19</title>
<path fill="none" stroke="midnightblue" d="M1052.59,-184.947C1014.64,-175.816 961.24,-160.303 949,-143 926.67,-111.433 924.845,-86.1936 949,-56 967.238,-33.2024 1044.24,-21.1433 1097.2,-15.422"/>
<polygon fill="midnightblue" stroke="midnightblue" points="1097.86,-18.8724 1107.45,-14.3609 1097.14,-11.9097 1097.86,-18.8724"/>
</g>
<!-- Node20 -->
<g id="node20" class="node"><title>Node20</title>
<polygon fill="none" stroke="#bfbfbf" points="1029.5,-123.5 1029.5,-142.5 1154.5,-142.5 1154.5,-123.5 1029.5,-123.5"/>
<text text-anchor="middle" x="1092" y="-130.5" font-family="Helvetica,sans-Serif" font-size="10.00">Framework/InitContext.h</text>
</g>
<!-- Node15&#45;&gt;Node20 -->
<g id="edge20" class="edge"><title>Node15&#45;&gt;Node20</title>
<path fill="none" stroke="midnightblue" d="M1092,-184.975C1092,-176.58 1092,-163.481 1092,-152.663"/>
<polygon fill="midnightblue" stroke="midnightblue" points="1095.5,-152.509 1092,-142.509 1088.5,-152.509 1095.5,-152.509"/>
</g>
<!-- Node21 -->
<g id="node21" class="node"><title>Node21</title>
<polygon fill="none" stroke="#bfbfbf" points="1173,-123.5 1173,-142.5 1333,-142.5 1333,-123.5 1173,-123.5"/>
<text text-anchor="middle" x="1253" y="-130.5" font-family="Helvetica,sans-Serif" font-size="10.00">Framework/ProcessingContext.h</text>
</g>
<!-- Node15&#45;&gt;Node21 -->
<g id="edge21" class="edge"><title>Node15&#45;&gt;Node21</title>
<path fill="none" stroke="midnightblue" d="M1115.07,-184.975C1142.68,-174.769 1189.12,-157.608 1220.4,-146.049"/>
<polygon fill="midnightblue" stroke="midnightblue" points="1221.81,-149.259 1229.98,-142.509 1219.38,-142.693 1221.81,-149.259"/>
</g>
<!-- Node22 -->
<g id="node22" class="node"><title>Node22</title>
<polygon fill="none" stroke="#bfbfbf" points="1351.5,-123.5 1351.5,-142.5 1446.5,-142.5 1446.5,-123.5 1351.5,-123.5"/>
<text text-anchor="middle" x="1399" y="-130.5" font-family="Helvetica,sans-Serif" font-size="10.00">CCDB/CcdbApi.h</text>
</g>
<!-- Node15&#45;&gt;Node22 -->
<g id="edge22" class="edge"><title>Node15&#45;&gt;Node22</title>
<path fill="none" stroke="midnightblue" d="M1135.99,-184.975C1191.15,-174.283 1285.7,-155.958 1345.15,-144.437"/>
<polygon fill="midnightblue" stroke="midnightblue" points="1345.94,-147.848 1355.1,-142.509 1344.61,-140.976 1345.94,-147.848"/>
</g>
<!-- Node23 -->
<g id="node23" class="node"><title>Node23</title>
<g id="a_node23"><a xlink:href="Activity_8h.html" target="_top" xlink:title="QualityControl/Activity.h">
<polygon fill="none" stroke="black" points="1464.5,-123.5 1464.5,-142.5 1587.5,-142.5 1587.5,-123.5 1464.5,-123.5"/>
<text text-anchor="middle" x="1526" y="-130.5" font-family="Helvetica,sans-Serif" font-size="10.00">QualityControl/Activity.h</text>
</a>
</g>
</g>
<!-- Node15&#45;&gt;Node23 -->
<g id="edge23" class="edge"><title>Node15&#45;&gt;Node23</title>
<path fill="none" stroke="midnightblue" d="M1154.18,-184.975C1233.57,-174.091 1370.66,-155.297 1454.35,-143.823"/>
<polygon fill="midnightblue" stroke="midnightblue" points="1454.85,-147.287 1464.28,-142.461 1453.9,-140.352 1454.85,-147.287"/>
</g>
<!-- Node24 -->
<g id="node24" class="node"><title>Node24</title>
<g id="a_node24"><a xlink:href="ObjectsManager_8h.html" target="_top" xlink:title="QualityControl/ObjectsManager.h">
<polygon fill="none" stroke="black" points="1605.5,-123.5 1605.5,-142.5 1766.5,-142.5 1766.5,-123.5 1605.5,-123.5"/>
<text text-anchor="middle" x="1686" y="-130.5" font-family="Helvetica,sans-Serif" font-size="10.00">QualityControl/ObjectsManager.h</text>
</a>
</g>
</g>
<!-- Node15&#45;&gt;Node24 -->
<g id="edge24" class="edge"><title>Node15&#45;&gt;Node24</title>
<path fill="none" stroke="midnightblue" d="M1167.29,-185.997C1263.86,-176.368 1436.82,-159.102 1595.07,-143.193"/>
<polygon fill="midnightblue" stroke="midnightblue" points="1595.87,-146.63 1605.47,-142.148 1595.17,-139.666 1595.87,-146.63"/>
</g>
<!-- Node24&#45;&gt;Node17 -->
<g id="edge38" class="edge"><title>Node24&#45;&gt;Node17</title>
<path fill="none" stroke="midnightblue" d="M1613.22,-123.475C1502.85,-110.548 1297.23,-86.4647 1214.18,-76.7376"/>
<polygon fill="midnightblue" stroke="midnightblue" points="1214.55,-73.2574 1204.21,-75.5703 1213.74,-80.2099 1214.55,-73.2574"/>
</g>
<!-- Node24&#45;&gt;Node18 -->
<g id="edge37" class="edge"><title>Node24&#45;&gt;Node18</title>
<path fill="none" stroke="midnightblue" d="M1667.91,-123.413C1649.29,-114.508 1619.46,-100.083 1594,-87 1552.85,-65.8543 1505.63,-40.0918 1477.61,-24.6459"/>
<polygon fill="midnightblue" stroke="midnightblue" points="1478.99,-21.4088 1468.54,-19.6373 1475.6,-27.5361 1478.99,-21.4088"/>
</g>
<!-- Node25 -->
<g id="node25" class="node"><title>Node25</title>
<g id="a_node25"><a xlink:href="MonitorObject_8h.html" target="_top" xlink:title="QualityControl/MonitorObject.h">
<polygon fill="none" stroke="black" points="1602.5,-62 1602.5,-81 1753.5,-81 1753.5,-62 1602.5,-62"/>
<text text-anchor="middle" x="1678" y="-69" font-family="Helvetica,sans-Serif" font-size="10.00">QualityControl/MonitorObject.h</text>
</a>
</g>
</g>
<!-- Node24&#45;&gt;Node25 -->
<g id="edge25" class="edge"><title>Node24&#45;&gt;Node25</title>
<path fill="none" stroke="midnightblue" d="M1684.85,-123.475C1683.73,-115.08 1681.96,-101.981 1680.51,-91.1631"/>
<polygon fill="midnightblue" stroke="midnightblue" points="1683.95,-90.4535 1679.14,-81.0091 1677.01,-91.3863 1683.95,-90.4535"/>
</g>
<!-- Node29 -->
<g id="node29" class="node"><title>Node29</title>
<g id="a_node29"><a xlink:href="MonitorObjectCollection_8h.html" target="_top" xlink:title="QualityControl/MonitorObject\lCollection.h">
<polygon fill="none" stroke="black" points="1823.5,-56.5 1823.5,-86.5 1966.5,-86.5 1966.5,-56.5 1823.5,-56.5"/>
<text text-anchor="start" x="1831.5" y="-74.5" font-family="Helvetica,sans-Serif" font-size="10.00">QualityControl/MonitorObject</text>
<text text-anchor="middle" x="1895" y="-63.5" font-family="Helvetica,sans-Serif" font-size="10.00">Collection.h</text>
</a>
</g>
</g>
<!-- Node24&#45;&gt;Node29 -->
<g id="edge31" class="edge"><title>Node24&#45;&gt;Node29</title>
<path fill="none" stroke="midnightblue" d="M1715.94,-123.475C1747.16,-114.588 1796.9,-100.429 1836.04,-89.2859"/>
<polygon fill="midnightblue" stroke="midnightblue" points="1837.08,-92.6274 1845.74,-86.523 1835.17,-85.8949 1837.08,-92.6274"/>
</g>
<!-- Node32 -->
<g id="node32" class="node"><title>Node32</title>
<g id="a_node32"><a xlink:href="TaskConfig_8h.html" target="_top" xlink:title="QualityControl/TaskConfig.h">
<polygon fill="none" stroke="black" points="1383,-62 1383,-81 1523,-81 1523,-62 1383,-62"/>
<text text-anchor="middle" x="1453" y="-69" font-family="Helvetica,sans-Serif" font-size="10.00">QualityControl/TaskConfig.h</text>
</a>
</g>
</g>
<!-- Node24&#45;&gt;Node32 -->
<g id="edge34" class="edge"><title>Node24&#45;&gt;Node32</title>
<path fill="none" stroke="midnightblue" d="M1652.62,-123.475C1611.44,-112.959 1541.35,-95.0615 1496.13,-83.5142"/>
<polygon fill="midnightblue" stroke="midnightblue" points="1496.88,-80.0922 1486.32,-81.0091 1495.14,-86.8746 1496.88,-80.0922"/>
</g>
<!-- Node25&#45;&gt;Node16 -->
<g id="edge27" class="edge"><title>Node25&#45;&gt;Node16</title>
<path fill="none" stroke="midnightblue" d="M1694.76,-61.9751C1714.22,-52.078 1746.55,-35.6416 1769.21,-24.1151"/>
<polygon fill="midnightblue" stroke="midnightblue" points="1770.94,-27.1619 1778.27,-19.5091 1767.77,-20.9224 1770.94,-27.1619"/>
</g>
<!-- Node25&#45;&gt;Node18 -->
<g id="edge26" class="edge"><title>Node25&#45;&gt;Node18</title>
<path fill="none" stroke="midnightblue" d="M1643.37,-61.9556C1606.29,-52.7114 1545.48,-37.2882 1483.57,-20.0774"/>
<polygon fill="midnightblue" stroke="midnightblue" points="1484.2,-16.6194 1473.63,-17.3005 1482.32,-23.3614 1484.2,-16.6194"/>
</g>
<!-- Node26 -->
<g id="node26" class="node"><title>Node26</title>
<polygon fill="none" stroke="#bfbfbf" points="1703,-0.5 1703,-19.5 1759,-19.5 1759,-0.5 1703,-0.5"/>
<text text-anchor="middle" x="1731" y="-7.5" font-family="Helvetica,sans-Serif" font-size="10.00">Rtypes.h</text>
</g>
<!-- Node25&#45;&gt;Node26 -->
<g id="edge28" class="edge"><title>Node25&#45;&gt;Node26</title>
<path fill="none" stroke="midnightblue" d="M1685.59,-61.9751C1693.7,-52.8733 1706.73,-38.241 1716.76,-26.983"/>
<polygon fill="midnightblue" stroke="midnightblue" points="1719.38,-29.3043 1723.42,-19.5091 1714.16,-24.6483 1719.38,-29.3043"/>
</g>
<!-- Node27 -->
<g id="node27" class="node"><title>Node27</title>
<polygon fill="none" stroke="#bfbfbf" points="1491.5,-0.5 1491.5,-19.5 1550.5,-19.5 1550.5,-0.5 1491.5,-0.5"/>
<text text-anchor="middle" x="1521" y="-7.5" font-family="Helvetica,sans-Serif" font-size="10.00">TObject.h</text>
</g>
<!-- Node25&#45;&gt;Node27 -->
<g id="edge29" class="edge"><title>Node25&#45;&gt;Node27</title>
<path fill="none" stroke="midnightblue" d="M1655.51,-61.9751C1628.69,-51.8129 1583.68,-34.7564 1553.19,-23.1996"/>
<polygon fill="midnightblue" stroke="midnightblue" points="1554.04,-19.7801 1543.45,-19.5091 1551.56,-26.3258 1554.04,-19.7801"/>
</g>
<!-- Node28 -->
<g id="node28" class="node"><title>Node28</title>
<polygon fill="none" stroke="#bfbfbf" points="1569,-0.5 1569,-19.5 1685,-19.5 1685,-0.5 1569,-0.5"/>
<text text-anchor="middle" x="1627" y="-7.5" font-family="Helvetica,sans-Serif" font-size="10.00">Common/Exceptions.h</text>
</g>
<!-- Node25&#45;&gt;Node28 -->
<g id="edge30" class="edge"><title>Node25&#45;&gt;Node28</title>
<path fill="none" stroke="midnightblue" d="M1670.69,-61.9751C1662.97,-52.9617 1650.59,-38.5246 1640.98,-27.3118"/>
<polygon fill="midnightblue" stroke="midnightblue" points="1643.46,-24.8239 1634.29,-19.5091 1638.14,-29.3795 1643.46,-24.8239"/>
</g>
<!-- Node30 -->
<g id="node30" class="node"><title>Node30</title>
<polygon fill="none" stroke="#bfbfbf" points="1977.5,-0.5 1977.5,-19.5 2046.5,-19.5 2046.5,-0.5 1977.5,-0.5"/>
<text text-anchor="middle" x="2012" y="-7.5" font-family="Helvetica,sans-Serif" font-size="10.00">TObjArray.h</text>
</g>
<!-- Node29&#45;&gt;Node30 -->
<g id="edge32" class="edge"><title>Node29&#45;&gt;Node30</title>
<path fill="none" stroke="midnightblue" d="M1922.73,-56.3993C1941.83,-46.6837 1967.06,-33.8551 1985.82,-24.3137"/>
<polygon fill="midnightblue" stroke="midnightblue" points="1987.65,-27.3106 1994.98,-19.6578 1984.48,-21.071 1987.65,-27.3106"/>
</g>
<!-- Node31 -->
<g id="node31" class="node"><title>Node31</title>
<polygon fill="none" stroke="#bfbfbf" points="1831,-0.5 1831,-19.5 1959,-19.5 1959,-0.5 1831,-0.5"/>
<text text-anchor="middle" x="1895" y="-7.5" font-family="Helvetica,sans-Serif" font-size="10.00">Mergers/MergeInterface.h</text>
</g>
<!-- Node29&#45;&gt;Node31 -->
<g id="edge33" class="edge"><title>Node29&#45;&gt;Node31</title>
<path fill="none" stroke="midnightblue" d="M1895,-56.3993C1895,-48.4664 1895,-38.458 1895,-29.8583"/>
<polygon fill="midnightblue" stroke="midnightblue" points="1898.5,-29.6577 1895,-19.6578 1891.5,-29.6578 1898.5,-29.6577"/>
</g>
<!-- Node32&#45;&gt;Node18 -->
<g id="edge35" class="edge"><title>Node32&#45;&gt;Node18</title>
<path fill="none" stroke="midnightblue" d="M1453,-61.9751C1453,-53.5803 1453,-40.4806 1453,-29.6631"/>
<polygon fill="midnightblue" stroke="midnightblue" points="1456.5,-29.5091 1453,-19.5091 1449.5,-29.5091 1456.5,-29.5091"/>
</g>
<!-- Node32&#45;&gt;Node19 -->
<g id="edge36" class="edge"><title>Node32&#45;&gt;Node19</title>
<path fill="none" stroke="midnightblue" d="M1409.44,-61.9751C1354.31,-51.1836 1259.45,-32.6173 1200.7,-21.1186"/>
<polygon fill="midnightblue" stroke="midnightblue" points="1201.01,-17.6131 1190.52,-19.1271 1199.66,-24.4828 1201.01,-17.6131"/>
</g>
</g>
</svg>
