<?xml version="1.0" encoding="UTF-8" standalone="no"?>
<!DOCTYPE svg PUBLIC "-//W3C//DTD SVG 1.1//EN"
 "http://www.w3.org/Graphics/SVG/1.1/DTD/svg11.dtd">
<!-- Generated by graphviz version 2.38.0 (20140413.2041)
 -->
<!-- Title: Modules/TPC/src/Tracks.cxx Pages: 1 -->
<svg width="1367pt" height="319pt"
 viewBox="0.00 0.00 1367.00 319.00" xmlns="http://www.w3.org/2000/svg" xmlns:xlink="http://www.w3.org/1999/xlink">
<g id="graph0" class="graph" transform="scale(1 1) rotate(0) translate(4 315)">
<title>Modules/TPC/src/Tracks.cxx</title>
<!-- Node1 -->
<g id="node1" class="node"><title>Node1</title>
<polygon fill="#bfbfbf" stroke="black" points="145,-291.5 145,-310.5 290,-310.5 290,-291.5 145,-291.5"/>
<text text-anchor="middle" x="217.5" y="-298.5" font-family="Helvetica,sans-Serif" font-size="10.00">Modules/TPC/src/Tracks.cxx</text>
</g>
<!-- Node2 -->
<g id="node2" class="node"><title>Node2</title>
<polygon fill="none" stroke="#bfbfbf" points="0,-235.5 0,-254.5 65,-254.5 65,-235.5 0,-235.5"/>
<text text-anchor="middle" x="32.5" y="-242.5" font-family="Helvetica,sans-Serif" font-size="10.00">TCanvas.h</text>
</g>
<!-- Node1&#45;&gt;Node2 -->
<g id="edge1" class="edge"><title>Node1&#45;&gt;Node2</title>
<path fill="none" stroke="midnightblue" d="M188.186,-291.444C156.658,-282.241 106.369,-267.562 71.5143,-257.388"/>
<polygon fill="midnightblue" stroke="midnightblue" points="72.2568,-253.959 61.6767,-254.516 70.2954,-260.678 72.2568,-253.959"/>
</g>
<!-- Node3 -->
<g id="node3" class="node"><title>Node3</title>
<polygon fill="none" stroke="#bfbfbf" points="83.5,-235.5 83.5,-254.5 127.5,-254.5 127.5,-235.5 83.5,-235.5"/>
<text text-anchor="middle" x="105.5" y="-242.5" font-family="Helvetica,sans-Serif" font-size="10.00">TH1.h</text>
</g>
<!-- Node1&#45;&gt;Node3 -->
<g id="edge2" class="edge"><title>Node1&#45;&gt;Node3</title>
<path fill="none" stroke="midnightblue" d="M199.505,-291.324C181.462,-282.625 153.453,-269.12 132.697,-259.113"/>
<polygon fill="midnightblue" stroke="midnightblue" points="133.978,-255.845 123.45,-254.655 130.938,-262.15 133.978,-255.845"/>
</g>
<!-- Node4 -->
<g id="node4" class="node"><title>Node4</title>
<polygon fill="none" stroke="#bfbfbf" points="145.5,-235.5 145.5,-254.5 189.5,-254.5 189.5,-235.5 145.5,-235.5"/>
<text text-anchor="middle" x="167.5" y="-242.5" font-family="Helvetica,sans-Serif" font-size="10.00">TH2.h</text>
</g>
<!-- Node1&#45;&gt;Node4 -->
<g id="edge3" class="edge"><title>Node1&#45;&gt;Node4</title>
<path fill="none" stroke="midnightblue" d="M209.244,-291.083C202.035,-283.298 191.39,-271.801 182.654,-262.367"/>
<polygon fill="midnightblue" stroke="midnightblue" points="184.965,-259.711 175.603,-254.751 179.829,-264.467 184.965,-259.711"/>
</g>
<!-- Node5 -->
<g id="node5" class="node"><title>Node5</title>
<polygon fill="none" stroke="#bfbfbf" points="137.5,-123.5 137.5,-142.5 297.5,-142.5 297.5,-123.5 137.5,-123.5"/>
<text text-anchor="middle" x="217.5" y="-130.5" font-family="Helvetica,sans-Serif" font-size="10.00">Framework/ProcessingContext.h</text>
</g>
<!-- Node1&#45;&gt;Node5 -->
<g id="edge4" class="edge"><title>Node1&#45;&gt;Node5</title>
<path fill="none" stroke="midnightblue" d="M217.5,-291.075C217.5,-264.945 217.5,-188.211 217.5,-152.577"/>
<polygon fill="midnightblue" stroke="midnightblue" points="221,-152.568 217.5,-142.568 214,-152.568 221,-152.568"/>
</g>
<!-- Node6 -->
<g id="node6" class="node"><title>Node6</title>
<polygon fill="none" stroke="#bfbfbf" points="245.5,-235.5 245.5,-254.5 395.5,-254.5 395.5,-235.5 245.5,-235.5"/>
<text text-anchor="middle" x="320.5" y="-242.5" font-family="Helvetica,sans-Serif" font-size="10.00">DataFormatsTPC/TrackTPC.h</text>
</g>
<!-- Node1&#45;&gt;Node6 -->
<g id="edge5" class="edge"><title>Node1&#45;&gt;Node6</title>
<path fill="none" stroke="midnightblue" d="M234.049,-291.324C250.492,-282.703 275.935,-269.364 294.968,-259.386"/>
<polygon fill="midnightblue" stroke="midnightblue" points="296.761,-262.398 303.992,-254.655 293.511,-256.198 296.761,-262.398"/>
</g>
<!-- Node7 -->
<g id="node7" class="node"><title>Node7</title>
<g id="a_node7"><a xlink:href="QcInfoLogger_8h.html" target="_top" xlink:title="QualityControl/QcInfoLogger.h">
<polygon fill="none" stroke="black" points="316,-123.5 316,-142.5 465,-142.5 465,-123.5 316,-123.5"/>
<text text-anchor="middle" x="390.5" y="-130.5" font-family="Helvetica,sans-Serif" font-size="10.00">QualityControl/QcInfoLogger.h</text>
</a>
</g>
</g>
<!-- Node1&#45;&gt;Node7 -->
<g id="edge6" class="edge"><title>Node1&#45;&gt;Node7</title>
<path fill="none" stroke="midnightblue" d="M290.476,-291.742C336.628,-284.845 390.189,-273.163 404.5,-255 427.966,-225.218 411.694,-177.799 399.837,-152.057"/>
<polygon fill="midnightblue" stroke="midnightblue" points="402.831,-150.21 395.303,-142.755 396.538,-153.277 402.831,-150.21"/>
</g>
<!-- Node10 -->
<g id="node10" class="node"><title>Node10</title>
<g id="a_node10"><a xlink:href="Tracks_8h.html" target="_top" xlink:title="TPC/Tracks.h">
<polygon fill="none" stroke="black" points="540.5,-235.5 540.5,-254.5 618.5,-254.5 618.5,-235.5 540.5,-235.5"/>
<text text-anchor="middle" x="579.5" y="-242.5" font-family="Helvetica,sans-Serif" font-size="10.00">TPC/Tracks.h</text>
</a>
</g>
</g>
<!-- Node1&#45;&gt;Node10 -->
<g id="edge9" class="edge"><title>Node1&#45;&gt;Node10</title>
<path fill="none" stroke="midnightblue" d="M274.86,-291.444C345.257,-280.942 463.452,-263.311 530.032,-253.379"/>
<polygon fill="midnightblue" stroke="midnightblue" points="530.885,-256.791 540.259,-251.854 529.852,-249.867 530.885,-256.791"/>
</g>
<!-- Node8 -->
<g id="node8" class="node"><title>Node8</title>
<polygon fill="none" stroke="#bfbfbf" points="243.5,-62 243.5,-81 373.5,-81 373.5,-62 243.5,-62"/>
<text text-anchor="middle" x="308.5" y="-69" font-family="Helvetica,sans-Serif" font-size="10.00">InfoLogger/InfoLogger.hxx</text>
</g>
<!-- Node7&#45;&gt;Node8 -->
<g id="edge7" class="edge"><title>Node7&#45;&gt;Node8</title>
<path fill="none" stroke="midnightblue" d="M378.751,-123.475C365.721,-114.02 344.464,-98.5961 328.741,-87.1871"/>
<polygon fill="midnightblue" stroke="midnightblue" points="330.376,-84.0492 320.227,-81.0091 326.265,-89.7149 330.376,-84.0492"/>
</g>
<!-- Node9 -->
<g id="node9" class="node"><title>Node9</title>
<polygon fill="none" stroke="#bfbfbf" points="391.5,-62 391.5,-81 553.5,-81 553.5,-62 391.5,-62"/>
<text text-anchor="middle" x="472.5" y="-69" font-family="Helvetica,sans-Serif" font-size="10.00">InfoLogger/InfoLoggerMacros.hxx</text>
</g>
<!-- Node7&#45;&gt;Node9 -->
<g id="edge8" class="edge"><title>Node7&#45;&gt;Node9</title>
<path fill="none" stroke="midnightblue" d="M402.249,-123.475C415.279,-114.02 436.536,-98.5961 452.259,-87.1871"/>
<polygon fill="midnightblue" stroke="midnightblue" points="454.735,-89.7149 460.773,-81.0091 450.624,-84.0492 454.735,-89.7149"/>
</g>
<!-- Node11 -->
<g id="node11" class="node"><title>Node11</title>
<polygon fill="none" stroke="#bfbfbf" points="533,-179.5 533,-198.5 626,-198.5 626,-179.5 533,-179.5"/>
<text text-anchor="middle" x="579.5" y="-186.5" font-family="Helvetica,sans-Serif" font-size="10.00">TPCQC/Tracks.h</text>
</g>
<!-- Node10&#45;&gt;Node11 -->
<g id="edge10" class="edge"><title>Node10&#45;&gt;Node11</title>
<path fill="none" stroke="midnightblue" d="M579.5,-235.083C579.5,-228.006 579.5,-217.861 579.5,-208.986"/>
<polygon fill="midnightblue" stroke="midnightblue" points="583,-208.751 579.5,-198.751 576,-208.751 583,-208.751"/>
</g>
<!-- Node12 -->
<g id="node12" class="node"><title>Node12</title>
<g id="a_node12"><a xlink:href="TaskInterface_8h.html" target="_top" xlink:title="QualityControl/TaskInterface.h">
<polygon fill="none" stroke="black" points="725.5,-179.5 725.5,-198.5 875.5,-198.5 875.5,-179.5 725.5,-179.5"/>
<text text-anchor="middle" x="800.5" y="-186.5" font-family="Helvetica,sans-Serif" font-size="10.00">QualityControl/TaskInterface.h</text>
</a>
</g>
</g>
<!-- Node10&#45;&gt;Node12 -->
<g id="edge11" class="edge"><title>Node10&#45;&gt;Node12</title>
<path fill="none" stroke="midnightblue" d="M614.518,-235.444C652.748,-226.102 714.067,-211.119 755.757,-200.933"/>
<polygon fill="midnightblue" stroke="midnightblue" points="756.762,-204.29 765.646,-198.516 755.101,-197.49 756.762,-204.29"/>
</g>
<!-- Node12&#45;&gt;Node5 -->
<g id="edge17" class="edge"><title>Node12&#45;&gt;Node5</title>
<path fill="none" stroke="midnightblue" d="M725.311,-181.34C630.697,-172.914 462.914,-157.821 308.142,-143.054"/>
<polygon fill="midnightblue" stroke="midnightblue" points="308.255,-139.549 297.967,-142.081 307.589,-146.517 308.255,-139.549"/>
</g>
<!-- Node12&#45;&gt;Node7 -->
<g id="edge35" class="edge"><title>Node12&#45;&gt;Node7</title>
<path fill="none" stroke="midnightblue" d="M735.534,-179.444C662.062,-169.767 542.619,-154.035 465.312,-143.853"/>
<polygon fill="midnightblue" stroke="midnightblue" points="465.533,-140.352 455.162,-142.516 464.619,-147.292 465.533,-140.352"/>
</g>
<!-- Node13 -->
<g id="node13" class="node"><title>Node13</title>
<polygon fill="none" stroke="#bfbfbf" points="815,-0.5 815,-19.5 850,-19.5 850,-0.5 815,-0.5"/>
<text text-anchor="middle" x="832.5" y="-7.5" font-family="Helvetica,sans-Serif" font-size="10.00">map</text>
</g>
<!-- Node12&#45;&gt;Node13 -->
<g id="edge12" class="edge"><title>Node12&#45;&gt;Node13</title>
<path fill="none" stroke="midnightblue" d="M825.661,-179.378C841.919,-172.343 861.793,-160.645 871.5,-143 892.529,-104.774 863.725,-53.9316 845.473,-27.9124"/>
<polygon fill="midnightblue" stroke="midnightblue" points="848.065,-25.5267 839.338,-19.5188 842.414,-29.6575 848.065,-25.5267"/>
</g>
<!-- Node14 -->
<g id="node14" class="node"><title>Node14</title>
<polygon fill="none" stroke="#bfbfbf" points="1259.5,-62 1259.5,-81 1311.5,-81 1311.5,-62 1259.5,-62"/>
<text text-anchor="middle" x="1285.5" y="-69" font-family="Helvetica,sans-Serif" font-size="10.00">memory</text>
</g>
<!-- Node12&#45;&gt;Node14 -->
<g id="edge13" class="edge"><title>Node12&#45;&gt;Node14</title>
<path fill="none" stroke="midnightblue" d="M875.759,-184.757C945.208,-180.185 1050.57,-169.218 1138.5,-143 1184.8,-129.194 1234.72,-102.454 1262.84,-86.1665"/>
<polygon fill="midnightblue" stroke="midnightblue" points="1264.65,-89.1599 1271.5,-81.0776 1261.11,-83.1239 1264.65,-89.1599"/>
</g>
<!-- Node15 -->
<g id="node15" class="node"><title>Node15</title>
<polygon fill="none" stroke="#bfbfbf" points="1154,-0.5 1154,-19.5 1195,-19.5 1195,-0.5 1154,-0.5"/>
<text text-anchor="middle" x="1174.5" y="-7.5" font-family="Helvetica,sans-Serif" font-size="10.00">string</text>
</g>
<!-- Node12&#45;&gt;Node15 -->
<g id="edge14" class="edge"><title>Node12&#45;&gt;Node15</title>
<path fill="none" stroke="midnightblue" d="M875.508,-185.758C1007.29,-179.955 1271.13,-159.357 1320.5,-87 1351.01,-42.2819 1256.41,-22.1282 1205.16,-14.6718"/>
<polygon fill="midnightblue" stroke="midnightblue" points="1205.62,-11.2027 1195.24,-13.3077 1204.67,-18.1375 1205.62,-11.2027"/>
</g>
<!-- Node16 -->
<g id="node16" class="node"><title>Node16</title>
<polygon fill="none" stroke="#bfbfbf" points="1276,-0.5 1276,-19.5 1359,-19.5 1359,-0.5 1276,-0.5"/>
<text text-anchor="middle" x="1317.5" y="-7.5" font-family="Helvetica,sans-Serif" font-size="10.00">unordered_map</text>
</g>
<!-- Node12&#45;&gt;Node16 -->
<g id="edge15" class="edge"><title>Node12&#45;&gt;Node16</title>
<path fill="none" stroke="midnightblue" d="M875.761,-185.193C986.775,-180.274 1188.61,-168.132 1256.5,-143 1297.2,-127.933 1316.46,-125.496 1336.5,-87 1346.17,-68.4186 1337.33,-44.6837 1328.75,-28.7237"/>
<polygon fill="midnightblue" stroke="midnightblue" points="1331.67,-26.7822 1323.61,-19.9067 1325.62,-30.3084 1331.67,-26.7822"/>
</g>
<!-- Node17 -->
<g id="node17" class="node"><title>Node17</title>
<polygon fill="none" stroke="#bfbfbf" points="483,-123.5 483,-142.5 608,-142.5 608,-123.5 483,-123.5"/>
<text text-anchor="middle" x="545.5" y="-130.5" font-family="Helvetica,sans-Serif" font-size="10.00">Framework/InitContext.h</text>
</g>
<!-- Node12&#45;&gt;Node17 -->
<g id="edge16" class="edge"><title>Node12&#45;&gt;Node17</title>
<path fill="none" stroke="midnightblue" d="M760.094,-179.444C715.517,-170.004 643.732,-154.802 595.608,-144.611"/>
<polygon fill="midnightblue" stroke="midnightblue" points="596.225,-141.164 585.716,-142.516 594.774,-148.012 596.225,-141.164"/>
</g>
<!-- Node18 -->
<g id="node18" class="node"><title>Node18</title>
<polygon fill="none" stroke="#bfbfbf" points="626,-123.5 626,-142.5 721,-142.5 721,-123.5 626,-123.5"/>
<text text-anchor="middle" x="673.5" y="-130.5" font-family="Helvetica,sans-Serif" font-size="10.00">CCDB/CcdbApi.h</text>
</g>
<!-- Node12&#45;&gt;Node18 -->
<g id="edge18" class="edge"><title>Node12&#45;&gt;Node18</title>
<path fill="none" stroke="midnightblue" d="M780.376,-179.444C759.476,-170.557 726.565,-156.563 702.784,-146.451"/>
<polygon fill="midnightblue" stroke="midnightblue" points="704.102,-143.208 693.529,-142.516 701.362,-149.65 704.102,-143.208"/>
</g>
<!-- Node19 -->
<g id="node19" class="node"><title>Node19</title>
<g id="a_node19"><a xlink:href="Activity_8h.html" target="_top" xlink:title="QualityControl/Activity.h">
<polygon fill="none" stroke="black" points="739,-123.5 739,-142.5 862,-142.5 862,-123.5 739,-123.5"/>
<text text-anchor="middle" x="800.5" y="-130.5" font-family="Helvetica,sans-Serif" font-size="10.00">QualityControl/Activity.h</text>
</a>
</g>
</g>
<!-- Node12&#45;&gt;Node19 -->
<g id="edge19" class="edge"><title>Node12&#45;&gt;Node19</title>
<path fill="none" stroke="midnightblue" d="M800.5,-179.083C800.5,-172.006 800.5,-161.861 800.5,-152.986"/>
<polygon fill="midnightblue" stroke="midnightblue" points="804,-152.751 800.5,-142.751 797,-152.751 804,-152.751"/>
</g>
<!-- Node20 -->
<g id="node20" class="node"><title>Node20</title>
<g id="a_node20"><a xlink:href="ObjectsManager_8h.html" target="_top" xlink:title="QualityControl/ObjectsManager.h">
<polygon fill="none" stroke="black" points="968,-123.5 968,-142.5 1129,-142.5 1129,-123.5 968,-123.5"/>
<text text-anchor="middle" x="1048.5" y="-130.5" font-family="Helvetica,sans-Serif" font-size="10.00">QualityControl/ObjectsManager.h</text>
</a>
</g>
</g>
<!-- Node12&#45;&gt;Node20 -->
<g id="edge20" class="edge"><title>Node12&#45;&gt;Node20</title>
<path fill="none" stroke="midnightblue" d="M839.796,-179.444C883.059,-170.023 952.673,-154.866 999.473,-144.675"/>
<polygon fill="midnightblue" stroke="midnightblue" points="1000.36,-148.064 1009.39,-142.516 998.872,-141.224 1000.36,-148.064"/>
</g>
<!-- Node20&#45;&gt;Node14 -->
<g id="edge34" class="edge"><title>Node20&#45;&gt;Node14</title>
<path fill="none" stroke="midnightblue" d="M1098.11,-123.439C1139.4,-115.724 1199.45,-103.126 1250.5,-87 1252.64,-86.3239 1254.83,-85.5704 1257.02,-84.7722"/>
<polygon fill="midnightblue" stroke="midnightblue" points="1258.42,-87.983 1266.47,-81.0873 1255.88,-81.4619 1258.42,-87.983"/>
</g>
<!-- Node20&#45;&gt;Node15 -->
<g id="edge33" class="edge"><title>Node20&#45;&gt;Node15</title>
<path fill="none" stroke="midnightblue" d="M1051.63,-123.488C1057.58,-108.304 1071.78,-76.2475 1092.5,-56 1107.35,-41.4829 1127.83,-30.2392 1144.61,-22.6217"/>
<polygon fill="midnightblue" stroke="midnightblue" points="1146.2,-25.7452 1153.99,-18.5583 1143.42,-19.3221 1146.2,-25.7452"/>
</g>
<!-- Node21 -->
<g id="node21" class="node"><title>Node21</title>
<g id="a_node21"><a xlink:href="MonitorObject_8h.html" target="_top" xlink:title="QualityControl/MonitorObject.h">
<polygon fill="none" stroke="black" points="894,-62 894,-81 1045,-81 1045,-62 894,-62"/>
<text text-anchor="middle" x="969.5" y="-69" font-family="Helvetica,sans-Serif" font-size="10.00">QualityControl/MonitorObject.h</text>
</a>
</g>
</g>
<!-- Node20&#45;&gt;Node21 -->
<g id="edge21" class="edge"><title>Node20&#45;&gt;Node21</title>
<path fill="none" stroke="midnightblue" d="M1037.18,-123.475C1024.63,-114.02 1004.15,-98.5961 989.001,-87.1871"/>
<polygon fill="midnightblue" stroke="midnightblue" points="990.891,-84.2295 980.798,-81.0091 986.68,-89.821 990.891,-84.2295"/>
</g>
<!-- Node25 -->
<g id="node25" class="node"><title>Node25</title>
<g id="a_node25"><a xlink:href="MonitorObjectCollection_8h.html" target="_top" xlink:title="QualityControl/MonitorObject\lCollection.h">
<polygon fill="none" stroke="black" points="691,-56.5 691,-86.5 834,-86.5 834,-56.5 691,-56.5"/>
<text text-anchor="start" x="699" y="-74.5" font-family="Helvetica,sans-Serif" font-size="10.00">QualityControl/MonitorObject</text>
<text text-anchor="middle" x="762.5" y="-63.5" font-family="Helvetica,sans-Serif" font-size="10.00">Collection.h</text>
</a>
</g>
</g>
<!-- Node20&#45;&gt;Node25 -->
<g id="edge27" class="edge"><title>Node20&#45;&gt;Node25</title>
<path fill="none" stroke="midnightblue" d="M1007.52,-123.475C963.901,-114.4 893.851,-99.8265 839.801,-88.5818"/>
<polygon fill="midnightblue" stroke="midnightblue" points="840.408,-85.1332 829.905,-86.523 838.982,-91.9865 840.408,-85.1332"/>
</g>
<!-- Node28 -->
<g id="node28" class="node"><title>Node28</title>
<g id="a_node28"><a xlink:href="TaskConfig_8h.html" target="_top" xlink:title="QualityControl/TaskConfig.h">
<polygon fill="none" stroke="black" points="1101.5,-62 1101.5,-81 1241.5,-81 1241.5,-62 1101.5,-62"/>
<text text-anchor="middle" x="1171.5" y="-69" font-family="Helvetica,sans-Serif" font-size="10.00">QualityControl/TaskConfig.h</text>
</a>
</g>
</g>
<!-- Node20&#45;&gt;Node28 -->
<g id="edge30" class="edge"><title>Node20&#45;&gt;Node28</title>
<path fill="none" stroke="midnightblue" d="M1066.12,-123.475C1086.67,-113.534 1120.86,-96.9947 1144.71,-85.461"/>
<polygon fill="midnightblue" stroke="midnightblue" points="1146.43,-88.5145 1153.91,-81.0091 1143.38,-82.2131 1146.43,-88.5145"/>
</g>
<!-- Node21&#45;&gt;Node13 -->
<g id="edge23" class="edge"><title>Node21&#45;&gt;Node13</title>
<path fill="none" stroke="midnightblue" d="M949.871,-61.9751C926.253,-51.7175 886.461,-34.4356 859.844,-22.8756"/>
<polygon fill="midnightblue" stroke="midnightblue" points="860.915,-19.5252 850.349,-18.7519 858.127,-25.9458 860.915,-19.5252"/>
</g>
<!-- Node21&#45;&gt;Node15 -->
<g id="edge22" class="edge"><title>Node21&#45;&gt;Node15</title>
<path fill="none" stroke="midnightblue" d="M999.565,-61.928C1032.54,-52.5029 1087.28,-36.7916 1143.99,-20.1264"/>
<polygon fill="midnightblue" stroke="midnightblue" points="1145.25,-23.4061 1153.85,-17.2256 1143.27,-16.6908 1145.25,-23.4061"/>
</g>
<!-- Node22 -->
<g id="node22" class="node"><title>Node22</title>
<polygon fill="none" stroke="#bfbfbf" points="1079.5,-0.5 1079.5,-19.5 1135.5,-19.5 1135.5,-0.5 1079.5,-0.5"/>
<text text-anchor="middle" x="1107.5" y="-7.5" font-family="Helvetica,sans-Serif" font-size="10.00">Rtypes.h</text>
</g>
<!-- Node21&#45;&gt;Node22 -->
<g id="edge24" class="edge"><title>Node21&#45;&gt;Node22</title>
<path fill="none" stroke="midnightblue" d="M989.272,-61.9751C1012.64,-51.9013 1051.71,-35.0525 1078.5,-23.5023"/>
<polygon fill="midnightblue" stroke="midnightblue" points="1079.97,-26.6824 1087.76,-19.5091 1077.2,-20.2544 1079.97,-26.6824"/>
</g>
<!-- Node23 -->
<g id="node23" class="node"><title>Node23</title>
<polygon fill="none" stroke="#bfbfbf" points="868,-0.5 868,-19.5 927,-19.5 927,-0.5 868,-0.5"/>
<text text-anchor="middle" x="897.5" y="-7.5" font-family="Helvetica,sans-Serif" font-size="10.00">TObject.h</text>
</g>
<!-- Node21&#45;&gt;Node23 -->
<g id="edge25" class="edge"><title>Node21&#45;&gt;Node23</title>
<path fill="none" stroke="midnightblue" d="M959.184,-61.9751C947.849,-52.6082 929.427,-37.3839 915.661,-26.0081"/>
<polygon fill="midnightblue" stroke="midnightblue" points="917.735,-23.1813 907.797,-19.5091 913.276,-28.5773 917.735,-23.1813"/>
</g>
<!-- Node24 -->
<g id="node24" class="node"><title>Node24</title>
<polygon fill="none" stroke="#bfbfbf" points="945.5,-0.5 945.5,-19.5 1061.5,-19.5 1061.5,-0.5 945.5,-0.5"/>
<text text-anchor="middle" x="1003.5" y="-7.5" font-family="Helvetica,sans-Serif" font-size="10.00">Common/Exceptions.h</text>
</g>
<!-- Node21&#45;&gt;Node24 -->
<g id="edge26" class="edge"><title>Node21&#45;&gt;Node24</title>
<path fill="none" stroke="midnightblue" d="M974.371,-61.9751C979.37,-53.2268 987.289,-39.3691 993.609,-28.3093"/>
<polygon fill="midnightblue" stroke="midnightblue" points="996.715,-29.928 998.638,-19.5091 990.637,-26.455 996.715,-29.928"/>
</g>
<!-- Node26 -->
<g id="node26" class="node"><title>Node26</title>
<polygon fill="none" stroke="#bfbfbf" points="728,-0.5 728,-19.5 797,-19.5 797,-0.5 728,-0.5"/>
<text text-anchor="middle" x="762.5" y="-7.5" font-family="Helvetica,sans-Serif" font-size="10.00">TObjArray.h</text>
</g>
<!-- Node25&#45;&gt;Node26 -->
<g id="edge28" class="edge"><title>Node25&#45;&gt;Node26</title>
<path fill="none" stroke="midnightblue" d="M762.5,-56.3993C762.5,-48.4664 762.5,-38.458 762.5,-29.8583"/>
<polygon fill="midnightblue" stroke="midnightblue" points="766,-29.6577 762.5,-19.6578 759,-29.6578 766,-29.6577"/>
</g>
<!-- Node27 -->
<g id="node27" class="node"><title>Node27</title>
<polygon fill="none" stroke="#bfbfbf" points="581.5,-0.5 581.5,-19.5 709.5,-19.5 709.5,-0.5 581.5,-0.5"/>
<text text-anchor="middle" x="645.5" y="-7.5" font-family="Helvetica,sans-Serif" font-size="10.00">Mergers/MergeInterface.h</text>
</g>
<!-- Node25&#45;&gt;Node27 -->
<g id="edge29" class="edge"><title>Node25&#45;&gt;Node27</title>
<path fill="none" stroke="midnightblue" d="M734.773,-56.3993C715.668,-46.6837 690.442,-33.8551 671.68,-24.3137"/>
<polygon fill="midnightblue" stroke="midnightblue" points="673.025,-21.071 662.525,-19.6578 669.852,-27.3106 673.025,-21.071"/>
</g>
<!-- Node28&#45;&gt;Node15 -->
<g id="edge31" class="edge"><title>Node28&#45;&gt;Node15</title>
<path fill="none" stroke="midnightblue" d="M1171.93,-61.9751C1172.35,-53.5803 1173.01,-40.4806 1173.56,-29.6631"/>
<polygon fill="midnightblue" stroke="midnightblue" points="1177.06,-29.6727 1174.07,-19.5091 1170.07,-29.3201 1177.06,-29.6727"/>
</g>
<!-- Node28&#45;&gt;Node16 -->
<g id="edge32" class="edge"><title>Node28&#45;&gt;Node16</title>
<path fill="none" stroke="midnightblue" d="M1192.42,-61.9751C1217.25,-51.8571 1258.84,-34.9046 1287.19,-23.3507"/>
<polygon fill="midnightblue" stroke="midnightblue" points="1288.68,-26.5243 1296.62,-19.5091 1286.04,-20.0419 1288.68,-26.5243"/>
</g>
</g>
</svg>
