<?xml version="1.0" encoding="UTF-8" standalone="no"?>
<!DOCTYPE svg PUBLIC "-//W3C//DTD SVG 1.1//EN"
 "http://www.w3.org/Graphics/SVG/1.1/DTD/svg11.dtd">
<!-- Generated by graphviz version 2.38.0 (20140413.2041)
 -->
<!-- Title: Framework/include/QualityControl/Triggers.h Pages: 1 -->
<svg width="1910pt" height="251pt"
 viewBox="0.00 0.00 1910.00 251.00" xmlns="http://www.w3.org/2000/svg" xmlns:xlink="http://www.w3.org/1999/xlink">
<g id="graph0" class="graph" transform="scale(1 1) rotate(0) translate(4 247)">
<title>Framework/include/QualityControl/Triggers.h</title>
<!-- Node1 -->
<g id="node1" class="node"><title>Node1</title>
<polygon fill="#bfbfbf" stroke="black" points="784.5,-212.5 784.5,-242.5 917.5,-242.5 917.5,-212.5 784.5,-212.5"/>
<text text-anchor="start" x="792.5" y="-230.5" font-family="Helvetica,sans-Serif" font-size="10.00">Framework/include/Quality</text>
<text text-anchor="middle" x="851" y="-219.5" font-family="Helvetica,sans-Serif" font-size="10.00">Control/Triggers.h</text>
</g>
<!-- Node2 -->
<g id="node2" class="node"><title>Node2</title>
<g id="a_node2"><a xlink:href="PostProcessingInterface_8h.html" target="_top" xlink:title="Framework/include/Quality\lControl/PostProcessingInterface.h">
<polygon fill="none" stroke="black" points="911.5,-145.5 911.5,-175.5 1078.5,-175.5 1078.5,-145.5 911.5,-145.5"/>
<text text-anchor="start" x="919.5" y="-163.5" font-family="Helvetica,sans-Serif" font-size="10.00">Framework/include/Quality</text>
<text text-anchor="middle" x="995" y="-152.5" font-family="Helvetica,sans-Serif" font-size="10.00">Control/PostProcessingInterface.h</text>
</a>
</g>
</g>
<!-- Node1&#45;&gt;Node2 -->
<g id="edge1" class="edge"><title>Node1&#45;&gt;Node2</title>
<path fill="none" stroke="midnightblue" d="M891.389,-208.269C914.325,-197.916 942.6,-185.153 963.815,-175.577"/>
<polygon fill="midnightblue" stroke="midnightblue" points="889.92,-205.092 882.246,-212.396 892.8,-211.472 889.92,-205.092"/>
</g>
<!-- Node3 -->
<g id="node3" class="node"><title>Node3</title>
<g id="a_node3"><a xlink:href="PostProcessingRunner_8h.html" target="_top" xlink:title="Framework/include/Quality\lControl/PostProcessingRunner.h">
<polygon fill="none" stroke="black" points="520,-73 520,-103 680,-103 680,-73 520,-73"/>
<text text-anchor="start" x="528" y="-91" font-family="Helvetica,sans-Serif" font-size="10.00">Framework/include/Quality</text>
<text text-anchor="middle" x="600" y="-80" font-family="Helvetica,sans-Serif" font-size="10.00">Control/PostProcessingRunner.h</text>
</a>
</g>
</g>
<!-- Node1&#45;&gt;Node3 -->
<g id="edge21" class="edge"><title>Node1&#45;&gt;Node3</title>
<path fill="none" stroke="midnightblue" d="M776.265,-209.657C749.245,-201.744 719.208,-190.735 694,-176 660.021,-156.138 628.092,-122.152 611.623,-103.067"/>
<polygon fill="midnightblue" stroke="midnightblue" points="775.493,-213.076 786.068,-212.434 777.401,-206.341 775.493,-213.076"/>
</g>
<!-- Node11 -->
<g id="node11" class="node"><title>Node11</title>
<g id="a_node11"><a xlink:href="testTrendingTask_8cxx.html" target="_top" xlink:title="Framework/test/testTrending\lTask.cxx">
<polygon fill="none" stroke="black" points="924,-0.5 924,-30.5 1066,-30.5 1066,-0.5 924,-0.5"/>
<text text-anchor="start" x="932" y="-18.5" font-family="Helvetica,sans-Serif" font-size="10.00">Framework/test/testTrending</text>
<text text-anchor="middle" x="995" y="-7.5" font-family="Helvetica,sans-Serif" font-size="10.00">Task.cxx</text>
</a>
</g>
</g>
<!-- Node1&#45;&gt;Node11 -->
<g id="edge27" class="edge"><title>Node1&#45;&gt;Node11</title>
<path fill="none" stroke="midnightblue" d="M816.591,-207.093C767.09,-176.752 686.007,-116.439 727,-67 727.799,-66.0361 844.684,-44.2734 923.808,-29.6347"/>
<polygon fill="midnightblue" stroke="midnightblue" points="815.055,-210.253 825.43,-212.4 818.658,-204.251 815.055,-210.253"/>
</g>
<!-- Node22 -->
<g id="node22" class="node"><title>Node22</title>
<g id="a_node22"><a xlink:href="TriggerHelpers_8h.html" target="_top" xlink:title="Framework/include/Quality\lControl/TriggerHelpers.h">
<polygon fill="none" stroke="black" points="181.5,-145.5 181.5,-175.5 314.5,-175.5 314.5,-145.5 181.5,-145.5"/>
<text text-anchor="start" x="189.5" y="-163.5" font-family="Helvetica,sans-Serif" font-size="10.00">Framework/include/Quality</text>
<text text-anchor="middle" x="248" y="-152.5" font-family="Helvetica,sans-Serif" font-size="10.00">Control/TriggerHelpers.h</text>
</a>
</g>
</g>
<!-- Node1&#45;&gt;Node22 -->
<g id="edge22" class="edge"><title>Node1&#45;&gt;Node22</title>
<path fill="none" stroke="midnightblue" d="M774.317,-218.234C655.157,-205.389 427.537,-180.853 314.75,-168.695"/>
<polygon fill="midnightblue" stroke="midnightblue" points="774.137,-221.735 784.454,-219.327 774.887,-214.775 774.137,-221.735"/>
</g>
<!-- Node25 -->
<g id="node25" class="node"><title>Node25</title>
<g id="a_node25"><a xlink:href="Triggers_8cxx.html" target="_top" xlink:title="Framework/src/Triggers.cxx">
<polygon fill="none" stroke="black" points="1096.5,-151 1096.5,-170 1235.5,-170 1235.5,-151 1096.5,-151"/>
<text text-anchor="middle" x="1166" y="-158" font-family="Helvetica,sans-Serif" font-size="10.00">Framework/src/Triggers.cxx</text>
</a>
</g>
</g>
<!-- Node1&#45;&gt;Node25 -->
<g id="edge26" class="edge"><title>Node1&#45;&gt;Node25</title>
<path fill="none" stroke="midnightblue" d="M927.92,-210.628C989.82,-197.855 1074.45,-180.392 1124.35,-170.094"/>
<polygon fill="midnightblue" stroke="midnightblue" points="926.89,-207.266 917.803,-212.715 928.304,-214.122 926.89,-207.266"/>
</g>
<!-- Node26 -->
<g id="node26" class="node"><title>Node26</title>
<g id="a_node26"><a xlink:href="testTriggers_8cxx.html" target="_top" xlink:title="Framework/test/testTriggers.cxx">
<polygon fill="none" stroke="black" points="1254,-151 1254,-170 1412,-170 1412,-151 1254,-151"/>
<text text-anchor="middle" x="1333" y="-158" font-family="Helvetica,sans-Serif" font-size="10.00">Framework/test/testTriggers.cxx</text>
</a>
</g>
</g>
<!-- Node1&#45;&gt;Node26 -->
<g id="edge28" class="edge"><title>Node1&#45;&gt;Node26</title>
<path fill="none" stroke="midnightblue" d="M928.24,-217.355C1007.56,-207.779 1134.55,-191.943 1244,-176 1256.55,-174.172 1270.07,-172.049 1282.68,-170.001"/>
<polygon fill="midnightblue" stroke="midnightblue" points="927.359,-213.935 917.849,-218.606 928.196,-220.885 927.359,-213.935"/>
</g>
<!-- Node2&#45;&gt;Node3 -->
<g id="edge2" class="edge"><title>Node2&#45;&gt;Node3</title>
<path fill="none" stroke="midnightblue" d="M906.594,-143.721C838.24,-131.521 744.481,-114.787 678.7,-103.047"/>
<polygon fill="midnightblue" stroke="midnightblue" points="906.029,-147.176 916.488,-145.487 907.259,-140.285 906.029,-147.176"/>
</g>
<!-- Node9 -->
<g id="node9" class="node"><title>Node9</title>
<g id="a_node9"><a xlink:href="TrendingTask_8h.html" target="_top" xlink:title="Framework/include/Quality\lControl/TrendingTask.h">
<polygon fill="none" stroke="black" points="1099.5,-73 1099.5,-103 1232.5,-103 1232.5,-73 1099.5,-73"/>
<text text-anchor="start" x="1107.5" y="-91" font-family="Helvetica,sans-Serif" font-size="10.00">Framework/include/Quality</text>
<text text-anchor="middle" x="1166" y="-80" font-family="Helvetica,sans-Serif" font-size="10.00">Control/TrendingTask.h</text>
</a>
</g>
</g>
<!-- Node2&#45;&gt;Node9 -->
<g id="edge8" class="edge"><title>Node2&#45;&gt;Node9</title>
<path fill="none" stroke="midnightblue" d="M1038.66,-141.499C1067.62,-129.559 1105.09,-114.114 1131.87,-103.073"/>
<polygon fill="midnightblue" stroke="midnightblue" points="1037.1,-138.355 1029.19,-145.403 1039.77,-144.827 1037.1,-138.355"/>
</g>
<!-- Node12 -->
<g id="node12" class="node"><title>Node12</title>
<g id="a_node12"><a xlink:href="PostProcessingInterface_8cxx.html" target="_top" xlink:title="Framework/src/PostProcessing\lInterface.cxx">
<polygon fill="none" stroke="black" points="736,-73 736,-103 890,-103 890,-73 736,-73"/>
<text text-anchor="start" x="744" y="-91" font-family="Helvetica,sans-Serif" font-size="10.00">Framework/src/PostProcessing</text>
<text text-anchor="middle" x="813" y="-80" font-family="Helvetica,sans-Serif" font-size="10.00">Interface.cxx</text>
</a>
</g>
</g>
<!-- Node2&#45;&gt;Node12 -->
<g id="edge11" class="edge"><title>Node2&#45;&gt;Node12</title>
<path fill="none" stroke="midnightblue" d="M948.931,-141.655C918.051,-129.693 877.956,-114.162 849.33,-103.073"/>
<polygon fill="midnightblue" stroke="midnightblue" points="948.018,-145.054 958.607,-145.403 950.546,-138.527 948.018,-145.054"/>
</g>
<!-- Node13 -->
<g id="node13" class="node"><title>Node13</title>
<g id="a_node13"><a xlink:href="testPostProcessingInterface_8cxx.html" target="_top" xlink:title="Framework/test/testPostProcessing\lInterface.cxx">
<polygon fill="none" stroke="black" points="908.5,-73 908.5,-103 1081.5,-103 1081.5,-73 908.5,-73"/>
<text text-anchor="start" x="916.5" y="-91" font-family="Helvetica,sans-Serif" font-size="10.00">Framework/test/testPostProcessing</text>
<text text-anchor="middle" x="995" y="-80" font-family="Helvetica,sans-Serif" font-size="10.00">Interface.cxx</text>
</a>
</g>
</g>
<!-- Node2&#45;&gt;Node13 -->
<g id="edge12" class="edge"><title>Node2&#45;&gt;Node13</title>
<path fill="none" stroke="midnightblue" d="M995,-135.232C995,-124.568 995,-112.414 995,-103.246"/>
<polygon fill="midnightblue" stroke="midnightblue" points="991.5,-135.233 995,-145.233 998.5,-135.233 991.5,-135.233"/>
</g>
<!-- Node14 -->
<g id="node14" class="node"><title>Node14</title>
<g id="a_node14"><a xlink:href="TrendingTaskITSFhr_8h.html" target="_top" xlink:title="Modules/ITS/include\l/ITS/TrendingTaskITSFhr.h">
<polygon fill="none" stroke="black" points="1251,-73 1251,-103 1387,-103 1387,-73 1251,-73"/>
<text text-anchor="start" x="1259" y="-91" font-family="Helvetica,sans-Serif" font-size="10.00">Modules/ITS/include</text>
<text text-anchor="middle" x="1319" y="-80" font-family="Helvetica,sans-Serif" font-size="10.00">/ITS/TrendingTaskITSFhr.h</text>
</a>
</g>
</g>
<!-- Node2&#45;&gt;Node14 -->
<g id="edge13" class="edge"><title>Node2&#45;&gt;Node14</title>
<path fill="none" stroke="midnightblue" d="M1078.11,-143.481C1125.89,-134.013 1186.96,-121.467 1241,-109 1249.04,-107.146 1257.51,-105.084 1265.8,-103.009"/>
<polygon fill="midnightblue" stroke="midnightblue" points="1077.26,-140.082 1068.13,-145.454 1078.62,-146.949 1077.26,-140.082"/>
</g>
<!-- Node16 -->
<g id="node16" class="node"><title>Node16</title>
<g id="a_node16"><a xlink:href="TrendingTaskITSThr_8h.html" target="_top" xlink:title="Modules/ITS/include\l/ITS/TrendingTaskITSThr.h">
<polygon fill="none" stroke="black" points="1405,-73 1405,-103 1541,-103 1541,-73 1405,-73"/>
<text text-anchor="start" x="1413" y="-91" font-family="Helvetica,sans-Serif" font-size="10.00">Modules/ITS/include</text>
<text text-anchor="middle" x="1473" y="-80" font-family="Helvetica,sans-Serif" font-size="10.00">/ITS/TrendingTaskITSThr.h</text>
</a>
</g>
</g>
<!-- Node2&#45;&gt;Node16 -->
<g id="edge15" class="edge"><title>Node2&#45;&gt;Node16</title>
<path fill="none" stroke="midnightblue" d="M1088.75,-144.803C1225.73,-126.6 1263.28,-133.844 1396,-109 1404.82,-107.348 1414.13,-105.246 1423.11,-103.028"/>
<polygon fill="midnightblue" stroke="midnightblue" points="1088.16,-141.352 1078.72,-146.159 1089.09,-148.289 1088.16,-141.352"/>
</g>
<!-- Node18 -->
<g id="node18" class="node"><title>Node18</title>
<g id="a_node18"><a xlink:href="SkeletonPostProcessing_8h.html" target="_top" xlink:title="Modules/Skeleton/include\l/Skeleton/SkeletonPostProcessing.h">
<polygon fill="none" stroke="black" points="1559,-73 1559,-103 1735,-103 1735,-73 1559,-73"/>
<text text-anchor="start" x="1567" y="-91" font-family="Helvetica,sans-Serif" font-size="10.00">Modules/Skeleton/include</text>
<text text-anchor="middle" x="1647" y="-80" font-family="Helvetica,sans-Serif" font-size="10.00">/Skeleton/SkeletonPostProcessing.h</text>
</a>
</g>
</g>
<!-- Node2&#45;&gt;Node18 -->
<g id="edge17" class="edge"><title>Node2&#45;&gt;Node18</title>
<path fill="none" stroke="midnightblue" d="M1088.89,-144.841C1293.76,-121.45 1348.93,-137.431 1550,-109 1561.32,-107.399 1573.31,-105.28 1584.85,-103.021"/>
<polygon fill="midnightblue" stroke="midnightblue" points="1088.23,-141.393 1078.7,-146.022 1089.03,-148.347 1088.23,-141.393"/>
</g>
<!-- Node20 -->
<g id="node20" class="node"><title>Node20</title>
<g id="a_node20"><a xlink:href="PostProcessDiagnosticPerCrate_8h.html" target="_top" xlink:title="Post processing to rearrange TOF information at the level of the crate (maybe we should do the opposi...">
<polygon fill="none" stroke="black" points="1753.5,-67.5 1753.5,-108.5 1898.5,-108.5 1898.5,-67.5 1753.5,-67.5"/>
<text text-anchor="start" x="1761.5" y="-96.5" font-family="Helvetica,sans-Serif" font-size="10.00">Modules/TOF/include</text>
<text text-anchor="start" x="1761.5" y="-85.5" font-family="Helvetica,sans-Serif" font-size="10.00">/TOF/PostProcessDiagnostic</text>
<text text-anchor="middle" x="1826" y="-74.5" font-family="Helvetica,sans-Serif" font-size="10.00">PerCrate.h</text>
</a>
</g>
</g>
<!-- Node2&#45;&gt;Node20 -->
<g id="edge19" class="edge"><title>Node2&#45;&gt;Node20</title>
<path fill="none" stroke="midnightblue" d="M1088.68,-144.897C1379.57,-115.031 1457.96,-151.349 1744,-109 1747.04,-108.549 1750.14,-108.038 1753.26,-107.479"/>
<polygon fill="midnightblue" stroke="midnightblue" points="1088.27,-141.421 1078.69,-145.94 1089,-148.383 1088.27,-141.421"/>
</g>
<!-- Node4 -->
<g id="node4" class="node"><title>Node4</title>
<g id="a_node4"><a xlink:href="PostProcessingDevice_8cxx.html" target="_top" xlink:title="Framework/src/PostProcessing\lDevice.cxx">
<polygon fill="none" stroke="black" points="752,-0.5 752,-30.5 906,-30.5 906,-0.5 752,-0.5"/>
<text text-anchor="start" x="760" y="-18.5" font-family="Helvetica,sans-Serif" font-size="10.00">Framework/src/PostProcessing</text>
<text text-anchor="middle" x="829" y="-7.5" font-family="Helvetica,sans-Serif" font-size="10.00">Device.cxx</text>
</a>
</g>
</g>
<!-- Node3&#45;&gt;Node4 -->
<g id="edge3" class="edge"><title>Node3&#45;&gt;Node4</title>
<path fill="none" stroke="midnightblue" d="M655.181,-70.0119C694.344,-57.9551 746.299,-41.9604 783.178,-30.6069"/>
<polygon fill="midnightblue" stroke="midnightblue" points="654.044,-66.6997 645.517,-72.9872 656.104,-73.3899 654.044,-66.6997"/>
</g>
<!-- Node5 -->
<g id="node5" class="node"><title>Node5</title>
<polygon fill="none" stroke="#bfbfbf" points="0,-0.5 0,-30.5 154,-30.5 154,-0.5 0,-0.5"/>
<text text-anchor="start" x="8" y="-18.5" font-family="Helvetica,sans-Serif" font-size="10.00">Framework/src/PostProcessing</text>
<text text-anchor="middle" x="77" y="-7.5" font-family="Helvetica,sans-Serif" font-size="10.00">Runner.cxx</text>
</g>
<!-- Node3&#45;&gt;Node5 -->
<g id="edge4" class="edge"><title>Node3&#45;&gt;Node5</title>
<path fill="none" stroke="midnightblue" d="M509.726,-76.4894C421.259,-65.94 282.661,-48.7477 163,-31 160.154,-30.5779 157.257,-30.1386 154.332,-29.687"/>
<polygon fill="midnightblue" stroke="midnightblue" points="509.383,-79.9732 519.727,-77.6791 510.21,-73.0223 509.383,-79.9732"/>
</g>
<!-- Node6 -->
<g id="node6" class="node"><title>Node6</title>
<g id="a_node6"><a xlink:href="runPostProcessing_8cxx.html" target="_top" xlink:title="This is a standalone executable to run postprocessing. ">
<polygon fill="none" stroke="black" points="172,-6 172,-25 358,-25 358,-6 172,-6"/>
<text text-anchor="middle" x="265" y="-13" font-family="Helvetica,sans-Serif" font-size="10.00">Framework/src/runPostProcessing.cxx</text>
</a>
</g>
</g>
<!-- Node3&#45;&gt;Node6 -->
<g id="edge5" class="edge"><title>Node3&#45;&gt;Node6</title>
<path fill="none" stroke="midnightblue" d="M523.221,-70.842C455.515,-56.5934 359.489,-36.3849 305.651,-25.055"/>
<polygon fill="midnightblue" stroke="midnightblue" points="522.908,-74.3527 533.414,-72.9872 524.349,-67.5028 522.908,-74.3527"/>
</g>
<!-- Node7 -->
<g id="node7" class="node"><title>Node7</title>
<g id="a_node7"><a xlink:href="runPostProcessingOCC_8cxx.html" target="_top" xlink:title="This is an OCC executable to run postprocessing. ">
<polygon fill="none" stroke="black" points="375.5,-0.5 375.5,-30.5 542.5,-30.5 542.5,-0.5 375.5,-0.5"/>
<text text-anchor="start" x="383.5" y="-18.5" font-family="Helvetica,sans-Serif" font-size="10.00">Framework/src/runPostProcessing</text>
<text text-anchor="middle" x="459" y="-7.5" font-family="Helvetica,sans-Serif" font-size="10.00">OCC.cxx</text>
</a>
</g>
</g>
<!-- Node3&#45;&gt;Node7 -->
<g id="edge6" class="edge"><title>Node3&#45;&gt;Node7</title>
<path fill="none" stroke="midnightblue" d="M562.746,-68.373C539.045,-56.5226 508.843,-41.4215 487.146,-30.5729"/>
<polygon fill="midnightblue" stroke="midnightblue" points="561.296,-71.561 571.805,-72.9027 564.426,-65.3 561.296,-71.561"/>
</g>
<!-- Node8 -->
<g id="node8" class="node"><title>Node8</title>
<g id="a_node8"><a xlink:href="testPostProcessingRunner_8cxx.html" target="_top" xlink:title="Framework/test/testPostProcessing\lRunner.cxx">
<polygon fill="none" stroke="black" points="560.5,-0.5 560.5,-30.5 733.5,-30.5 733.5,-0.5 560.5,-0.5"/>
<text text-anchor="start" x="568.5" y="-18.5" font-family="Helvetica,sans-Serif" font-size="10.00">Framework/test/testPostProcessing</text>
<text text-anchor="middle" x="647" y="-7.5" font-family="Helvetica,sans-Serif" font-size="10.00">Runner.cxx</text>
</a>
</g>
</g>
<!-- Node3&#45;&gt;Node8 -->
<g id="edge7" class="edge"><title>Node3&#45;&gt;Node8</title>
<path fill="none" stroke="midnightblue" d="M615.077,-64.3852C622.439,-53.342 631.072,-40.392 637.503,-30.7455"/>
<polygon fill="midnightblue" stroke="midnightblue" points="612.146,-62.4713 609.511,-72.7333 617.97,-66.3542 612.146,-62.4713"/>
</g>
<!-- Node10 -->
<g id="node10" class="node"><title>Node10</title>
<g id="a_node10"><a xlink:href="TrendingTask_8cxx.html" target="_top" xlink:title="Framework/src/TrendingTask.cxx">
<polygon fill="none" stroke="black" points="1084.5,-6 1084.5,-25 1247.5,-25 1247.5,-6 1084.5,-6"/>
<text text-anchor="middle" x="1166" y="-13" font-family="Helvetica,sans-Serif" font-size="10.00">Framework/src/TrendingTask.cxx</text>
</a>
</g>
</g>
<!-- Node9&#45;&gt;Node10 -->
<g id="edge9" class="edge"><title>Node9&#45;&gt;Node10</title>
<path fill="none" stroke="midnightblue" d="M1166,-62.5913C1166,-49.7136 1166,-34.6974 1166,-25.3932"/>
<polygon fill="midnightblue" stroke="midnightblue" points="1162.5,-62.7332 1166,-72.7333 1169.5,-62.7333 1162.5,-62.7332"/>
</g>
<!-- Node9&#45;&gt;Node11 -->
<g id="edge10" class="edge"><title>Node9&#45;&gt;Node11</title>
<path fill="none" stroke="midnightblue" d="M1122.34,-68.9991C1093.38,-57.0585 1055.91,-41.6135 1029.13,-30.5729"/>
<polygon fill="midnightblue" stroke="midnightblue" points="1121.23,-72.3269 1131.81,-72.9027 1123.9,-65.8553 1121.23,-72.3269"/>
</g>
<!-- Node15 -->
<g id="node15" class="node"><title>Node15</title>
<g id="a_node15"><a xlink:href="TrendingTaskITSFhr_8cxx.html" target="_top" xlink:title="Modules/ITS/src/Trending\lTaskITSFhr.cxx">
<polygon fill="none" stroke="black" points="1265.5,-0.5 1265.5,-30.5 1394.5,-30.5 1394.5,-0.5 1265.5,-0.5"/>
<text text-anchor="start" x="1273.5" y="-18.5" font-family="Helvetica,sans-Serif" font-size="10.00">Modules/ITS/src/Trending</text>
<text text-anchor="middle" x="1330" y="-7.5" font-family="Helvetica,sans-Serif" font-size="10.00">TaskITSFhr.cxx</text>
</a>
</g>
</g>
<!-- Node14&#45;&gt;Node15 -->
<g id="edge14" class="edge"><title>Node14&#45;&gt;Node15</title>
<path fill="none" stroke="midnightblue" d="M1322.79,-62.7317C1324.45,-52.0679 1326.35,-39.9145 1327.78,-30.7455"/>
<polygon fill="midnightblue" stroke="midnightblue" points="1319.31,-62.3132 1321.23,-72.7333 1326.23,-63.3924 1319.31,-62.3132"/>
</g>
<!-- Node17 -->
<g id="node17" class="node"><title>Node17</title>
<g id="a_node17"><a xlink:href="TrendingTaskITSThr_8cxx.html" target="_top" xlink:title="Modules/ITS/src/Trending\lTaskITSThr.cxx">
<polygon fill="none" stroke="black" points="1412.5,-0.5 1412.5,-30.5 1541.5,-30.5 1541.5,-0.5 1412.5,-0.5"/>
<text text-anchor="start" x="1420.5" y="-18.5" font-family="Helvetica,sans-Serif" font-size="10.00">Modules/ITS/src/Trending</text>
<text text-anchor="middle" x="1477" y="-7.5" font-family="Helvetica,sans-Serif" font-size="10.00">TaskITSThr.cxx</text>
</a>
</g>
</g>
<!-- Node16&#45;&gt;Node17 -->
<g id="edge16" class="edge"><title>Node16&#45;&gt;Node17</title>
<path fill="none" stroke="midnightblue" d="M1474.38,-62.7317C1474.98,-52.0679 1475.67,-39.9145 1476.19,-30.7455"/>
<polygon fill="midnightblue" stroke="midnightblue" points="1470.88,-62.551 1473.81,-72.7333 1477.87,-62.9476 1470.88,-62.551"/>
</g>
<!-- Node19 -->
<g id="node19" class="node"><title>Node19</title>
<polygon fill="none" stroke="#bfbfbf" points="1574,-0.5 1574,-30.5 1720,-30.5 1720,-0.5 1574,-0.5"/>
<text text-anchor="start" x="1582" y="-18.5" font-family="Helvetica,sans-Serif" font-size="10.00">Modules/Skeleton/src</text>
<text text-anchor="middle" x="1647" y="-7.5" font-family="Helvetica,sans-Serif" font-size="10.00">/SkeletonPostProcessing.cxx</text>
</g>
<!-- Node18&#45;&gt;Node19 -->
<g id="edge18" class="edge"><title>Node18&#45;&gt;Node19</title>
<path fill="none" stroke="midnightblue" d="M1647,-62.7317C1647,-52.0679 1647,-39.9145 1647,-30.7455"/>
<polygon fill="midnightblue" stroke="midnightblue" points="1643.5,-62.7332 1647,-72.7333 1650.5,-62.7333 1643.5,-62.7332"/>
</g>
<!-- Node21 -->
<g id="node21" class="node"><title>Node21</title>
<g id="a_node21"><a xlink:href="PostProcessDiagnosticPerCrate_8cxx.html" target="_top" xlink:title="Post processing to rearrange TOF information at the level of the crate (maybe we should do the opposi...">
<polygon fill="none" stroke="black" points="1750,-0.5 1750,-30.5 1902,-30.5 1902,-0.5 1750,-0.5"/>
<text text-anchor="start" x="1758" y="-18.5" font-family="Helvetica,sans-Serif" font-size="10.00">Modules/TOF/src/PostProcess</text>
<text text-anchor="middle" x="1826" y="-7.5" font-family="Helvetica,sans-Serif" font-size="10.00">DiagnosticPerCrate.cxx</text>
</a>
</g>
</g>
<!-- Node20&#45;&gt;Node21 -->
<g id="edge20" class="edge"><title>Node20&#45;&gt;Node21</title>
<path fill="none" stroke="midnightblue" d="M1826,-57.08C1826,-48.0061 1826,-38.4498 1826,-30.8916"/>
<polygon fill="midnightblue" stroke="midnightblue" points="1822.5,-57.3618 1826,-67.3618 1829.5,-57.3619 1822.5,-57.3618"/>
</g>
<!-- Node22&#45;&gt;Node5 -->
<g id="edge23" class="edge"><title>Node22&#45;&gt;Node5</title>
<path fill="none" stroke="midnightblue" d="M231.518,-137.128C213.75,-113.397 186.241,-77.859 173,-67 154.653,-51.9532 131.11,-39.4845 111.931,-30.7012"/>
<polygon fill="midnightblue" stroke="midnightblue" points="228.8,-139.338 237.579,-145.269 234.415,-135.158 228.8,-139.338"/>
</g>
<!-- Node23 -->
<g id="node23" class="node"><title>Node23</title>
<g id="a_node23"><a xlink:href="TriggerHelpers_8cxx.html" target="_top" xlink:title="Framework/src/TriggerHelpers.cxx">
<polygon fill="none" stroke="black" points="219.5,-78.5 219.5,-97.5 386.5,-97.5 386.5,-78.5 219.5,-78.5"/>
<text text-anchor="middle" x="303" y="-85.5" font-family="Helvetica,sans-Serif" font-size="10.00">Framework/src/TriggerHelpers.cxx</text>
</a>
</g>
</g>
<!-- Node22&#45;&gt;Node23 -->
<g id="edge24" class="edge"><title>Node22&#45;&gt;Node23</title>
<path fill="none" stroke="midnightblue" d="M265.549,-137.006C275.906,-123.73 288.441,-107.663 296.062,-97.8932"/>
<polygon fill="midnightblue" stroke="midnightblue" points="262.522,-135.196 259.13,-145.233 268.041,-139.502 262.522,-135.196"/>
</g>
<!-- Node24 -->
<g id="node24" class="node"><title>Node24</title>
<g id="a_node24"><a xlink:href="testTriggerHelpers_8cxx.html" target="_top" xlink:title="Framework/test/testTrigger\lHelpers.cxx">
<polygon fill="none" stroke="black" points="30,-73 30,-103 164,-103 164,-73 30,-73"/>
<text text-anchor="start" x="38" y="-91" font-family="Helvetica,sans-Serif" font-size="10.00">Framework/test/testTrigger</text>
<text text-anchor="middle" x="97" y="-80" font-family="Helvetica,sans-Serif" font-size="10.00">Helpers.cxx</text>
</a>
</g>
</g>
<!-- Node22&#45;&gt;Node24 -->
<g id="edge25" class="edge"><title>Node22&#45;&gt;Node24</title>
<path fill="none" stroke="midnightblue" d="M208.44,-141.03C183.009,-129.156 150.481,-113.97 127.142,-103.073"/>
<polygon fill="midnightblue" stroke="midnightblue" points="207.264,-144.344 217.806,-145.403 210.225,-138.001 207.264,-144.344"/>
</g>
</g>
</svg>
